<svg xmlns="http://www.w3.org/2000/svg" viewBox="0 0 638.96077 382.13415">
<defs>
<linearGradient x2="1" gradientUnits="userSpaceOnUse" gradientTransform="matrix(870.52682 -64.40022 57.06191 982.47872 172.08 892.953)" id="F">
<stop offset="0" stop-color="#898a8f"/>
<stop offset=".572" stop-color="#dbdde0"/>
<stop offset="1" stop-color="#dbdde0"/>
</linearGradient>
<linearGradient x2="1" gradientUnits="userSpaceOnUse" gradientTransform="matrix(870.61276 -64.40657 57.06754 982.57561 172 894.593)" id="E">
<stop offset="0" stop-color="#78797d"/>
<stop offset=".199" stop-color="#78797d"/>
<stop offset=".491" stop-color="#6d6f73"/>
<stop offset=".824" stop-color="#6d6f73"/>
<stop offset="1" stop-color="#6d6f73"/>
</linearGradient>
<mask maskUnits="userSpaceOnUse" x="0" y="0" width="1" height="1" id="C">
<path d="M-32768 32767h65535v-65534h-65535v65534z" fill="url(#a)"/>
</mask>
<linearGradient x2="1" gradientUnits="userSpaceOnUse" gradientTransform="matrix(136.52051 0 0 -136.52051 340.417 195.875)" id="a">
<stop offset="0" stop-opacity="0" stop-color="#fff"/>
<stop offset=".006" stop-opacity="0" stop-color="#fff"/>
<stop offset=".446" stop-color="#fff"/>
<stop offset=".509" stop-color="#fff"/>
<stop offset="1" stop-opacity="0" stop-color="#fff"/>
</linearGradient>
<linearGradient x2="1" gradientUnits="userSpaceOnUse" gradientTransform="matrix(672.53439 0 0 -769.38021 1611.224 -1984.096)" id="D">
<stop offset="0" stop-color="#fff"/>
<stop offset=".006" stop-color="#fff"/>
<stop offset=".446" stop-color="#fff"/>
<stop offset=".509" stop-color="#fff"/>
<stop offset="1" stop-color="#fff"/>
</linearGradient>
<clipPath id="z">
<path d="M340.27 220.034C328.33 207.87 309.754 197 340.417 196h59.169c-6.743 15-28.28 27.029-55.074 29.651-1.227-2.085-2.629-3.972-4.242-5.617"/>
</clipPath>
<mask maskUnits="userSpaceOnUse" x="0" y="0" width="1" height="1" id="A">
<path d="M-32767 32767h65534v-65534h-65534v65534z" fill="url(#b)"/>
</mask>
<radialGradient fx="0" fy="0" cx="0" cy="0" r="1" gradientUnits="userSpaceOnUse" gradientTransform="rotate(51.659 -8.858 420.882) scale(64.18823)" spreadMethod="pad" id="b">
<stop offset="0" stop-color="#fff"/>
<stop offset=".737" stop-opacity="0" stop-color="#fff"/>
<stop offset="1" stop-opacity="0" stop-color="#fff"/>
</radialGradient>
<radialGradient fx="0" fy="0" cx="0" cy="0" r="1" gradientUnits="userSpaceOnUse" gradientTransform="matrix(196.15532 283.72658 -248.01244 224.40195 1543.863 -2148.465)" spreadMethod="pad" id="B">
<stop offset="0" stop-color="#fff"/>
<stop offset=".737" stop-color="#fff"/>
<stop offset="1" stop-color="#fff"/>
</radialGradient>
<clipPath id="w">
<path d="M419.461 196h59.167c30.662 1 12.087 11.87.147 24.034-1.614 1.645-3.015 3.532-4.243 5.617C447.739 223.029 426.204 211 419.461 196"/>
</clipPath>
<mask maskUnits="userSpaceOnUse" x="0" y="0" width="1" height="1" id="x">
<path d="M-32767 32767h65534v-65534h-65534v65534z" fill="url(#c)"/>
</mask>
<radialGradient fx="0" fy="0" cx="0" cy="0" r="1" gradientUnits="userSpaceOnUse" gradientTransform="scale(-64.18823 64.18823) rotate(51.659 -6.518 -6.624)" spreadMethod="pad" id="c">
<stop offset="0" stop-color="#fff"/>
<stop offset=".737" stop-opacity="0" stop-color="#fff"/>
<stop offset="1" stop-opacity="0" stop-color="#fff"/>
</radialGradient>
<radialGradient fx="0" fy="0" cx="0" cy="0" r="1" gradientUnits="userSpaceOnUse" gradientTransform="matrix(-196.15532 283.72658 248.01244 224.40195 2359.441 -2148.465)" spreadMethod="pad" id="y">
<stop offset="0" stop-color="#fff"/>
<stop offset=".737" stop-color="#fff"/>
<stop offset="1" stop-color="#fff"/>
</radialGradient>
<linearGradient x2="1" gradientUnits="userSpaceOnUse" gradientTransform="matrix(0 124.8886 110.65774 0 588.728 894.943)" id="v">
<stop offset="0" stop-color="#6d6f73"/>
<stop offset=".085" stop-color="#6d6f73"/>
<stop offset=".196" stop-color="#e0e1e2"/>
<stop offset=".212" stop-color="#e0e1e2"/>
<stop offset=".315" stop-color="#a7a9ac"/>
<stop offset=".326" stop-color="#a7a9ac"/>
<stop offset=".461" stop-color="#7e8083"/>
<stop offset=".517" stop-color="#7e8083"/>
<stop offset=".739" stop-color="#a6aaad"/>
<stop offset="1" stop-color="#a6aaad"/>
</linearGradient>
<linearGradient x2="1" gradientUnits="userSpaceOnUse" gradientTransform="matrix(253.30605 0 0 285.88185 464.895 1001.837)" id="u">
<stop offset="0" stop-color="#58595b"/>
<stop offset=".006" stop-color="#58595b"/>
<stop offset=".446" stop-color="#88898d"/>
<stop offset=".509" stop-color="#88898d"/>
<stop offset="1" stop-color="#58595b"/>
</linearGradient>
<clipPath id="n">
<path d="M0 800h800V0H0v800z"/>
</clipPath>
<clipPath id="p">
<path d="M571.333 638h96.157s18.427-.14 16.427-18.917L683.333 307H373.592"/>
</clipPath>
<mask maskUnits="userSpaceOnUse" x="0" y="0" width="1" height="1" id="o">
<path d="M-32768 32767h65535v-65534h-65535v65534z" fill="url(#d)"/>
</mask>
<linearGradient x2="1" gradientUnits="userSpaceOnUse" gradientTransform="matrix(310.47656 0 0 -310.47656 373.592 472.5)" id="d">
<stop offset="0" stop-opacity="0" stop-color="#fff"/>
<stop offset=".375" stop-opacity="0" stop-color="#fff"/>
<stop offset="1" stop-color="#fff"/>
</linearGradient>
<linearGradient x2="1" gradientUnits="userSpaceOnUse" gradientTransform="matrix(1529.4857 0 0 -1749.7337 1774.65 -425.138)" id="q">
<stop offset="0" stop-color="#fff"/>
<stop offset=".375" stop-color="#fff"/>
<stop offset="1" stop-color="#fff"/>
</linearGradient>
<mask maskUnits="userSpaceOnUse" x="0" y="0" width="1" height="1" id="s">
<g clip-path="url(#e)" opacity=".33">
<path d="M269.594 207.854h278.538v-24.867H269.594v24.867z"/>
<g clip-path="url(#f)">
<path d="M548.132 195.42c0-6.872-62.353-12.434-139.27-12.434-76.921 0-139.268 5.562-139.268 12.434 0 6.872 62.347 12.434 139.268 12.434 76.917 0 139.27-5.562 139.27-12.434" fill="url(#g)"/>
</g>
</g>
</mask>
<clipPath id="e">
<path d="M269.594 207.854h278.538v-24.868H269.594v24.868z"/>
</clipPath>
<clipPath id="f">
<path d="M269.594 207.854h278.538v-24.868H269.594v24.868z"/>
</clipPath>
<radialGradient fx="0" fy="0" cx="0" cy="0" r="1" gradientUnits="userSpaceOnUse" gradientTransform="matrix(139.24902 0 0 -12.43536 408.863 195.42)" spreadMethod="pad" id="g">
<stop offset="0" stop-color="#fff"/>
<stop offset="1" stop-color="#14130a"/>
</radialGradient>
<clipPath id="r">
<path d="M269.594 207.854h278.538v-24.868H269.594v24.868z"/>
</clipPath>
<linearGradient x2="1" gradientUnits="userSpaceOnUse" gradientTransform="matrix(-.34735 138.81595 121.34247 .39737 1948.58 -2056.572)" id="t">
<stop offset="0" stop-color="#4d4848"/>
<stop offset=".354" stop-color="#14130a"/>
<stop offset="1" stop-color="#14130a"/>
</linearGradient>
<linearGradient x2="1" gradientUnits="userSpaceOnUse" gradientTransform="matrix(271.86651 0 0 271.85292 609.464 707.422)" id="K">
<stop offset="0" stop-color="#aaacae"/>
<stop offset=".1" stop-color="#f1f2f2"/>
<stop offset=".26" stop-color="#dddedf"/>
<stop offset=".411" stop-color="#dddedf"/>
<stop offset=".49" stop-color="#dddedf"/>
<stop offset=".712" stop-color="#e7e8e9"/>
<stop offset=".788" stop-color="#e7e8e9"/>
<stop offset="1" stop-color="#96989b"/>
</linearGradient>
<linearGradient x2="1" gradientUnits="userSpaceOnUse" gradientTransform="matrix(1393.7156 0 0 2774.4228 3738.523 7032.523)" id="J">
<stop offset="0" stop-color="#aaacae"/>
<stop offset=".1" stop-color="#f1f2f2"/>
<stop offset=".26" stop-color="#dddedf"/>
<stop offset=".411" stop-color="#dddedf"/>
<stop offset=".49" stop-color="#dddedf"/>
<stop offset=".712" stop-color="#e7e8e9"/>
<stop offset=".788" stop-color="#e7e8e9"/>
<stop offset="1" stop-color="#96989b"/>
</linearGradient>
<clipPath id="L">
<path d="M0 980h1400V0H0v980z"/>
</clipPath>
<clipPath id="G">
<path d="M802.432 670.854h12.628v65.128h-12.628v-65.128z"/>
</clipPath>
<mask maskUnits="userSpaceOnUse" x="0" y="0" width="1" height="1" id="H">
<path d="M-32768 32767h65535v-65534h-65535v65534z" fill="url(#h)"/>
</mask>
<linearGradient x2="1" gradientUnits="userSpaceOnUse" gradientTransform="matrix(0 -65.12793 -65.12793 0 808.746 735.982)" id="h">
<stop offset="0" stop-opacity="0" stop-color="#fff"/>
<stop offset=".132" stop-opacity="0" stop-color="#fff"/>
<stop offset=".5" stop-color="#fff"/>
<stop offset=".868" stop-opacity="0" stop-color="#fff"/>
<stop offset="1" stop-opacity="0" stop-color="#fff"/>
</linearGradient>
<linearGradient x2="1" gradientUnits="userSpaceOnUse" gradientTransform="matrix(0 -770.99044 387.3027 0 3915.192 -1018.13)" id="I">
<stop offset="0" stop-color="#00b0f0"/>
<stop offset=".132" stop-color="#00b0f0"/>
<stop offset=".5" stop-color="#00b0f0"/>
<stop offset=".868" stop-color="#00b0f0"/>
<stop offset="1" stop-color="#00b0f0"/>
</linearGradient>
<clipPath id="M">
<path d="M0 980h1400V0H0v980z"/>
</clipPath>
<clipPath id="N">
<path d="M715 341.573l-217.49-131.1V145.6L715 276.701v64.872z"/>
</clipPath>
<mask maskUnits="userSpaceOnUse" x="0" y="0" width="1" height="1" id="O">
<path d="M-32768 32767h65535v-65534h-65535v65534z" fill="url(#i)"/>
</mask>
<linearGradient x2="1" gradientUnits="userSpaceOnUse" gradientTransform="matrix(217.49023 0 0 -217.49023 497.51 243.587)" id="i">
<stop offset="0" stop-opacity="0" stop-color="#fff"/>
<stop offset=".5" stop-color="#fff"/>
<stop offset="1" stop-opacity="0" stop-color="#fff"/>
</linearGradient>
<linearGradient x2="1" gradientUnits="userSpaceOnUse" gradientTransform="matrix(1293.3707 0 0 -2574.6695 2061.31 -6922.92)" id="P">
<stop offset="0" stop-color="#fff"/>
<stop offset=".5" stop-color="#fff"/>
<stop offset="1" stop-color="#fff"/>
</linearGradient>
<clipPath id="Q">
<path d="M715 675.979L497.51 544.878v-34.556L715 641.422v34.557z"/>
</clipPath>
<mask maskUnits="userSpaceOnUse" x="0" y="0" width="1" height="1" id="R">
<path d="M-32768 32767h65535v-65534h-65535v65534z" fill="url(#j)"/>
</mask>
<linearGradient x2="1" gradientUnits="userSpaceOnUse" gradientTransform="matrix(217.49023 0 0 -217.49023 497.51 593.15)" id="j">
<stop offset="0" stop-opacity="0" stop-color="#fff"/>
<stop offset=".5" stop-color="#fff"/>
<stop offset="1" stop-opacity="0" stop-color="#fff"/>
</linearGradient>
<linearGradient x2="1" gradientUnits="userSpaceOnUse" gradientTransform="matrix(1293.3707 0 0 -2574.6695 2061.31 -2784.748)" id="S">
<stop offset="0" stop-color="#fff"/>
<stop offset=".5" stop-color="#fff"/>
<stop offset="1" stop-color="#fff"/>
</linearGradient>
<clipPath id="T">
<path d="M715 732.945L497.51 601.844V581.19L715 712.291v20.654z"/>
</clipPath>
<mask maskUnits="userSpaceOnUse" x="0" y="0" width="1" height="1" id="U">
<path d="M-32768 32767h65535v-65534h-65535v65534z" fill="url(#k)"/>
</mask>
<linearGradient x2="1" gradientUnits="userSpaceOnUse" gradientTransform="matrix(217.49023 0 0 -217.49023 497.51 657.067)" id="k">
<stop offset="0" stop-opacity="0" stop-color="#fff"/>
<stop offset=".5" stop-color="#fff"/>
<stop offset="1" stop-opacity="0" stop-color="#fff"/>
</linearGradient>
<linearGradient x2="1" gradientUnits="userSpaceOnUse" gradientTransform="matrix(1293.3707 0 0 -2574.6695 2061.31 -2028.093)" id="V">
<stop offset="0" stop-color="#fff"/>
<stop offset=".5" stop-color="#fff"/>
<stop offset="1" stop-color="#fff"/>
</linearGradient>
<clipPath id="W">
<path d="M902.491 598.788L715 485.771v-64.873l187.491 113.017v64.873z"/>
</clipPath>
<mask maskUnits="userSpaceOnUse" x="0" y="0" width="1" height="1" id="X">
<path d="M-32768 32767h65535v-65534h-65535v65534z" fill="url(#l)"/>
</mask>
<linearGradient x2="1" gradientUnits="userSpaceOnUse" gradientTransform="matrix(187.49121 0 0 -187.49121 715 509.843)" id="l">
<stop offset="0" stop-opacity="0" stop-color="#fff"/>
<stop offset=".5" stop-color="#fff"/>
<stop offset="1" stop-opacity="0" stop-color="#fff"/>
</linearGradient>
<linearGradient x2="1" gradientUnits="userSpaceOnUse" gradientTransform="matrix(1114.9725 0 0 -2219.5383 3354.68 -3770.956)" id="Y">
<stop offset="0" stop-color="#fff"/>
<stop offset=".5" stop-color="#fff"/>
<stop offset="1" stop-color="#fff"/>
</linearGradient>
<clipPath id="Z">
<path d="M902.491 213.367L715 100.35V56.655l187.491 113.017v43.695z"/>
</clipPath>
<mask maskUnits="userSpaceOnUse" x="0" y="0" width="1" height="1" id="aa">
<path d="M-32768 32767h65535v-65534h-65535v65534z" fill="url(#m)"/>
</mask>
<linearGradient x2="1" gradientUnits="userSpaceOnUse" gradientTransform="matrix(187.49121 0 0 -187.49121 715 135.011)" id="m">
<stop offset="0" stop-opacity="0" stop-color="#fff"/>
<stop offset=".5" stop-color="#fff"/>
<stop offset="1" stop-opacity="0" stop-color="#fff"/>
</linearGradient>
<linearGradient x2="1" gradientUnits="userSpaceOnUse" gradientTransform="matrix(1114.9725 0 0 -2219.5383 3354.68 -8208.241)" id="ab">
<stop offset="0" stop-color="#fff"/>
<stop offset=".5" stop-color="#fff"/>
<stop offset="1" stop-color="#fff"/>
</linearGradient>
</defs>
<path d="M372.145 143.874l-.182 15.4 54.483.404s.462 25.45.37 38.052c-.093 12.605 4.58 16.534 14.437 16.473 6.337-.04 23.218.165 30.04.234 12.523.127 15.075-4.553 15.031-16.726-.045-12.78-.01-20.535-.01-20.535l58.492.525.038-16.493s-41.553.287-59.375.073c-13.33-.161-14.22 4.455-14.059 14.673.137 8.616-.022 11.376-.13 22.229-9.614.066-27.763.237-27.763.237s-.146-27.67-.332-42.427c-.143-11.405-1.066-12.373-11.63-12.404-27.403.309-59.41.285-59.41.285z" fill="#8ad0f0"/>
<path d="M347.614 179.674l.318 35.894s27.43-.037 49.53.16c15.578.138 16.848 2.105 16.755 12.565-.125 14.157.243 30.591.243 30.591l97.027-.221s-.079-10.08-.05-21.181c.015-5.584 5.466-9.716 14.058-10.026 6.566-.237 19.867-.25 19.867-.25l.334 17.034-19.263.73s.527 10.583.442 17.563c-.115 8.74-3.953 11.045-14.253 10.84-21.067-.416-74.694-.517-98.49-.288-11.78.113-16.916-1.947-16.99-18.063.377-13.608.16-23.62.16-23.62s-29.3-.119-50.161-.212c-12.944-.058-16.475 2.696-16.394-20.83.08-23.3.717-30.385.717-30.385z" fill="#917c6f" fill-opacity=".941"/>
<path d="M365.812 68.11c-11.006-.184-15.203 4.806-15.34 13.25.216 36.508.542 27.03.542 27.03l14.83-.618s-.104 13.837.02-23.098l32.393-.192s.062 13.205.07 20.207c.01 8.453 3.347 11.086 16.494 11.113 38.384.076 120.6.198 128.506.122l-.098-16.18c-25.601-.31-128.818-.86-128.81-.87 0 0-.227-11.608-.177-19.745.028-4.648-2.026-10.938-9.12-10.99-18.96-.024-52.414-.03-39.31-.03z" fill="#00a79d"/>
<text y="43.594" x="86.409" style="line-height:125%" transform="scale(.88454 1.13053)" font-weight="400" font-size="12.634" letter-spacing="0" word-spacing="0" font-family="sans-serif">
<tspan y="43.594" x="86.409">
Demand Planning</tspan>
</text>
<text y="88.163" x="95.469" style="line-height:125%" transform="scale(.88454 1.13053)" font-weight="400" font-size="12.634" letter-spacing="0" word-spacing="0" font-family="sans-serif">
<tspan y="88.163" x="95.469">
IFD</tspan>
</text>
<text y="136.557" x="79.1" style="line-height:125%" transform="scale(.88454 1.13053)" font-weight="400" font-size="12.634" letter-spacing="0" word-spacing="0" font-family="sans-serif">
<tspan y="136.557" x="79.1">
Optimum Touch</tspan>
</text>
<text y="232.996" x="618.796" style="line-height:125%" transform="scale(.88454 1.13053)" font-weight="400" font-size="12.634" letter-spacing="0" word-spacing="0" font-family="sans-serif">
<tspan y="232.996" x="618.796">
BPR/DSC</tspan>
</text>
<text y="118.199" x="582.262" style="line-height:125%" transform="scale(.88454 1.13053)" font-weight="400" font-size="12.634" letter-spacing="0" word-spacing="0" font-family="sans-serif" fill-opacity="0">
<tspan y="118.199" x="582.262" fill-opacity="1">
Product Catalog</tspan>
</text>
<text y="74.806" x="632.252" style="line-height:125%" transform="scale(.88454 1.13053)" font-weight="400" font-size="12.634" letter-spacing="0" word-spacing="0" font-family="sans-serif">
<tspan y="74.806" x="632.252">
STSP</tspan>
</text>
<path d="M301.668 166.972l.688 35.563-118.98.783.654 16.632s100.197.274 120.261.236c12.763-.356 14.773-6.414 14.48-19.393-.366-16.275-.09-33.71-.09-33.71z" fill="#ccc"/>
<path d="M122.271 67.529l.402 15.415 73.702-.322s.607 14.263.685 24.45c.11 14.51.233 17.122 15.572 17.505 30.5.763 82.886.412 82.886.412l.178-15.313-83.194-.278s-.852-17.607-.677-30.749c.108-8.108-6.887-11.134-16.469-11-15.479.216-73.085-.12-73.085-.12z" fill="#f16264"/>
<path d="M123.292 119.97l.206 14.58s15.83.065 27.247-.229v13.335c0 5.34 2.714 6.81 7.772 6.935 7.402-.38 42.548.132 42.548.132s.122 12.878.047 20.073c-.067 6.385.957 7.866 11.484 7.885 14.488.026 25.51-.24 37.03-.163 10.552.072 10.743-1.007 11.027-9.9.25-7.819.003-23.43.003-23.43 11.369.088 34.244-.288 34.244-.288l.035-14.74s-23.052-.032-36.88-.277c-12.2-.217-13.422 1.48-13.263 8.04.292 12.063.188 27.452.188 27.452s-16.96.432-29.329.044c.129-6.765-.064-13.71-.124-19.838-.078-7.938-2.073-8.77-12.301-9.11-6.93-.23-37.324-.01-37.324-.01s-.132-7.523-.235-14.022c-.084-5.252-.925-6.327-10.926-6.552-8.085-.18-31.449.082-31.449.082z" fill="#bbcc32"/>
<path d="M542.841 64.513s-113.629-.686-124.776-.518c-11.54.174-16.065-2.986-16.015-14.94.036-8.666-.183-20.089-.183-20.089l-56.1.34-.423 93.565-15.49-.453s-.373-73.554-.288-92.362c-.26-17.382 6.838-18.735 16.322-18.873 18.445.737 36.364-.181 53.025-.1 13.118.062 18.014 1.102 18.3 16.653.084 4.544-.028 19.578-.028 19.578l125.959-.22z" opacity=".83" fill="#d455d2"/>
<g transform="translate(196.226 -155.532)" fill="#1793b7" fill-rule="evenodd" stroke="#434390">
<ellipse cx="374.287" cy="328.732" rx="21.675" ry="8.482"/>
<ellipse cx="374.287" cy="325.905" rx="21.675" ry="8.482"/>
<ellipse cx="374.287" cy="322.449" rx="21.675" ry="8.482"/>
<ellipse cx="374.287" cy="319.308" rx="21.675" ry="8.482"/>
</g>
<g clip-path="url(#n)" transform="matrix(.25374 0 0 -.2218 16.686 315.08)">
<g mask="url(#o)" clip-path="url(#p)">
<path d="M571.333 638h96.157s18.427-.14 16.427-18.917L683.333 307H373.592" fill="url(#q)"/>
</g>
<g clip-path="url(#r)" mask="url(#s)" opacity=".33">
<path d="M548.132 195.42c0-6.872-62.353-12.434-139.27-12.434-76.921 0-139.268 5.562-139.268 12.434 0 6.872 62.347 12.434 139.268 12.434 76.917 0 139.27-5.562 139.27-12.434" fill="url(#t)"/>
</g>
</g>
<path d="M112.43 372.719v.377c0 .928 1.317 1.36 5.314 1.36h39.566c3.997 0 5.394-.58 5.406-1.448h-.105v-.29h-50.18z" fill="url(#u)" transform="matrix(.86468 0 0 .76615 1.681 -15.063)"/>
<path d="M137.864 355.928h-17.226s-.135 7.858-3.701 11.442c-3.567 3.585-9.152 6.796.538 6.796h39.566c9.69 0 4.105-3.21.539-6.796-3.567-3.584-3.702-11.442-3.702-11.442h-16.014z" fill="url(#v)" transform="matrix(.86468 0 0 .76615 1.681 -15.063)"/>
<g clip-path="url(#w)" transform="matrix(.25374 0 0 -.2218 16.686 315.08)">
<g mask="url(#x)">
<path d="M419.461 196h59.167c30.662 1 12.087 11.87.147 24.034-1.614 1.645-3.015 3.532-4.243 5.617C447.739 223.029 426.204 211 419.461 196" fill="url(#y)"/>
</g>
</g>
<g clip-path="url(#z)" transform="matrix(.25374 0 0 -.2218 16.686 315.08)">
<g mask="url(#A)">
<path d="M340.27 220.034C328.33 207.87 309.754 197 340.417 196h59.169c-6.743 15-28.28 27.029-55.074 29.651-1.227-2.085-2.629-3.972-4.242-5.617" fill="url(#B)"/>
</g>
</g>
<g clip-path="url(#C)" transform="matrix(.25374 0 0 -.2218 16.686 315.08)">
<g mask="url(#C)">
<path d="M374.548 196.228c-11.376-.075-22.754-.164-34.131-.353 11.377-.189 22.755-.276 34.131-.351l34.129-.107 34.129.106 17.067.127 17.065.225-17.065.226-17.067.128-34.129.104-34.129-.105z" fill="url(#D)"/>
</g>
</g>
<path d="M55.501 342.321v9.045c0 2.64 2.304 4.851 4.98 4.851h152.747c2.675 0 4.845-2.211 4.845-4.85v-9.046H55.5z" fill="url(#E)" transform="matrix(.86468 0 0 .76615 1.681 -15.063)"/>
<path d="M55.501 342.032v8.803c0 2.64 2.304 5.093 4.98 5.093h152.747c2.675 0 4.845-2.453 4.845-5.093v-8.803H55.5z" fill="url(#F)" transform="matrix(.86468 0 0 .76615 1.681 -15.063)"/>
<path d="M61.884 252.946h149.47v82.206H61.883z" fill="#f9f9f9" fill-rule="evenodd" stroke="#000002" stroke-width="1.229" transform="matrix(.86468 0 0 .76615 1.681 -15.063)"/>
<path d="M184.047 241.631h-128.9v-63.435h128.9v63.435zm1.648-68.315H53.617c-2.314 0-4.306 1.442-4.306 3.465v69.951h140.573v-69.951c0-2.023-1.876-3.465-4.19-3.465" fill="#231f20"/>
<text word-spacing="0" letter-spacing="0" font-size="12.634" font-weight="400" transform="scale(.88454 1.13053)" style="line-height:125%" x="621.913" y="174.325" font-family="sans-serif">
<tspan x="621.913" y="174.325">
Remedy</tspan>
</text>
<path d="M216.862 14.101c-28.026-.163-68.103-.579-95.36-.6v14.453c30.621.226 82.92.476 94.627.395-.181 9.372-.246 37.8-.238 46.854-.086 9.048 3.17 13.324 12.774 13.543 12.986.298 23.71.568 36.744.519 8.528-.032 12.876-1.423 12.91-15.096.034-13.185-.432-36.73-.432-36.73l28.267-.267-.41 72.009 14.977.003c.138-9.118-.348-59.898-.26-76.44.04-7.247-2.14-10.73-7.607-10.777-15.878-.137-27.498-.214-41.18-.08-4.048.039-7.439 3.106-7.439 6.782-.02 15.459.191 47.932.191 47.932l-33.991-.232s-.025-38.772-.025-53.985c.024-7.697-2.339-8.472-13.548-8.282z" fill="#fcc80d"/>
<g clip-path="url(#G)" transform="matrix(.2102 0 0 -.1056 188.021 197.508)">
<g mask="url(#H)">
<path d="M802.432 670.854h12.628v65.128h-12.628v-65.128z" fill="url(#I)"/>
</g>
</g>
<path d="M436.606 988.316H670.97V52.48H436.606v935.836z" transform="matrix(.16816 0 0 .08447 265.088 99.174)" fill="url(#J)"/>
<path d="M280.378 196.86h46.199v-79.051h-46.2v79.05z" fill="url(#K)" transform="translate(12.428 -14.211)"/>
<g transform="matrix(.2102 0 0 -.1056 188.216 188.053)" clip-path="url(#L)">
<path d="M902.491 41.08H497.51v10h404.981v-10zm-87.431 10h-12.628v748.669h12.628V51.08z" fill="#373535"/>
<path d="M880.337 762.763c0-11.681-9.47-21.15-21.15-21.15-11.681 0-21.151 9.469-21.151 21.15 0 11.68 9.47 21.15 21.15 21.15 11.68 0 21.15-9.47 21.15-21.15" fill="#737577"/>
<path d="M876.32 762.763c0-9.463-7.67-17.134-17.134-17.134-9.463 0-17.134 7.67-17.134 17.134 0 9.462 7.671 17.134 17.134 17.134 9.463 0 17.134-7.672 17.134-17.134" fill="#51de85"/>
</g>
<text word-spacing="0" letter-spacing="0" font-size="21.234" font-weight="400" style="line-height:125%" x="320.622" y="181.94" transform="matrix(.9278 -.08813 -.06437 1.08394 12.428 -14.211)" font-family="sans-serif">
<tspan x="320.622" y="181.94">
DARE</tspan>
</text>
<g clip-path="url(#M)" transform="matrix(.2102 0 0 -.1056 188.606 189.515)">
<g clip-path="url(#N)" mask="url(#O)" opacity=".4">
<path d="M715 341.573l-217.49-131.1V145.6L715 276.701v64.872z" fill="url(#P)"/>
</g>
<g clip-path="url(#Q)" mask="url(#R)" opacity=".4">
<path d="M715 675.979L497.51 544.878v-34.556L715 641.422v34.557z" fill="url(#S)"/>
</g>
<g clip-path="url(#T)" mask="url(#U)" opacity=".4">
<path d="M715 732.945L497.51 601.844V581.19L715 712.291v20.654z" fill="url(#V)"/>
</g>
<g clip-path="url(#W)" mask="url(#X)" opacity=".4">
<path d="M902.491 598.788L715 485.771v-64.873l187.491 113.017v64.873z" fill="url(#Y)"/>
</g>
<g clip-path="url(#Z)" mask="url(#aa)" opacity=".4">
<path d="M902.491 213.367L715 100.35V56.655l187.491 113.017v43.695z" fill="url(#ab)"/>
</g>
</g>
<g transform="translate(-281.668 -250.536)" fill="#d1373e" fill-rule="evenodd" stroke="#903014">
<ellipse ry="8.482" rx="21.675" cy="328.732" cx="374.287"/>
<ellipse ry="8.482" rx="21.675" cy="325.905" cx="374.287"/>
<ellipse ry="8.482" rx="21.675" cy="322.449" cx="374.287"/>
<ellipse ry="8.482" rx="21.675" cy="319.308" cx="374.287"/>
</g>
<g transform="translate(-281.668 -304.182)" fill="#f28521" fill-rule="evenodd" stroke="#b9103b">
<ellipse ry="8.482" rx="21.675" cy="328.732" cx="374.287"/>
<ellipse ry="8.482" rx="21.675" cy="325.905" cx="374.287"/>
<ellipse ry="8.482" rx="21.675" cy="322.449" cx="374.287"/>
<ellipse ry="8.482" rx="21.675" cy="319.308" cx="374.287"/>
</g>
<g transform="translate(196.226 -268.71)" fill="#d455d2" fill-rule="evenodd" stroke="#950499">
<ellipse cx="374.287" cy="328.732" rx="21.675" ry="8.482"/>
<ellipse cx="374.287" cy="325.905" rx="21.675" ry="8.482"/>
<ellipse cx="374.287" cy="322.449" rx="21.675" ry="8.482"/>
<ellipse cx="374.287" cy="319.308" rx="21.675" ry="8.482"/>
</g>
<g transform="translate(-281.668 -199.43)" fill="#6b8b28" fill-rule="evenodd" stroke="#295c22">
<ellipse ry="8.482" rx="21.675" cy="328.732" cx="374.287"/>
<ellipse ry="8.482" rx="21.675" cy="325.905" cx="374.287"/>
<ellipse ry="8.482" rx="21.675" cy="322.449" cx="374.287"/>
<ellipse ry="8.482" rx="21.675" cy="319.308" cx="374.287"/>
</g>
<g transform="translate(196.226 -90.402)" fill="#b3b3b3" fill-rule="evenodd" stroke="#69696c">
<ellipse ry="8.482" rx="21.675" cy="328.732" cx="374.287"/>
<ellipse ry="8.482" rx="21.675" cy="325.905" cx="374.287"/>
<ellipse ry="8.482" rx="21.675" cy="322.449" cx="374.287"/>
<ellipse ry="8.482" rx="21.675" cy="319.308" cx="374.287"/>
</g>
<g transform="translate(196.226 -217.067)" fill="#007e70" fill-rule="evenodd" stroke="#4c5755">
<ellipse ry="8.482" rx="21.675" cy="328.732" cx="374.287"/>
<ellipse ry="8.482" rx="21.675" cy="325.905" cx="374.287"/>
<ellipse ry="8.482" rx="21.675" cy="322.449" cx="374.287"/>
<ellipse ry="8.482" rx="21.675" cy="319.308" cx="374.287"/>
</g>
</svg>
