<svg xmlns="http://www.w3.org/2000/svg" width="210mm" height="297mm" viewBox="0 0 744.09448819 1052.3622047"><path d="M321.429 213.996h9.788V159h-9.788v54.995zm-84.083-39.067h9.788v-22.191h-9.788v22.19zm4.894 22.23c-2.708 0-4.894-2.595-4.894-5.81v-10.34h9.788v4.531h2.48v11.619h-7.374zm-4.894-54.026h-2.741v-11.619h7.635c2.708 0 4.894 2.595 4.894 5.81v9.333h-9.788v-3.524z" class="st5" fill="#fcc80d"/><path d="M234.637 143.443c0 1.084-.717 1.936-1.631 1.936h-1.86c-.913 0-1.631-.852-1.631-1.936v-12.78c0-1.085.718-1.937 1.631-1.937h1.86c.914 0 1.631.852 1.631 1.936v12.78zm20.132 54.336c0 1.084-.718 1.936-1.632 1.936h-1.86c-.913 0-1.63-.852-1.63-1.936v-12.781c0-1.084.717-1.936 1.63-1.936h1.86c.914 0 1.632.852 1.632 1.936v12.782zm-17.521-45.041c-.914 0-1.632-.852-1.632-1.937v-2.207c0-1.085.718-1.937 1.632-1.937h10.767c.913 0 1.631.852 1.631 1.937v2.207c0 1.085-.718 1.937-1.631 1.937h-10.767zm0 28.272c-.914 0-1.632-.853-1.632-1.937v-2.208c0-1.084.718-1.936 1.632-1.936h10.767c.913 0 1.631.852 1.631 1.936v2.208c0 1.084-.718 1.936-1.631 1.936h-10.767z" class="st6" fill="#f28521"/><path class="st5" d="M254.86 197.409h19.047V185.79H254.86v11.619zm66.816-47.136h-2.773v-11.618h7.7c2.708 0 4.894 2.594 4.894 5.809v10.418h-9.788v-4.609zM290.514 191.6c0 3.214-2.186 5.809-4.894 5.809h-6.59V185.79h1.696v-4.53h9.788v10.34zm23.248-41.327H297.21v-11.618h16.57v11.618zm-19.92-.5h-3.36v25.406h-9.789v-31.215c0-3.215 2.186-5.81 4.894-5.81h8.255v11.62z" fill="#fcc80d"/><path d="M279.03 198.029c0 1.084-.719 1.936-1.632 1.936h-1.86c-.914 0-1.631-.852-1.631-1.936v-12.781c0-1.084.717-1.936 1.631-1.936h1.86c.913 0 1.631.852 1.631 1.936v12.782zm19.935-48.256v1.278c0 1.085-.718 1.937-1.631 1.937h-1.86c-.914 0-1.632-.852-1.632-1.937v-12.896c.066-1.007.75-1.82 1.632-1.82h1.86c.848 0 1.566.813 1.63 1.82v11.618zm19.905.5v1.278c0 1.085-.717 1.937-1.631 1.937h-1.86c-.913 0-1.631-.852-1.631-1.937v-12.896c.065-1.007.75-1.82 1.631-1.82h1.86c.848 0 1.566.813 1.631 1.82v11.618zm-27.442 24.906c.913 0 1.631.852 1.631 1.936v2.208c0 1.084-.718 1.936-1.631 1.936H280.66c-.914 0-1.632-.852-1.632-1.936v-2.208c0-1.084.718-1.936 1.632-1.936h10.767zm29.4-14.179c-.914 0-1.631-.851-1.631-1.936v-2.207c0-1.084.717-1.936 1.631-1.936h10.767c.914 0 1.632.852 1.632 1.936v2.207c0 1.085-.718 1.937-1.632 1.937h-10.767z" class="st6" fill="#f28521"/><path class="st5" d="M215.576 131.509v-2.406h-1.651v2.406h-78.58v11.454h94.17V131.51z" fill="#fcc80d"/><path d="M217.13 128.603c.652 0 1.177-.801 1.177-1.794s-.525-1.795-1.176-1.795h-5.432c-.651 0-1.177.802-1.177 1.795 0 .993.526 1.794 1.177 1.794h5.432z" class="st6" fill="#f28521"/><text transform="scale(.88454 1.13053)" style="line-height:125%" x="41.609" y="125.62" font-weight="400" font-size="12.634" font-family="sans-serif" letter-spacing="0" word-spacing="0"><tspan x="41.609" y="125.62">Demand Planning</tspan></text></svg>