<?xml version="1.0" encoding="UTF-8" standalone="no"?>
<svg
   xmlns:dc="http://purl.org/dc/elements/1.1/"
   xmlns:cc="http://creativecommons.org/ns#"
   xmlns:rdf="http://www.w3.org/1999/02/22-rdf-syntax-ns#"
   xmlns:svg="http://www.w3.org/2000/svg"
   xmlns="http://www.w3.org/2000/svg"
   xmlns:sodipodi="http://sodipodi.sourceforge.net/DTD/sodipodi-0.dtd"
   xmlns:inkscape="http://www.inkscape.org/namespaces/inkscape"
   viewBox="0 0 638.96077 382.13415"
   id="svg3336"
   version="1.1"
   inkscape:version="0.91 r13725"
   sodipodi:docname="demand-planning-ie.svg">
  <metadata
     id="metadata3876">
    <rdf:RDF>
      <cc:Work
         rdf:about="">
        <dc:format>image/svg+xml</dc:format>
        <dc:type
           rdf:resource="http://purl.org/dc/dcmitype/StillImage" />
      </cc:Work>
    </rdf:RDF>
  </metadata>
  <sodipodi:namedview
     pagecolor="#ffffff"
     bordercolor="#666666"
     borderopacity="1"
     objecttolerance="10"
     gridtolerance="10"
     guidetolerance="10"
     inkscape:pageopacity="0"
     inkscape:pageshadow="2"
     inkscape:window-width="1920"
     inkscape:window-height="1017"
     id="namedview3874"
     showgrid="false"
     inkscape:zoom="2.2243497"
     inkscape:cx="319.48038"
     inkscape:cy="227.03265"
     inkscape:window-x="-8"
     inkscape:window-y="-8"
     inkscape:window-maximized="1"
     inkscape:current-layer="svg3336" />
  <defs
     id="defs3338">
    <linearGradient
       x2="1"
       gradientUnits="userSpaceOnUse"
       gradientTransform="matrix(870.52682 -64.40022 57.06191 982.47872 172.08 892.953)"
       id="F">
      <stop
         offset="0"
         stop-color="#898a8f"
         id="stop3341" />
      <stop
         offset=".572"
         stop-color="#dbdde0"
         id="stop3343" />
      <stop
         offset="1"
         stop-color="#dbdde0"
         id="stop3345" />
    </linearGradient>
    <linearGradient
       x2="1"
       gradientUnits="userSpaceOnUse"
       gradientTransform="matrix(870.61276 -64.40657 57.06754 982.57561 172 894.593)"
       id="E">
      <stop
         offset="0"
         stop-color="#78797d"
         id="stop3348" />
      <stop
         offset=".199"
         stop-color="#78797d"
         id="stop3350" />
      <stop
         offset=".491"
         stop-color="#6d6f73"
         id="stop3352" />
      <stop
         offset=".824"
         stop-color="#6d6f73"
         id="stop3354" />
      <stop
         offset="1"
         stop-color="#6d6f73"
         id="stop3356" />
    </linearGradient>
    <mask
       maskUnits="userSpaceOnUse"
       x="0"
       y="0"
       width="1"
       height="1"
       id="C">
      <path
         d="M-32768 32767h65535v-65534h-65535v65534z"
         fill="url(#a)"
         id="path3359" />
    </mask>
    <linearGradient
       x2="1"
       gradientUnits="userSpaceOnUse"
       gradientTransform="matrix(136.52051 0 0 -136.52051 340.417 195.875)"
       id="a">
      <stop
         offset="0"
         stop-opacity="0"
         stop-color="#fff"
         id="stop3362" />
      <stop
         offset=".006"
         stop-opacity="0"
         stop-color="#fff"
         id="stop3364" />
      <stop
         offset=".446"
         stop-color="#fff"
         id="stop3366" />
      <stop
         offset=".509"
         stop-color="#fff"
         id="stop3368" />
      <stop
         offset="1"
         stop-opacity="0"
         stop-color="#fff"
         id="stop3370" />
    </linearGradient>
    <linearGradient
       x2="1"
       gradientUnits="userSpaceOnUse"
       gradientTransform="matrix(672.53439 0 0 -769.38021 1611.224 -1984.096)"
       id="D">
      <stop
         offset="0"
         stop-color="#fff"
         id="stop3373" />
      <stop
         offset=".006"
         stop-color="#fff"
         id="stop3375" />
      <stop
         offset=".446"
         stop-color="#fff"
         id="stop3377" />
      <stop
         offset=".509"
         stop-color="#fff"
         id="stop3379" />
      <stop
         offset="1"
         stop-color="#fff"
         id="stop3381" />
    </linearGradient>
    <clipPath
       id="z">
      <path
         d="M340.27 220.034C328.33 207.87 309.754 197 340.417 196h59.169c-6.743 15-28.28 27.029-55.074 29.651-1.227-2.085-2.629-3.972-4.242-5.617"
         id="path3384" />
    </clipPath>
    <mask
       maskUnits="userSpaceOnUse"
       x="0"
       y="0"
       width="1"
       height="1"
       id="A">
      <path
         d="M-32767 32767h65534v-65534h-65534v65534z"
         fill="url(#b)"
         id="path3387" />
    </mask>
    <radialGradient
       fx="0"
       fy="0"
       cx="0"
       cy="0"
       r="1"
       gradientUnits="userSpaceOnUse"
       gradientTransform="rotate(51.659 -8.858 420.882) scale(64.18823)"
       spreadMethod="pad"
       id="b">
      <stop
         offset="0"
         stop-color="#fff"
         id="stop3390" />
      <stop
         offset=".737"
         stop-opacity="0"
         stop-color="#fff"
         id="stop3392" />
      <stop
         offset="1"
         stop-opacity="0"
         stop-color="#fff"
         id="stop3394" />
    </radialGradient>
    <radialGradient
       fx="0"
       fy="0"
       cx="0"
       cy="0"
       r="1"
       gradientUnits="userSpaceOnUse"
       gradientTransform="matrix(196.15532 283.72658 -248.01244 224.40195 1543.863 -2148.465)"
       spreadMethod="pad"
       id="B">
      <stop
         offset="0"
         stop-color="#fff"
         id="stop3397" />
      <stop
         offset=".737"
         stop-color="#fff"
         id="stop3399" />
      <stop
         offset="1"
         stop-color="#fff"
         id="stop3401" />
    </radialGradient>
    <clipPath
       id="w">
      <path
         d="M419.461 196h59.167c30.662 1 12.087 11.87.147 24.034-1.614 1.645-3.015 3.532-4.243 5.617C447.739 223.029 426.204 211 419.461 196"
         id="path3404" />
    </clipPath>
    <mask
       maskUnits="userSpaceOnUse"
       x="0"
       y="0"
       width="1"
       height="1"
       id="x">
      <path
         d="M-32767 32767h65534v-65534h-65534v65534z"
         fill="url(#c)"
         id="path3407" />
    </mask>
    <radialGradient
       fx="0"
       fy="0"
       cx="0"
       cy="0"
       r="1"
       gradientUnits="userSpaceOnUse"
       gradientTransform="scale(-64.18823 64.18823) rotate(51.659 -6.518 -6.624)"
       spreadMethod="pad"
       id="c">
      <stop
         offset="0"
         stop-color="#fff"
         id="stop3410" />
      <stop
         offset=".737"
         stop-opacity="0"
         stop-color="#fff"
         id="stop3412" />
      <stop
         offset="1"
         stop-opacity="0"
         stop-color="#fff"
         id="stop3414" />
    </radialGradient>
    <radialGradient
       fx="0"
       fy="0"
       cx="0"
       cy="0"
       r="1"
       gradientUnits="userSpaceOnUse"
       gradientTransform="matrix(-196.15532 283.72658 248.01244 224.40195 2359.441 -2148.465)"
       spreadMethod="pad"
       id="y">
      <stop
         offset="0"
         stop-color="#fff"
         id="stop3417" />
      <stop
         offset=".737"
         stop-color="#fff"
         id="stop3419" />
      <stop
         offset="1"
         stop-color="#fff"
         id="stop3421" />
    </radialGradient>
    <linearGradient
       x2="1"
       gradientUnits="userSpaceOnUse"
       gradientTransform="matrix(0 124.8886 110.65774 0 588.728 894.943)"
       id="v">
      <stop
         offset="0"
         stop-color="#6d6f73"
         id="stop3424" />
      <stop
         offset=".085"
         stop-color="#6d6f73"
         id="stop3426" />
      <stop
         offset=".196"
         stop-color="#e0e1e2"
         id="stop3428" />
      <stop
         offset=".212"
         stop-color="#e0e1e2"
         id="stop3430" />
      <stop
         offset=".315"
         stop-color="#a7a9ac"
         id="stop3432" />
      <stop
         offset=".326"
         stop-color="#a7a9ac"
         id="stop3434" />
      <stop
         offset=".461"
         stop-color="#7e8083"
         id="stop3436" />
      <stop
         offset=".517"
         stop-color="#7e8083"
         id="stop3438" />
      <stop
         offset=".739"
         stop-color="#a6aaad"
         id="stop3440" />
      <stop
         offset="1"
         stop-color="#a6aaad"
         id="stop3442" />
    </linearGradient>
    <linearGradient
       x2="1"
       gradientUnits="userSpaceOnUse"
       gradientTransform="matrix(253.30605 0 0 285.88185 464.895 1001.837)"
       id="u">
      <stop
         offset="0"
         stop-color="#58595b"
         id="stop3445" />
      <stop
         offset=".006"
         stop-color="#58595b"
         id="stop3447" />
      <stop
         offset=".446"
         stop-color="#88898d"
         id="stop3449" />
      <stop
         offset=".509"
         stop-color="#88898d"
         id="stop3451" />
      <stop
         offset="1"
         stop-color="#58595b"
         id="stop3453" />
    </linearGradient>
    <clipPath
       id="n">
      <path
         d="M0 800h800V0H0v800z"
         id="path3456" />
    </clipPath>
    <clipPath
       id="p">
      <path
         d="M571.333 638h96.157s18.427-.14 16.427-18.917L683.333 307H373.592"
         id="path3459" />
    </clipPath>
    <mask
       maskUnits="userSpaceOnUse"
       x="0"
       y="0"
       width="1"
       height="1"
       id="o">
      <path
         d="M-32768 32767h65535v-65534h-65535v65534z"
         fill="url(#d)"
         id="path3462" />
    </mask>
    <linearGradient
       x2="1"
       gradientUnits="userSpaceOnUse"
       gradientTransform="matrix(310.47656 0 0 -310.47656 373.592 472.5)"
       id="d">
      <stop
         offset="0"
         stop-opacity="0"
         stop-color="#fff"
         id="stop3465" />
      <stop
         offset=".375"
         stop-opacity="0"
         stop-color="#fff"
         id="stop3467" />
      <stop
         offset="1"
         stop-color="#fff"
         id="stop3469" />
    </linearGradient>
    <linearGradient
       x2="1"
       gradientUnits="userSpaceOnUse"
       gradientTransform="matrix(1529.4857 0 0 -1749.7337 1774.65 -425.138)"
       id="q">
      <stop
         offset="0"
         stop-color="#fff"
         id="stop3472" />
      <stop
         offset=".375"
         stop-color="#fff"
         id="stop3474" />
      <stop
         offset="1"
         stop-color="#fff"
         id="stop3476" />
    </linearGradient>
    <mask
       maskUnits="userSpaceOnUse"
       x="0"
       y="0"
       width="1"
       height="1"
       id="s">
      <g
         clip-path="url(#e)"
         opacity=".33"
         id="g3479">
        <path
           d="M269.594 207.854h278.538v-24.867H269.594v24.867z"
           id="path3481" />
        <g
           clip-path="url(#f)"
           id="g3483">
          <path
             d="M548.132 195.42c0-6.872-62.353-12.434-139.27-12.434-76.921 0-139.268 5.562-139.268 12.434 0 6.872 62.347 12.434 139.268 12.434 76.917 0 139.27-5.562 139.27-12.434"
             fill="url(#g)"
             id="path3485" />
        </g>
      </g>
    </mask>
    <clipPath
       id="e">
      <path
         d="M269.594 207.854h278.538v-24.868H269.594v24.868z"
         id="path3488" />
    </clipPath>
    <clipPath
       id="f">
      <path
         d="M269.594 207.854h278.538v-24.868H269.594v24.868z"
         id="path3491" />
    </clipPath>
    <radialGradient
       fx="0"
       fy="0"
       cx="0"
       cy="0"
       r="1"
       gradientUnits="userSpaceOnUse"
       gradientTransform="matrix(139.24902 0 0 -12.43536 408.863 195.42)"
       spreadMethod="pad"
       id="g">
      <stop
         offset="0"
         stop-color="#fff"
         id="stop3494" />
      <stop
         offset="1"
         stop-color="#14130a"
         id="stop3496" />
    </radialGradient>
    <clipPath
       id="r">
      <path
         d="M269.594 207.854h278.538v-24.868H269.594v24.868z"
         id="path3499" />
    </clipPath>
    <linearGradient
       x2="1"
       gradientUnits="userSpaceOnUse"
       gradientTransform="matrix(-.34735 138.81595 121.34247 .39737 1948.58 -2056.572)"
       id="t">
      <stop
         offset="0"
         stop-color="#4d4848"
         id="stop3502" />
      <stop
         offset=".354"
         stop-color="#14130a"
         id="stop3504" />
      <stop
         offset="1"
         stop-color="#14130a"
         id="stop3506" />
    </linearGradient>
    <linearGradient
       x2="1"
       gradientUnits="userSpaceOnUse"
       gradientTransform="matrix(271.86651 0 0 271.85292 609.464 707.422)"
       id="K">
      <stop
         offset="0"
         stop-color="#aaacae"
         id="stop3509" />
      <stop
         offset=".1"
         stop-color="#f1f2f2"
         id="stop3511" />
      <stop
         offset=".26"
         stop-color="#dddedf"
         id="stop3513" />
      <stop
         offset=".411"
         stop-color="#dddedf"
         id="stop3515" />
      <stop
         offset=".49"
         stop-color="#dddedf"
         id="stop3517" />
      <stop
         offset=".712"
         stop-color="#e7e8e9"
         id="stop3519" />
      <stop
         offset=".788"
         stop-color="#e7e8e9"
         id="stop3521" />
      <stop
         offset="1"
         stop-color="#96989b"
         id="stop3523" />
    </linearGradient>
    <linearGradient
       x2="1"
       gradientUnits="userSpaceOnUse"
       gradientTransform="matrix(1393.7156 0 0 2774.4228 3738.523 7032.523)"
       id="J">
      <stop
         offset="0"
         stop-color="#aaacae"
         id="stop3526" />
      <stop
         offset=".1"
         stop-color="#f1f2f2"
         id="stop3528" />
      <stop
         offset=".26"
         stop-color="#dddedf"
         id="stop3530" />
      <stop
         offset=".411"
         stop-color="#dddedf"
         id="stop3532" />
      <stop
         offset=".49"
         stop-color="#dddedf"
         id="stop3534" />
      <stop
         offset=".712"
         stop-color="#e7e8e9"
         id="stop3536" />
      <stop
         offset=".788"
         stop-color="#e7e8e9"
         id="stop3538" />
      <stop
         offset="1"
         stop-color="#96989b"
         id="stop3540" />
    </linearGradient>
    <clipPath
       id="L">
      <path
         d="M0 980h1400V0H0v980z"
         id="path3543" />
    </clipPath>
    <clipPath
       id="G">
      <path
         d="M802.432 670.854h12.628v65.128h-12.628v-65.128z"
         id="path3546" />
    </clipPath>
    <mask
       maskUnits="userSpaceOnUse"
       x="0"
       y="0"
       width="1"
       height="1"
       id="H">
      <path
         d="M-32768 32767h65535v-65534h-65535v65534z"
         fill="url(#h)"
         id="path3549" />
    </mask>
    <linearGradient
       x2="1"
       gradientUnits="userSpaceOnUse"
       gradientTransform="matrix(0 -65.12793 -65.12793 0 808.746 735.982)"
       id="h">
      <stop
         offset="0"
         stop-opacity="0"
         stop-color="#fff"
         id="stop3552" />
      <stop
         offset=".132"
         stop-opacity="0"
         stop-color="#fff"
         id="stop3554" />
      <stop
         offset=".5"
         stop-color="#fff"
         id="stop3556" />
      <stop
         offset=".868"
         stop-opacity="0"
         stop-color="#fff"
         id="stop3558" />
      <stop
         offset="1"
         stop-opacity="0"
         stop-color="#fff"
         id="stop3560" />
    </linearGradient>
    <linearGradient
       x2="1"
       gradientUnits="userSpaceOnUse"
       gradientTransform="matrix(0 -770.99044 387.3027 0 3915.192 -1018.13)"
       id="I">
      <stop
         offset="0"
         stop-color="#00b0f0"
         id="stop3563" />
      <stop
         offset=".132"
         stop-color="#00b0f0"
         id="stop3565" />
      <stop
         offset=".5"
         stop-color="#00b0f0"
         id="stop3567" />
      <stop
         offset=".868"
         stop-color="#00b0f0"
         id="stop3569" />
      <stop
         offset="1"
         stop-color="#00b0f0"
         id="stop3571" />
    </linearGradient>
    <clipPath
       id="M">
      <path
         d="M0 980h1400V0H0v980z"
         id="path3574" />
    </clipPath>
    <clipPath
       id="N">
      <path
         d="M715 341.573l-217.49-131.1V145.6L715 276.701v64.872z"
         id="path3577" />
    </clipPath>
    <mask
       maskUnits="userSpaceOnUse"
       x="0"
       y="0"
       width="1"
       height="1"
       id="O">
      <path
         d="M-32768 32767h65535v-65534h-65535v65534z"
         fill="url(#i)"
         id="path3580" />
    </mask>
    <linearGradient
       x2="1"
       gradientUnits="userSpaceOnUse"
       gradientTransform="matrix(217.49023 0 0 -217.49023 497.51 243.587)"
       id="i">
      <stop
         offset="0"
         stop-opacity="0"
         stop-color="#fff"
         id="stop3583" />
      <stop
         offset=".5"
         stop-color="#fff"
         id="stop3585" />
      <stop
         offset="1"
         stop-opacity="0"
         stop-color="#fff"
         id="stop3587" />
    </linearGradient>
    <linearGradient
       x2="1"
       gradientUnits="userSpaceOnUse"
       gradientTransform="matrix(1293.3707 0 0 -2574.6695 2061.31 -6922.92)"
       id="P">
      <stop
         offset="0"
         stop-color="#fff"
         id="stop3590" />
      <stop
         offset=".5"
         stop-color="#fff"
         id="stop3592" />
      <stop
         offset="1"
         stop-color="#fff"
         id="stop3594" />
    </linearGradient>
    <clipPath
       id="Q">
      <path
         d="M715 675.979L497.51 544.878v-34.556L715 641.422v34.557z"
         id="path3597" />
    </clipPath>
    <mask
       maskUnits="userSpaceOnUse"
       x="0"
       y="0"
       width="1"
       height="1"
       id="R">
      <path
         d="M-32768 32767h65535v-65534h-65535v65534z"
         fill="url(#j)"
         id="path3600" />
    </mask>
    <linearGradient
       x2="1"
       gradientUnits="userSpaceOnUse"
       gradientTransform="matrix(217.49023 0 0 -217.49023 497.51 593.15)"
       id="j">
      <stop
         offset="0"
         stop-opacity="0"
         stop-color="#fff"
         id="stop3603" />
      <stop
         offset=".5"
         stop-color="#fff"
         id="stop3605" />
      <stop
         offset="1"
         stop-opacity="0"
         stop-color="#fff"
         id="stop3607" />
    </linearGradient>
    <linearGradient
       x2="1"
       gradientUnits="userSpaceOnUse"
       gradientTransform="matrix(1293.3707 0 0 -2574.6695 2061.31 -2784.748)"
       id="S">
      <stop
         offset="0"
         stop-color="#fff"
         id="stop3610" />
      <stop
         offset=".5"
         stop-color="#fff"
         id="stop3612" />
      <stop
         offset="1"
         stop-color="#fff"
         id="stop3614" />
    </linearGradient>
    <clipPath
       id="T">
      <path
         d="M715 732.945L497.51 601.844V581.19L715 712.291v20.654z"
         id="path3617" />
    </clipPath>
    <mask
       maskUnits="userSpaceOnUse"
       x="0"
       y="0"
       width="1"
       height="1"
       id="U">
      <path
         d="M-32768 32767h65535v-65534h-65535v65534z"
         fill="url(#k)"
         id="path3620" />
    </mask>
    <linearGradient
       x2="1"
       gradientUnits="userSpaceOnUse"
       gradientTransform="matrix(217.49023 0 0 -217.49023 497.51 657.067)"
       id="k">
      <stop
         offset="0"
         stop-opacity="0"
         stop-color="#fff"
         id="stop3623" />
      <stop
         offset=".5"
         stop-color="#fff"
         id="stop3625" />
      <stop
         offset="1"
         stop-opacity="0"
         stop-color="#fff"
         id="stop3627" />
    </linearGradient>
    <linearGradient
       x2="1"
       gradientUnits="userSpaceOnUse"
       gradientTransform="matrix(1293.3707 0 0 -2574.6695 2061.31 -2028.093)"
       id="V">
      <stop
         offset="0"
         stop-color="#fff"
         id="stop3630" />
      <stop
         offset=".5"
         stop-color="#fff"
         id="stop3632" />
      <stop
         offset="1"
         stop-color="#fff"
         id="stop3634" />
    </linearGradient>
    <clipPath
       id="W">
      <path
         d="M902.491 598.788L715 485.771v-64.873l187.491 113.017v64.873z"
         id="path3637" />
    </clipPath>
    <mask
       maskUnits="userSpaceOnUse"
       x="0"
       y="0"
       width="1"
       height="1"
       id="X">
      <path
         d="M-32768 32767h65535v-65534h-65535v65534z"
         fill="url(#l)"
         id="path3640" />
    </mask>
    <linearGradient
       x2="1"
       gradientUnits="userSpaceOnUse"
       gradientTransform="matrix(187.49121 0 0 -187.49121 715 509.843)"
       id="l">
      <stop
         offset="0"
         stop-opacity="0"
         stop-color="#fff"
         id="stop3643" />
      <stop
         offset=".5"
         stop-color="#fff"
         id="stop3645" />
      <stop
         offset="1"
         stop-opacity="0"
         stop-color="#fff"
         id="stop3647" />
    </linearGradient>
    <linearGradient
       x2="1"
       gradientUnits="userSpaceOnUse"
       gradientTransform="matrix(1114.9725 0 0 -2219.5383 3354.68 -3770.956)"
       id="Y">
      <stop
         offset="0"
         stop-color="#fff"
         id="stop3650" />
      <stop
         offset=".5"
         stop-color="#fff"
         id="stop3652" />
      <stop
         offset="1"
         stop-color="#fff"
         id="stop3654" />
    </linearGradient>
    <clipPath
       id="Z">
      <path
         d="M902.491 213.367L715 100.35V56.655l187.491 113.017v43.695z"
         id="path3657" />
    </clipPath>
    <mask
       maskUnits="userSpaceOnUse"
       x="0"
       y="0"
       width="1"
       height="1"
       id="aa">
      <path
         d="M-32768 32767h65535v-65534h-65535v65534z"
         fill="url(#m)"
         id="path3660" />
    </mask>
    <linearGradient
       x2="1"
       gradientUnits="userSpaceOnUse"
       gradientTransform="matrix(187.49121 0 0 -187.49121 715 135.011)"
       id="m">
      <stop
         offset="0"
         stop-opacity="0"
         stop-color="#fff"
         id="stop3663" />
      <stop
         offset=".5"
         stop-color="#fff"
         id="stop3665" />
      <stop
         offset="1"
         stop-opacity="0"
         stop-color="#fff"
         id="stop3667" />
    </linearGradient>
    <linearGradient
       x2="1"
       gradientUnits="userSpaceOnUse"
       gradientTransform="matrix(1114.9725 0 0 -2219.5383 3354.68 -8208.241)"
       id="ab">
      <stop
         offset="0"
         stop-color="#fff"
         id="stop3670" />
      <stop
         offset=".5"
         stop-color="#fff"
         id="stop3672" />
      <stop
         offset="1"
         stop-color="#fff"
         id="stop3674" />
    </linearGradient>
  </defs>
  <path
     d="M372.145 143.874l-.182 15.4 54.483.404s.462 25.45.37 38.052c-.093 12.605 4.58 16.534 14.437 16.473 6.337-.04 23.218.165 30.04.234 12.523.127 15.075-4.553 15.031-16.726-.045-12.78-.01-20.535-.01-20.535l58.492.525.038-16.493s-41.553.287-59.375.073c-13.33-.161-14.22 4.455-14.059 14.673.137 8.616-.022 11.376-.13 22.229-9.614.066-27.763.237-27.763.237s-.146-27.67-.332-42.427c-.143-11.405-1.066-12.373-11.63-12.404-27.403.309-59.41.285-59.41.285z"
     fill="#8ad0f0"
     id="path3676" />
  <path
     d="M347.614 179.674l.318 35.894s27.43-.037 49.53.16c15.578.138 16.848 2.105 16.755 12.565-.125 14.157.243 30.591.243 30.591l97.027-.221s-.079-10.08-.05-21.181c.015-5.584 5.466-9.716 14.058-10.026 6.566-.237 19.867-.25 19.867-.25l.334 17.034-19.263.73s.527 10.583.442 17.563c-.115 8.74-3.953 11.045-14.253 10.84-21.067-.416-74.694-.517-98.49-.288-11.78.113-16.916-1.947-16.99-18.063.377-13.608.16-23.62.16-23.62s-29.3-.119-50.161-.212c-12.944-.058-16.475 2.696-16.394-20.83.08-23.3.717-30.385.717-30.385z"
     fill="#917c6f"
     fill-opacity=".941"
     id="path3678" />
  <path
     d="M365.812 68.11c-11.006-.184-15.203 4.806-15.34 13.25.216 36.508.542 27.03.542 27.03l14.83-.618s-.104 13.837.02-23.098l32.393-.192s.062 13.205.07 20.207c.01 8.453 3.347 11.086 16.494 11.113 38.384.076 120.6.198 128.506.122l-.098-16.18c-25.601-.31-128.818-.86-128.81-.87 0 0-.227-11.608-.177-19.745.028-4.648-2.026-10.938-9.12-10.99-18.96-.024-52.414-.03-39.31-.03z"
     fill="#00a79d"
     id="path3680" />
  <text
     y="43.594"
     x="86.409"
     style="line-height:125%"
     transform="scale(.88454 1.13053)"
     font-weight="400"
     font-size="12.634"
     letter-spacing="0"
     word-spacing="0"
     font-family="sans-serif"
     id="text3682">
    <tspan
       y="43.594"
       x="86.409"
       id="tspan3684">Demand Planning</tspan>
  </text>
  <text
     y="88.163"
     x="95.469"
     style="line-height:125%"
     transform="scale(.88454 1.13053)"
     font-weight="400"
     font-size="12.634"
     letter-spacing="0"
     word-spacing="0"
     font-family="sans-serif"
     id="text3686">
    <tspan
       y="88.163"
       x="95.469"
       id="tspan3688">IFD</tspan>
  </text>
  <text
     y="136.557"
     x="79.1"
     style="line-height:125%"
     transform="scale(.88454 1.13053)"
     font-weight="400"
     font-size="12.634"
     letter-spacing="0"
     word-spacing="0"
     font-family="sans-serif"
     id="text3690">
    <tspan
       y="136.557"
       x="79.1"
       id="tspan3692">Optimum Touch</tspan>
  </text>
  <text
     y="232.996"
     x="618.796"
     style="line-height:125%"
     transform="scale(.88454 1.13053)"
     font-weight="400"
     font-size="12.634"
     letter-spacing="0"
     word-spacing="0"
     font-family="sans-serif"
     id="text3694">
    <tspan
       y="232.996"
       x="618.796"
       id="tspan3696">BPR/DSC</tspan>
  </text>
  <text
     y="118.199"
     x="582.262"
     style="line-height:125%"
     transform="scale(.88454 1.13053)"
     font-weight="400"
     font-size="12.634"
     letter-spacing="0"
     word-spacing="0"
     font-family="sans-serif"
     fill-opacity="0"
     id="text3698">
    <tspan
       y="118.199"
       x="582.262"
       fill-opacity="1"
       id="tspan3700">Product Catalog</tspan>
  </text>
  <text
     y="74.806"
     x="632.252"
     style="line-height:125%"
     transform="scale(.88454 1.13053)"
     font-weight="400"
     font-size="12.634"
     letter-spacing="0"
     word-spacing="0"
     font-family="sans-serif"
     id="text3702">
    <tspan
       y="74.806"
       x="632.252"
       id="tspan3704">STSP</tspan>
  </text>
  <path
     d="M301.668 166.972l.688 35.563-118.98.783.654 16.632s100.197.274 120.261.236c12.763-.356 14.773-6.414 14.48-19.393-.366-16.275-.09-33.71-.09-33.71z"
     fill="#ccc"
     id="path3706" />
  <path
     d="M122.271 67.529l.402 15.415 73.702-.322s.607 14.263.685 24.45c.11 14.51.233 17.122 15.572 17.505 30.5.763 82.886.412 82.886.412l.178-15.313-83.194-.278s-.852-17.607-.677-30.749c.108-8.108-6.887-11.134-16.469-11-15.479.216-73.085-.12-73.085-.12z"
     fill="#f16264"
     id="path3708" />
  <path
     d="M123.292 119.97l.206 14.58s15.83.065 27.247-.229v13.335c0 5.34 2.714 6.81 7.772 6.935 7.402-.38 42.548.132 42.548.132s.122 12.878.047 20.073c-.067 6.385.957 7.866 11.484 7.885 14.488.026 25.51-.24 37.03-.163 10.552.072 10.743-1.007 11.027-9.9.25-7.819.003-23.43.003-23.43 11.369.088 34.244-.288 34.244-.288l.035-14.74s-23.052-.032-36.88-.277c-12.2-.217-13.422 1.48-13.263 8.04.292 12.063.188 27.452.188 27.452s-16.96.432-29.329.044c.129-6.765-.064-13.71-.124-19.838-.078-7.938-2.073-8.77-12.301-9.11-6.93-.23-37.324-.01-37.324-.01s-.132-7.523-.235-14.022c-.084-5.252-.925-6.327-10.926-6.552-8.085-.18-31.449.082-31.449.082z"
     fill="#bbcc32"
     id="path3710" />
  <path
     d="M542.841 64.513s-113.629-.686-124.776-.518c-11.54.174-16.065-2.986-16.015-14.94.036-8.666-.183-20.089-.183-20.089l-56.1.34-.423 93.565-15.49-.453s-.373-73.554-.288-92.362c-.26-17.382 6.838-18.735 16.322-18.873 18.445.737 36.364-.181 53.025-.1 13.118.062 18.014 1.102 18.3 16.653.084 4.544-.028 19.578-.028 19.578l125.959-.22z"
     opacity=".83"
     fill="#d455d2"
     id="path3712" />
  <g
     transform="translate(196.226 -155.532)"
     fill="#1793b7"
     fill-rule="evenodd"
     stroke="#434390"
     id="g3714">
    <ellipse
       cx="374.287"
       cy="328.732"
       rx="21.675"
       ry="8.482"
       id="ellipse3716" />
    <ellipse
       cx="374.287"
       cy="325.905"
       rx="21.675"
       ry="8.482"
       id="ellipse3718" />
    <ellipse
       cx="374.287"
       cy="322.449"
       rx="21.675"
       ry="8.482"
       id="ellipse3720" />
    <ellipse
       cx="374.287"
       cy="319.308"
       rx="21.675"
       ry="8.482"
       id="ellipse3722" />
  </g>
  <text
     word-spacing="0"
     letter-spacing="0"
     font-size="12.634"
     font-weight="400"
     transform="scale(.88454 1.13053)"
     style="line-height:125%"
     x="621.913"
     y="174.325"
     font-family="sans-serif"
     id="text3764">
    <tspan
       x="621.913"
       y="174.325"
       id="tspan3766">Remedy</tspan>
  </text>
  <path
     d="M216.862 14.101c-28.026-.163-68.103-.579-95.36-.6v14.453c30.621.226 82.92.476 94.627.395-.181 9.372-.246 37.8-.238 46.854-.086 9.048 3.17 13.324 12.774 13.543 12.986.298 23.71.568 36.744.519 8.528-.032 12.876-1.423 12.91-15.096.034-13.185-.432-36.73-.432-36.73l28.267-.267-.41 72.009 14.977.003c.138-9.118-.348-59.898-.26-76.44.04-7.247-2.14-10.73-7.607-10.777-15.878-.137-27.498-.214-41.18-.08-4.048.039-7.439 3.106-7.439 6.782-.02 15.459.191 47.932.191 47.932l-33.991-.232s-.025-38.772-.025-53.985c.024-7.697-2.339-8.472-13.548-8.282z"
     fill="#fcc80d"
     id="path3768" />
  <g
     clip-path="url(#G)"
     transform="matrix(.2102 0 0 -.1056 188.021 197.508)"
     id="g3770">
    <g
       mask="url(#H)"
       id="g3772">
      <path
         d="M802.432 670.854h12.628v65.128h-12.628v-65.128z"
         fill="url(#I)"
         id="path3774" />
    </g>
  </g>
  <path
     d="M436.606 988.316H670.97V52.48H436.606v935.836z"
     transform="matrix(.16816 0 0 .08447 265.088 99.174)"
     fill="url(#J)"
     id="path3776" />
  <path
     d="M280.378 196.86h46.199v-79.051h-46.2v79.05z"
     fill="url(#K)"
     transform="translate(12.428 -14.211)"
     id="path3778" />
  <g
     transform="matrix(.2102 0 0 -.1056 188.216 188.053)"
     clip-path="url(#L)"
     id="g3780">
    <path
       d="M902.491 41.08H497.51v10h404.981v-10zm-87.431 10h-12.628v748.669h12.628V51.08z"
       fill="#373535"
       id="path3782" />
    <path
       d="M880.337 762.763c0-11.681-9.47-21.15-21.15-21.15-11.681 0-21.151 9.469-21.151 21.15 0 11.68 9.47 21.15 21.15 21.15 11.68 0 21.15-9.47 21.15-21.15"
       fill="#737577"
       id="path3784" />
    <path
       d="M876.32 762.763c0-9.463-7.67-17.134-17.134-17.134-9.463 0-17.134 7.67-17.134 17.134 0 9.462 7.671 17.134 17.134 17.134 9.463 0 17.134-7.672 17.134-17.134"
       fill="#51de85"
       id="path3786" />
  </g>
  <text
     word-spacing="0"
     letter-spacing="0"
     font-size="21.234"
     font-weight="400"
     style="line-height:125%"
     x="320.622"
     y="181.94"
     transform="matrix(.9278 -.08813 -.06437 1.08394 12.428 -14.211)"
     font-family="sans-serif"
     id="text3788">
    <tspan
       x="320.622"
       y="181.94"
       id="tspan3790">DARE</tspan>
  </text>
  <g
     clip-path="url(#M)"
     transform="matrix(.2102 0 0 -.1056 188.606 189.515)"
     id="g3792">
    <g
       clip-path="url(#N)"
       mask="url(#O)"
       opacity=".4"
       id="g3794">
      <path
         d="M715 341.573l-217.49-131.1V145.6L715 276.701v64.872z"
         fill="url(#P)"
         id="path3796" />
    </g>
    <g
       clip-path="url(#Q)"
       mask="url(#R)"
       opacity=".4"
       id="g3798">
      <path
         d="M715 675.979L497.51 544.878v-34.556L715 641.422v34.557z"
         fill="url(#S)"
         id="path3800" />
    </g>
    <g
       clip-path="url(#T)"
       mask="url(#U)"
       opacity=".4"
       id="g3802">
      <path
         d="M715 732.945L497.51 601.844V581.19L715 712.291v20.654z"
         fill="url(#V)"
         id="path3804" />
    </g>
    <g
       clip-path="url(#W)"
       mask="url(#X)"
       opacity=".4"
       id="g3806">
      <path
         d="M902.491 598.788L715 485.771v-64.873l187.491 113.017v64.873z"
         fill="url(#Y)"
         id="path3808" />
    </g>
    <g
       clip-path="url(#Z)"
       mask="url(#aa)"
       opacity=".4"
       id="g3810">
      <path
         d="M902.491 213.367L715 100.35V56.655l187.491 113.017v43.695z"
         fill="url(#ab)"
         id="path3812" />
    </g>
  </g>
  <g
     transform="translate(-281.668 -250.536)"
     fill="#d1373e"
     fill-rule="evenodd"
     stroke="#903014"
     id="g3814">
    <ellipse
       ry="8.482"
       rx="21.675"
       cy="328.732"
       cx="374.287"
       id="ellipse3816" />
    <ellipse
       ry="8.482"
       rx="21.675"
       cy="325.905"
       cx="374.287"
       id="ellipse3818" />
    <ellipse
       ry="8.482"
       rx="21.675"
       cy="322.449"
       cx="374.287"
       id="ellipse3820" />
    <ellipse
       ry="8.482"
       rx="21.675"
       cy="319.308"
       cx="374.287"
       id="ellipse3822" />
  </g>
  <g
     transform="translate(-281.668 -304.182)"
     fill="#f28521"
     fill-rule="evenodd"
     stroke="#b9103b"
     id="g3824">
    <ellipse
       ry="8.482"
       rx="21.675"
       cy="328.732"
       cx="374.287"
       id="ellipse3826" />
    <ellipse
       ry="8.482"
       rx="21.675"
       cy="325.905"
       cx="374.287"
       id="ellipse3828" />
    <ellipse
       ry="8.482"
       rx="21.675"
       cy="322.449"
       cx="374.287"
       id="ellipse3830" />
    <ellipse
       ry="8.482"
       rx="21.675"
       cy="319.308"
       cx="374.287"
       id="ellipse3832" />
  </g>
  <g
     transform="translate(196.226 -268.71)"
     fill="#d455d2"
     fill-rule="evenodd"
     stroke="#950499"
     id="g3834">
    <ellipse
       cx="374.287"
       cy="328.732"
       rx="21.675"
       ry="8.482"
       id="ellipse3836" />
    <ellipse
       cx="374.287"
       cy="325.905"
       rx="21.675"
       ry="8.482"
       id="ellipse3838" />
    <ellipse
       cx="374.287"
       cy="322.449"
       rx="21.675"
       ry="8.482"
       id="ellipse3840" />
    <ellipse
       cx="374.287"
       cy="319.308"
       rx="21.675"
       ry="8.482"
       id="ellipse3842" />
  </g>
  <g
     transform="translate(-281.668 -199.43)"
     fill="#6b8b28"
     fill-rule="evenodd"
     stroke="#295c22"
     id="g3844">
    <ellipse
       ry="8.482"
       rx="21.675"
       cy="328.732"
       cx="374.287"
       id="ellipse3846" />
    <ellipse
       ry="8.482"
       rx="21.675"
       cy="325.905"
       cx="374.287"
       id="ellipse3848" />
    <ellipse
       ry="8.482"
       rx="21.675"
       cy="322.449"
       cx="374.287"
       id="ellipse3850" />
    <ellipse
       ry="8.482"
       rx="21.675"
       cy="319.308"
       cx="374.287"
       id="ellipse3852" />
  </g>
  <g
     transform="translate(196.226 -90.402)"
     fill="#b3b3b3"
     fill-rule="evenodd"
     stroke="#69696c"
     id="g3854">
    <ellipse
       ry="8.482"
       rx="21.675"
       cy="328.732"
       cx="374.287"
       id="ellipse3856" />
    <ellipse
       ry="8.482"
       rx="21.675"
       cy="325.905"
       cx="374.287"
       id="ellipse3858" />
    <ellipse
       ry="8.482"
       rx="21.675"
       cy="322.449"
       cx="374.287"
       id="ellipse3860" />
    <ellipse
       ry="8.482"
       rx="21.675"
       cy="319.308"
       cx="374.287"
       id="ellipse3862" />
  </g>
  <g
     transform="translate(196.226 -217.067)"
     fill="#007e70"
     fill-rule="evenodd"
     stroke="#4c5755"
     id="g3864">
    <ellipse
       ry="8.482"
       rx="21.675"
       cy="328.732"
       cx="374.287"
       id="ellipse3866" />
    <ellipse
       ry="8.482"
       rx="21.675"
       cy="325.905"
       cx="374.287"
       id="ellipse3868" />
    <ellipse
       ry="8.482"
       rx="21.675"
       cy="322.449"
       cx="374.287"
       id="ellipse3870" />
    <ellipse
       ry="8.482"
       rx="21.675"
       cy="319.308"
       cx="374.287"
       id="ellipse3872" />
  </g>
</svg>
