<svg xmlns="http://www.w3.org/2000/svg" viewBox="0 0 1400 980" width="1400" height="980"><path d="M0 0h1400v980H0V0z" class="st0" fill="#5fccf5"/><path d="M277.7 30.1h134.8v5.3H277.7v-5.3zm0 21.5h81.7v5.3h-81.7v-5.3zm1021.9 426.8h56.1v4.8h-56.1v-4.8zM388.5 902.5H448v4.8h-59.5v-4.8zm911.1-404.7h40.6v4.8h-40.6v-4.8zm40.1 37.4h40.6v4.8h-40.6v-4.8zM871.5 167.8h56.1v4.8h-56.1v-4.8zm15.5-19.5h40.6v4.8H887v-4.8zM847 111h40.6v4.8H847V111zm2.7 259.4h81.7v4.8h-81.7v-4.8zM440.8 395h67.4v4.8h-67.4V395zm0 19.5h119.5v4.8H440.8v-4.8zm93-19.5h53v4.8h-53V395zm6.9-330.9h53v4.8h-53v-4.8zm30.7 26.8h53v4.8h-53v-4.8zM427.6 926.2h59.5v4.8h-59.5v-4.8zm29.8 20.2h29.8v4.8h-29.8v-4.8zM26.9 630.6h37v4.8h-37v-4.8zm69.9 36.3h37v4.8h-37v-4.8zm18.5 20.1h18.5v4.8h-18.5V687z" class="st1" fill="#0092bd"/><path class="st2" d="M122 195.9c-43.8 0-79.5-35.7-79.5-79.5S78.1 36.9 122 36.9s79.5 35.7 79.5 79.5-35.7 79.5-79.5 79.5zm0-157.3c-42.9 0-77.8 34.9-77.8 77.8s34.9 77.8 77.8 77.8 77.8-34.9 77.8-77.8-34.9-77.8-77.8-77.8zm19.6 176.3c-29.5 6.1-59.7-1.5-82.9-20.9l2.2-2.6c22.4 18.7 51.6 26.1 80.1 20.2l.6 3.3zm52-29.1l-2.5-2.3c13.4-14.3 21.9-32.2 24.7-51.6l3.3.5c-2.8 20.1-11.7 38.6-25.5 53.4zm7.5-119.3c-18.4-28-50.7-44.4-84.2-42.6l-.2-3.4c34.7-1.8 68.1 15.1 87.2 44.1l-2.8 1.9z" fill="#fff"/><path class="st2" d="M31 146.1l-3.2 1c-11.4-37.9.8-78.7 31.3-104l2.2 2.6C31.8 70.1 19.9 109.5 31 146.1z" fill="#fff"/><path class="st3" d="M108.1 119.5H59.6c-4.3 0-7.9-3.5-7.9-7.9V63.1c0-4.3 3.5-7.9 7.9-7.9H108c4.3 0 7.9 3.5 7.9 7.9v48.4c0 4.4-3.5 8-7.8 8z" fill="#f3ac14"/><path class="st4" d="M108.1 120.5H59.6c-4.9 0-8.9-4-8.9-8.9V63.1c0-4.9 4-8.9 8.9-8.9H108c4.9 0 8.9 4 8.9 8.9v48.4c0 5-4 9-8.8 9zM59.6 56.3c-3.8 0-6.9 3.1-6.9 6.9v48.4c0 3.8 3.1 6.9 6.9 6.9H108c3.8 0 6.9-3.1 6.9-6.9V63.1c0-3.8-3.1-6.9-6.9-6.9H59.6z" fill="#503600"/><path d="M104.9 84.5H86.7V66.3H81v18.2H62.7v5.7H81v18.3h5.7V90.2h18.2z" class="st2" fill="#fff"/><path class="st4" d="M87.4 109.2h-7.2V91H61.9v-7.2h18.3V65.5h7.2v18.3h18.3V91H87.4v18.2zm-5.6-1.5h4.1V89.4h18.3v-4.1H85.9V67h-4.1v18.3H63.5v4.1h18.3v18.3z" fill="#503600"/><path class="st3" d="M195.8 119.5h-48.4c-4.3 0-7.9-3.5-7.9-7.9V63.1c0-4.3 3.5-7.9 7.9-7.9h48.4c4.3 0 7.9 3.5 7.9 7.9v48.4c0 4.4-3.5 8-7.9 8z" fill="#f3ac14"/><path class="st4" d="M195.8 120.5h-48.4c-4.9 0-8.9-4-8.9-8.9V63.1c0-4.9 4-8.9 8.9-8.9h48.4c4.9 0 8.9 4 8.9 8.9v48.4c0 5-4 9-8.9 9zm-48.4-64.2c-3.8 0-6.9 3.1-6.9 6.9v48.4c0 3.8 3.1 6.9 6.9 6.9h48.4c3.8 0 6.9-3.1 6.9-6.9V63.1c0-3.8-3.1-6.9-6.9-6.9h-48.4z" fill="#503600"/><path class="st2" d="M168.3 76.1c0 9.2-4.8 13.8-10.5 13.8-5.4 0-10.1-4.4-10.2-13.2 0-8.7 4.8-13.6 10.6-13.6 6.1-.1 10.1 4.6 10.1 13zm-16 .4c-.1 5.6 1.9 9.8 5.6 9.8 3.9 0 5.6-4.2 5.6-9.9 0-5.3-1.5-9.7-5.6-9.7-3.7-.1-5.6 4.3-5.6 9.8zm5.1 31.7L183.1 63h3.8l-25.7 45.2h-3.8zm39.3-14c0 9.2-4.8 13.8-10.4 13.8-5.4 0-10.1-4.4-10.2-13.1 0-8.8 4.8-13.7 10.6-13.7 6.1-.1 10 4.6 10 13zm-16 .4c-.1 5.6 2.1 9.8 5.7 9.8 3.9 0 5.6-4.2 5.6-9.9 0-5.3-1.5-9.7-5.6-9.7-3.7-.1-5.7 4.2-5.7 9.8z" fill="#fff"/><path class="st4" d="M161.6 109H156l26.6-46.7h5.6L161.6 109zm-2.8-1.6h2l24.8-43.6h-2l-24.8 43.6zm27.5 1.3c-5.4 0-10.9-4.3-11-13.9 0-10 5.7-14.5 11.3-14.5 6.7 0 10.9 5.3 10.9 13.8 0 10.1-5.6 14.6-11.2 14.6zm.3-26.8c-5.8 0-9.8 5.2-9.8 12.9.1 7.5 3.8 12.3 9.4 12.3 5.9 0 9.6-5.1 9.6-13 .1-7.6-3.3-12.2-9.2-12.2zm-.2 23.3c-1.4 0-2.7-.6-3.7-1.6-1.8-1.8-2.8-5.1-2.8-9 0-6.5 2.6-10.7 6.5-10.7 4.1 0 6.4 3.8 6.4 10.5.1 6.8-2.3 10.8-6.4 10.8zm0-19.7c-3.4 0-4.9 4.6-4.9 9.1 0 3.5.8 6.4 2.3 7.9.7.8 1.6 1.1 2.6 1.1 4.4 0 4.9-6.4 4.9-9.2 0-2.7-.5-8.9-4.9-8.9zm-28.6 5.1c-5.4 0-10.9-4.3-11-14 0-8.5 4.7-14.4 11.3-14.4 6.7 0 10.9 5.3 10.9 13.8.1 10.1-5.6 14.6-11.2 14.6zm.3-26.8c-5.8 0-9.8 5.2-9.8 12.9.1 7.5 3.8 12.4 9.4 12.4 5.9 0 9.7-5.1 9.7-13 .1-7.7-3.4-12.3-9.3-12.3zm-.2 23.3c-1.4 0-2.7-.6-3.8-1.6-1.8-1.8-2.7-5.1-2.6-9 0-6.5 2.5-10.7 6.4-10.7 4.1 0 6.4 3.8 6.4 10.5.1 6.9-2.3 10.8-6.4 10.8zm0-19.7c-3.6 0-4.9 4.9-4.9 9.1-.1 3.5.7 6.3 2.2 7.9.7.8 1.6 1.2 2.7 1.2 4.4 0 4.9-6.4 4.9-9.2 0-2.7-.5-9-4.9-9z" fill="#503600"/><path class="st3" d="M108.1 196.2H59.6c-4.3 0-7.9-3.5-7.9-7.9v-48.4c0-4.3 3.5-7.9 7.9-7.9H108c4.3 0 7.9 3.5 7.9 7.9v48.4c0 4.4-3.5 7.9-7.8 7.9z" fill="#f3ac14"/><path class="st4" d="M108.1 197.2H59.6c-4.9 0-8.9-4-8.9-8.9v-48.4c0-4.9 4-8.9 8.9-8.9H108c4.9 0 8.9 4 8.9 8.9v48.4c0 4.9-4 8.9-8.8 8.9zM59.6 133c-3.8 0-6.9 3.1-6.9 6.9v48.4c0 3.8 3.1 6.9 6.9 6.9H108c3.8 0 6.9-3.1 6.9-6.9v-48.4c0-3.8-3.1-6.9-6.9-6.9H59.6z" fill="#503600"/><path class="st2" d="M105.2 161.4v5.4H62.4v-5.4h42.8z" fill="#fff"/><path class="st4" d="M106 167.6H61.6v-7H106v7zM63.2 166h41.3v-3.8H63.2v3.8z" fill="#503600"/><path class="st3" d="M195.8 196.2h-48.4c-4.3 0-7.9-3.5-7.9-7.9v-48.4c0-4.3 3.5-7.9 7.9-7.9h48.4c4.3 0 7.9 3.5 7.9 7.9v48.4c0 4.4-3.5 7.9-7.9 7.9z" fill="#f3ac14"/><path class="st4" d="M195.8 197.2h-48.4c-4.9 0-8.9-4-8.9-8.9v-48.4c0-4.9 4-8.9 8.9-8.9h48.4c4.9 0 8.9 4 8.9 8.9v48.4c0 4.9-4 8.9-8.9 8.9zM147.4 133c-3.8 0-6.9 3.1-6.9 6.9v48.4c0 3.8 3.1 6.9 6.9 6.9h48.4c3.8 0 6.9-3.1 6.9-6.9v-48.4c0-3.8-3.1-6.9-6.9-6.9h-48.4z" fill="#503600"/><path class="st5" d="M168.6 191.5v-6.9c-3.9-.1-8-1.3-10.4-3l1.6-4.5c2.4 1.6 6 2.9 9.8 2.9 4.8 0 8.1-2.8 8.1-6.7 0-3.7-2.6-6-7.7-8.1-6.9-2.7-11.2-5.8-11.2-11.7 0-5.6 4-9.9 10.2-10.9v-6.9h4.2v6.6c4.1.1 6.9 1.2 8.8 2.4l-1.7 4.5c-1.4-.8-4.2-2.3-8.6-2.3-5.2 0-7.2 3.1-7.2 5.8 0 3.5 2.5 5.3 8.4 7.7 7 2.8 10.5 6.4 10.5 12.4 0 5.4-3.7 10.4-10.7 11.5v7.1h-4.1z" fill="#fff" stroke="#503600" stroke-width="1.733" stroke-miterlimit="10"/><path class="st6" d="M530.1 189.3l-134.4-1.1-.2-13.4c0-3.2 3.3-5.8 7.3-5.7l120 1c4 0 7.2 2.7 7.2 5.9l.1 13.3z" fill="#f2632e"/><path class="st7" d="M531.2 190.4l-136.7-1.1-.2-14.5c0-1.9.9-3.7 2.6-5 1.6-1.2 3.6-1.9 5.8-1.9l120 .9c4.6 0 8.3 3.2 8.3 7l.2 14.6zm-134.5-3.3l132.2 1-.2-12.3c0-2.6-2.7-4.7-6.1-4.8l-120-.9c-1.7 0-3.2.5-4.4 1.4-1.1.9-1.7 2-1.7 3.2l.2 12.4z" fill="#672508"/><path class="st8" d="M520.6 332.9l-118.2-.9c-4.5 0-8.1-3-8.1-6.6l1.2-122.6c0-3.2 3.3-5.8 7.3-5.7l120 1c4 0 7.2 2.7 7.2 5.9l-1.2 122.6c0 3.5-3.7 6.4-8.2 6.3z" fill="#87260f"/><path class="st4" d="M520.7 334.1l-118.3-.9c-5.1 0-9.2-3.5-9.2-7.7l1.2-122.6c0-1.9.9-3.6 2.6-4.9 1.6-1.2 3.7-1.9 5.8-1.9l120 1c2.2 0 4.2.7 5.8 2 1.6 1.3 2.5 3.1 2.5 5l-1.2 122.6c0 4-4.1 7.4-9.2 7.4zm-.1-2.3c.1 0 .1 0 0 0 3.9 0 7-2.4 7-5.4l1.2-122.6c0-1.2-.6-2.4-1.7-3.2-1.2-.9-2.7-1.5-4.4-1.5l-120-1c-1.7 0-3.2.5-4.4 1.4-1.1.9-1.7 2-1.7 3.2l-1.2 122.6c0 3 3.1 5.4 7 5.5l118.2 1z" fill="#503600"/><path d="M428.1 174.5h69.4v4.9h-69.4v-4.9z" class="st9" fill="#565241"/><path class="st10" d="M498.1 180h-70.5v-6h70.5v6zm-69.4-1.1H497v-3.7h-68.3v3.7z" fill="#1b1a0c"/><path d="M429.9 178.8v-66.3h65.3v66.3" class="st2" fill="#fff"/><path d="M496.1 178.8h-1.7v-65.5h-63.6v65.5h-1.7v-67.2h67z" class="st11" fill="#b73924"/><path d="M437.8 125.7h48.5v6.5h-48.5v-6.5zm.3 17.3h48.2v3h-48.2v-3zm0 13.9h48.2v3h-48.2v-3zm0 13.6h48.2v3h-48.2v-3z" class="st12" fill="#48befe"/><path d="M528.7 320l-134.4-1.1 1.2-135L530 185z" class="st13" fill="#cc3e20"/><path class="st4" d="M529.8 321.1L393.2 320l1.3-137.2 136.7 1.1-1.4 137.2zm-134.4-3.3l132.2 1 1.2-132.7-132.2-1-1.2 132.7z" fill="#503600"/><path d="M407.942 195.777l108.4.858-.255 32.2-108.4-.858.255-32.2z" class="st14" fill="#98cb57"/><path class="st15" d="M516.1 229.5l-108.4-.9c-.2 0-.3-.1-.4-.2-.1-.1-.2-.3-.2-.5l.3-32.2c0-.4.3-.6.6-.6l108.4.9c.4 0 .6.3.6.6l-.3 32.2c0 .2-.1.3-.2.4 0 .2-.2.3-.4.3zm-107.7-2.1l107.1.8.2-30.9-107.1-.8-.2 30.9z" fill="#124d1d"/><path d="M419.464 238.723l21.3.169-.1 12.7-21.3-.169.1-12.7z" class="st2" fill="#fff"/><path class="st10" d="M441.2 252.2l-22.4-.2.1-13.9 22.4.2-.1 13.9zm-21.3-1.3l20.2.2.1-11.6-20.2-.2-.1 11.6z" fill="#1b1a0c"/><path d="M450.865 238.923l21.3.169-.1 12.7-21.3-.169.1-12.7z" class="st2" fill="#fff"/><path class="st10" d="M472.6 252.4l-22.4-.2.1-13.9 22.4.2-.1 13.9zm-21.3-1.3l20.2.2.1-11.6-20.2-.2-.1 11.6z" fill="#1b1a0c"/><path d="M482.266 239.223l21.3.17-.1 12.7-21.3-.17.1-12.7z" class="st2" fill="#fff"/><path class="st10" d="M504 252.7l-22.4-.2.1-13.9 22.4.2-.1 13.9zm-21.3-1.3l20.2.2.1-11.6-20.2-.2-.1 11.6z" fill="#1b1a0c"/><path d="M419.364 256.324l21.3.169-.1 12.7-21.3-.169.1-12.7z" class="st2" fill="#fff"/><path class="st10" d="M441.1 269.8l-22.4-.2.1-13.9 22.4.2-.1 13.9zm-21.3-1.3l20.2.2.1-11.6-20.2-.2-.1 11.6z" fill="#1b1a0c"/><path d="M450.765 256.624l21.3.169-.1 12.7-21.3-.169.1-12.7z" class="st2" fill="#fff"/><path class="st10" d="M472.5 270.1l-22.4-.2.1-13.9 22.4.2-.1 13.9zm-21.3-1.3l20.2.2.1-11.6-20.2-.2-.1 11.6z" fill="#1b1a0c"/><path d="M482.066 256.824l21.3.168-.1 12.7-21.3-.168.1-12.7z" class="st2" fill="#fff"/><path class="st10" d="M503.9 270.3l-22.4-.2.1-13.9 22.4.2-.1 13.9zm-21.3-1.3l20.2.2.1-11.6-20.2-.2-.1 11.6z" fill="#1b1a0c"/><path d="M419.364 274.025l21.3.168-.1 12.7-21.3-.168.1-12.7z" class="st2" fill="#fff"/><path class="st10" d="M441.1 287.5l-22.4-.2.1-13.9 22.4.2-.1 13.9zm-21.3-1.3l20.2.2.1-11.6-20.2-.2-.1 11.6z" fill="#1b1a0c"/><path d="M450.765 274.225l21.3.168-.1 12.7-21.3-.168.1-12.7z" class="st2" fill="#fff"/><path class="st10" d="M472.5 287.7l-22.4-.2.1-13.9 22.4.2-.1 13.9zm-21.3-1.3l20.2.2.1-11.6-20.2-.2-.1 11.6z" fill="#1b1a0c"/><path d="M482.066 274.524l21.3.169-.1 12.7-21.3-.169.1-12.7z" class="st2" fill="#fff"/><path class="st10" d="M503.9 288l-22.4-.2.1-13.9 22.4.2-.1 13.9zm-21.3-1.3l20.2.2.1-11.6-20.2-.2-.1 11.6z" fill="#1b1a0c"/><path d="M419.064 298.725l21.3.169-.1 12.7-21.3-.169.1-12.7z" class="st14" fill="#98cb57"/><path class="st15" d="M440.3 312.2L419 312c-.1 0-.3-.1-.4-.2-.1-.1-.2-.2-.2-.4l.1-12.7c0-.3.3-.6.6-.6l21.3.2c.1 0 .3.1.4.2.1.1.2.2.2.4l-.1 12.7c-.1.3-.3.6-.6.6zm-20.8-1.3l20.2.2.1-11.6-20.2-.2-.1 11.6z" fill="#124d1d"/><path d="M450.464 298.525l21.3.169-.1 12.7-21.3-.169.1-12.7z" class="st12" fill="#48befe"/><path class="st16" d="M471.6 311.9l-21.3-.2c-.1 0-.3-.1-.4-.2-.1-.1-.2-.2-.2-.4l.1-12.7c0-.3.3-.6.6-.6l21.3.2c.1 0 .3.1.4.2.1.1.2.2.2.4l-.1 12.7c0 .4-.2.6-.6.6zm-20.7-1.2l20.2.2.1-11.6-20.2-.3-.1 11.7z" fill="#004d6e"/><path d="M481.866 299.226l21.3.168-.1 12.7-21.3-.168.1-12.7z" class="st6" fill="#f2632e"/><path class="st17" d="M503 312.7l-21.3-.2c-.1 0-.3-.1-.4-.2-.1-.1-.2-.2-.2-.4l.1-12.7c0-.3.3-.6.6-.6l21.3.2c.1 0 .3.1.4.2.1.1.2.2.2.4l-.1 12.7c0 .3-.3.6-.6.6zm-20.7-1.3l20.2.2.1-11.6-20.2-.2-.1 11.6z" fill="#5a0d00"/><path d="M299.1 184.6a29.7 29.7 0 0 1-29.7 29.7 29.7 29.7 0 0 1-29.7-29.7 29.7 29.7 0 0 1 29.7-29.7 29.7 29.7 0 0 1 29.7 29.7z" class="st3" fill="#f3ac14"/><path class="st18" d="M269.4 214.8c-16.7 0-30.2-13.6-30.2-30.2 0-16.7 13.6-30.2 30.2-30.2 16.7 0 30.2 13.6 30.2 30.2 0 16.7-13.6 30.2-30.2 30.2zm0-59.4c-16.1 0-29.2 13.1-29.2 29.2s13.1 29.2 29.2 29.2 29.2-13.1 29.2-29.2-13.1-29.2-29.2-29.2z" fill="#b34326"/><path d="M295 184.6a25.6 25.6 0 0 1-25.6 25.6 25.6 25.6 0 0 1-25.6-25.6 25.6 25.6 0 0 1 25.6-25.6 25.6 25.6 0 0 1 25.6 25.6z" class="st6" fill="#f2632e"/><path d="M293.4 184.6a24 24 0 0 1-24 24 24 24 0 0 1-24-24 24 24 0 0 1 24-24 24 24 0 0 1 24 24z" class="st19" fill="#fcd116"/><path class="st6" d="M266.1 209.4v-7.9c-3.7-.2-7.2-1.2-9.3-2.3l1.6-6.4c2.3 1.3 5.5 2.4 9.1 2.4 3.2 0 5.3-1.3 5.3-3.4 0-2.1-1.7-3.4-5.8-4.7-5.8-2-9.8-4.7-9.8-10 0-4.9 3.4-8.6 9.2-9.7v-7.7h5.3v7.3c3.6.1 6.1.9 8 1.8l-1.6 6.2c-1.4-.7-3.9-1.9-7.9-1.9-3.5 0-4.7 1.6-4.7 3.1 0 1.7 1.9 2.9 6.6 4.6 6.5 2.3 9.1 5.3 9.1 10.2 0 4.9-3.4 9-9.7 10v8.3h-5.4z" fill="#f2632e"/><path d="M344.2 134.5a24 24 0 0 1-24 24 24 24 0 0 1-24-24 24 24 0 0 1 24-24 24 24 0 0 1 24 24z" class="st3" fill="#f3ac14"/><path class="st18" d="M320.2 159c-13.5 0-24.5-11-24.5-24.5s11-24.5 24.5-24.5 24.5 11 24.5 24.5-11 24.5-24.5 24.5zm0-48c-13 0-23.5 10.5-23.5 23.5s10.5 23.5 23.5 23.5 23.5-10.5 23.5-23.5-10.5-23.5-23.5-23.5z" fill="#b34326"/><path d="M340.9 134.5a20.7 20.7 0 0 1-20.7 20.7 20.7 20.7 0 0 1-20.7-20.7 20.7 20.7 0 0 1 20.7-20.7 20.7 20.7 0 0 1 20.7 20.7z" class="st6" fill="#f2632e"/><path d="M339.6 134.5a19.4 19.4 0 0 1-19.4 19.4 19.4 19.4 0 0 1-19.4-19.4 19.4 19.4 0 0 1 19.4-19.4 19.4 19.4 0 0 1 19.4 19.4z" class="st19" fill="#fcd116"/><path class="st6" d="M317.6 154.5v-6.4c-3-.1-5.8-1-7.5-1.9l1.3-5.2c1.8 1 4.4 1.9 7.3 1.9 2.6 0 4.3-1 4.3-2.7 0-1.7-1.4-2.7-4.7-3.8-4.7-1.6-7.9-3.8-7.9-8.1 0-3.9 2.7-7 7.4-7.8v-6.2h4.3v5.9c2.9.1 4.9.7 6.4 1.5l-1.3 5c-1.1-.5-3.2-1.5-6.3-1.5-2.9 0-3.8 1.3-3.8 2.5 0 1.4 1.5 2.4 5.3 3.7 5.2 1.8 7.3 4.3 7.3 8.3 0 3.9-2.7 7.3-7.8 8.1v6.7h-4.3z" fill="#f2632e"/><path d="M395.3 125.1a19.4 19.4 0 0 1-19.4 19.4 19.4 19.4 0 0 1-19.4-19.4 19.4 19.4 0 0 1 19.4-19.4 19.4 19.4 0 0 1 19.4 19.4z" class="st3" fill="#f3ac14"/><path class="st18" d="M375.9 145c-11 0-19.9-8.9-19.9-19.9 0-11 8.9-19.9 19.9-19.9 11 0 19.9 8.9 19.9 19.9 0 11-9 19.9-19.9 19.9zm0-38.8c-10.4 0-18.9 8.5-18.9 18.9 0 10.4 8.5 18.9 18.9 18.9s18.9-8.5 18.9-18.9c0-10.4-8.5-18.9-18.9-18.9z" fill="#b34326"/><path d="M392.6 125.1a16.7 16.7 0 0 1-16.7 16.7 16.7 16.7 0 0 1-16.7-16.7 16.7 16.7 0 0 1 16.7-16.7 16.7 16.7 0 0 1 16.7 16.7z" class="st6" fill="#f2632e"/><path d="M391.6 125.1a15.7 15.7 0 0 1-15.7 15.7 15.7 15.7 0 0 1-15.7-15.7 15.7 15.7 0 0 1 15.7-15.7 15.7 15.7 0 0 1 15.7 15.7z" class="st19" fill="#fcd116"/><path class="st6" d="M373.7 141.2V136c-2.4-.1-4.7-.8-6-1.5l1.1-4.2c1.5.8 3.6 1.6 5.9 1.6 2.1 0 3.5-.8 3.5-2.2 0-1.4-1.1-2.2-3.8-3.1-3.8-1.3-6.4-3.1-6.4-6.5 0-3.2 2.2-5.6 6-6.3v-5h3.5v4.8c2.3.1 3.9.6 5.2 1.2l-1.1 4c-.9-.4-2.6-1.2-5.1-1.2-2.3 0-3.1 1-3.1 2 0 1.1 1.2 1.9 4.3 3 4.2 1.5 5.9 3.5 5.9 6.7s-2.2 5.9-6.3 6.5v5.4h-3.6z" fill="#f2632e"/><path d="M438.7 138.1a15.6 15.6 0 0 1-15.6 15.6 15.6 15.6 0 0 1-15.6-15.6 15.6 15.6 0 0 1 15.6-15.6 15.6 15.6 0 0 1 15.6 15.6z" class="st3" fill="#f3ac14"/><path class="st18" d="M423.1 154.2c-8.9 0-16.1-7.2-16.1-16.1 0-8.9 7.2-16.1 16.1-16.1 8.9 0 16.1 7.2 16.1 16.1-.1 8.9-7.3 16.1-16.1 16.1zm0-31.2c-8.3 0-15.1 6.8-15.1 15.1s6.8 15.1 15.1 15.1 15.1-6.8 15.1-15.1c-.1-8.3-6.8-15.1-15.1-15.1z" fill="#b34326"/><path d="M436.5 138.1a13.4 13.4 0 0 1-13.4 13.4 13.4 13.4 0 0 1-13.4-13.4 13.4 13.4 0 0 1 13.4-13.4 13.4 13.4 0 0 1 13.4 13.4z" class="st6" fill="#f2632e"/><path d="M435.7 138.1a12.6 12.6 0 0 1-12.6 12.6 12.6 12.6 0 0 1-12.6-12.6 12.6 12.6 0 0 1 12.6-12.6 12.6 12.6 0 0 1 12.6 12.6z" class="st19" fill="#fcd116"/><path class="st6" d="M421.4 151.1V147c-1.9-.1-3.8-.6-4.9-1.2l.9-3.3c1.2.7 2.9 1.3 4.7 1.3 1.7 0 2.8-.7 2.8-1.8s-.9-1.8-3.1-2.5c-3.1-1-5.1-2.5-5.1-5.2 0-2.5 1.8-4.5 4.8-5.1v-4h2.8v3.8c1.9.1 3.2.5 4.2.9l-.9 3.2c-.7-.3-2.1-1-4.1-1-1.9 0-2.5.8-2.5 1.6 0 .9 1 1.5 3.5 2.4 3.4 1.2 4.7 2.8 4.7 5.4 0 2.5-1.8 4.7-5.1 5.3v4.4h-2.7zM460.3 700.4H267.9c-67.2 0-121.9-54.7-121.9-121.9V421.2h80v157.3c0 23.1 18.8 41.9 41.9 41.9h192.4v80z" fill="#f2632e"/><path class="st7" d="M461.9 701.9h-194c-68 0-123.4-55.4-123.4-123.4V419.7h83.1v158.8c0 22.2 18.1 40.3 40.3 40.3h194v83.1zM147.6 422.8v155.7c0 66.3 54 120.3 120.3 120.3h190.9v-76.9H267.9c-23.9 0-43.4-19.5-43.4-43.4V422.8h-76.9z" fill="#672508"/><path class="st20" d="M192 313.4v-.1h-56.2l10.3 24.8-.1 79.8h80.1l.4-75.4c23-7.4 33.9-29 33.9-29l-68.4-.1z" fill="#ffe9ac"/><path class="st21" d="M226.9 418.6h-81.7l.1-80.4-10.7-25.7h58.2v.1h68.8l-.6 1.2c-.1.2-11.1 21.7-33.8 29.2l-.3 75.6zm-80.1-1.6h78.5l.4-75.2.6-.2c19.4-6.2 30.1-22.9 32.7-27.5h-67.7v-.1H137l9.9 23.8v.2l-.1 79zM192 313.4z" fill="#e86033"/><path d="M138.6 421.2h94.1l.2-28.2h-94.2z" class="st2" fill="#fff"/><path class="st22" d="M233.4 421.9h-95.5l.1-29.6h95.6l-.2 29.6zm-94.1-1.3H232l.2-26.9h-92.9v26.9z" fill="#004f66"/><path class="st2" d="M165.9 307.4l-.4-78.6c0-3.3 2.6-6 5.9-6l142.4-.8c3.3 0 6 2.6 6 5.9l.4 78.6c0 3.3-2.6 6-5.9 6l-142.4.8c-3.3.1-6-2.6-6-5.9z" fill="#fff"/><path class="st23" d="M171.8 314.7c-1.9 0-3.7-.7-5.1-2.1-1.4-1.4-2.2-3.2-2.2-5.1l-.4-78.6c0-4 3.2-7.3 7.2-7.3l142.4-.8c2-.1 3.8.7 5.2 2.1 1.4 1.4 2.2 3.2 2.2 5.1l.4 78.6c0 1.9-.7 3.8-2.1 5.2-1.4 1.4-3.2 2.2-5.1 2.2l-142.5.7c.1 0 .1 0 0 0zm142-91.3l-142.4.8c-2.5 0-4.6 2.1-4.6 4.6l.4 78.6c0 1.2.5 2.4 1.4 3.2.9.9 2.1 1.4 3.3 1.3l142.4-.8c1.2 0 2.4-.5 3.2-1.4.9-.9 1.3-2 1.3-3.3l-.4-78.6c0-2.4-2.1-4.4-4.6-4.4z" fill="#963b14"/><path d="M292.1 291.2a12.3 12.3 0 0 1-12.3 12.3 12.3 12.3 0 0 1-12.3-12.3 12.3 12.3 0 0 1 12.3-12.3 12.3 12.3 0 0 1 12.3 12.3z" class="st6" fill="#f2632e"/><path class="st23" d="M279.8 304.9c-3.6 0-7.1-1.4-9.6-4-2.6-2.6-4-6-4-9.6 0-3.6 1.4-7.1 4-9.6 2.6-2.6 6-4 9.6-4 3.6 0 7.1 1.4 9.6 4 2.6 2.6 4 6 4 9.6 0 3.6-1.4 7.1-4 9.6-2.5 2.5-6 4-9.6 4zm0-24.7c-2.9 0-5.7 1.1-7.8 3.2-2.1 2.1-3.2 4.8-3.2 7.8s1.1 5.7 3.2 7.8c2.1 2.1 4.8 3.2 7.8 3.2 2.9 0 5.7-1.1 7.8-3.2 2.1-2.1 3.2-4.8 3.2-7.8 0-6.1-4.9-11-11-11z" fill="#963b14"/><path d="M306.7 291.2a12.3 12.3 0 0 1-12.3 12.3 12.3 12.3 0 0 1-12.3-12.3 12.3 12.3 0 0 1 12.3-12.3 12.3 12.3 0 0 1 12.3 12.3z" class="st14" fill="#98cb57"/><path class="st24" d="M294.4 305.1c-3.7 0-7.2-1.4-9.8-4.1-2.6-2.6-4.1-6.1-4.1-9.8 0-7.6 6.2-13.9 13.9-13.9 7.6 0 13.9 6.2 13.9 13.9-.1 7.7-6.3 13.9-13.9 13.9zm0-24.7c-2.9 0-5.6 1.1-7.6 3.2-2 2-3.2 4.7-3.2 7.6 0 2.9 1.1 5.6 3.2 7.6 2 2 4.7 3.2 7.6 3.2 2.9 0 5.6-1.1 7.6-3.2 2-2 3.2-4.7 3.2-7.6 0-2.9-1.1-5.6-3.2-7.6s-4.8-3.2-7.6-3.2z" fill="#51a451"/><path d="M167.763 238.93l149.8-.852.082 14.5-149.8.852-.082-14.5z" class="st25" fill="#008cce"/><path class="st26" d="M167.8 254.4c-.3 0-.5-.1-.7-.3-.2-.2-.3-.4-.3-.7l-.1-14.5c0-.6.4-1 1-1l149.8-.9c.2 0 .5.1.7.3.2.2.3.4.3.7l.1 14.5c0 .6-.4 1-1 1l-149.8.9zm.9-14.5l.1 12.5 147.8-.8-.1-12.5-147.8.8z" fill="#009edc"/><path d="M175.573 286.002l69.3-.394.062 10.9-69.3.394-.062-10.9z" class="st25" fill="#008cce"/><path class="st26" d="M175.7 297.9c-.5 0-1-.4-1-1l-.1-10.9c0-.3.1-.5.3-.7.2-.2.4-.3.7-.3l69.3-.4c.3 0 .5.1.7.3.2.2.3.4.3.7l.1 10.9c0 .6-.4 1-1 1l-69.3.4zm.9-10.9l.1 8.9 67.3-.4-.1-8.9-67.3.4z" fill="#009edc"/><path class="st20" d="M191.9 318.2c1.2-21.4-10.1-35.6-22.8-42.7l-.3-.8 11.9-34.2c2.1-6.2.1-15-4.5-19.6-7.3-4.8-17.1-2-20.7 6l-16.9 37.8c-2.3 5.1-4 10.5-5.1 15.9-2.4 12.2-.9 24.9 3.9 36.5l8.8 21-.1 38.7" fill="#ffe9ac"/><path class="st21" d="M146.8 376.7h-1.6l.1-38.5-8.7-20.8c-5-12-6.3-24.7-3.9-36.9 1.1-5.5 2.8-11 5.1-16.1l16.9-37.8c1.8-4 5.3-7 9.5-8.2 4.2-1.2 8.7-.5 12.4 1.9l.1.1c4.8 4.8 6.9 14 4.7 20.4l-11.8 33.9.1.3c7.6 4.3 24.4 16.9 23 43.3l-1.6-.1c1.4-25.8-15.2-37.9-22.4-42l-.3-.1-.5-1.3 12-34.4c2.1-5.9.1-14.3-4.2-18.7-3.3-2.1-7.3-2.7-11-1.6-3.8 1.1-6.9 3.7-8.5 7.3L139.3 265c-2.3 5-4 10.3-5 15.8-2.4 11.9-1.1 24.3 3.8 36l8.8 21.1-.1 38.8z" fill="#e86033"/><g><path class="st27" d="M432 543.1H260.8c-9.9 0-18-8-18-18v-41.6c0-9.9 8-18 18-18H432c9.9 0 18 8 18 18v41.6c-.1 10-8.1 18-18 18z" fill="#f15a35"/><path class="st28" d="M432 543.9H260.8c-10.3 0-18.7-8.4-18.7-18.7v-41.6c0-10.3 8.4-18.7 18.7-18.7H432c10.3 0 18.7 8.4 18.7 18.7v41.6c0 10.3-8.4 18.7-18.7 18.7zm-171.2-77.5c-9.5 0-17.2 7.7-17.2 17.2v41.6c0 9.5 7.7 17.2 17.2 17.2H432c9.5 0 17.2-7.7 17.2-17.2v-41.6c0-9.5-7.7-17.2-17.2-17.2H260.8z" fill="#9e391c"/><path class="st2" d="M258.2 476.6h8.5v54.1h-8.5v-54.1zm22.4 14.9h-.2v39.2h-7.6v-54.1h10.7L292 509h.2v-32.4h7.6v54.1H291l-10.4-39.2zm49.9 19v7.2c0 8.7-4.3 13.6-12.7 13.6-8.3 0-12.7-4.9-12.7-13.6v-28.1c0-8.7 4.3-13.6 12.7-13.6 8.3 0 12.7 4.9 12.7 13.6v5.3h-8V489c0-3.9-1.7-5.3-4.4-5.3s-4.4 1.5-4.4 5.3v29.2c0 3.9 1.7 5.3 4.4 5.3s4.4-1.4 4.4-5.3v-7.7h8zm4.5-20.9c0-8.7 4.6-13.6 12.9-13.6s12.9 4.9 12.9 13.6v28.1c0 8.7-4.6 13.6-12.9 13.6s-12.9-4.9-12.9-13.6v-28.1zm8.5 28.6c0 3.9 1.7 5.3 4.4 5.3s4.4-1.5 4.4-5.3V489c0-3.9-1.7-5.3-4.4-5.3s-4.4 1.5-4.4 5.3v29.2zm40.7-3.2h.2l5.7-38.4h11.8v54.1h-8v-38.8h-.2l-5.7 38.8h-8l-6.2-38.2h-.2v38.2h-7.4v-54.1H378l6.2 38.4zm32.3-15.6h11.7v7.7h-11.7v15.8h14.7v7.7H408v-54.1h23.2v7.7h-14.7v15.2z" fill="#fff"/></g><g><path class="st29" d="M808.8 278.8V147.5h-81.3V209l-46.3-53.9c-7.8-9.1-21.5-10.1-30.6-2.3-9.1 7.8-10.1 21.5-2.3 30.6l22.1 25.8-63.1-18.8c-11.5-3.4-23.6 3.1-27 14.6-3.4 11.5 3.1 23.6 14.6 27l57.3 17.1c-12.9 15.7-20.7 35.8-20.7 57.7 0 21.4 7.6 42.3 21.4 58.6 4.1 4.9 10 7.4 15.9 7.4 4.7 0 9.5-1.6 13.4-4.9 8.8-7.4 9.9-20.5 2.5-29.2-7.5-8.9-11.6-20.2-11.6-31.9 0-27.3 22.2-49.4 49.4-49.4 27.3 0 49.4 22.2 49.4 49.4 0 11.1-3.6 21.6-10.4 30.3-7 9-5.4 22.1 3.6 29.1s22.1 5.4 29.1-3.6c12.5-16.1 19.1-35.4 19.1-55.8-.1-9.8-1.3-18.3-4.5-28z" fill="#f2c395"/><path class="st30" d="M668.7 373.8c-6.4 0-12.5-2.8-16.6-7.7-14-16.5-21.7-37.6-21.7-59.3 0-20.7 7.1-41 20-57.2l-55.9-16.7c-5.8-1.7-10.6-5.6-13.5-11-2.9-5.3-3.5-11.5-1.8-17.3 1.7-5.8 5.6-10.6 11-13.5s11.5-3.5 17.3-1.8l59.8 17.9-19.9-23.1c-4-4.6-5.9-10.5-5.4-16.5.5-6.1 3.3-11.6 7.9-15.5 4.6-4 10.5-5.9 16.5-5.4 6.1.5 11.6 3.3 15.5 7.9l44.5 51.8v-59.8h83.3v132.1c3.1 9.5 4.4 17.9 4.4 28.2 0 20.7-6.7 40.2-19.4 56.4-7.4 9.5-21.1 11.2-30.5 3.8-9.5-7.4-11.2-21.1-3.8-30.5 6.7-8.6 10.2-18.8 10.2-29.7 0-26.7-21.7-48.4-48.4-48.4s-48.4 21.7-48.4 48.4c0 11.4 4 22.5 11.4 31.2 7.7 9.2 6.6 22.9-2.6 30.7-3.8 3.2-8.8 5-13.9 5zM601 190.4c-3.4 0-6.7.8-9.8 2.5-4.9 2.6-8.4 7-10 12.3-1.6 5.3-1 10.9 1.6 15.8s7 8.4 12.3 10l58.8 17.5-1 1.2c-13.2 16-20.5 36.3-20.5 57.1 0 21.2 7.5 41.8 21.2 58 3.8 4.4 9.3 7 15.1 7 4.6 0 9.2-1.7 12.7-4.7 8.3-7 9.4-19.5 2.3-27.8a50.27 50.27 0 0 1-11.9-32.5c0-27.8 22.6-50.4 50.4-50.4 27.8 0 50.4 22.6 50.4 50.4 0 11.3-3.7 22-10.6 31-6.7 8.6-5.1 21 3.4 27.7 8.6 6.7 21 5.1 27.7-3.4 12.4-15.9 18.9-35 18.9-55.2 0-10.1-1.3-18.4-4.4-27.7-.1-.2-.1-.2-.1-130.6h-79.3v63.2l-48.1-56c-3.6-4.2-8.6-6.7-14.1-7.2-5.5-.4-10.9 1.3-15.1 4.9-8.7 7.4-9.7 20.5-2.2 29.2l24.4 28.4-66.1-19.8c-2-.6-4-.9-6-.9z" fill="#744215"/><path d="M721 118.7h95v49.1h-95v-49.1z" class="st2" fill="#fff"/><path class="st4" d="M816.9 168.8h-97v-51.1h97v51.1zm-94.9-2h93v-47.1h-93v47.1z" fill="#503600"/><path d="M713.4 0h110.1v118.7H713.4V0z" class="st3" fill="#f3ac14"/><path class="st4" d="M824.5 119.7H712.4V-1h112.1v120.7zm-110.1-2h108.1V1H714.4v116.7z" fill="#503600"/><path d="M767.1 384.3a44.8 44.8 0 0 1-44.8 44.8 44.8 44.8 0 0 1-44.8-44.8 44.8 44.8 0 0 1 44.8-44.8 44.8 44.8 0 0 1 44.8 44.8z" class="st3" fill="#f3ac14"/><path class="st18" d="M722.3 430.1c-25.2 0-45.8-20.5-45.8-45.8 0-25.2 20.5-45.8 45.8-45.8 25.2 0 45.8 20.5 45.8 45.8 0 25.3-20.5 45.8-45.8 45.8zm0-89.5c-24.1 0-43.8 19.6-43.8 43.8 0 24.1 19.6 43.8 43.8 43.8 24.1 0 43.8-19.6 43.8-43.8 0-24.2-19.6-43.8-43.8-43.8z" fill="#b34326"/><path d="M760.9 384.3a38.6 38.6 0 0 1-38.6 38.6 38.6 38.6 0 0 1-38.6-38.6 38.6 38.6 0 0 1 38.6-38.6 38.6 38.6 0 0 1 38.6 38.6z" class="st6" fill="#f2632e"/><path d="M758.5 384.3a36.2 36.2 0 0 1-36.2 36.2 36.2 36.2 0 0 1-36.2-36.2 36.2 36.2 0 0 1 36.2-36.2 36.2 36.2 0 0 1 36.2 36.2z" class="st19" fill="#fcd116"/><path class="st31" d="M718.7 414.2v-9.9c-4.6-.2-9-1.5-11.7-2.9l2.1-8c2.9 1.6 6.9 3 11.4 3 4 0 6.6-1.6 6.6-4.2s-2.2-4.3-7.3-6c-7.3-2.5-12.3-5.9-12.3-12.5 0-6.1 4.3-10.8 11.6-12.2v-9.7h6.7v9.2c4.5.1 7.6 1.2 10 2.3l-2.1 7.7c-1.7-.8-4.9-2.4-9.9-2.4-4.5 0-5.9 2-5.9 3.9 0 2.2 2.4 3.7 8.3 5.8 8.2 2.9 11.4 6.6 11.4 12.9 0 6.1-4.3 11.3-12.1 12.6v10.5h-6.8z" fill="#f08024"/><path class="st32" d="M726.9 415.6h-9.6v-10c-4-.4-8.2-1.5-10.9-3l-1-.5 2.8-10.8 1.6.9c1.9 1.1 5.9 2.8 10.7 2.8 2.5 0 5.2-.7 5.2-2.8 0-1.5-1.1-2.9-6.4-4.6-6.2-2.1-13.3-5.5-13.3-13.9 0-6.6 4.4-11.6 11.6-13.3v-10h9.5v9.3c4.4.3 7.3 1.5 9.2 2.3l1.1.5-2.8 10.5-1.5-.7c-1.7-.8-4.7-2.3-9.3-2.3-1.7 0-4.5.3-4.5 2.5 0 1.3 2.1 2.6 7.4 4.5 8.6 3 12.3 7.3 12.3 14.2 0 6.8-4.7 12.1-12.1 13.8v10.6zm-6.8-2.8h4v-10.3l1.2-.2c6.8-1.1 11-5.4 11-11.2 0-5.7-2.9-8.9-10.4-11.6-6-2.2-9.2-3.9-9.2-7.2 0-2.6 1.9-5.3 7.3-5.3 4 0 7 1 8.9 1.8l1.3-4.9c-1.9-.8-4.6-1.5-8.4-1.7h-1.4V353h-3.9v9.5l-1.2.2c-6.5 1.2-10.4 5.3-10.4 10.8 0 5.2 3.4 8.5 11.4 11.2 5 1.7 8.3 3.5 8.3 7.3 0 3.4-3.2 5.7-8.1 5.7-4.3 0-8-1.3-10.4-2.4l-1.3 5.2c2.3 1 5.9 2.1 10.1 2.3l1.3.1v9.9z" fill="#c4521d"/></g><g><path class="st3" d="M1352.6 708.8h-83.5c-1.2 0-2.2-1-2.2-2.2v-10.5c0-1.2 1-2.2 2.2-2.2h83.5c1.2 0 2.2 1 2.2 2.2v10.5c0 1.2-1 2.2-2.2 2.2z" fill="#f3ac14"/><path class="st18" d="M1352.6 709.2h-83.5c-1.5 0-2.7-1.2-2.7-2.7V696c0-1.5 1.2-2.7 2.7-2.7h83.5c1.5 0 2.7 1.2 2.7 2.7v10.5c0 1.5-1.2 2.7-2.7 2.7zm-83.5-14.9c-1 0-1.8.8-1.8 1.8v10.5c0 1 .8 1.8 1.8 1.8h83.5c1 0 1.8-.8 1.8-1.8v-10.5c0-1-.8-1.8-1.8-1.8h-83.5z" fill="#b34326"/><path d="M1308.2 694.3h6.1v14h-6.1v-14zm13.1 0h23.2v14h-23.2v-14z" class="st33" fill="#f4c84e"/><path class="st3" d="M1356.4 724.3h-83.5c-1.2 0-2.2-1-2.2-2.2v-10.5c0-1.2 1-2.2 2.2-2.2h83.5c1.2 0 2.2 1 2.2 2.2V722c.1 1.3-.9 2.3-2.2 2.3z" fill="#f3ac14"/><path class="st18" d="M1356.4 724.7h-83.5c-1.5 0-2.7-1.2-2.7-2.7v-10.5c0-1.5 1.2-2.7 2.7-2.7h83.5c1.5 0 2.7 1.2 2.7 2.7V722c0 1.5-1.2 2.7-2.7 2.7zm-83.5-14.9c-1 0-1.8.8-1.8 1.8V722c0 1 .8 1.8 1.8 1.8h83.5c1 0 1.8-.8 1.8-1.8v-10.5c0-1-.8-1.8-1.8-1.8h-83.5z" fill="#b34326"/><path d="M1325.1 709.9h23.2v13.9h-23.2v-13.9z" class="st33" fill="#f4c84e"/><path class="st3" d="M1352.6 739.7h-83.5c-1.2 0-2.2-1-2.2-2.2V727c0-1.2 1-2.2 2.2-2.2h83.5c1.2 0 2.2 1 2.2 2.2v10.5c0 1.2-1 2.2-2.2 2.2z" fill="#f3ac14"/><path class="st18" d="M1352.6 740.2h-83.5c-1.5 0-2.7-1.2-2.7-2.7V727c0-1.5 1.2-2.7 2.7-2.7h83.5c1.5 0 2.7 1.2 2.7 2.7v10.5c0 1.5-1.2 2.7-2.7 2.7zm-83.5-15c-1 0-1.8.8-1.8 1.8v10.5c0 1 .8 1.8 1.8 1.8h83.5c1 0 1.8-.8 1.8-1.8V727c0-1-.8-1.8-1.8-1.8h-83.5z" fill="#b34326"/><path d="M1321.3 725.3h23.2v13.8h-23.2v-13.8z" class="st33" fill="#f4c84e"/><path class="st3" d="M1352.6 755.2h-83.5c-1.2 0-2.2-1-2.2-2.2v-10.5c0-1.2 1-2.2 2.2-2.2h83.5c1.2 0 2.2 1 2.2 2.2V753c0 1.2-1 2.2-2.2 2.2z" fill="#f3ac14"/><path class="st18" d="M1352.6 755.6h-83.5c-1.5 0-2.7-1.2-2.7-2.7v-10.5c0-1.5 1.2-2.7 2.7-2.7h83.5c1.5 0 2.7 1.2 2.7 2.7v10.5c0 1.5-1.2 2.7-2.7 2.7zm-83.5-14.9c-1 0-1.8.8-1.8 1.8V753c0 1 .8 1.8 1.8 1.8h83.5c1 0 1.8-.8 1.8-1.8v-10.5c0-1-.8-1.8-1.8-1.8h-83.5z" fill="#b34326"/><path d="M1321.3 740.9h23.2v13.6h-23.2v-13.6z" class="st33" fill="#f4c84e"/><path class="st3" d="M1349.9 693.1h-83.5c-1.2 0-2.2-1-2.2-2.2v-10.5c0-1.2 1-2.2 2.2-2.2h83.5c1.2 0 2.2 1 2.2 2.2v10.5c0 1.2-1 2.2-2.2 2.2z" fill="#f3ac14"/><path class="st18" d="M1349.9 693.6h-83.5c-1.5 0-2.7-1.2-2.7-2.7v-10.5c0-1.5 1.2-2.7 2.7-2.7h83.5c1.5 0 2.7 1.2 2.7 2.7v10.5c0 1.5-1.2 2.7-2.7 2.7zm-83.5-14.9c-1 0-1.8.8-1.8 1.8V691c0 1 .8 1.8 1.8 1.8h83.5c1 0 1.8-.8 1.8-1.8v-10.5c0-1-.8-1.8-1.8-1.8h-83.5z" fill="#b34326"/><path d="M1305.5 678.7h6.1v14h-6.1v-14zm13.1 0h23.2v14h-23.2v-14z" class="st33" fill="#f4c84e"/><path class="st2" d="M1279.3 483.5h-133.5c-5 0-9.1 4.1-9.1 9.9v249.4c0 2.9 1 5.5 2.6 7.4-.2-.4-.4-.8-.6-1.3 1.6 3 4.5 5.1 7.7 5.1h132.8c5 0 9.1-4.7 9.1-10.6V494.1c0-5.8-4-10.6-9-10.6zm-.9 235.6h-131.2v-210h131.2v210z" fill="#fff"/><path class="st11" d="M1279.3 755.1h-132.8c-3.1 0-5.9-1.6-7.8-4.2l-.1.1c-1.9-2.2-2.9-5.1-2.9-8.1V493.4c0-6.3 4.4-11 10.1-11h133.5c5.6 0 10.2 5.2 10.2 11.6v249.4c-.1 6.5-4.6 11.7-10.2 11.7zm-139.7-6.6c1.5 2.8 4 4.5 6.8 4.5h132.8c4.4 0 8-4.3 8-9.5V494.1c0-5.2-3.6-9.5-8-9.5h-133.5c-4.6 0-8 3.8-8 8.8v249.4c0 2.1.6 4.1 1.6 5.8l.3-.1zm139.9-28.3h-133.3V508.1h133.3v212.1zm-131.2-2.1h129V510.2h-129v207.9z" fill="#b73924"/><path class="st6" d="M1221.5 738.9c0-4.8-3.9-8.7-8.7-8.7-4.8 0-8.7 3.9-8.7 8.7 0 .5.1 1 .1 1.5v.2c0 .2.1.4.2.6l.3.9.3.6c.1.3.3.6.5.9.1.2.2.3.3.5.2.3.4.5.6.8l.4.4c.3.2.5.5.8.7.1.1.3.2.4.3.3.2.7.4 1 .6.1.1.2.1.4.2.4.2.8.3 1.3.4.1 0 .2.1.3.1.5.1 1.1.2 1.7.2h.1c4.3-.1 7.7-2.8 8.4-6.8v-.1c0-.1 0-.2.1-.2.2-.8.2-1.3.2-1.8zm6.7-241.5h-30.8c-.4 0-.8-.1-1.1-.4.3 1.3 1.1 2.3 2.1 2.3h28.7c1 0 1.8-1 2.1-2.3-.2.2-.6.4-1 .4zm-81.6 7h131.9V724h-131.9V504.4z" fill="#f2632e"/><path class="st7" d="M1280 725.5h-135V502.8h135v222.7zm-131.9-3.1h128.8V505.9h-128.8v216.5z" fill="#672508"/><path d="M1161.5 530.1h102.6v8.4h-102.6v-8.4zm0 21.9h102.6v8.4h-102.6V552zm0 21.9h69v8.4h-69v-8.4z" class="st2" fill="#fff"/><path class="st3" d="M1168.9 630.7h-83.5c-1.2 0-2.2-1-2.2-2.2V618c0-1.2 1-2.2 2.2-2.2h83.5c1.2 0 2.2 1 2.2 2.2v10.5c0 1.2-1 2.2-2.2 2.2z" fill="#f3ac14"/><path class="st18" d="M1168.9 631.2h-83.5c-1.5 0-2.7-1.2-2.7-2.7V618c0-1.5 1.2-2.7 2.7-2.7h83.5c1.5 0 2.7 1.2 2.7 2.7v10.5c0 1.5-1.2 2.7-2.7 2.7zm-83.5-15c-1 0-1.8.8-1.8 1.8v10.5c0 1 .8 1.8 1.8 1.8h83.5c1 0 1.8-.8 1.8-1.8V618c0-1-.8-1.8-1.8-1.8h-83.5z" fill="#b34326"/><path d="M1124.5 616.3h6.1v14h-6.1v-14zm13.1 0h23.2v14h-23.2v-14z" class="st33" fill="#f4c84e"/><path class="st3" d="M1168.9 646.2h-83.5c-1.2 0-2.2-1-2.2-2.2v-10.5c0-1.2 1-2.2 2.2-2.2h83.5c1.2 0 2.2 1 2.2 2.2V644c0 1.2-1 2.2-2.2 2.2z" fill="#f3ac14"/><path class="st18" d="M1168.9 646.6h-83.5c-1.5 0-2.7-1.2-2.7-2.7v-10.5c0-1.5 1.2-2.7 2.7-2.7h83.5c1.5 0 2.7 1.2 2.7 2.7v10.5c0 1.5-1.2 2.7-2.7 2.7zm-83.5-14.9c-1 0-1.8.8-1.8 1.8V644c0 1 .8 1.8 1.8 1.8h83.5c1 0 1.8-.8 1.8-1.8v-10.5c0-1-.8-1.8-1.8-1.8h-83.5z" fill="#b34326"/><path d="M1124.5 631.7h6.1v14h-6.1v-14zm13.1 0h23.2v14h-23.2v-14z" class="st33" fill="#f4c84e"/><path class="st3" d="M1168.9 661.6h-83.5c-1.2 0-2.2-1-2.2-2.2v-10.5c0-1.2 1-2.2 2.2-2.2h83.5c1.2 0 2.2 1 2.2 2.2v10.5c0 1.2-1 2.2-2.2 2.2z" fill="#f3ac14"/><path class="st18" d="M1168.9 662.1h-83.5c-1.5 0-2.7-1.2-2.7-2.7v-10.5c0-1.5 1.2-2.7 2.7-2.7h83.5c1.5 0 2.7 1.2 2.7 2.7v10.5c0 1.5-1.2 2.7-2.7 2.7zm-83.5-14.9c-1 0-1.8.8-1.8 1.8v10.5c0 1 .8 1.8 1.8 1.8h83.5c1 0 1.8-.8 1.8-1.8V649c0-1-.8-1.8-1.8-1.8h-83.5z" fill="#b34326"/><path d="M1124.5 647.1h6.1v14h-6.1v-14zm13.1 0h23.2v14h-23.2v-14z" class="st33" fill="#f4c84e"/><path class="st3" d="M1179.4 723.9h-83.5c-1.2 0-2.2-1-2.2-2.2v-10.5c0-1.2 1-2.2 2.2-2.2h83.5c1.2 0 2.2 1 2.2 2.2v10.5c0 1.2-1 2.2-2.2 2.2z" fill="#f3ac14"/><path class="st18" d="M1179.4 724.4h-83.5c-1.5 0-2.7-1.2-2.7-2.7v-10.5c0-1.5 1.2-2.7 2.7-2.7h83.5c1.5 0 2.7 1.2 2.7 2.7v10.5c-.1 1.5-1.3 2.7-2.7 2.7zm-83.5-14.9c-1 0-1.8.8-1.8 1.8v10.5c0 1 .8 1.8 1.8 1.8h83.5c1 0 1.8-.8 1.8-1.8v-10.5c0-1-.8-1.8-1.8-1.8h-83.5z" fill="#b34326"/><path d="M1134.9 709.5h6.1v14h-6.1v-14zm13.1 0h23.2v14H1148v-14z" class="st33" fill="#f4c84e"/><path class="st3" d="M1170.1 739.4h-83.5c-1.2 0-2.2-1-2.2-2.2v-10.5c0-1.2 1-2.2 2.2-2.2h83.5c1.2 0 2.2 1 2.2 2.2v10.5c0 1.2-1 2.2-2.2 2.2z" fill="#f3ac14"/><path class="st18" d="M1170.1 739.8h-83.5c-1.5 0-2.7-1.2-2.7-2.7v-10.5c0-1.5 1.2-2.7 2.7-2.7h83.5c1.5 0 2.7 1.2 2.7 2.7v10.5c-.1 1.5-1.3 2.7-2.7 2.7zm-83.5-14.9c-1 0-1.8.8-1.8 1.8v10.5c0 1 .8 1.8 1.8 1.8h83.5c1 0 1.8-.8 1.8-1.8v-10.5c0-1-.8-1.8-1.8-1.8h-83.5z" fill="#b34326"/><path d="M1125.6 724.9h6.1v14h-6.1v-14zm13.2 0h23.2v14h-23.2v-14z" class="st33" fill="#f4c84e"/><path class="st3" d="M1179.4 754.8h-83.5c-1.2 0-2.2-1-2.2-2.2v-10.5c0-1.2 1-2.2 2.2-2.2h83.5c1.2 0 2.2 1 2.2 2.2v10.5c0 1.2-1 2.2-2.2 2.2z" fill="#f3ac14"/><path class="st18" d="M1179.4 755.3h-83.5c-1.5 0-2.7-1.2-2.7-2.7v-10.5c0-1.5 1.2-2.7 2.7-2.7h83.5c1.5 0 2.7 1.2 2.7 2.7v10.5c-.1 1.5-1.3 2.7-2.7 2.7zm-83.5-14.9c-1 0-1.8.8-1.8 1.8v10.5c0 1 .8 1.8 1.8 1.8h83.5c1 0 1.8-.8 1.8-1.8v-10.5c0-1-.8-1.8-1.8-1.8h-83.5z" fill="#b34326"/><path d="M1134.9 740.4h6.1v14h-6.1v-14zm13.1 0h23.2v14H1148v-14z" class="st33" fill="#f4c84e"/><path class="st3" d="M1172.7 677.1h-83.5c-1.2 0-2.2-1-2.2-2.2v-10.5c0-1.2 1-2.2 2.2-2.2h83.5c1.2 0 2.2 1 2.2 2.2v10.5c.1 1.2-.9 2.2-2.2 2.2z" fill="#f3ac14"/><path class="st18" d="M1172.7 677.5h-83.5c-1.5 0-2.7-1.2-2.7-2.7v-10.5c0-1.5 1.2-2.7 2.7-2.7h83.5c1.5 0 2.7 1.2 2.7 2.7v10.5c0 1.5-1.2 2.7-2.7 2.7zm-83.5-14.9c-1 0-1.8.8-1.8 1.8v10.5c0 1 .8 1.8 1.8 1.8h83.5c1 0 1.8-.8 1.8-1.8v-10.5c0-1-.8-1.8-1.8-1.8h-83.5z" fill="#b34326"/><path d="M1128.3 662.7h6.1v13.9h-6.1v-13.9zm13.1 0h23.2v13.9h-23.2v-13.9z" class="st33" fill="#f4c84e"/><path class="st3" d="M1168.9 692.5h-83.5c-1.2 0-2.2-1-2.2-2.2v-10.5c0-1.2 1-2.2 2.2-2.2h83.5c1.2 0 2.2 1 2.2 2.2v10.5c0 1.2-1 2.2-2.2 2.2z" fill="#f3ac14"/><path class="st18" d="M1168.9 693h-83.5c-1.5 0-2.7-1.2-2.7-2.7v-10.5c0-1.5 1.2-2.7 2.7-2.7h83.5c1.5 0 2.7 1.2 2.7 2.7v10.5c0 1.5-1.2 2.7-2.7 2.7zm-83.5-14.9c-1 0-1.8.8-1.8 1.8v10.5c0 1 .8 1.8 1.8 1.8h83.5c1 0 1.8-.8 1.8-1.8v-10.5c0-1-.8-1.8-1.8-1.8h-83.5z" fill="#b34326"/><path d="M1124.5 678.2h6.1V692h-6.1v-13.8zm13.1 0h23.2V692h-23.2v-13.8z" class="st33" fill="#f4c84e"/><path class="st3" d="M1168.9 708h-83.5c-1.2 0-2.2-1-2.2-2.2v-10.5c0-1.2 1-2.2 2.2-2.2h83.5c1.2 0 2.2 1 2.2 2.2v10.5c0 1.2-1 2.2-2.2 2.2z" fill="#f3ac14"/><path class="st18" d="M1168.9 708.4h-83.5c-1.5 0-2.7-1.2-2.7-2.7v-10.5c0-1.5 1.2-2.7 2.7-2.7h83.5c1.5 0 2.7 1.2 2.7 2.7v10.5c0 1.5-1.2 2.7-2.7 2.7zm-83.5-14.9c-1 0-1.8.8-1.8 1.8v10.5c0 1 .8 1.8 1.8 1.8h83.5c1 0 1.8-.8 1.8-1.8v-10.5c0-1-.8-1.8-1.8-1.8h-83.5z" fill="#b34326"/><path d="M1124.5 693.7h6.1v13.6h-6.1v-13.6zm13.1 0h23.2v13.6h-23.2v-13.6z" class="st33" fill="#f4c84e"/></g><g><path d="M49.9 774.9h221.5v103H49.9v-103z" class="st14" fill="#98cb57"/><path class="st34" d="M271.4 879.5H49.9c-.9 0-1.7-.7-1.7-1.7v-103c0-.9.7-1.7 1.7-1.7h221.5c.9 0 1.7.7 1.7 1.7v103c-.1 1-.8 1.7-1.7 1.7zm-219.9-3.3h218.2v-99.7H51.5v99.7z" fill="#225f2a"/><path class="st35" d="M245.2 867H76v-1.7c0-6.3-5.1-11.4-11.4-11.4H63v-55.1h1.7c6.3 0 11.4-5.1 11.4-11.4v-1.7h169.2v1.7c0 6.3 5.1 11.4 11.4 11.4h1.7v55.1h-1.7c-6.3 0-11.4 5.1-11.4 11.4v1.7zm-165.8-3.5h162.4c.8-6.8 6.2-12.2 13-13v-48.3c-6.8-.8-12.2-6.2-13-13H79.4c-.8 6.8-6.2 12.2-13 13v48.3c6.8.8 12.2 6.2 13 13z" fill="#50915a"/><path d="M193.5 826.4a32.9 32.9 0 0 1-32.9 32.9 32.9 32.9 0 0 1-32.9-32.9 32.9 32.9 0 0 1 32.9-32.9 32.9 32.9 0 0 1 32.9 32.9z" class="st35" fill="#50915a"/><path class="st36" d="M160.6 859.9c-18.5 0-33.5-15-33.5-33.5s15-33.5 33.5-33.5 33.5 15 33.5 33.5c.1 18.5-15 33.5-33.5 33.5zm0-65.8c-17.8 0-32.3 14.5-32.3 32.3 0 17.8 14.5 32.3 32.3 32.3 17.8 0 32.3-14.5 32.3-32.3 0-17.8-14.5-32.3-32.3-32.3z" fill="#30643c"/><path class="st14" d="M158.7 845.2v-16.6c-5.2-1.5-9-3.7-11.4-6.7-2.4-3-3.6-6.6-3.6-10.9 0-4.3 1.4-8 4.1-10.9 2.7-2.9 6.4-4.6 10.9-5.1v-3.9h5.7v3.9c4.2.5 7.5 1.9 10 4.3s4.1 5.5 4.8 9.5l-10 1.3c-.6-3.1-2.2-5.2-4.8-6.3v15.5c6.3 1.7 10.6 3.9 12.9 6.7 2.3 2.7 3.4 6.2 3.4 10.5 0 4.8-1.4 8.8-4.3 12.1-2.9 3.3-6.9 5.3-12.1 6v7.4h-5.7v-7.2c-4.6-.6-8.3-2.3-11.1-5.1-2.9-2.8-4.7-6.9-5.5-12.1l10.3-1.1c.4 2.1 1.2 3.9 2.4 5.5 1.3 1.4 2.6 2.5 4 3.2zm0-41.6c-1.6.5-2.8 1.4-3.7 2.7-.9 1.3-1.4 2.7-1.4 4.2 0 1.4.4 2.7 1.3 3.9.8 1.2 2.1 2.2 3.8 2.9v-13.7zm5.8 42.1c2-.4 3.6-1.3 4.8-2.8 1.2-1.5 1.9-3.2 1.9-5.2 0-1.8-.5-3.3-1.6-4.6-1-1.3-2.8-2.3-5.1-2.9v15.5z" fill="#98cb57"/><path class="st35" d="M254.8 790.3V788c-.7-.2-1.3-.5-1.6-.9-.3-.4-.5-.9-.5-1.5s.2-1.1.6-1.5c.4-.4.9-.7 1.5-.7v-.6h.8v.6c.6.1 1.1.3 1.4.6.4.3.6.8.7 1.3l-1.4.2c-.1-.4-.3-.7-.7-.9v2.2c.9.2 1.5.6 1.8.9.3.4.5.9.5 1.5 0 .7-.2 1.2-.6 1.7-.4.5-1 .7-1.7.8v1h-.8v-1c-.6-.1-1.2-.3-1.6-.7-.4-.4-.7-1-.8-1.7l1.5-.2c.1.3.2.6.3.8.3.2.4.3.6.4zm0-5.8c-.2.1-.4.2-.5.4-.1.2-.2.4-.2.6 0 .2.1.4.2.6.1.2.3.3.5.4v-2zm.9 5.9c.3-.1.5-.2.7-.4.2-.2.3-.4.3-.7 0-.2-.1-.5-.2-.6-.1-.2-.4-.3-.7-.4v2.1zm-1.1 77.5v-2.3c-.7-.2-1.3-.5-1.6-.9-.3-.4-.5-.9-.5-1.5s.2-1.1.6-1.5c.4-.4.9-.7 1.5-.7v-.6h.8v.6c.6.1 1.1.3 1.4.6.4.3.6.8.7 1.3l-1.4.2c-.1-.4-.3-.7-.7-.9v2.2c.9.2 1.5.6 1.8.9.3.4.5.9.5 1.5 0 .7-.2 1.2-.6 1.7-.4.5-1 .7-1.7.8v1h-.8v-1c-.6-.1-1.2-.3-1.6-.7-.4-.4-.7-1-.8-1.7l1.5-.2c.1.3.2.6.3.8.2.2.4.3.6.4zm0-5.9c-.2.1-.4.2-.5.4-.1.2-.2.4-.2.6 0 .2.1.4.2.6s.3.3.5.4v-2zm.8 6c.3-.1.5-.2.7-.4.2-.2.3-.4.3-.7 0-.2-.1-.5-.2-.6-.1-.2-.4-.3-.7-.4v2.1zM64.3 790.1v-2.3c-.7-.2-1.3-.5-1.6-.9-.3-.4-.5-.9-.5-1.5s.2-1.1.6-1.5c.4-.4.9-.7 1.5-.7v-.6h.8v.6c.6.1 1.1.3 1.4.6.4.3.6.8.7 1.3l-1.4.2c-.1-.4-.3-.7-.7-.9v2.2c.9.2 1.5.6 1.8.9.3.4.5.9.5 1.5 0 .7-.2 1.2-.6 1.7-.4.5-1 .7-1.7.8v1h-.8v-1c-.6-.1-1.2-.3-1.6-.7-.4-.4-.7-1-.8-1.7l1.5-.2c.1.3.2.6.3.8.2.2.4.3.6.4zm0-5.9c-.2.1-.4.2-.5.4-.1.2-.2.4-.2.6 0 .2.1.4.2.6.1.2.3.3.5.4v-2zm.8 6c.3-.1.5-.2.7-.4.2-.2.3-.4.3-.7 0-.2-.1-.5-.2-.6-.1-.2-.4-.3-.7-.4v2.1zm-.8 77.7v-2.3c-.7-.2-1.3-.5-1.6-.9-.3-.4-.5-.9-.5-1.5s.2-1.1.6-1.5c.4-.4.9-.7 1.5-.7v-.6h.8v.6c.6.1 1.1.3 1.4.6.4.3.6.8.7 1.3l-1.4.2c-.1-.4-.3-.7-.7-.9v2.2c.9.2 1.5.6 1.8.9.3.4.5.9.5 1.5 0 .7-.2 1.2-.6 1.7-.4.5-1 .7-1.7.8v1h-.8v-1c-.6-.1-1.2-.3-1.6-.7-.4-.4-.7-1-.8-1.7l1.5-.2c.1.3.2.6.3.8.2.2.4.3.6.4zm0-5.9c-.2.1-.4.2-.5.4-.1.2-.2.4-.2.6 0 .2.1.4.2.6.1.2.3.3.5.4v-2zm.8 6c.3-.1.5-.2.7-.4.2-.2.3-.4.3-.7 0-.2-.1-.5-.2-.6-.1-.2-.4-.3-.7-.4v2.1z" fill="#50915a"/><path d="M78.3 803.3h221.5v103H78.3v-103z" class="st2" fill="#fff"/><path class="st4" d="M300.8 907.3H77.3v-105h223.5v105zm-221.5-2h219.5v-101H79.3v101z" fill="#503600"/><path class="st35" d="M273.6 895.4H104.5v-1.7c0-6.3-5.1-11.4-11.4-11.4h-1.7v-55.1h1.7c6.3 0 11.4-5.1 11.4-11.4v-1.7h169.2v1.7c0 6.3 5.1 11.4 11.4 11.4h1.7v55.1H285c-6.3 0-11.4 5.1-11.4 11.4v1.7zm-165.8-3.5h162.4c.8-6.8 6.2-12.2 13-13v-48.3c-6.8-.8-12.2-6.2-13-13H107.8c-.8 6.8-6.2 12.2-13 13v48.3c6.8.8 12.2 6.2 13 13z" fill="#50915a"/><path d="M221.9 854.8a32.9 32.9 0 0 1-32.9 32.9 32.9 32.9 0 0 1-32.9-32.9 32.9 32.9 0 0 1 32.9-32.9 32.9 32.9 0 0 1 32.9 32.9z" class="st35" fill="#50915a"/><path class="st36" d="M189 888.3c-18.5 0-33.5-15-33.5-33.5s15-33.5 33.5-33.5 33.5 15 33.5 33.5c.1 18.5-15 33.5-33.5 33.5zm0-65.8c-17.8 0-32.3 14.5-32.3 32.3 0 17.8 14.5 32.3 32.3 32.3 17.8 0 32.3-14.5 32.3-32.3 0-17.8-14.5-32.3-32.3-32.3z" fill="#30643c"/><path class="st14" d="M187.1 873.6V857c-5.2-1.5-9-3.7-11.4-6.7-2.4-3-3.6-6.6-3.6-10.9 0-4.3 1.4-8 4.1-10.9 2.7-2.9 6.4-4.6 10.9-5.1v-3.9h5.7v3.9c4.2.5 7.5 1.9 10 4.3s4.1 5.5 4.8 9.5l-10 1.3c-.6-3.1-2.2-5.2-4.8-6.3v15.5c6.3 1.7 10.6 3.9 12.9 6.7 2.3 2.7 3.4 6.2 3.4 10.5 0 4.8-1.4 8.8-4.3 12.1-2.9 3.3-6.9 5.3-12.1 6v7.4H187v-7.2c-4.6-.6-8.3-2.3-11.1-5.1-2.8-2.8-4.7-6.9-5.5-12.1l10.3-1.1c.4 2.1 1.2 3.9 2.4 5.5 1.3 1.4 2.6 2.5 4 3.2zm0-41.6c-1.6.5-2.8 1.4-3.7 2.7-.9 1.3-1.4 2.7-1.4 4.2 0 1.4.4 2.7 1.3 3.9.8 1.2 2.1 2.2 3.8 2.9V832zm5.8 42.1c2-.4 3.6-1.3 4.8-2.8 1.2-1.5 1.9-3.2 1.9-5.2 0-1.8-.5-3.3-1.6-4.6-1-1.3-2.8-2.3-5.1-2.9v15.5z" fill="#98cb57"/><path class="st35" d="M283.2 818.7v-2.3c-.7-.2-1.3-.5-1.6-.9-.3-.4-.5-.9-.5-1.5s.2-1.1.6-1.5c.4-.4.9-.7 1.5-.7v-.6h.8v.6c.6.1 1.1.3 1.4.6.4.3.6.8.7 1.3l-1.4.2c-.1-.4-.3-.7-.7-.9v2.2c.9.2 1.5.6 1.8.9.3.4.5.9.5 1.5 0 .7-.2 1.2-.6 1.7-.4.5-1 .7-1.7.8v1h-.8v-1c-.6-.1-1.2-.3-1.6-.7-.4-.4-.7-1-.8-1.7l1.5-.2c.1.3.2.6.3.8.3.2.4.3.6.4zm0-5.8c-.2.1-.4.2-.5.4-.1.2-.2.4-.2.6 0 .2.1.4.2.6s.3.3.5.4v-2zm.9 5.9c.3-.1.5-.2.7-.4.2-.2.3-.4.3-.7 0-.2-.1-.5-.2-.6-.1-.2-.4-.3-.7-.4v2.1zm-1.1 77.5V894c-.7-.2-1.3-.5-1.6-.9-.3-.4-.5-.9-.5-1.5s.2-1.1.6-1.5c.4-.4.9-.7 1.5-.7v-.6h.8v.6c.6.1 1.1.3 1.4.6.3.3.6.8.7 1.3l-1.4.2c-.1-.4-.3-.7-.7-.9v2.2c.9.2 1.5.6 1.8.9s.5.9.5 1.5c0 .7-.2 1.2-.6 1.7-.4.5-1 .7-1.7.8v1h-.8v-1c-.6-.1-1.2-.3-1.6-.7-.4-.4-.7-1-.8-1.7l1.5-.2c.1.3.2.6.3.8.3.2.4.3.6.4zm0-5.9c-.2.1-.4.2-.5.4-.1.2-.2.4-.2.6 0 .2.1.4.2.6.1.2.3.3.5.4v-2zm.8 6c.3-.1.5-.2.7-.4.2-.2.3-.4.3-.7 0-.2-.1-.5-.2-.6-.1-.2-.4-.3-.7-.4v2.1zM92.7 818.5v-2.3c-.7-.2-1.3-.5-1.6-.9-.3-.4-.5-.9-.5-1.5s.2-1.1.6-1.5c.4-.4.9-.7 1.5-.7v-.6h.8v.6c.6.1 1.1.3 1.4.6.4.3.6.8.7 1.3l-1.4.2c-.1-.4-.3-.7-.7-.9v2.2c.9.2 1.5.6 1.8.9.3.4.5.9.5 1.5 0 .7-.2 1.2-.6 1.7-.4.5-1 .7-1.7.8v1h-.8v-1c-.6-.1-1.2-.3-1.6-.7-.4-.4-.7-1-.8-1.7l1.5-.2c.1.3.2.6.3.8.2.2.4.3.6.4zm0-5.8c-.2.1-.4.2-.5.4-.1.2-.2.4-.2.6 0 .2.1.4.2.6.1.2.3.3.5.4v-2zm.8 5.9c.3-.1.5-.2.7-.4.2-.2.3-.4.3-.7 0-.2-.1-.5-.2-.6-.1-.2-.4-.3-.7-.4v2.1zm-.8 77.7V894c-.7-.2-1.3-.5-1.6-.9-.3-.4-.5-.9-.5-1.5s.2-1.1.6-1.5c.4-.4.9-.7 1.5-.7v-.6h.8v.6c.6.1 1.1.3 1.4.6.4.3.6.8.7 1.3l-1.4.2c-.1-.4-.3-.7-.7-.9v2.2c.9.2 1.5.6 1.8.9.3.4.5.9.5 1.5 0 .7-.2 1.2-.6 1.7-.4.5-1 .7-1.7.8v1h-.8v-1c-.6-.1-1.2-.3-1.6-.7-.4-.4-.7-1-.8-1.7l1.5-.2c.1.3.2.6.3.8.2.2.4.3.6.4zm0-5.9c-.2.1-.4.2-.5.4-.1.2-.2.4-.2.6 0 .2.1.4.2.6.1.2.3.3.5.4v-2zm.8 6c.3-.1.5-.2.7-.4.2-.2.3-.4.3-.7 0-.2-.1-.5-.2-.6-.1-.2-.4-.3-.7-.4v2.1z" fill="#50915a"/><path class="st12" d="M200.4 829.9l-.6-82.1c0-3.4 2.7-6.2 6.2-6.2l148.7-1.1c3.4 0 6.2 2.7 6.2 6.2l.6 82.1c0 3.4-2.7 6.2-6.2 6.2l-148.6 1c-3.5.1-6.3-2.7-6.3-6.1z" fill="#48befe"/><path class="st37" d="M206.6 837.2c-2 0-3.8-.8-5.2-2.1-1.4-1.4-2.2-3.2-2.2-5.2l-.6-82.1c0-4.1 3.3-7.4 7.3-7.5l148.7-1.1h.1c2 0 3.8.8 5.2 2.1 1.4 1.4 2.2 3.2 2.2 5.2l.6 82.1c0 2-.7 3.8-2.1 5.2-1.4 1.4-3.2 2.2-5.2 2.2l-148.8 1.2c.1 0 0 0 0 0zm148.2-95.6s-.1 0 0 0L206 742.7c-2.8 0-5 2.3-5 5l.6 82.1c0 1.3.5 2.6 1.5 3.5 1 .9 2.2 1.5 3.6 1.4l148.7-1.1c1.3 0 2.6-.5 3.5-1.5.9-1 1.5-2.2 1.4-3.6l-.6-82.1c0-1.3-.5-2.6-1.5-3.5-.9-.8-2.1-1.3-3.4-1.3z" fill="#002e4c"/><path d="M199.852 758.308l161.2-1.175.11 15.2-161.2 1.175-.11-15.2z" class="st2" fill="#fff"/><path class="st38" d="M200 775c-.8 0-1.5-.7-1.5-1.5l-.1-15.2c0-.4.2-.8.4-1.1.3-.3.7-.5 1.1-.5l161.1-1.2c.8 0 1.5.7 1.5 1.5l.1 15.2c0 .4-.2.8-.4 1.1-.3.3-.7.5-1.1.5L200 775zm1.4-15.2l.1 12.1 158.1-1.2-.1-12.1-158.1 1.2z" fill="#087fba"/><path d="M210.565 807.485l72.4-.528.083 11.4-72.4.528-.083-11.4z" class="st2" fill="#fff"/><path class="st38" d="M210.6 820.4c-.8 0-1.5-.7-1.5-1.5l-.1-11.4c0-.4.2-.8.4-1.1.3-.3.7-.5 1.1-.5l72.4-.5c.8 0 1.5.7 1.5 1.5l.1 11.4c0 .4-.2.8-.4 1.1-.3.3-.7.5-1.1.5l-72.4.5zm1.4-11.5l.1 8.4 69.3-.5-.1-8.4-69.3.5z" fill="#087fba"/><path class="st2" d="M212 789.4l.9 1.3c.2.3.4.7.6 1 .2-.4.4-.7.6-1l.9-1.3h1.2l-2.1 3 2.2 3.2H215l-.9-1.4c-.2-.4-.4-.7-.7-1.1-.2.4-.4.7-.6 1.1l-.9 1.4h-1.2l2.2-3.1-2.1-3 1.2-.1zm5.8-.1l.9 1.3c.2.3.4.7.6 1 .2-.4.4-.7.6-1l.9-1.3h1.2l-2.1 3 2.2 3.2h-1.3l-.9-1.4c-.2-.4-.4-.7-.7-1.1-.2.4-.4.7-.6 1.1l-.9 1.4h-1.2l2.2-3.1-2.1-3 1.2-.1zm5.9 0l.9 1.3c.2.3.4.7.6 1 .2-.4.4-.7.6-1l.9-1.3h1.2l-2.1 3 2.2 3.2h-1.3l-.9-1.4c-.2-.4-.4-.7-.7-1.1-.2.4-.4.7-.6 1.1l-.9 1.4h-1.2l2.2-3.1-2.1-3 1.2-.1zm5.9 0l.9 1.3c.2.3.4.7.6 1 .2-.4.4-.7.6-1l.9-1.3h1.2l-2.1 3 2.2 3.2h-1.3l-.9-1.4c-.2-.4-.4-.7-.7-1.1-.2.4-.4.7-.6 1.1l-.9 1.4h-1.2l2.2-3.1-2.1-3 1.2-.1zm8.5-.1l.9 1.3c.2.3.4.7.6 1 .2-.4.4-.7.6-1l.9-1.3h1.2l-2.1 3 2.2 3.2h-1.3l-.9-1.4c-.2-.4-.4-.7-.7-1.1-.2.4-.4.7-.6 1.1l-.9 1.4h-1.2l2.2-3.1-2.1-3 1.2-.1zm5.9-.1l.9 1.3c.2.3.4.7.6 1 .2-.4.4-.7.6-1l.9-1.3h1.2l-2.1 3 2.2 3.2H247l-.9-1.4c-.2-.4-.4-.7-.7-1.1-.2.4-.4.7-.6 1.1l-.9 1.4h-1.2l2.2-3.1-2.1-3 1.2-.1zm5.8 0l.9 1.3c.2.3.4.7.6 1 .2-.4.4-.7.6-1l.9-1.3h1.2l-2.1 3 2.2 3.2h-1.3l-.9-1.4c-.2-.4-.4-.7-.7-1.1-.2.4-.4.7-.6 1.1l-.9 1.4h-1.2l2.2-3.1-2.1-3 1.2-.1zm5.9 0l.9 1.3c.2.3.4.7.6 1 .2-.4.4-.7.6-1l.9-1.3h1.2l-2.1 3 2.2 3.2h-1.3l-.9-1.4c-.2-.4-.4-.7-.7-1.1-.2.4-.4.7-.6 1.1l-.9 1.4h-1.2l2.2-3.1-2.1-3 1.2-.1zm8.6-.1l.9 1.3c.2.3.4.7.6 1 .2-.4.4-.7.6-1l.9-1.3h1.2l-2.1 3 2.2 3.2h-1.3l-.9-1.4c-.2-.4-.4-.7-.7-1.1-.2.4-.4.7-.6 1.1l-.9 1.4H263l2.2-3.1-2.1-3 1.2-.1zm5.8 0l.9 1.3c.2.3.4.7.6 1 .2-.4.4-.7.6-1l.9-1.3h1.2l-2.1 3 2.2 3.2h-1.3l-.9-1.4c-.2-.4-.4-.7-.7-1.1-.2.4-.4.7-.6 1.1l-.9 1.4h-1.2l2.2-3.1-2.1-3 1.2-.1zm5.9-.1l.9 1.3c.2.3.4.7.6 1 .2-.4.4-.7.6-1l.9-1.3h1.2l-2.1 3 2.2 3.2H279l-.9-1.4c-.2-.4-.4-.7-.7-1.1-.2.4-.4.7-.6 1.1l-.9 1.4h-1.2l2.2-3.1-2.1-3 1.2-.1zm5.9 0l.9 1.3c.2.3.4.7.6 1 .2-.4.4-.7.6-1l.9-1.3h1.2l-2.1 3 2.2 3.1h-1.3l-.9-1.4c-.2-.4-.4-.7-.7-1.1-.2.4-.4.7-.6 1.1l-.9 1.4h-1.2l2.2-3.1-2.1-3h1.2zm8.5-.1l.9 1.3c.2.3.4.7.6 1 .2-.4.4-.7.6-1l.9-1.3h1.2l-2.1 3 2.2 3.2h-1.3l-.9-1.4c-.2-.4-.4-.7-.7-1.1-.2.4-.4.7-.6 1.1l-.9 1.4h-1.2l2.2-3.1-2.1-3 1.2-.1zm5.9 0l.9 1.3c.2.3.4.7.6 1 .2-.4.4-.7.6-1l.9-1.3h1.2l-2.1 3 2.2 3.2h-1.3l-.9-1.4c-.2-.4-.4-.7-.7-1.1-.2.4-.4.7-.6 1.1l-.9 1.4H295l2.2-3.1-2.1-3 1.2-.1zm5.8-.1l.9 1.3c.2.3.4.7.6 1 .2-.4.4-.7.6-1l.9-1.3h1.2l-2.1 3 2.2 3.2h-1.3l-.9-1.4c-.2-.4-.4-.7-.7-1.1-.2.4-.4.7-.6 1.1l-.9 1.4h-1.2l2.2-3.1-2.1-3 1.2-.1zm5.9 0l.9 1.3c.2.3.4.7.6 1 .2-.4.4-.7.6-1l.9-1.3h1.2l-2.1 3 2.2 3.2H311l-.9-1.4c-.2-.4-.4-.7-.7-1.1-.2.4-.4.7-.6 1.1l-.9 1.4h-1.2l2.2-3.1-2.1-3 1.2-.1z" fill="#fff"/><path d="M339.7 812.2a13.3 13.3 0 0 1-13.3 13.3 13.3 13.3 0 0 1-13.3-13.3 13.3 13.3 0 0 1 13.3-13.3 13.3 13.3 0 0 1 13.3 13.3z" class="st6" fill="#f2632e"/><path class="st23" d="M326.4 826.8c-3.9 0-7.5-1.5-10.3-4.2-2.8-2.7-4.4-6.4-4.4-10.3 0-3.9 1.5-7.6 4.2-10.4 2.7-2.8 6.4-4.4 10.3-4.4h.1c3.9 0 7.5 1.5 10.3 4.2 2.8 2.7 4.4 6.4 4.4 10.3 0 3.9-1.5 7.6-4.2 10.4-2.7 2.8-6.4 4.4-10.3 4.4h-.1zm0-26.5h-.1c-3.2 0-6.1 1.3-8.4 3.5-2.2 2.3-3.4 5.2-3.4 8.4s1.3 6.1 3.5 8.3c2.3 2.2 5.2 3.4 8.4 3.4 6.5-.1 11.8-5.4 11.7-12 0-3.2-1.3-6.1-3.5-8.3-2.1-2.1-5.1-3.3-8.2-3.3z" fill="#963b14"/><path d="M355.3 812a13.3 13.3 0 0 1-13.3 13.3 13.3 13.3 0 0 1-13.3-13.3 13.3 13.3 0 0 1 13.3-13.3 13.3 13.3 0 0 1 13.3 13.3z" class="st14" fill="#98cb57"/><path class="st24" d="M342 827c-3.9 0-7.6-1.5-10.4-4.3-2.8-2.8-4.4-6.5-4.5-10.5 0-4 1.5-7.7 4.3-10.6 2.8-2.8 6.5-4.4 10.5-4.5h.1c3.9 0 7.6 1.5 10.4 4.3 2.8 2.8 4.4 6.5 4.5 10.5 0 4-1.5 7.7-4.3 10.6-2.8 2.8-6.5 4.4-10.5 4.5h-.1zm0-26.6h-.1c-3.1 0-6 1.3-8.2 3.5-2.2 2.2-3.4 5.1-3.3 8.2 0 3.1 1.3 6 3.5 8.2 2.2 2.2 5.2 3.3 8.2 3.3 3.1 0 6-1.3 8.2-3.5 2.2-2.2 3.4-5.1 3.3-8.2 0-3.1-1.3-6-3.5-8.2-2.1-2.1-5-3.3-8.1-3.3z" fill="#51a451"/></g><g><path class="st2" d="M947 469.3H503.6c-23.9 0-43.3 17.7-43.3 39.5v286.7c0 21.8 19.4 39.5 43.3 39.5H947c23.9 0 43.3-17.7 43.3-39.5V508.8c0-21.8-19.4-39.5-43.3-39.5z" fill="#fff"/><path class="st4" d="M947 836H503.6c-24.4 0-44.3-18.2-44.3-40.5V508.8c0-22.3 19.9-40.5 44.3-40.5H947c24.4 0 44.3 18.2 44.3 40.5v286.7c0 22.4-19.9 40.5-44.3 40.5zM503.6 470.3c-23.3 0-42.3 17.3-42.3 38.5v286.7c0 21.2 19 38.5 42.3 38.5H947c23.3 0 42.3-17.3 42.3-38.5V508.8c0-21.2-19-38.5-42.3-38.5H503.6z" fill="#503600"/><path class="st25" d="M971 785H479.6V508.8c0-12.1 10.7-21.9 24-21.9H947c13.3 0 24 9.8 24 21.9V785z" fill="#008cce"/><path class="st26" d="M971 786.9H479.6c-1 0-1.8-.8-1.8-1.8V508.8c0-13.1 11.6-23.7 25.9-23.7H947c14.2 0 25.8 10.7 25.8 23.7V785c0 1-.8 1.9-1.8 1.9zm-489.5-3.7h487.7V508.8c0-11.1-9.9-20.1-22.2-20.1H503.6c-12.2 0-22.2 9-22.2 20.1v274.4z" fill="#009edc"/><path class="st13" d="M404 799.5c2 24.8 8.1 35.6 35.7 35.6h573.1c27.6 0 31.7-10.8 33.7-35.6H404z" fill="#cc3e20"/><path class="st4" d="M1012.8 836H439.7c-28.7 0-34.7-11.8-36.7-36.5l-.1-1.1h644.7l-.1 1.1c-1.9 24.9-6 36.5-34.7 36.5zm-607.7-35.5c2 23.2 7.7 33.6 34.6 33.6h573.1c26.7 0 30.7-10.2 32.7-33.6H405.1z" fill="#503600"/><path class="st39" d="M781.9 817.3c0-3.4-3-6.1-6.7-6.1h-99.9c-3.7 0-6.7 2.7-6.7 6.1 0 3.4 3 6.1 6.7 6.1h99.9c3.7-.1 6.7-2.8 6.7-6.1z" fill="#6f1a00"/><path class="st4" d="M775.3 824.3h-99.9c-4.2 0-7.7-3.2-7.7-7.1s3.4-7.1 7.7-7.1h99.9c4.2 0 7.7 3.2 7.7 7.1s-3.5 7.1-7.7 7.1zm-100-12.1c-3.1 0-5.7 2.3-5.7 5.1s2.5 5.1 5.7 5.1h99.9c3.1 0 5.7-2.3 5.7-5.1s-2.5-5.1-5.7-5.1h-99.9z" fill="#503600"/><path class="st3" d="M768.8 553H617.3c-2.2 0-4-1.8-4-4v-19c0-2.2 1.8-4 4-4h151.5c2.2 0 4 1.8 4 4v19c0 2.2-1.8 4-4 4z" fill="#f3ac14"/><path class="st18" d="M768.8 553.8H617.3c-2.7 0-4.9-2.2-4.9-4.9v-19c0-2.7 2.2-4.9 4.9-4.9h151.5c2.7 0 4.9 2.2 4.9 4.9v19c0 2.7-2.2 4.9-4.9 4.9zm-151.5-27c-1.8 0-3.2 1.4-3.2 3.2v19c0 1.8 1.4 3.2 3.2 3.2h151.5c1.8 0 3.2-1.4 3.2-3.2v-19c0-1.8-1.4-3.2-3.2-3.2H617.3z" fill="#b34326"/><path d="M688.2 526.8h11.1v25.4h-11.1v-25.4zm23.8 0h42.1v25.4H712v-25.4z" class="st33" fill="#f4c84e"/><path class="st3" d="M768.8 581.1H617.3c-2.2 0-4-1.8-4-4v-19c0-2.2 1.8-4 4-4h151.5c2.2 0 4 1.8 4 4v19c0 2.1-1.8 4-4 4z" fill="#f3ac14"/><path class="st18" d="M768.8 581.9H617.3c-2.7 0-4.9-2.2-4.9-4.9v-19c0-2.7 2.2-4.9 4.9-4.9h151.5c2.7 0 4.9 2.2 4.9 4.9v19c0 2.7-2.2 4.9-4.9 4.9zm-151.5-27.1c-1.8 0-3.2 1.4-3.2 3.2v19c0 1.8 1.4 3.2 3.2 3.2h151.5c1.8 0 3.2-1.4 3.2-3.2v-19c0-1.8-1.4-3.2-3.2-3.2H617.3z" fill="#b34326"/><path d="M688.2 554.8h11.1v25.4h-11.1v-25.4zm23.8 0h42.1v25.4H712v-25.4z" class="st33" fill="#f4c84e"/><path class="st3" d="M768.8 609.1H617.3c-2.2 0-4-1.8-4-4v-19c0-2.2 1.8-4 4-4h151.5c2.2 0 4 1.8 4 4v19c0 2.2-1.8 4-4 4z" fill="#f3ac14"/><path class="st18" d="M768.8 609.9H617.3c-2.7 0-4.9-2.2-4.9-4.9v-19c0-2.7 2.2-4.9 4.9-4.9h151.5c2.7 0 4.9 2.2 4.9 4.9v19c0 2.7-2.2 4.9-4.9 4.9zm-151.5-27c-1.8 0-3.2 1.4-3.2 3.2v19c0 1.8 1.4 3.2 3.2 3.2h151.5c1.8 0 3.2-1.4 3.2-3.2v-19c0-1.8-1.4-3.2-3.2-3.2H617.3z" fill="#b34326"/><path d="M688.2 582.8h11.1v25.5h-11.1v-25.5zm23.8 0h42.1v25.5H712v-25.5z" class="st33" fill="#f4c84e"/><path class="st3" d="M787.7 722.1H636.2c-2.2 0-4-1.8-4-4v-19c0-2.2 1.8-4 4-4h151.5c2.2 0 4 1.8 4 4v19c.1 2.2-1.7 4-4 4z" fill="#f3ac14"/><path class="st18" d="M787.7 723H636.2c-2.7 0-4.9-2.2-4.9-4.9v-19c0-2.7 2.2-4.9 4.9-4.9h151.5c2.7 0 4.9 2.2 4.9 4.9v19c0 2.7-2.2 4.9-4.9 4.9zm-151.5-27.1c-1.8 0-3.2 1.4-3.2 3.2v19c0 1.8 1.4 3.2 3.2 3.2h151.5c1.8 0 3.2-1.4 3.2-3.2v-19c0-1.8-1.4-3.2-3.2-3.2H636.2z" fill="#b34326"/><path d="M707.1 695.9h11.1v25.4h-11.1v-25.4zm23.8 0H773v25.4h-42.1v-25.4z" class="st33" fill="#f4c84e"/><path class="st3" d="M770.9 750.2H619.4c-2.2 0-4-1.8-4-4v-19c0-2.2 1.8-4 4-4h151.5c2.2 0 4 1.8 4 4v19c0 2.2-1.8 4-4 4z" fill="#f3ac14"/><path class="st18" d="M770.9 751H619.4c-2.7 0-4.9-2.2-4.9-4.9v-19c0-2.7 2.2-4.9 4.9-4.9h151.5c2.7 0 4.9 2.2 4.9 4.9v19c0 2.7-2.2 4.9-4.9 4.9zm-151.5-27c-1.8 0-3.2 1.4-3.2 3.2v19c0 1.8 1.4 3.2 3.2 3.2h151.5c1.8 0 3.2-1.4 3.2-3.2v-19c0-1.8-1.4-3.2-3.2-3.2H619.4z" fill="#b34326"/><path d="M690.3 723.9h11.1v25.4h-11.1v-25.4zm23.8 0h42.1v25.4h-42.1v-25.4z" class="st33" fill="#f4c84e"/><path class="st3" d="M787.7 778.2H636.2c-2.2 0-4-1.8-4-4v-19c0-2.2 1.8-4 4-4h151.5c2.2 0 4 1.8 4 4v19c.1 2.2-1.7 4-4 4z" fill="#f3ac14"/><path class="st18" d="M787.7 779.1H636.2c-2.7 0-4.9-2.2-4.9-4.9v-19c0-2.7 2.2-4.9 4.9-4.9h151.5c2.7 0 4.9 2.2 4.9 4.9v19c0 2.7-2.2 4.9-4.9 4.9zM636.2 752c-1.8 0-3.2 1.4-3.2 3.2v19c0 1.8 1.4 3.2 3.2 3.2h151.5c1.8 0 3.2-1.4 3.2-3.2v-19c0-1.8-1.4-3.2-3.2-3.2H636.2z" fill="#b34326"/><path d="M707.1 752h11.1v25.5h-11.1V752zm23.8 0H773v25.5h-42.1V752z" class="st33" fill="#f4c84e"/><path class="st3" d="M775.8 637.2H624.3c-2.2 0-4-1.8-4-4v-19c0-2.2 1.8-4 4-4h151.5c2.2 0 4 1.8 4 4v19c0 2.1-1.8 4-4 4z" fill="#f3ac14"/><path class="st18" d="M775.8 638H624.3c-2.7 0-4.9-2.2-4.9-4.9v-19c0-2.7 2.2-4.9 4.9-4.9h151.5c2.7 0 4.9 2.2 4.9 4.9v19c-.1 2.7-2.3 4.9-4.9 4.9zm-151.5-27.1c-1.8 0-3.2 1.4-3.2 3.2v19c0 1.8 1.4 3.2 3.2 3.2h151.5c1.8 0 3.2-1.4 3.2-3.2v-19c0-1.8-1.4-3.2-3.2-3.2H624.3z" fill="#b34326"/><path d="M695.1 611h11.1v25.1h-11.1V611zm23.9 0h42.1v25.1H719V611z" class="st33" fill="#f4c84e"/><path class="st3" d="M768.8 665.2H617.3c-2.2 0-4-1.8-4-4v-19c0-2.2 1.8-4 4-4h151.5c2.2 0 4 1.8 4 4v19c0 2.2-1.8 4-4 4z" fill="#f3ac14"/><path class="st18" d="M768.8 666H617.3c-2.7 0-4.9-2.2-4.9-4.9v-19c0-2.7 2.2-4.9 4.9-4.9h151.5c2.7 0 4.9 2.2 4.9 4.9v19c0 2.7-2.2 4.9-4.9 4.9zm-151.5-27c-1.8 0-3.2 1.4-3.2 3.2v19c0 1.8 1.4 3.2 3.2 3.2h151.5c1.8 0 3.2-1.4 3.2-3.2v-19c0-1.8-1.4-3.2-3.2-3.2H617.3z" fill="#b34326"/><path d="M688.2 639.1h11.1v25.1h-11.1v-25.1zm23.8 0h42.1v25.1H712v-25.1z" class="st33" fill="#f4c84e"/><path class="st3" d="M768.8 693.2H617.3c-2.2 0-4-1.8-4-4v-19c0-2.2 1.8-4 4-4h151.5c2.2 0 4 1.8 4 4v19c0 2.2-1.8 4-4 4z" fill="#f3ac14"/><path class="st18" d="M768.8 694.1H617.3c-2.7 0-4.9-2.2-4.9-4.9v-19c0-2.7 2.2-4.9 4.9-4.9h151.5c2.7 0 4.9 2.2 4.9 4.9v19c0 2.7-2.2 4.9-4.9 4.9zM617.3 667c-1.8 0-3.2 1.4-3.2 3.2v19c0 1.8 1.4 3.2 3.2 3.2h151.5c1.8 0 3.2-1.4 3.2-3.2v-19c0-1.8-1.4-3.2-3.2-3.2H617.3z" fill="#b34326"/><path d="M688.2 667.4h11.1v24.7h-11.1v-24.7zm23.8 0h42.1v24.7H712v-24.7z" class="st33" fill="#f4c84e"/><path class="st3" d="M891.4 694.3H739.9c-2.2 0-4-1.8-4-4v-19c0-2.2 1.8-4 4-4h151.5c2.2 0 4 1.8 4 4v19c0 2.2-1.8 4-4 4z" fill="#f3ac14"/><path class="st18" d="M891.4 695.1H739.9c-2.7 0-4.9-2.2-4.9-4.9v-19c0-2.7 2.2-4.9 4.9-4.9h151.5c2.7 0 4.9 2.2 4.9 4.9v19c-.1 2.7-2.2 4.9-4.9 4.9zM739.9 668c-1.8 0-3.2 1.4-3.2 3.2v19c0 1.8 1.4 3.2 3.2 3.2h151.5c1.8 0 3.2-1.4 3.2-3.2v-19c0-1.8-1.4-3.2-3.2-3.2H739.9z" fill="#b34326"/><path d="M810.7 668h11.1v25.5h-11.1V668zm23.9 0h42.1v25.5h-42.1V668z" class="st33" fill="#f4c84e"/><path class="st3" d="M898.3 722.3H746.8c-2.2 0-4-1.8-4-4v-19c0-2.2 1.8-4 4-4h151.5c2.2 0 4 1.8 4 4v19c.1 2.2-1.7 4-4 4z" fill="#f3ac14"/><path class="st18" d="M898.3 723.1H746.8c-2.7 0-4.9-2.2-4.9-4.9v-19c0-2.7 2.2-4.9 4.9-4.9h151.5c2.7 0 4.9 2.2 4.9 4.9v19c0 2.8-2.2 4.9-4.9 4.9zm-151.5-27c-1.8 0-3.2 1.4-3.2 3.2v19c0 1.8 1.4 3.2 3.2 3.2h151.5c1.8 0 3.2-1.4 3.2-3.2v-19c0-1.8-1.4-3.2-3.2-3.2H746.8z" fill="#b34326"/><path d="M841.5 696.2h42.1v25.1h-42.1v-25.1z" class="st33" fill="#f4c84e"/><path class="st3" d="M891.4 750.4H739.9c-2.2 0-4-1.8-4-4v-19c0-2.2 1.8-4 4-4h151.5c2.2 0 4 1.8 4 4v19c0 2.2-1.8 4-4 4z" fill="#f3ac14"/><path class="st18" d="M891.4 751.2H739.9c-2.7 0-4.9-2.2-4.9-4.9v-19c0-2.7 2.2-4.9 4.9-4.9h151.5c2.7 0 4.9 2.2 4.9 4.9v19c-.1 2.7-2.2 4.9-4.9 4.9zm-151.5-27.1c-1.8 0-3.2 1.4-3.2 3.2v19c0 1.8 1.4 3.2 3.2 3.2h151.5c1.8 0 3.2-1.4 3.2-3.2v-19c0-1.8-1.4-3.2-3.2-3.2H739.9z" fill="#b34326"/><path d="M834.6 724.3h42.1v25.1h-42.1v-25.1z" class="st33" fill="#f4c84e"/><path class="st3" d="M891.4 778.4H739.9c-2.2 0-4-1.8-4-4v-19c0-2.2 1.8-4 4-4h151.5c2.2 0 4 1.8 4 4v19c0 2.2-1.8 4-4 4z" fill="#f3ac14"/><path class="st18" d="M891.4 779.2H739.9c-2.7 0-4.9-2.2-4.9-4.9v-19c0-2.7 2.2-4.9 4.9-4.9h151.5c2.7 0 4.9 2.2 4.9 4.9v19c-.1 2.8-2.2 4.9-4.9 4.9zm-151.5-27c-1.8 0-3.2 1.4-3.2 3.2v19c0 1.8 1.4 3.2 3.2 3.2h151.5c1.8 0 3.2-1.4 3.2-3.2v-19c0-1.8-1.4-3.2-3.2-3.2H739.9z" fill="#b34326"/><path d="M834.6 752.5h42.1v24.7h-42.1v-24.7z" class="st33" fill="#f4c84e"/><path class="st3" d="M886.5 665.9H735c-2.2 0-4-1.8-4-4v-19c0-2.2 1.8-4 4-4h151.5c2.2 0 4 1.8 4 4v19c0 2.2-1.8 4-4 4z" fill="#f3ac14"/><path class="st18" d="M886.5 666.7H735c-2.7 0-4.9-2.2-4.9-4.9v-19c0-2.7 2.2-4.9 4.9-4.9h151.5c2.7 0 4.9 2.2 4.9 4.9v19c0 2.7-2.2 4.9-4.9 4.9zM735 639.6c-1.8 0-3.2 1.4-3.2 3.2v19c0 1.8 1.4 3.2 3.2 3.2h151.5c1.8 0 3.2-1.4 3.2-3.2v-19c0-1.8-1.4-3.2-3.2-3.2H735z" fill="#b34326"/><path d="M805.9 639.7H817v25.4h-11.1v-25.4zm23.8 0h42.1v25.4h-42.1v-25.4z" class="st33" fill="#f4c84e"/><g><path class="st3" d="M710 722.3H558.5c-2.2 0-4-1.8-4-4v-19c0-2.2 1.8-4 4-4H710c2.2 0 4 1.8 4 4v19c.1 2.2-1.7 4-4 4z" fill="#f3ac14"/><path class="st18" d="M710 723.1H558.5c-2.7 0-4.9-2.2-4.9-4.9v-19c0-2.7 2.2-4.9 4.9-4.9H710c2.7 0 4.9 2.2 4.9 4.9v19c0 2.8-2.2 4.9-4.9 4.9zm-151.5-27c-1.8 0-3.2 1.4-3.2 3.2v19c0 1.8 1.4 3.2 3.2 3.2H710c1.8 0 3.2-1.4 3.2-3.2v-19c0-1.8-1.4-3.2-3.2-3.2H558.5z" fill="#b34326"/><path d="M653.2 696.2h42.1v25.1h-42.1v-25.1z" class="st33" fill="#f4c84e"/><path class="st3" d="M703.1 750.4H551.6c-2.2 0-4-1.8-4-4v-19c0-2.2 1.8-4 4-4h151.5c2.2 0 4 1.8 4 4v19c0 2.2-1.8 4-4 4z" fill="#f3ac14"/><path class="st18" d="M703.1 751.2H551.6c-2.7 0-4.9-2.2-4.9-4.9v-19c0-2.7 2.2-4.9 4.9-4.9h151.5c2.7 0 4.9 2.2 4.9 4.9v19c-.1 2.7-2.2 4.9-4.9 4.9zm-151.5-27.1c-1.8 0-3.2 1.4-3.2 3.2v19c0 1.8 1.4 3.2 3.2 3.2h151.5c1.8 0 3.2-1.4 3.2-3.2v-19c0-1.8-1.4-3.2-3.2-3.2H551.6z" fill="#b34326"/><path d="M646.3 724.3h42.1v25.1h-42.1v-25.1z" class="st33" fill="#f4c84e"/><path class="st3" d="M703.1 778.4H551.6c-2.2 0-4-1.8-4-4v-19c0-2.2 1.8-4 4-4h151.5c2.2 0 4 1.8 4 4v19c0 2.2-1.8 4-4 4z" fill="#f3ac14"/><path class="st18" d="M703.1 779.2H551.6c-2.7 0-4.9-2.2-4.9-4.9v-19c0-2.7 2.2-4.9 4.9-4.9h151.5c2.7 0 4.9 2.2 4.9 4.9v19c-.1 2.8-2.2 4.9-4.9 4.9zm-151.5-27c-1.8 0-3.2 1.4-3.2 3.2v19c0 1.8 1.4 3.2 3.2 3.2h151.5c1.8 0 3.2-1.4 3.2-3.2v-19c0-1.8-1.4-3.2-3.2-3.2H551.6z" fill="#b34326"/><path d="M646.3 752.5h42.1v24.7h-42.1v-24.7z" class="st33" fill="#f4c84e"/></g></g><g><path d="M564.2 20.4h4v6h-4v-6zm4 394.5h-4v-12.1h4v12.1zm0-24.3h-4v-12.1h4v12.1zm0-24.3h-4v-12.1h4v12.1zm0-24.2h-4V330h4v12.1zm0-24.3h-4v-12.1h4v12.1zm0-24.3h-4v-12.1h4v12.1zm0-24.3h-4v-12.1h4v12.1zm0-24.3h-4v-12.1h4v12.1zm0-24.2h-4v-12.1h4v12.1zm0-24.3h-4v-12.1h4v12.1zm0-24.3h-4V160h4v12.1zm0-24.3h-4v-12.1h4v12.1zm0-24.3h-4v-12.1h4v12.1zm0-24.3h-4V87.1h4v12.1zm0-24.2h-4V62.8h4V75zm0-24.3h-4V38.5h4v12.2zm-4 376.3h4v6h-4v-6zM373.9 726.7h4v6h-4v-6zm4 201.5h-4V916h4v12.2zm0-24.5h-4v-12.2h4v12.2zm0-24.4h-4v-12.2h4v12.2zm0-24.4h-4v-12.2h4v12.2zm0-24.5h-4v-12.2h4v12.2zm0-24.4h-4v-12.2h4V806zm0-24.4h-4v-12.2h4v12.2zm0-24.5h-4v-12.2h4v12.2zm-4 183.3h4v6h-4v-6z" class="st2" fill="#fff"/><path d="M952.011 428.093l.018 4-6 .027-.018-4 6-.027zM278.7 435v-4l11.9-.1v4l-11.9.1zm23.9-.1v-4l11.9-.1v4l-11.9.1zm23.8-.1v-4l11.9-.1v4l-11.9.1zm23.8-.1v-4l11.9-.1v4l-11.9.1zm23.8-.1v-4l11.9-.1v4l-11.9.1zm23.9-.1v-4l11.9-.1v4l-11.9.1zm23.8-.2v-4l11.9-.1v4l-11.9.1zm23.8-.1v-4l11.9-.1v4l-11.9.1zm23.9-.1v-4l11.9-.1v4l-11.9.1zm23.8-.1v-4l11.9-.1v4l-11.9.1zm23.8-.1v-4l11.9-.1v4l-11.9.1zm23.9-.1v-4l11.9-.1v4l-11.9.1zm23.8-.1v-4l11.9-.1v4l-11.9.1zm23.8-.1v-4l11.9-.1v4l-11.9.1zm23.9-.1v-4l11.9-.1v4l-11.9.1zm23.8-.1v-4l11.9-.1v4l-11.9.1zm23.8-.1v-4l11.9-.1v4l-11.9.1zm23.9-.1v-4l11.9-.1v4l-11.9.1zm23.8-.1v-4l11.9-.1v4l-11.9.1zm23.8-.1v-4l11.9-.1v4l-11.9.1zm23.9-.1v-4l11.9-.1v4l-11.9.1zm23.8-.1v-4l11.9-.1v4l-11.9.1zm23.8-.1v-4l11.9-.1v4l-11.9.1zm23.9-.1v-4l11.9-.1v4l-11.9.1zm23.8-.1v-4l11.9-.1v4l-11.9.1zm23.8-.1v-4l11.9-.1v4l-11.9.1zm23.9-.1v-4l11.9-.1v4l-11.9.1zm23.8-.1v-4l11.9-.1v4l-11.9.1zm-655.397-1.185l.016 4-6 .025-.016-4 6-.025zM1058.9 461h4v6h-4v-6zm4 467.2h-4v-12.1h4v12.1zm0-24.2h-4v-12.1h4V904zm0-24.3h-4v-12.1h4v12.1zm0-24.3h-4v-12.1h4v12.1zm0-24.3h-4V819h4v12.1zm0-24.2h-4v-12.1h4v12.1zm0-24.3h-4v-12.1h4v12.1zm0-24.3h-4v-12.1h4v12.1zm0-24.3h-4v-12.1h4V734zm0-24.2h-4v-12.1h4v12.1zm0-24.3h-4v-12.1h4v12.1zm0-24.3h-4v-12.1h4v12.1zm0-24.3h-4v-12.1h4v12.1zm0-24.2h-4v-12.1h4v12.1zm0-24.3h-4v-12.1h4v12.1zm0-24.3h-4V552h4v12.1zm0-24.3h-4v-12.1h4v12.1zm0-24.2h-4v-12.1h4v12.1zm0-24.3h-4v-12.1h4v12.1zm-4 449.1h4v6h-4v-6z" class="st2" fill="#fff"/><path d="M881.6 20.4h4v6h-4v-6zm4 394.5h-4v-12.1h4v12.1zm0-24.3h-4v-12.1h4v12.1zm0-24.3h-4v-12.1h4v12.1zm0-24.2h-4V330h4v12.1zm0-24.3h-4v-12.1h4v12.1zm0-24.3h-4v-12.1h4v12.1zm0-24.3h-4v-12.1h4v12.1zm0-24.3h-4v-12.1h4v12.1zm0-24.2h-4v-12.1h4v12.1zm0-24.3h-4v-12.1h4v12.1zm0-24.3h-4V160h4v12.1zm0-24.3h-4v-12.1h4v12.1zm0-24.3h-4v-12.1h4v12.1zm0-24.3h-4V87.1h4v12.1zm0-24.2h-4V62.8h4V75zm0-24.3h-4V38.5h4v12.2zm-4 376.3h4v6h-4v-6z" class="st2" fill="#fff"/></g><g><path class="st2" d="M1091.2 840.6h2v14.2h6.8v1.7h-8.8v-15.9zm21.1 10.1c0 4.2-2.9 6.1-5.7 6.1-3.1 0-5.5-2.3-5.5-5.9 0-3.8 2.5-6.1 5.7-6.1 3.3 0 5.5 2.4 5.5 5.9zm-9.1.1c0 2.5 1.4 4.4 3.5 4.4 2 0 3.5-1.9 3.5-4.4 0-1.9-1-4.4-3.4-4.4-2.5 0-3.6 2.2-3.6 4.4zm11.7-2.2c0-1.3 0-2.5-.1-3.6h1.8l.1 2.2h.1c.5-1.5 1.8-2.5 3.2-2.5.2 0 .4 0 .6.1v2c-.2 0-.4-.1-.7-.1-1.5 0-2.5 1.1-2.8 2.7 0 .3-.1.6-.1 1v6.1h-2.1v-7.9zm8.6 2.5c0 2.8 1.8 4 3.9 4 1.5 0 2.4-.3 3.2-.6l.4 1.5c-.7.3-2 .7-3.8.7-3.5 0-5.6-2.3-5.6-5.7 0-3.4 2-6.1 5.3-6.1 3.7 0 4.7 3.3 4.7 5.4 0 .4 0 .8-.1 1h-8zm6.1-1.5c0-1.3-.5-3.4-2.9-3.4-2.1 0-3 1.9-3.2 3.4h6.1zm4.6-1.5c0-1.2 0-2.1-.1-3.1h1.8l.1 1.8h.1c.6-1.1 1.7-2.1 3.6-2.1 1.6 0 2.7.9 3.2 2.3.4-.6.8-1.1 1.3-1.5.7-.5 1.4-.8 2.5-.8 1.5 0 3.7 1 3.7 4.9v6.7h-2V850c0-2.2-.8-3.5-2.5-3.5-1.2 0-2.1.9-2.5 1.9-.1.3-.2.7-.2 1v7h-2v-6.8c0-1.8-.8-3.1-2.4-3.1-1.3 0-2.2 1-2.6 2.1-.1.3-.2.7-.2 1v6.9h-2v-8.4zm26.9-6.3c0 .7-.5 1.3-1.3 1.3-.7 0-1.2-.6-1.2-1.3 0-.7.5-1.3 1.3-1.3.7.1 1.2.6 1.2 1.3zm-2.3 14.7v-11.4h2.1v11.4h-2.1zm5.5-7.7c0-1.5 0-2.6-.1-3.7h1.9l.1 2c.8-1.4 2.2-2.2 4.1-2.2 2.8 0 4.8 2.3 4.8 5.8 0 4.1-2.5 6.1-5.2 6.1-1.5 0-2.8-.7-3.5-1.8v6.2h-2v-12.4zm2.1 3c0 .3 0 .6.1.8.4 1.4 1.6 2.4 3.1 2.4 2.2 0 3.5-1.8 3.5-4.4 0-2.3-1.2-4.2-3.4-4.2-1.4 0-2.7 1-3.1 2.6-.1.3-.1.6-.1.8v2zm11 2.5c.6.4 1.7.8 2.7.8 1.5 0 2.2-.8 2.2-1.7 0-1-.6-1.5-2.1-2.1-2.1-.7-3-1.9-3-3.2 0-1.8 1.5-3.3 3.9-3.3 1.2 0 2.2.3 2.8.7l-.5 1.5c-.4-.3-1.3-.7-2.3-.7-1.2 0-1.9.7-1.9 1.6 0 .9.7 1.4 2.2 1.9 2 .8 3 1.7 3 3.4 0 2-1.6 3.4-4.3 3.4-1.2 0-2.4-.3-3.2-.8l.5-1.5zm19.2-1c0 1.2 0 2.2.1 3.1h-1.8l-.1-1.9c-.5.9-1.7 2.1-3.8 2.1-1.8 0-3.9-1-3.9-5v-6.7h2.1v6.3c0 2.2.7 3.6 2.5 3.6 1.4 0 2.4-1 2.7-1.9.1-.3.2-.7.2-1.1v-7h2.1v8.5zm3.4-5.2c0-1.2 0-2.1-.1-3.1h1.8l.1 1.8h.1c.6-1.1 1.7-2.1 3.6-2.1 1.6 0 2.7.9 3.2 2.3.4-.6.8-1.1 1.3-1.5.7-.5 1.4-.8 2.5-.8 1.5 0 3.7 1 3.7 4.9v6.7h-2V850c0-2.2-.8-3.5-2.5-3.5-1.2 0-2.1.9-2.5 1.9-.1.3-.2.7-.2 1v7h-2v-6.8c0-1.8-.8-3.1-2.4-3.1-1.3 0-2.2 1-2.6 2.1-.1.3-.2.7-.2 1v6.9h-2v-8.4zm34.5-8.4v13.8c0 1 0 2.2.1 2.9h-1.9l-.1-2c-.6 1.3-2 2.2-3.9 2.2-2.8 0-4.9-2.3-4.9-5.8 0-3.8 2.3-6.1 5.1-6.1 1.7 0 2.9.8 3.4 1.7v-6.8h2.2zm-2 10c0-.3 0-.6-.1-.9-.3-1.3-1.4-2.4-3-2.4-2.1 0-3.4 1.9-3.4 4.4 0 2.3 1.1 4.2 3.4 4.2 1.4 0 2.7-.9 3-2.5.1-.3.1-.6.1-.9v-1.9zm15.8 1c0 4.2-2.9 6.1-5.7 6.1-3.1 0-5.5-2.3-5.5-5.9 0-3.8 2.5-6.1 5.7-6.1 3.3 0 5.5 2.4 5.5 5.9zm-9 .1c0 2.5 1.4 4.4 3.5 4.4 2 0 3.5-1.9 3.5-4.4 0-1.9-1-4.4-3.4-4.4-2.6 0-3.6 2.2-3.6 4.4zm11.6-11.1h2.1v16.7h-2.1v-16.7zm15.9 11c0 4.2-2.9 6.1-5.7 6.1-3.1 0-5.5-2.3-5.5-5.9 0-3.8 2.5-6.1 5.7-6.1 3.3 0 5.5 2.4 5.5 5.9zm-9 .1c0 2.5 1.4 4.4 3.5 4.4 2 0 3.5-1.9 3.5-4.4 0-1.9-1-4.4-3.4-4.4-2.6 0-3.6 2.2-3.6 4.4zm11.6-2.2c0-1.3 0-2.5-.1-3.6h1.8l.1 2.2h.1c.5-1.5 1.8-2.5 3.2-2.5.2 0 .4 0 .6.1v2c-.2 0-.4-.1-.7-.1-1.5 0-2.5 1.1-2.8 2.7 0 .3-.1.6-.1 1v6.1h-2v-7.9zm12.4 5.7c.6.4 1.7.8 2.7.8 1.5 0 2.2-.8 2.2-1.7 0-1-.6-1.5-2.1-2.1-2-.7-3-1.9-3-3.2 0-1.8 1.5-3.3 3.9-3.3 1.2 0 2.2.3 2.8.7l-.5 1.5c-.4-.3-1.3-.7-2.3-.7-1.2 0-1.9.7-1.9 1.6 0 .9.7 1.4 2.2 1.9 2 .8 3 1.7 3 3.4 0 2-1.6 3.4-4.3 3.4-1.2 0-2.4-.3-3.2-.8l.5-1.5zm12-12.5c0 .7-.5 1.3-1.3 1.3-.7 0-1.2-.6-1.2-1.3 0-.7.5-1.3 1.3-1.3.7.1 1.2.6 1.2 1.3zm-2.4 14.7v-11.4h2.1v11.4h-2.1zm8.1-14.7v3.3h3v1.6h-3v6.1c0 1.4.4 2.2 1.6 2.2.5 0 .9-.1 1.2-.1l.1 1.6c-.4.2-1 .3-1.8.3-1 0-1.7-.3-2.2-.9-.6-.6-.8-1.6-.8-3v-6.2h-1.8v-1.6h1.8v-2.7l1.9-.6zm16.6 14.7l-.2-1.4h-.1c-.6.9-1.9 1.7-3.5 1.7-2.3 0-3.5-1.6-3.5-3.3 0-2.8 2.5-4.3 6.9-4.2v-.3c0-.9-.3-2.6-2.6-2.6-1.1 0-2.2.3-3 .8l-.5-1.4c.9-.6 2.3-1 3.7-1 3.5 0 4.3 2.4 4.3 4.7v4.3c0 1 0 2 .2 2.7h-1.7zm-.3-5.9c-2.3 0-4.8.4-4.8 2.6 0 1.3.9 2 2 2 1.5 0 2.4-.9 2.8-1.9.1-.2.1-.4.1-.7v-2zm5.3-2.5c0-1.2 0-2.1-.1-3.1h1.8l.1 1.8h.1c.6-1.1 1.7-2.1 3.6-2.1 1.6 0 2.7.9 3.2 2.3.4-.6.8-1.1 1.3-1.5.7-.5 1.4-.8 2.5-.8 1.5 0 3.7 1 3.7 4.9v6.7h-2V850c0-2.2-.8-3.5-2.5-3.5-1.2 0-2.1.9-2.5 1.9-.1.3-.2.7-.2 1v7h-2v-6.8c0-1.8-.8-3.1-2.4-3.1-1.3 0-2.2 1-2.6 2.1-.1.3-.2.7-.2 1v6.9h-2v-8.4zm20.8 3c0 2.8 1.8 4 3.9 4 1.5 0 2.4-.3 3.2-.6l.4 1.5c-.7.3-2 .7-3.8.7-3.5 0-5.6-2.3-5.6-5.7 0-3.4 2-6.1 5.3-6.1 3.7 0 4.7 3.3 4.7 5.4 0 .4 0 .8-.1 1h-8zm6.1-1.5c0-1.3-.5-3.4-2.9-3.4-2.1 0-3 1.9-3.2 3.4h6.1zm7.1-7.8v3.3h3v1.6h-3v6.1c0 1.4.4 2.2 1.6 2.2.5 0 .9-.1 1.2-.1l.1 1.6c-.4.2-1 .3-1.8.3-1 0-1.7-.3-2.2-.9-.6-.6-.8-1.6-.8-3v-6.2h-1.8v-1.6h1.8v-2.7l1.9-.6zm-262.8 37.6c0 2.8 1.8 4 3.9 4 1.5 0 2.4-.3 3.2-.6l.4 1.5c-.7.3-2 .7-3.8.7-3.5 0-5.6-2.3-5.6-5.7s2-6.1 5.3-6.1c3.7 0 4.7 3.3 4.7 5.4 0 .4 0 .8-.1 1h-8zm6.1-1.5c0-1.3-.5-3.4-2.9-3.4-2.1 0-3 1.9-3.2 3.4h6.1zm14.1 3.7c0 1.2 0 2.2.1 3.1h-1.8l-.1-1.9c-.5.9-1.7 2.1-3.8 2.1-1.8 0-3.9-1-3.9-5v-6.7h2.1v6.3c0 2.2.7 3.6 2.5 3.6 1.4 0 2.4-1 2.7-1.9.1-.3.2-.7.2-1.1v-7h2.1v8.5zm18.8-2.7c0 4.2-2.9 6.1-5.7 6.1-3.1 0-5.5-2.3-5.5-5.9 0-3.8 2.5-6.1 5.7-6.1 3.2.1 5.5 2.5 5.5 5.9zm-9.1.2c0 2.5 1.4 4.4 3.5 4.4 2 0 3.5-1.9 3.5-4.4 0-1.9-1-4.4-3.4-4.4-2.5-.1-3.6 2.2-3.6 4.4zm11.7-2c0-1.5 0-2.6-.1-3.7h1.9l.1 2c.8-1.4 2.2-2.2 4.1-2.2 2.8 0 4.8 2.3 4.8 5.8 0 4.1-2.5 6.1-5.2 6.1-1.5 0-2.8-.7-3.5-1.8v6.2h-2.1v-12.4zm2 3c0 .3 0 .6.1.8.4 1.4 1.6 2.4 3.1 2.4 2.2 0 3.5-1.8 3.5-4.4 0-2.3-1.2-4.2-3.4-4.2-1.4 0-2.7 1-3.1 2.6-.1.3-.1.6-.1.8v2zm13.9-10v3.3h3v1.6h-3v6.2c0 1.4.4 2.2 1.6 2.2.5 0 .9-.1 1.2-.1l.1 1.6c-.4.2-1 .3-1.8.3-1 0-1.7-.3-2.2-.9-.6-.6-.8-1.6-.8-3v-6.2h-1.8v-1.6h1.8v-2.7l1.9-.7zm7.6 0c0 .7-.5 1.3-1.3 1.3-.7 0-1.2-.6-1.2-1.3 0-.7.5-1.3 1.3-1.3.7 0 1.2.6 1.2 1.3zm-2.3 14.6v-11.4h2.1v11.4h-2.1zm15.8-5.8c0 4.2-2.9 6.1-5.7 6.1-3.1 0-5.5-2.3-5.5-5.9 0-3.8 2.5-6.1 5.7-6.1 3.3.1 5.5 2.5 5.5 5.9zm-9 .2c0 2.5 1.4 4.4 3.5 4.4 2 0 3.5-1.9 3.5-4.4 0-1.9-1-4.4-3.4-4.4-2.6-.1-3.6 2.2-3.6 4.4zm11.6-2.7c0-1.2 0-2.1-.1-3.1h1.8l.1 1.9c.6-1.1 1.9-2.1 3.8-2.1 1.6 0 4 .9 4 4.9v6.8h-2.1v-6.6c0-1.8-.7-3.4-2.6-3.4-1.4 0-2.4 1-2.8 2.1-.1.3-.1.6-.1 1v6.9h-2.1v-8.4zm17.8 6.2c.6.4 1.7.8 2.7.8 1.5 0 2.2-.8 2.2-1.7 0-1-.6-1.5-2.1-2.1-2-.7-3-1.9-3-3.2 0-1.8 1.5-3.3 3.9-3.3 1.2 0 2.2.3 2.8.7l-.5 1.5c-.4-.3-1.3-.7-2.3-.7-1.2 0-1.9.7-1.9 1.6 0 .9.7 1.4 2.2 1.9 2 .8 3 1.7 3 3.4 0 2-1.6 3.4-4.3 3.4-1.2 0-2.4-.3-3.2-.8l.5-1.5zm10.8-3.2c0 2.8 1.8 4 3.9 4 1.5 0 2.4-.3 3.2-.6l.4 1.5c-.7.3-2 .7-3.8.7-3.5 0-5.6-2.3-5.6-5.7s2-6.1 5.3-6.1c3.7 0 4.7 3.3 4.7 5.4 0 .4 0 .8-.1 1h-8zm6.1-1.5c0-1.3-.5-3.4-2.9-3.4-2.1 0-3 1.9-3.2 3.4h6.1zm4.5-1.5c0-1.2 0-2.1-.1-3.1h1.8l.1 1.9c.6-1.1 1.9-2.1 3.8-2.1 1.6 0 4 .9 4 4.9v6.8h-2.1v-6.6c0-1.8-.7-3.4-2.6-3.4-1.4 0-2.4 1-2.8 2.1-.1.3-.1.6-.1 1v6.9h-2.1v-8.4zm12.8 6.2c.6.4 1.7.8 2.7.8 1.5 0 2.2-.8 2.2-1.7 0-1-.6-1.5-2.1-2.1-2.1-.7-3-1.9-3-3.2 0-1.8 1.5-3.3 3.9-3.3 1.2 0 2.2.3 2.8.7l-.5 1.5c-.4-.3-1.3-.7-2.3-.7-1.2 0-1.9.7-1.9 1.6 0 .9.7 1.4 2.2 1.9 2 .8 3 1.7 3 3.4 0 2-1.6 3.4-4.3 3.4-1.2 0-2.4-.3-3.2-.8l.5-1.5zm12-12.5c0 .7-.5 1.3-1.3 1.3-.7 0-1.2-.6-1.2-1.3 0-.7.5-1.3 1.3-1.3.7 0 1.2.6 1.2 1.3zm-2.3 14.6v-11.4h2.1v11.4h-2.1zm5.4 0c0-.8.1-1.9.1-2.9V868h2.1v7.2c.7-1.3 2.1-2.1 3.9-2.1 2.8 0 4.8 2.4 4.8 5.8 0 4.1-2.6 6.1-5.1 6.1-1.6 0-3-.6-3.8-2.1h-.1l-.1 1.9h-1.8zm2.1-4.5c0 .3 0 .5.1.8.4 1.4 1.6 2.4 3.1 2.4 2.2 0 3.5-1.8 3.5-4.4 0-2.3-1.2-4.2-3.4-4.2-1.4 0-2.7 1-3.2 2.5 0 .2-.1.5-.1.8v2.1zm20.9 1.4c0 1.2 0 2.2.1 3.1h-1.8l-.1-1.9c-.5.9-1.7 2.1-3.8 2.1-1.8 0-3.9-1-3.9-5v-6.7h2.1v6.3c0 2.2.7 3.6 2.5 3.6 1.4 0 2.4-1 2.7-1.9.1-.3.2-.7.2-1.1v-7h2.1v8.5zm3.2 1c.6.4 1.7.8 2.7.8 1.5 0 2.2-.8 2.2-1.7 0-1-.6-1.5-2.1-2.1-2-.7-3-1.9-3-3.2 0-1.8 1.5-3.3 3.9-3.3 1.2 0 2.2.3 2.8.7l-.5 1.5c-.4-.3-1.3-.7-2.3-.7-1.2 0-1.9.7-1.9 1.6 0 .9.7 1.4 2.2 1.9 2 .8 3 1.7 3 3.4 0 2-1.6 3.4-4.3 3.4-1.2 0-2.4-.3-3.2-.8l.5-1.5zm14.6-6.2c0-1.2 0-2.1-.1-3.1h1.8l.1 1.8h.1c.6-1.1 1.7-2.1 3.6-2.1 1.6 0 2.7.9 3.2 2.3.4-.6.8-1.1 1.3-1.5.7-.5 1.4-.8 2.5-.8 1.5 0 3.7 1 3.7 4.9v6.7h-2v-6.5c0-2.2-.8-3.5-2.5-3.5-1.2 0-2.1.9-2.5 1.9-.1.3-.2.7-.2 1v7h-2v-6.8c0-1.8-.8-3.1-2.4-3.1-1.3 0-2.2 1-2.6 2.1-.1.3-.2.7-.2 1v6.9h-2v-8.2zm20.8 3c0 2.8 1.8 4 3.9 4 1.5 0 2.4-.3 3.2-.6l.4 1.5c-.7.3-2 .7-3.8.7-3.5 0-5.6-2.3-5.6-5.7s2-6.1 5.3-6.1c3.7 0 4.7 3.3 4.7 5.4 0 .4 0 .8-.1 1h-8zm6.1-1.5c0-1.3-.5-3.4-2.9-3.4-2.1 0-3 1.9-3.2 3.4h6.1zm4.5-9.9h2.1v16.7h-2.1V868zm11.9 16.7l-.2-1.4h-.1c-.6.9-1.9 1.7-3.5 1.7-2.3 0-3.5-1.6-3.5-3.3 0-2.8 2.5-4.3 6.9-4.2v-.2c0-.9-.3-2.6-2.6-2.6-1.1 0-2.2.3-3 .8l-.5-1.4c.9-.6 2.3-1 3.7-1 3.5 0 4.3 2.4 4.3 4.7v4.3c0 1 0 2 .2 2.7h-1.7zm-.3-5.8c-2.3 0-4.8.4-4.8 2.6 0 1.3.9 2 2 2 1.5 0 2.4-.9 2.8-1.9.1-.2.1-.4.1-.7v-2zm15.2-10.9v13.8c0 1 0 2.2.1 2.9h-1.9l-.1-2c-.6 1.3-2 2.2-3.9 2.2-2.8 0-4.9-2.3-4.9-5.8 0-3.8 2.3-6.1 5.1-6.1 1.7 0 2.9.8 3.4 1.7V868h2.2zm-2.1 10c0-.3 0-.6-.1-.9-.3-1.3-1.4-2.4-3-2.4-2.1 0-3.4 1.9-3.4 4.4 0 2.3 1.1 4.2 3.4 4.2 1.4 0 2.7-.9 3-2.5.1-.3.1-.6.1-.9V878zm11.9 6.7l-.2-1.4h-.1c-.6.9-1.9 1.7-3.5 1.7-2.3 0-3.5-1.6-3.5-3.3 0-2.8 2.5-4.3 6.9-4.2v-.2c0-.9-.3-2.6-2.6-2.6-1.1 0-2.2.3-3 .8l-.5-1.4c.9-.6 2.3-1 3.7-1 3.5 0 4.3 2.4 4.3 4.7v4.3c0 1 0 2 .2 2.7h-1.7zm-.3-5.8c-2.3 0-4.8.4-4.8 2.6 0 1.3.9 2 2 2 1.5 0 2.4-.9 2.8-1.9.1-.2.1-.4.1-.7v-2zm6.5.5c0 2.8 1.8 4 3.9 4 1.5 0 2.4-.3 3.2-.6l.4 1.5c-.7.3-2 .7-3.8.7-3.5 0-5.6-2.3-5.6-5.7s2-6.1 5.3-6.1c3.7 0 4.7 3.3 4.7 5.4 0 .4 0 .8-.1 1h-8zm6-1.5c0-1.3-.5-3.4-2.9-3.4-2.1 0-3 1.9-3.2 3.4h6.1zM1097.5 913l-.2-1.4h-.1c-.6.9-1.9 1.7-3.5 1.7-2.3 0-3.5-1.6-3.5-3.3 0-2.8 2.5-4.3 6.9-4.2v-.2c0-.9-.3-2.6-2.6-2.6-1.1 0-2.2.3-3 .8l-.5-1.4c.9-.6 2.3-1 3.7-1 3.5 0 4.3 2.4 4.3 4.7v4.3c0 1 0 2 .2 2.7h-1.7zm-.3-5.8c-2.3 0-4.8.4-4.8 2.6 0 1.3.9 2 2 2 1.5 0 2.4-.9 2.8-1.9.1-.2.1-.4.1-.7v-2zm5.3-1.9c0-1.5 0-2.6-.1-3.7h1.9l.1 2c.8-1.4 2.2-2.2 4.1-2.2 2.8 0 4.8 2.3 4.8 5.8 0 4.1-2.5 6.1-5.2 6.1-1.5 0-2.8-.7-3.5-1.8v6.2h-2.1v-12.4zm2.1 3.1c0 .3 0 .6.1.8.4 1.4 1.6 2.4 3.1 2.4 2.2 0 3.5-1.8 3.5-4.4 0-2.3-1.2-4.2-3.4-4.2-1.4 0-2.7 1-3.1 2.6-.1.3-.1.6-.1.8v2zm12.5-.7c0 2.8 1.8 4 3.9 4 1.5 0 2.4-.3 3.2-.6l.4 1.5c-.7.3-2 .7-3.8.7-3.5 0-5.6-2.3-5.6-5.7s2-6.1 5.3-6.1c3.7 0 4.7 3.3 4.7 5.4 0 .4 0 .8-.1 1h-8zm6.1-1.5c0-1.3-.5-3.4-2.9-3.4-2.1 0-3 1.9-3.2 3.4h6.1zm4.5-1c0-1.3 0-2.5-.1-3.6h1.8l.1 2.2h.1c.5-1.5 1.8-2.5 3.2-2.5.2 0 .4 0 .6.1v2c-.2 0-.4-.1-.7-.1-1.5 0-2.5 1.1-2.8 2.7 0 .3-.1.6-.1 1v6.1h-2.1v-7.9zm10.1-6.8c0 .7-.5 1.3-1.3 1.3-.7 0-1.2-.6-1.2-1.3 0-.7.5-1.3 1.3-1.3.7 0 1.2.6 1.2 1.3zm-2.3 14.6v-11.4h2.1V913h-2.1zm11.9 0l-.2-1.4h-.1c-.6.9-1.9 1.7-3.5 1.7-2.3 0-3.5-1.6-3.5-3.3 0-2.8 2.5-4.3 6.9-4.2v-.2c0-.9-.3-2.6-2.6-2.6-1.1 0-2.2.3-3 .8l-.5-1.4c.9-.6 2.3-1 3.7-1 3.5 0 4.3 2.4 4.3 4.7v4.3c0 1 0 2 .2 2.7h-1.7zm-.4-5.8c-2.3 0-4.8.4-4.8 2.6 0 1.3.9 2 2 2 1.5 0 2.4-.9 2.8-1.9.1-.2.1-.4.1-.7v-2zm5.4-2.5c0-1.2 0-2.1-.1-3.1h1.8l.1 1.8h.1c.6-1.1 1.7-2.1 3.6-2.1 1.6 0 2.7.9 3.2 2.3.4-.6.8-1.1 1.3-1.5.7-.5 1.4-.8 2.5-.8 1.5 0 3.7 1 3.7 4.9v6.7h-2v-6.5c0-2.2-.8-3.5-2.5-3.5-1.2 0-2.1.9-2.5 1.9-.1.3-.2.7-.2 1v7h-2V906c0-1.8-.8-3.1-2.4-3.1-1.3 0-2.2 1-2.6 2.1-.1.3-.2.7-.2 1v6.9h-2v-8.2zm34.5-8.4v13.8c0 1 0 2.2.1 2.9h-1.9l-.1-2c-.6 1.3-2 2.2-3.9 2.2-2.8 0-4.9-2.3-4.9-5.8 0-3.8 2.3-6.1 5.1-6.1 1.7 0 2.9.8 3.4 1.7v-6.8h2.2zm-2.1 10c0-.3 0-.6-.1-.9-.3-1.3-1.4-2.4-3-2.4-2.1 0-3.4 1.9-3.4 4.4 0 2.3 1.1 4.2 3.4 4.2 1.4 0 2.7-.9 3-2.5.1-.3.1-.6.1-.9v-1.9zm6.7 1.4c0 2.8 1.8 4 3.9 4 1.5 0 2.4-.3 3.2-.6l.4 1.5c-.7.3-2 .7-3.8.7-3.5 0-5.6-2.3-5.6-5.7s2-6.1 5.3-6.1c3.7 0 4.7 3.3 4.7 5.4 0 .4 0 .8-.1 1h-8zm6.1-1.5c0-1.3-.5-3.4-2.9-3.4-2.1 0-3 1.9-3.2 3.4h6.1zm7-7.9v3.3h3v1.6h-3v6.1c0 1.4.4 2.2 1.6 2.2.5 0 .9-.1 1.2-.1l.1 1.6c-.4.2-1 .3-1.8.3-1 0-1.7-.3-2.2-.9-.6-.6-.8-1.6-.8-3v-6.2h-1.8v-1.6h1.8v-2.7l1.9-.6zm6.4 9.4c0 2.8 1.8 4 3.9 4 1.5 0 2.4-.3 3.2-.6l.4 1.5c-.7.3-2 .7-3.8.7-3.5 0-5.6-2.3-5.6-5.7s2-6.1 5.3-6.1c3.7 0 4.7 3.3 4.7 5.4 0 .4 0 .8-.1 1h-8zm6-1.5c0-1.3-.5-3.4-2.9-3.4-2.1 0-3 1.9-3.2 3.4h6.1zm4.6-1c0-1.3 0-2.5-.1-3.6h1.8l.1 2.2h.1c.5-1.5 1.8-2.5 3.2-2.5.2 0 .4 0 .6.1v2c-.2 0-.4-.1-.7-.1-1.5 0-2.5 1.1-2.8 2.7 0 .3-.1.6-.1 1v6.1h-2v-7.9zm7.8 0c0-1.3 0-2.5-.1-3.6h1.8l.1 2.2h.1c.5-1.5 1.8-2.5 3.2-2.5.2 0 .4 0 .6.1v2c-.2 0-.4-.1-.7-.1-1.5 0-2.5 1.1-2.8 2.7 0 .3-.1.6-.1 1v6.1h-2.1v-7.9zm17.3 4.7c0 1.2 0 2.2.1 3.1h-1.8l-.1-1.9c-.5.9-1.7 2.1-3.8 2.1-1.8 0-3.9-1-3.9-5v-6.7h2.1v6.3c0 2.2.7 3.6 2.5 3.6 1.4 0 2.4-1 2.7-1.9.1-.3.2-.7.2-1.1v-7h2.1v8.5zm5.7-11.5c0 .7-.5 1.3-1.3 1.3-.7 0-1.2-.6-1.2-1.3 0-.7.5-1.3 1.3-1.3.7 0 1.2.6 1.2 1.3zm-2.3 14.6v-11.4h2.1V913h-2.1zm5.2-2.1c.6.4 1.7.8 2.7.8 1.5 0 2.2-.8 2.2-1.7 0-1-.6-1.5-2.1-2.1-2-.7-3-1.9-3-3.2 0-1.8 1.5-3.3 3.9-3.3 1.2 0 2.2.3 2.8.7l-.5 1.5c-.4-.3-1.3-.7-2.3-.7-1.2 0-1.9.7-1.9 1.6 0 .9.7 1.4 2.2 1.9 2 .8 3 1.7 3 3.4 0 2-1.6 3.4-4.3 3.4-1.2 0-2.4-.3-3.2-.8l.5-1.5zm9.4 0c.6.4 1.7.8 2.7.8 1.5 0 2.2-.8 2.2-1.7 0-1-.6-1.5-2.1-2.1-2-.7-3-1.9-3-3.2 0-1.8 1.5-3.3 3.9-3.3 1.2 0 2.2.3 2.8.7l-.5 1.5c-.4-.3-1.3-.7-2.3-.7-1.2 0-1.9.7-1.9 1.6 0 .9.7 1.4 2.2 1.9 2 .8 3 1.7 3 3.4 0 2-1.6 3.4-4.3 3.4-1.2 0-2.4-.3-3.2-.8l.5-1.5zm10.7-3.2c0 2.8 1.8 4 3.9 4 1.5 0 2.4-.3 3.2-.6l.4 1.5c-.7.3-2 .7-3.8.7-3.5 0-5.6-2.3-5.6-5.7s2-6.1 5.3-6.1c3.7 0 4.7 3.3 4.7 5.4 0 .4 0 .8-.1 1h-8zm6.1-1.5c0-1.3-.5-3.4-2.9-3.4-2.1 0-3 1.9-3.2 3.4h6.1zm7.1-7.9v3.3h3v1.6h-3v6.1c0 1.4.4 2.2 1.6 2.2.5 0 .9-.1 1.2-.1l.1 1.6c-.4.2-1 .3-1.8.3-1 0-1.7-.3-2.2-.9-.6-.6-.8-1.6-.8-3v-6.2h-1.8v-1.6h1.8v-2.7l1.9-.6zm10.3-2h2.1v7.1c.3-.6.8-1.1 1.5-1.5.6-.4 1.3-.6 2.1-.6 1.5 0 4 .9 4 4.9v6.8h-2.1v-6.6c0-1.8-.7-3.4-2.6-3.4-1.3 0-2.4.9-2.8 2.1-.1.3-.1.6-.1 1v6.9h-2.1v-16.7zm19.4 16.7l-.2-1.4h-.1c-.6.9-1.9 1.7-3.5 1.7-2.3 0-3.5-1.6-3.5-3.3 0-2.8 2.5-4.3 6.9-4.2v-.2c0-.9-.3-2.6-2.6-2.6-1.1 0-2.2.3-3 .8l-.5-1.4c.9-.6 2.3-1 3.7-1 3.5 0 4.3 2.4 4.3 4.7v4.3c0 1 0 2 .2 2.7h-1.7zm-.3-5.8c-2.3 0-4.8.4-4.8 2.6 0 1.3.9 2 2 2 1.5 0 2.4-.9 2.8-1.9.1-.2.1-.4.1-.7v-2zm5 3.7c.6.4 1.7.8 2.7.8 1.5 0 2.2-.8 2.2-1.7 0-1-.6-1.5-2.1-2.1-2-.7-3-1.9-3-3.2 0-1.8 1.5-3.3 3.9-3.3 1.2 0 2.2.3 2.8.7l-.5 1.5c-.4-.3-1.3-.7-2.3-.7-1.2 0-1.9.7-1.9 1.6 0 .9.7 1.4 2.2 1.9 2 .8 3 1.7 3 3.4 0 2-1.6 3.4-4.3 3.4-1.2 0-2.4-.3-3.2-.8l.5-1.5zm20.9 2.1l-.2-1.4h-.1c-.6.9-1.9 1.7-3.5 1.7-2.3 0-3.5-1.6-3.5-3.3 0-2.8 2.5-4.3 6.9-4.2v-.2c0-.9-.3-2.6-2.6-2.6-1.1 0-2.2.3-3 .8l-.5-1.4c.9-.6 2.3-1 3.7-1 3.5 0 4.3 2.4 4.3 4.7v4.3c0 1 0 2 .2 2.7h-1.7zm-.3-5.8c-2.3 0-4.8.4-4.8 2.6 0 1.3.9 2 2 2 1.5 0 2.4-.9 2.8-1.9.1-.2.1-.4.1-.7v-2zm15.2-10.9v13.8c0 1 0 2.2.1 2.9h-1.9l-.1-2c-.6 1.3-2 2.2-3.9 2.2-2.8 0-4.9-2.3-4.9-5.8 0-3.8 2.3-6.1 5.1-6.1 1.7 0 2.9.8 3.4 1.7v-6.8h2.2zm-2 10c0-.3 0-.6-.1-.9-.3-1.3-1.4-2.4-3-2.4-2.1 0-3.4 1.9-3.4 4.4 0 2.3 1.1 4.2 3.4 4.2 1.4 0 2.7-.9 3-2.5.1-.3.1-.6.1-.9v-1.9zm-276.7-80h286.6v3.7h-286.6v-3.7zm52-35.4h10v6.6h-10V811h12.6v6.6h-19.8v-46.2h19.8v6.6h-12.6v12.9zm41.3-19.5l-7.6 22.5 8.1 23.8h-7.7l-5.9-18.3h-.1l-5.9 18.3h-6.8l8.1-23.8-7.6-22.5h7.5l5.4 17h.1l5.5-17h6.9zm24.2 29v6.1c0 7.4-3.7 11.6-10.8 11.6s-10.8-4.2-10.8-11.6v-24c0-7.4 3.7-11.6 10.8-11.6s10.8 4.2 10.8 11.6v4.5h-6.9v-5c0-3.3-1.5-4.6-3.8-4.6s-3.8 1.3-3.8 4.6v25c0 3.3 1.5 4.5 3.8 4.5s3.8-1.2 3.8-4.5v-6.6h6.9zm11.7 17.2h-7.3v-46.2h7.3v19.8h8.3v-19.8h7.4v46.2h-7.4v-19.8h-8.3v19.8zm44.5 0h-7.3l-1.3-8.4h-8.9l-1.3 8.4h-6.7l7.4-46.2h10.6l7.5 46.2zm-16.6-14.6h7l-3.4-23.4h-.1l-3.5 23.4zm26.6-18.9h-.1v33.5h-6.5v-46.2h9.1l7.3 27.7h.1v-27.7h6.5v46.2h-7.5l-8.9-33.5zm32.5 7.8h10.2v14.7c0 7.4-3.7 11.6-10.8 11.6s-10.8-4.2-10.8-11.6v-24c0-7.4 3.7-11.6 10.8-11.6s10.8 4.2 10.8 11.6v4.5h-6.9v-5c0-3.3-1.5-4.6-3.8-4.6s-3.8 1.3-3.8 4.6v25c0 3.3 1.5 4.5 3.8 4.5s3.8-1.2 3.8-4.5v-8.5h-3.3v-6.7zm22.1-1h10v6.6h-10V811h12.6v6.6h-19.8v-46.2h19.8v6.6h-12.6v12.9z" fill="#fff"/></g><g><path class="st2" d="M562.1 843.9h2.4v16.4h7.8v2h-10.2v-18.4zm24.3 11.7c0 4.9-3.4 7-6.6 7-3.6 0-6.3-2.6-6.3-6.8 0-4.4 2.9-7 6.5-7 3.8 0 6.4 2.7 6.4 6.8zm-10.5.1c0 2.9 1.7 5.1 4 5.1s4-2.2 4-5.1c0-2.2-1.1-5.1-3.9-5.1s-4.1 2.6-4.1 5.1zm13.5-2.5c0-1.6 0-2.9-.1-4.1h2.1l.1 2.6h.1c.6-1.8 2-2.9 3.6-2.9.3 0 .5 0 .7.1v2.3c-.2-.1-.5-.1-.8-.1-1.7 0-2.9 1.3-3.2 3.1-.1.3-.1.7-.1 1.1v7h-2.4v-9.1zm10 2.9c.1 3.2 2.1 4.6 4.5 4.6 1.7 0 2.7-.3 3.6-.7l.4 1.7c-.8.4-2.3.8-4.4.8-4.1 0-6.5-2.7-6.5-6.6 0-4 2.3-7.1 6.2-7.1 4.3 0 5.4 3.8 5.4 6.2 0 .5-.1.9-.1 1.1h-9.1zm7-1.7c0-1.5-.6-3.9-3.3-3.9-2.4 0-3.5 2.2-3.7 3.9h7zm5.3-1.8c0-1.4 0-2.5-.1-3.6h2.1l.1 2.1h.1c.7-1.3 2-2.4 4.1-2.4 1.8 0 3.2 1.1 3.7 2.6h.1c.4-.7.9-1.3 1.5-1.7.8-.6 1.7-.9 2.9-.9 1.7 0 4.3 1.1 4.3 5.7v7.8h-2.3v-7.5c0-2.5-.9-4.1-2.9-4.1-1.4 0-2.4 1-2.8 2.2-.1.3-.2.8-.2 1.2v8.1H620v-7.9c0-2.1-.9-3.6-2.7-3.6-1.5 0-2.6 1.2-3 2.4-.1.4-.2.8-.2 1.2v8h-2.3v-9.6zm31.2-7.2c0 .8-.6 1.5-1.5 1.5-.8 0-1.4-.7-1.4-1.5s.6-1.5 1.5-1.5c.8 0 1.4.6 1.4 1.5zm-2.7 16.9v-13.2h2.4v13.2h-2.4zm6.4-8.9c0-1.7-.1-3.1-.1-4.3h2.2l.1 2.3h.1c1-1.6 2.5-2.6 4.7-2.6 3.2 0 5.6 2.7 5.6 6.7 0 4.7-2.9 7.1-6 7.1-1.7 0-3.3-.8-4.1-2.1h-.1v7.2h-2.4v-14.3zm2.3 3.5c0 .4.1.7.1 1 .4 1.7 1.9 2.8 3.6 2.8 2.5 0 4-2.1 4-5.1 0-2.6-1.4-4.9-3.9-4.9-1.6 0-3.2 1.2-3.6 3-.1.3-.2.7-.2 1v2.2zm12.8 2.9c.7.5 2 1 3.2 1 1.7 0 2.6-.9 2.6-2s-.7-1.8-2.5-2.4c-2.4-.8-3.5-2.2-3.5-3.7 0-2.1 1.7-3.9 4.5-3.9 1.3 0 2.5.4 3.2.8l-.6 1.7c-.5-.3-1.5-.8-2.7-.8-1.4 0-2.2.8-2.2 1.8 0 1.1.8 1.6 2.5 2.2 2.3.9 3.5 2 3.5 4 0 2.3-1.8 3.9-4.9 3.9-1.4 0-2.8-.4-3.7-.9l.6-1.7zm22.2-1.1c0 1.4 0 2.6.1 3.6h-2.1l-.1-2.2h-.1c-.6 1.1-2 2.5-4.4 2.5-2.1 0-4.5-1.1-4.5-5.8v-7.7h2.4v7.3c0 2.5.8 4.2 2.9 4.2 1.6 0 2.7-1.1 3.2-2.2.1-.4.2-.8.2-1.2v-8.1h2.4v9.6zm4-6.1c0-1.4 0-2.5-.1-3.6h2.1l.1 2.1h.1c.7-1.3 2-2.4 4.1-2.4 1.8 0 3.2 1.1 3.7 2.6h.1c.4-.7.9-1.3 1.5-1.7.8-.6 1.7-.9 2.9-.9 1.7 0 4.3 1.1 4.3 5.7v7.8h-2.3v-7.5c0-2.5-.9-4.1-2.9-4.1-1.4 0-2.4 1-2.8 2.2-.1.3-.2.8-.2 1.2v8.1h-2.3v-7.9c0-2.1-.9-3.6-2.7-3.6-1.5 0-2.6 1.2-3 2.4-.1.4-.2.8-.2 1.2v8H688v-9.6zm39.8-9.7v15.9c0 1.2 0 2.5.1 3.4h-2.2l-.1-2.3h-.1c-.7 1.5-2.3 2.6-4.5 2.6-3.2 0-5.6-2.7-5.6-6.7 0-4.4 2.7-7.1 5.9-7.1 2 0 3.4 1 4 2h.1v-7.9h2.4zm-2.4 11.5c0-.3 0-.7-.1-1-.4-1.5-1.7-2.8-3.5-2.8-2.5 0-3.9 2.2-3.9 5.1 0 2.7 1.3 4.9 3.9 4.9 1.6 0 3.1-1.1 3.5-2.9.1-.3.1-.7.1-1v-2.3zm18.3 1.2c0 4.9-3.4 7-6.6 7-3.6 0-6.3-2.6-6.3-6.8 0-4.4 2.9-7 6.5-7 3.9 0 6.4 2.7 6.4 6.8zm-10.4.1c0 2.9 1.7 5.1 4 5.1s4-2.2 4-5.1c0-2.2-1.1-5.1-3.9-5.1-2.9 0-4.1 2.6-4.1 5.1zm13.5-12.8h2.4v19.3h-2.4v-19.3zm18.3 12.7c0 4.9-3.4 7-6.6 7-3.6 0-6.3-2.6-6.3-6.8 0-4.4 2.9-7 6.5-7 3.9 0 6.4 2.7 6.4 6.8zm-10.4.1c0 2.9 1.7 5.1 4 5.1s4-2.2 4-5.1c0-2.2-1.1-5.1-3.9-5.1-2.9 0-4.1 2.6-4.1 5.1zm13.4-2.5c0-1.6 0-2.9-.1-4.1h2.1l.1 2.6h.1c.6-1.8 2-2.9 3.6-2.9.3 0 .5 0 .7.1v2.3c-.2-.1-.5-.1-.8-.1-1.7 0-2.9 1.3-3.2 3.1-.1.3-.1.7-.1 1.1v7H768v-9.1zm14.4 6.6c.7.5 2 1 3.2 1 1.7 0 2.6-.9 2.6-2s-.7-1.8-2.5-2.4c-2.4-.8-3.5-2.2-3.5-3.7 0-2.1 1.7-3.9 4.5-3.9 1.3 0 2.5.4 3.2.8l-.6 1.7c-.5-.3-1.5-.8-2.7-.8-1.4 0-2.2.8-2.2 1.8 0 1.1.8 1.6 2.5 2.2 2.3.9 3.5 2 3.5 4 0 2.3-1.8 3.9-4.9 3.9-1.4 0-2.8-.4-3.7-.9l.6-1.7zm13.8-14.4c0 .8-.6 1.5-1.5 1.5-.8 0-1.4-.7-1.4-1.5s.6-1.5 1.5-1.5c.8 0 1.4.6 1.4 1.5zm-2.7 16.9v-13.2h2.4v13.2h-2.4zm9.3-17v3.8h3.4v1.8h-3.4v7.1c0 1.6.5 2.6 1.8 2.6.6 0 1.1-.1 1.4-.2l.1 1.8c-.5.2-1.2.3-2.1.3-1.1 0-2-.4-2.6-1-.7-.7-.9-1.9-.9-3.4v-7.2h-2v-1.8h2v-3.2l2.3-.6zm19.2 17l-.2-1.7h-.1c-.7 1-2.2 2-4 2-2.7 0-4-1.9-4-3.8 0-3.2 2.8-4.9 7.9-4.9v-.3c0-1.1-.3-3.1-3-3.1-1.2 0-2.5.4-3.4 1l-.5-1.6c1.1-.7 2.7-1.2 4.3-1.2 4 0 5 2.7 5 5.4v4.9c0 1.1.1 2.3.2 3.2H822zm-.4-6.8c-2.6-.1-5.6.4-5.6 3 0 1.6 1 2.3 2.3 2.3 1.7 0 2.8-1.1 3.2-2.2.1-.2.1-.5.1-.8v-2.3zm6.2-2.9c0-1.4 0-2.5-.1-3.6h2.1l.1 2.1h.1c.7-1.3 2-2.4 4.1-2.4 1.8 0 3.2 1.1 3.7 2.6h.1c.4-.7.9-1.3 1.5-1.7.8-.6 1.7-.9 2.9-.9 1.7 0 4.3 1.1 4.3 5.7v7.8h-2.3v-7.5c0-2.5-.9-4.1-2.9-4.1-1.4 0-2.4 1-2.8 2.2-.1.3-.2.8-.2 1.2v8.1H836v-7.9c0-2.1-.9-3.6-2.7-3.6-1.5 0-2.6 1.2-3 2.4-.1.4-.2.8-.2 1.2v8h-2.3v-9.6zm24 3.5c.1 3.2 2.1 4.6 4.5 4.6 1.7 0 2.8-.3 3.6-.7l.4 1.7c-.8.4-2.3.8-4.4.8-4.1 0-6.5-2.7-6.5-6.6 0-4 2.3-7.1 6.2-7.1 4.3 0 5.4 3.8 5.4 6.2 0 .5-.1.9-.1 1.1h-9.1zm7.1-1.7c0-1.5-.6-3.9-3.3-3.9-2.4 0-3.5 2.2-3.7 3.9h7zm8.1-9.1v3.8h3.4v1.8H867v7.1c0 1.6.5 2.6 1.8 2.6.6 0 1.1-.1 1.4-.2l.1 1.8c-.5.2-1.2.3-2.1.3-1.1 0-2-.4-2.6-1-.7-.7-.9-1.9-.9-3.4v-7.2h-2v-1.8h2v-3.2l2.3-.6zm-303.7 43.5c.1 3.2 2.1 4.6 4.5 4.6 1.7 0 2.8-.3 3.6-.7l.4 1.7c-.8.4-2.3.8-4.4.8-4.1 0-6.5-2.7-6.5-6.6s2.3-7.1 6.2-7.1c4.3 0 5.4 3.8 5.4 6.2 0 .5-.1.9-.1 1.1h-9.1zm7.1-1.7c0-1.5-.6-3.9-3.3-3.9-2.4 0-3.5 2.2-3.7 3.9h7zm16.3 4.3c0 1.4 0 2.6.1 3.6h-2.1l-.1-2.2h-.1c-.6 1.1-2 2.5-4.4 2.5-2.1 0-4.5-1.1-4.5-5.8v-7.7h2.4v7.3c0 2.5.8 4.2 2.9 4.2 1.6 0 2.7-1.1 3.2-2.2.1-.4.2-.8.2-1.2v-8.1h2.4v9.6zm21.7-3.2c0 4.9-3.4 7-6.6 7-3.6 0-6.3-2.6-6.3-6.8 0-4.4 2.9-7 6.5-7 3.8.1 6.4 2.8 6.4 6.8zm-10.5.2c0 2.9 1.7 5.1 4 5.1s4-2.2 4-5.1c0-2.2-1.1-5.1-3.9-5.1-2.9 0-4.1 2.6-4.1 5.1zm13.5-2.3c0-1.7-.1-3-.1-4.3h2.2l.1 2.3h.1c1-1.6 2.5-2.6 4.7-2.6 3.2 0 5.6 2.7 5.6 6.7 0 4.7-2.9 7.1-6 7.1-1.7 0-3.3-.8-4.1-2.1h-.1v7.2h-2.4v-14.3zm2.4 3.5c0 .4.1.7.1 1 .4 1.7 1.9 2.8 3.6 2.8 2.5 0 4-2.1 4-5.1 0-2.6-1.4-4.9-3.9-4.9-1.6 0-3.2 1.2-3.6 3-.1.3-.2.7-.2 1v2.2zm16-11.6v3.8h3.4v1.8h-3.4v7.1c0 1.6.5 2.6 1.8 2.6.6 0 1.1-.1 1.4-.2l.1 1.8c-.5.2-1.2.3-2.1.3-1.1 0-2-.4-2.6-1-.7-.7-.9-1.9-.9-3.4v-7.2h-2v-1.8h2v-3.2l2.3-.6zm8.8.1c0 .8-.6 1.5-1.5 1.5-.8 0-1.4-.7-1.4-1.5s.6-1.5 1.5-1.5c.8 0 1.4.6 1.4 1.5zm-2.7 16.8v-13.2h2.4v13.2h-2.4zm18.3-6.7c0 4.9-3.4 7-6.6 7-3.6 0-6.3-2.6-6.3-6.8 0-4.4 2.9-7 6.5-7 3.8.1 6.4 2.8 6.4 6.8zm-10.5.2c0 2.9 1.7 5.1 4 5.1s4-2.2 4-5.1c0-2.2-1.1-5.1-3.9-5.1s-4.1 2.6-4.1 5.1zm13.5-3.1c0-1.4 0-2.5-.1-3.6h2.1l.1 2.2h.1c.7-1.3 2.2-2.5 4.4-2.5 1.8 0 4.7 1.1 4.7 5.6v7.9H666v-7.6c0-2.1-.8-3.9-3.1-3.9-1.6 0-2.8 1.1-3.2 2.5-.1.3-.2.7-.2 1.1v7.9h-2.4v-9.6zm20.6 7.2c.7.5 2 1 3.2 1 1.7 0 2.6-.9 2.6-2s-.7-1.8-2.5-2.4c-2.4-.8-3.5-2.2-3.5-3.7 0-2.1 1.7-3.9 4.5-3.9 1.3 0 2.5.4 3.2.8l-.6 1.7c-.5-.3-1.5-.8-2.7-.8-1.4 0-2.2.8-2.2 1.8 0 1.1.8 1.6 2.5 2.2 2.3.9 3.5 2 3.5 4 0 2.3-1.8 3.9-4.9 3.9-1.4 0-2.8-.4-3.7-.9l.6-1.7zm12.4-3.7c.1 3.2 2.1 4.6 4.5 4.6 1.7 0 2.8-.3 3.6-.7l.4 1.7c-.8.4-2.3.8-4.4.8-4.1 0-6.5-2.7-6.5-6.6s2.3-7.1 6.2-7.1c4.3 0 5.4 3.8 5.4 6.2 0 .5-.1.9-.1 1.1h-9.1zm7.1-1.7c0-1.5-.6-3.9-3.3-3.9-2.4 0-3.5 2.2-3.7 3.9h7zm5.2-1.8c0-1.4 0-2.5-.1-3.6h2.1l.1 2.2h.1c.7-1.3 2.2-2.5 4.4-2.5 1.8 0 4.7 1.1 4.7 5.6v7.9h-2.4v-7.6c0-2.1-.8-3.9-3-3.9-1.6 0-2.8 1.1-3.2 2.5-.1.3-.2.7-.2 1.1v7.9h-2.4v-9.6zm14.8 7.2c.7.5 2 1 3.2 1 1.7 0 2.6-.9 2.6-2s-.7-1.8-2.5-2.4c-2.4-.8-3.5-2.2-3.5-3.7 0-2.1 1.7-3.9 4.5-3.9 1.3 0 2.5.4 3.2.8l-.6 1.7c-.5-.3-1.5-.8-2.7-.8-1.4 0-2.2.8-2.2 1.8 0 1.1.8 1.6 2.5 2.2 2.3.9 3.5 2 3.5 4 0 2.3-1.8 3.9-4.9 3.9-1.4 0-2.8-.4-3.7-.9l.6-1.7zm13.8-14.4c0 .8-.6 1.5-1.5 1.5-.8 0-1.4-.7-1.4-1.5s.6-1.5 1.5-1.5c.8 0 1.4.6 1.4 1.5zm-2.7 16.8v-13.2h2.4v13.2h-2.4zm6.3 0c.1-.9.1-2.2.1-3.4v-15.9h2.4v8.3h.1c.8-1.5 2.4-2.4 4.5-2.4 3.3 0 5.6 2.7 5.6 6.7 0 4.7-3 7.1-5.9 7.1-1.9 0-3.4-.7-4.4-2.5h-.1l-.1 2.2h-2.2zm2.5-5.2c0 .3.1.6.1.9.5 1.7 1.9 2.8 3.6 2.8 2.5 0 4-2 4-5.1 0-2.6-1.4-4.9-3.9-4.9-1.6 0-3.2 1.1-3.6 2.9-.1.3-.1.6-.1 1v2.4zm24.1 1.7c0 1.4 0 2.6.1 3.6h-2.1l-.1-2.2h-.1c-.6 1.1-2 2.5-4.4 2.5-2.1 0-4.5-1.1-4.5-5.8v-7.7h2.4v7.3c0 2.5.8 4.2 2.9 4.2 1.6 0 2.7-1.1 3.2-2.2.1-.4.2-.8.2-1.2v-8.1h2.4v9.6zm3.7 1.1c.7.5 2 1 3.2 1 1.7 0 2.6-.9 2.6-2s-.7-1.8-2.5-2.4c-2.4-.8-3.5-2.2-3.5-3.7 0-2.1 1.7-3.9 4.5-3.9 1.3 0 2.5.4 3.2.8l-.5 1.7c-.5-.3-1.5-.8-2.7-.8-1.4 0-2.2.8-2.2 1.8 0 1.1.8 1.6 2.5 2.2 2.3.9 3.5 2 3.5 4 0 2.3-1.8 3.9-4.9 3.9-1.4 0-2.8-.4-3.7-.9l.5-1.7zm16.9-7.2c0-1.4 0-2.5-.1-3.6h2.1l.1 2.1h.1c.7-1.3 2-2.4 4.1-2.4 1.8 0 3.2 1.1 3.7 2.6h.1c.4-.7.9-1.3 1.5-1.7.8-.6 1.7-.9 2.9-.9 1.7 0 4.3 1.1 4.3 5.7v7.8h-2.3v-7.5c0-2.5-.9-4.1-2.9-4.1-1.4 0-2.4 1-2.8 2.2-.1.3-.2.8-.2 1.2v8.1h-2.3V887c0-2.1-.9-3.6-2.7-3.6-1.5 0-2.6 1.2-3 2.4-.1.4-.2.8-.2 1.2v8H782v-9.7zm24 3.5c.1 3.2 2.1 4.6 4.5 4.6 1.7 0 2.8-.3 3.6-.7l.4 1.7c-.8.4-2.3.8-4.4.8-4.1 0-6.5-2.7-6.5-6.6s2.3-7.1 6.2-7.1c4.3 0 5.4 3.8 5.4 6.2 0 .5-.1.9-.1 1.1h-9.1zm7.1-1.7c0-1.5-.6-3.9-3.3-3.9-2.4 0-3.5 2.2-3.7 3.9h7zm5.2-11.5h2.4v19.3h-2.4v-19.3zm13.8 19.3l-.2-1.7h-.1c-.7 1-2.2 2-4 2-2.7 0-4-1.9-4-3.8 0-3.2 2.8-4.9 7.9-4.9v-.3c0-1.1-.3-3-3-3-1.2 0-2.5.4-3.4 1l-.5-1.6c1.1-.7 2.7-1.2 4.3-1.2 4 0 5 2.7 5 5.4v4.9c0 1.1.1 2.3.2 3.2H832zm-.4-6.7c-2.6-.1-5.6.4-5.6 3 0 1.6 1 2.3 2.3 2.3 1.7 0 2.8-1.1 3.2-2.2.1-.2.1-.5.1-.8v-2.3zm17.6-12.6v15.9c0 1.2 0 2.5.1 3.4h-2.2l-.1-2.3c-.7 1.5-2.3 2.6-4.5 2.6-3.2 0-5.6-2.7-5.6-6.7 0-4.4 2.7-7.1 5.9-7.1 2 0 3.4 1 4 2h.1v-7.9h2.3zm-2.4 11.5c0-.3 0-.7-.1-1-.4-1.5-1.7-2.8-3.5-2.8-2.5 0-3.9 2.2-3.9 5.1 0 2.7 1.3 4.9 3.9 4.9 1.6 0 3.1-1.1 3.5-2.9.1-.3.1-.7.1-1v-2.3zm13.6 7.8l-.2-1.7h-.1c-.7 1-2.2 2-4 2-2.7 0-4-1.9-4-3.8 0-3.2 2.8-4.9 7.9-4.9v-.3c0-1.1-.3-3-3-3-1.2 0-2.5.4-3.4 1l-.5-1.6c1.1-.7 2.7-1.2 4.3-1.2 4 0 5 2.7 5 5.4v4.9c0 1.1.1 2.3.2 3.2h-2.2zm-.3-6.7c-2.6-.1-5.6.4-5.6 3 0 1.6 1 2.3 2.3 2.3 1.7 0 2.8-1.1 3.2-2.2.1-.2.1-.5.1-.8v-2.3zm7.5.6c.1 3.2 2.1 4.6 4.5 4.6 1.7 0 2.8-.3 3.6-.7l.4 1.7c-.8.4-2.3.8-4.4.8-4.1 0-6.5-2.7-6.5-6.6s2.3-7.1 6.2-7.1c4.3 0 5.4 3.8 5.4 6.2 0 .5-.1.9-.1 1.1h-9.1zm7-1.7c0-1.5-.6-3.9-3.3-3.9-2.4 0-3.5 2.2-3.7 3.9h7zm-305.3 40.5l-.2-1.7h-.1c-.7 1-2.2 2-4 2-2.7 0-4-1.9-4-3.8 0-3.2 2.8-4.9 7.9-4.9v-.2c0-1.1-.3-3.1-3-3.1-1.2 0-2.5.4-3.4 1l-.5-1.6c1.1-.7 2.7-1.2 4.3-1.2 4 0 5 2.7 5 5.4v4.9c0 1.1.1 2.3.2 3.2h-2.2zm-.4-6.7c-2.6-.1-5.6.4-5.6 3 0 1.6 1 2.3 2.3 2.3 1.7 0 2.8-1.1 3.2-2.2.1-.2.1-.5.1-.8v-2.3zm6.2-2.1c0-1.7-.1-3.1-.1-4.3h2.2l.1 2.3h.1c1-1.6 2.5-2.6 4.7-2.6 3.2 0 5.6 2.7 5.6 6.7 0 4.7-2.9 7.1-6 7.1-1.7 0-3.3-.8-4.1-2.1h-.1v7.2h-2.4v-14.3zm2.4 3.5c0 .4.1.7.1 1 .4 1.7 1.9 2.8 3.6 2.8 2.5 0 4-2.1 4-5.1 0-2.6-1.4-4.9-3.9-4.9-1.6 0-3.2 1.2-3.6 3-.1.3-.2.7-.2 1v2.2zm14.5-.8c.1 3.2 2.1 4.6 4.5 4.6 1.7 0 2.8-.3 3.6-.7l.4 1.7c-.8.4-2.3.8-4.4.8-4.1 0-6.5-2.7-6.5-6.6 0-4 2.3-7.1 6.2-7.1 4.3 0 5.4 3.8 5.4 6.2 0 .5-.1.9-.1 1.1H592zm7-1.7c0-1.5-.6-3.9-3.3-3.9-2.4 0-3.5 2.2-3.7 3.9h7zm5.3-1.2c0-1.6 0-2.9-.1-4.1h2.1l.1 2.6h.1c.6-1.8 2-2.9 3.6-2.9.3 0 .5 0 .7.1v2.3c-.2-.1-.5-.1-.8-.1-1.7 0-2.9 1.3-3.2 3.1-.1.3-.1.7-.1 1.1v7h-2.4v-9.1zm11.7-7.9c0 .8-.6 1.5-1.5 1.5-.8 0-1.4-.7-1.4-1.5s.6-1.5 1.5-1.5c.8 0 1.4.7 1.4 1.5zm-2.7 16.9v-13.2h2.4v13.2h-2.4zm13.7 0l-.2-1.7h-.1c-.7 1-2.2 2-4 2-2.7 0-4-1.9-4-3.8 0-3.2 2.8-4.9 7.9-4.9v-.2c0-1.1-.3-3.1-3-3.1-1.2 0-2.5.4-3.4 1l-.5-1.6c1.1-.7 2.7-1.2 4.3-1.2 4 0 5 2.7 5 5.4v4.9c0 1.1.1 2.3.2 3.2H627zm-.4-6.7c-2.6-.1-5.6.4-5.6 3 0 1.6 1 2.3 2.3 2.3 1.7 0 2.8-1.1 3.2-2.2.1-.2.1-.5.1-.8v-2.3zm6.2-2.9c0-1.4 0-2.5-.1-3.6h2.1l.1 2.1h.1c.7-1.3 2-2.4 4.1-2.4 1.8 0 3.2 1.1 3.7 2.6h.1c.4-.7.9-1.3 1.5-1.7.8-.6 1.7-.9 2.9-.9 1.7 0 4.3 1.1 4.3 5.7v7.8h-2.3v-7.5c0-2.5-.9-4.1-2.9-4.1-1.4 0-2.4 1-2.8 2.2-.1.3-.2.8-.2 1.2v8.1H641v-7.9c0-2.1-.9-3.6-2.7-3.6-1.5 0-2.6 1.2-3 2.4-.1.4-.2.8-.2 1.2v8h-2.3V918zm39.9-9.7v15.9c0 1.2 0 2.5.1 3.4h-2.2l-.1-2.3h-.1c-.7 1.5-2.3 2.6-4.5 2.6-3.2 0-5.6-2.7-5.6-6.7 0-4.4 2.7-7.1 5.9-7.1 2 0 3.4 1 4 2h.1v-7.9h2.4zm-2.4 11.5c0-.3 0-.7-.1-1-.4-1.5-1.7-2.8-3.5-2.8-2.5 0-3.9 2.2-3.9 5.1 0 2.7 1.3 4.9 3.9 4.9 1.6 0 3.1-1.1 3.5-2.9.1-.3.1-.7.1-1v-2.3zm7.7 1.7c.1 3.2 2.1 4.6 4.5 4.6 1.7 0 2.8-.3 3.6-.7l.4 1.7c-.8.4-2.3.8-4.4.8-4.1 0-6.5-2.7-6.5-6.6 0-4 2.3-7.1 6.2-7.1 4.3 0 5.4 3.8 5.4 6.2 0 .5-.1.9-.1 1.1H678zm7-1.7c0-1.5-.6-3.9-3.3-3.9-2.4 0-3.5 2.2-3.7 3.9h7zm8.2-9.1v3.8h3.4v1.8h-3.4v7.1c0 1.6.5 2.6 1.8 2.6.6 0 1.1-.1 1.4-.2l.1 1.8c-.5.2-1.2.3-2.1.3-1.1 0-2-.4-2.6-1-.7-.7-.9-1.9-.9-3.4v-7.2h-2v-1.8h2v-3.2l2.3-.6zm7.3 10.8c.1 3.2 2.1 4.6 4.5 4.6 1.7 0 2.7-.3 3.6-.7l.4 1.7c-.8.4-2.3.8-4.4.8-4.1 0-6.5-2.7-6.5-6.6 0-4 2.3-7.1 6.2-7.1 4.3 0 5.4 3.8 5.4 6.2 0 .5-.1.9-.1 1.1h-9.1zm7-1.7c0-1.5-.6-3.9-3.3-3.9-2.4 0-3.5 2.2-3.7 3.9h7zm5.3-1.2c0-1.6 0-2.9-.1-4.1h2.1l.1 2.6h.1c.6-1.8 2-2.9 3.6-2.9.3 0 .5 0 .7.1v2.3c-.2-.1-.5-.1-.8-.1-1.7 0-2.9 1.3-3.2 3.1-.1.3-.1.7-.1 1.1v7h-2.4v-9.1zm9 0c0-1.6 0-2.9-.1-4.1h2.1l.1 2.6h.1c.6-1.8 2-2.9 3.6-2.9.3 0 .5 0 .7.1v2.3c-.2-.1-.5-.1-.8-.1-1.7 0-2.9 1.3-3.2 3.1-.1.3-.1.7-.1 1.1v7h-2.4v-9.1zm19.9 5.4c0 1.4 0 2.6.1 3.6h-2.1l-.1-2.2h-.1c-.6 1.1-2 2.5-4.4 2.5-2.1 0-4.5-1.1-4.5-5.8v-7.7h2.4v7.3c0 2.5.8 4.2 2.9 4.2 1.6 0 2.7-1.1 3.2-2.2.1-.4.2-.8.2-1.2v-8.1h2.4v9.6zm6.7-13.3c0 .8-.6 1.5-1.5 1.5-.8 0-1.4-.7-1.4-1.5s.6-1.5 1.5-1.5c.8 0 1.4.7 1.4 1.5zm-2.7 16.9v-13.2h2.4v13.2h-2.4zm6.1-2.4c.7.5 2 1 3.2 1 1.7 0 2.6-.9 2.6-2s-.7-1.8-2.5-2.4c-2.4-.8-3.5-2.2-3.5-3.7 0-2.1 1.7-3.9 4.5-3.9 1.3 0 2.5.4 3.2.8l-.6 1.7c-.5-.3-1.5-.8-2.7-.8-1.4 0-2.2.8-2.2 1.8 0 1.1.8 1.6 2.5 2.2 2.3.9 3.5 2 3.5 4 0 2.3-1.8 3.9-4.9 3.9-1.4 0-2.8-.4-3.7-.9l.6-1.7zm10.7 0c.7.5 2 1 3.2 1 1.7 0 2.6-.9 2.6-2s-.7-1.8-2.5-2.4c-2.4-.8-3.5-2.2-3.5-3.7 0-2.1 1.7-3.9 4.5-3.9 1.3 0 2.5.4 3.2.8l-.6 1.7c-.5-.3-1.5-.8-2.7-.8-1.4 0-2.2.8-2.2 1.8 0 1.1.8 1.6 2.5 2.2 2.3.9 3.5 2 3.5 4 0 2.3-1.8 3.9-4.9 3.9-1.4 0-2.8-.4-3.7-.9l.6-1.7zm12.5-3.7c.1 3.2 2.1 4.6 4.5 4.6 1.7 0 2.8-.3 3.6-.7l.4 1.7c-.8.4-2.3.8-4.4.8-4.1 0-6.5-2.7-6.5-6.6 0-4 2.3-7.1 6.2-7.1 4.3 0 5.4 3.8 5.4 6.2 0 .5-.1.9-.1 1.1H775zm7-1.7c0-1.5-.6-3.9-3.3-3.9-2.4 0-3.5 2.2-3.7 3.9h7zm8.2-9.1v3.8h3.4v1.8h-3.4v7.1c0 1.6.5 2.6 1.8 2.6.6 0 1.1-.1 1.4-.2l.1 1.8c-.5.2-1.2.3-2.1.3-1.1 0-2-.4-2.6-1-.7-.7-.9-1.9-.9-3.4v-7.2h-2v-1.8h2v-3.2l2.3-.6zm11.9-2.4h2.4v8.2h.1c.4-.7 1-1.3 1.7-1.7.7-.4 1.6-.7 2.5-.7 1.8 0 4.6 1.1 4.6 5.6v7.8H811v-7.6c0-2.1-.8-3.9-3.1-3.9-1.6 0-2.8 1.1-3.2 2.4-.1.3-.2.7-.2 1.1v8h-2.4v-19.2zm22.4 19.3l-.2-1.7h-.1c-.7 1-2.2 2-4 2-2.7 0-4-1.9-4-3.8 0-3.2 2.8-4.9 7.9-4.9v-.2c0-1.1-.3-3.1-3-3.1-1.2 0-2.5.4-3.4 1l-.5-1.6c1.1-.7 2.7-1.2 4.3-1.2 4 0 5 2.7 5 5.4v4.9c0 1.1.1 2.3.2 3.2h-2.2zm-.4-6.7c-2.6-.1-5.6.4-5.6 3 0 1.6 1 2.3 2.3 2.3 1.7 0 2.8-1.1 3.2-2.2.1-.2.1-.5.1-.8v-2.3zm5.9 4.3c.7.5 2 1 3.2 1 1.7 0 2.6-.9 2.6-2s-.7-1.8-2.5-2.4c-2.4-.8-3.5-2.2-3.5-3.7 0-2.1 1.7-3.9 4.5-3.9 1.3 0 2.5.4 3.2.8l-.6 1.7c-.5-.3-1.5-.8-2.7-.8-1.4 0-2.2.8-2.2 1.8 0 1.1.8 1.6 2.5 2.2 2.3.9 3.5 2 3.5 4 0 2.3-1.8 3.9-4.9 3.9-1.4 0-2.8-.4-3.7-.9l.6-1.7zm24.2 2.4l-.2-1.6h-.1c-.7 1-2.2 2-4 2-2.7 0-4-1.9-4-3.8 0-3.2 2.8-4.9 7.9-4.9v-.3c0-1.1-.3-3.1-3-3.1-1.2 0-2.5.4-3.4 1l-.5-1.6c1.1-.7 2.7-1.2 4.3-1.2 4 0 5 2.7 5 5.4v4.9c0 1.1.1 2.3.2 3.2h-2.2zm-.4-6.7c-2.6-.1-5.6.4-5.6 3 0 1.6 1 2.3 2.3 2.3 1.7 0 2.8-1.1 3.2-2.2.1-.2.1-.5.1-.8v-2.3zm17.6-12.6v15.9c0 1.2 0 2.5.1 3.4h-2.2l-.1-2.3h-.1c-.7 1.5-2.3 2.6-4.5 2.6-3.2 0-5.6-2.7-5.6-6.7 0-4.4 2.7-7.1 5.9-7.1 2 0 3.4 1 4 2h.1v-7.9h2.4zm-2.4 11.5c0-.3 0-.7-.1-1-.4-1.5-1.7-2.8-3.5-2.8-2.5 0-3.9 2.2-3.9 5.1 0 2.7 1.3 4.9 3.9 4.9 1.6 0 3.1-1.1 3.5-2.9.1-.3.1-.7.1-1v-2.3z" fill="#fff"/></g><g><path class="st2" d="M1011.4 117.9h38.2v26.9h-38.2v77.8h-29.6V34.1h78.4V61h-48.7v56.9zm63-83.8h29.6v161.6h48.7v26.9h-78.4V34.1zm187.1 188.5h-29.9l-5.1-34.2h-36.4l-5.1 34.2h-27.2L1188 34.1h43.4l30.1 188.5zm-67.6-59.7h28.5l-14-95.3h-.5l-14 95.3zm62.5-128.8h91.6V61h-31v161.6h-29.6V61.1h-31v-27zM978.9 239.5h29.2c18.5 0 27.6 10.3 27.6 29.1v59.5c0 18.8-9.1 29.1-27.6 29.1h-29.2V239.5zm18.5 16.8v84h10.4c5.9 0 9.4-3 9.4-11.4v-61.2c0-8.4-3.5-11.4-9.4-11.4h-10.4zm68.6 32.8h25.4v16.8H1066v34.4h31.9v16.8h-50.4V239.5h50.4v16.8H1066v32.8zm68.2-50.9c18 0 27.2 10.8 27.2 29.6v3.7h-17.5v-4.9c0-8.4-3.4-11.6-9.2-11.6s-9.2 3.2-9.2 11.6c0 8.6 3.7 15 15.8 25.5 15.5 13.6 20.3 23.4 20.3 36.8 0 18.8-9.4 29.6-27.6 29.6-18.1 0-27.6-10.8-27.6-29.6v-7.2h17.5v8.4c0 8.4 3.7 11.4 9.6 11.4 5.9 0 9.6-3 9.6-11.4 0-8.6-3.7-15-15.8-25.5-15.5-13.6-20.3-23.4-20.3-36.8 0-18.9 9.2-29.6 27.2-29.6zm38 1.3h18.5v117.6h-18.5V239.5zm59.6 52.1h25.9v37.3c0 18.8-9.4 29.6-27.6 29.6-18.1 0-27.6-10.8-27.6-29.6v-61.2c0-18.8 9.4-29.6 27.6-29.6 18.1 0 27.6 10.8 27.6 29.6v11.4h-17.5v-12.6c0-8.4-3.7-11.6-9.6-11.6-5.9 0-9.6 3.2-9.6 11.6V330c0 8.4 3.7 11.4 9.6 11.4 5.9 0 9.6-3 9.6-11.4v-21.7h-8.4v-16.7zm54.6-19.6h-.3v85.2h-16.6V239.5h23.2l18.7 70.4h.3v-70.4h16.5v117.6h-19l-22.8-85.1zM979.9 372.5h9.5V433h-9.5v-60.5zm16.4 0h9.5v51.8h15.6v8.6h-25v-60.4zm29.1 0h9.5v51.8h15.6v8.6h-25v-60.4zm38.2 0v46.7c0 4.3 1.9 5.9 4.9 5.9 3 0 4.9-1.6 4.9-5.9v-46.7h8.9v46.1c0 9.7-4.8 15.2-14.1 15.2s-14.1-5.5-14.1-15.2v-46.1h9.5zm37.9-.6c9.2 0 13.9 5.5 13.9 15.2v1.9h-8.9v-2.5c0-4.3-1.7-6-4.7-6s-4.7 1.6-4.7 6 1.9 7.7 8.1 13.1c7.9 7 10.4 12 10.4 18.9 0 9.7-4.8 15.2-14.1 15.2s-14.1-5.5-14.1-15.2v-3.7h8.9v4.3c0 4.3 1.9 5.9 4.9 5.9 3 0 4.9-1.6 4.9-5.9 0-4.4-1.9-7.7-8.1-13.1-7.9-7-10.4-12-10.4-18.9 0-9.7 4.7-15.2 13.9-15.2zm16.7.6h29.2v8.6h-9.9V433h-9.5v-51.8h-9.9v-8.7zm53.1 60.5c-.5-1.6-.9-2.5-.9-7.4v-9.5c0-5.6-1.9-7.7-6.2-7.7h-3.3V433h-9.5v-60.5h14.3c9.8 0 14 4.6 14 13.9v4.8c0 6.2-2 10.2-6.2 12.2v.2c4.7 2 6.3 6.5 6.3 12.8v9.3c0 2.9.1 5.1 1 7.3h-9.5zm-10.3-51.8v18.6h3.7c3.5 0 5.7-1.6 5.7-6.4v-6c0-4.3-1.5-6.2-4.8-6.2h-4.6zm55.7 51.8h-9.5l-1.6-11H1194l-1.6 11h-8.7l9.6-60.5h13.8l9.6 60.5zm-21.6-19.2h9.1l-4.5-30.6h-.2l-4.4 30.6zm20-41.3h29.2v8.6h-9.9V433h-9.5v-51.8h-9.9v-8.7zm33.3 0h9.5V433h-9.5v-60.5zm15.6 14.6c0-9.7 5.1-15.2 14.4-15.2s14.4 5.5 14.4 15.2v31.5c0 9.7-5.1 15.2-14.4 15.2s-14.4-5.5-14.4-15.2v-31.5zm9.5 32c0 4.3 1.9 6 4.9 6 3 0 4.9-1.6 4.9-6v-32.7c0-4.3-1.9-6-4.9-6-3 0-4.9 1.6-4.9 6v32.7zm33.9-29.9h-.2V433h-8.5v-60.5h11.9l9.5 36.2h.2v-36.2h8.4V433h-9.7l-11.6-43.8z" fill="#fff"/></g></svg>