<svg xmlns="http://www.w3.org/2000/svg" viewBox="0 0 336 235.2" width="336" height="235.2"><path d="M0 0h336v235.2H0V0z" class="st0" fill="#a2c853"/><path d="M254.9 182.7h31.6v29.1h-31.6v-29.1zM25.7 100h31.6v29.1H25.7V100z" class="st1" fill="#fff"/><path class="st2" d="M41.5 103.3c-4.4 0-8 3.9-8 8 0 2.2 1.1 3.2 3.2 7 1.9 3.3 3.4 6.3 3.4 6.3.8 1.5 2 1.5 2.8 0 0 0 1.6-3 3.4-6.3 2.1-3.8 3.2-4.8 3.2-7 0-4.1-3.6-8-8-8zm0 12.9c-2.7 0-4.8-2.2-4.8-4.8 0-2.7 2.2-4.8 4.8-4.8 2.7 0 4.8 2.2 4.8 4.8 0 2.6-2.2 4.8-4.8 4.8z" fill="#ea5563"/><path class="st3" d="M267.9 199.1v.3c0 .3.1.4.4.4h1.2c.3 0 .4-.1.4-.4v-1.6l-.2.2c-.4.3-.7.5-1.1.5h-.8c-.4 0-.7-.1-1-.4-.3-.3-.4-.6-.4-1v-1.6c0-.4.1-.7.4-1 .3-.3.6-.4 1-.4h2.1c.4 0 .7.1 1 .4.3.3.4.6.4 1v4.2c0 .4-.1.7-.4 1-.3.3-.6.4-1 .4h-2c-.4 0-.7-.1-1-.4-.3-.3-.4-.6-.4-1v-.6h1.4zm2-2.2v-1c0-.3-.1-.4-.4-.4h-1.3c-.3 0-.4.1-.4.4v1c0 .3.1.4.4.4h.6c.3 0 .7-.1.9-.3l.2-.1zm3.5 4.1v-5.4l-1.2.4v-1.1l1.5-.7h1.1v6.8h-1.4z" fill="#221e20"/><path class="st4" d="M270.6 204.3v3.7c3 0 5.6-1.2 7.6-3.1l-2.6-2.6c-1.3 1.2-3 2-5 2z" fill="#1b1d3b"/><path class="st2" d="M281.4 197.2h-3.7c0 1.9-.8 3.7-2.1 5l2.6 2.6c2-1.9 3.2-4.6 3.2-7.6z" fill="#ea5563"/><path class="st4" d="M277.7 197.2h3.7c0-3-1.2-5.6-3.1-7.6l-2.6 2.6c1.2 1.3 2 3.1 2 5z" fill="#1b1d3b"/><path class="st5" d="M275.6 192.3l2.6-2.6c-1.9-1.9-4.6-3.1-7.6-3.1v3.7c2-.1 3.7.7 5 2z" fill="#5d554b"/><path class="st2" d="M270.6 190.2v-3.7c-3 0-5.6 1.2-7.6 3.1l2.6 2.6c1.4-1.2 3.1-2 5-2z" fill="#ea5563"/><path class="st5" d="M263.6 197.2c0-1.9.8-3.7 2.1-5l-2.6-2.6c-1.9 1.9-3.1 4.6-3.1 7.6h3.6z" fill="#5d554b"/><path d="M167.2 98.6h1.6v1.6h-1.6v-1.6zm1.6-3.5h-1.6v-3.4h1.6v3.4zm0-6.9h-1.6v-3.4h1.6v3.4zm0-6.8h-1.6V78h1.6v3.4zm0-6.9h-1.6v-3.4h1.6v3.4zm0-6.9h-1.6v-3.4h1.6v3.4zm0-6.8h-1.6v-3.4h1.6v3.4zm0-6.9h-1.6v-3.4h1.6v3.4zm-1.6-8.5h1.6V47h-1.6v-1.6zm-33.8 53h1.6v1.6h-1.6v-1.6zm1.7-3h-1.6v-3h1.6v3zm0-6h-1.6v-3h1.6v3zm0-6h-1.6v-3h1.6v3zm0-6h-1.6v-3h1.6v3zm0-6h-1.7v-.8h-.8V69h2.5zm-5.4-.8h-2.9V69h2.9v1.6zm-5.9 0h-2.9V69h2.9v1.6zm-5.8 0h-3V69h2.9v1.6zm-5.9 0h-2.4v-2.4h1.6v.8h.8zm-.8-5.5h-1.6V62h1.6v3.1zm0-6.3h-1.6v-3.1h1.6v3.1zm0-6.2h-1.6v-3.1h1.6v3.1zm0-6.3h-1.6v-3.1h1.6v3.1zm0-6.2h-1.6V37h1.6v3.1zm0-6.2h-1.6v-.8h-.8v-1.7h2.4zm-5.5-.8h-3v-1.6h3v1.6zm-6.1 0h-3v-1.6h3v1.6zM92 31.4h1.6V33H92v-1.6zm106.5 67h1.6v1.6h-1.6v-1.6zm1.7-3h-1.6v-3h1.6v3zm0-6h-1.6v-3h1.6v3zm0-6h-1.6v-3h1.6v3zm0-6h-1.6v-3h1.6v3zm0-6h-1.7V69h2.5v1.6h-.8zm18.4-.8h-2.9V69h2.9v1.6zm-5.9 0h-2.9V69h2.9v1.6zm-5.9 0h-2.9V69h2.9v1.6zm17.1 0h-2.4V69h.8v-.8h1.6zm0-5.5h-1.6V62h1.6v3.1zm0-6.3h-1.6v-3.1h1.6v3.1zm0-6.2h-1.6v-3.1h1.6v3.1zm0-6.3h-1.6v-3.1h1.6v3.1zm0-6.2h-1.6V37h1.6v3.1zm0-6.2h-1.6v-2.5h2.4v1.7h-.8zm13-.8h-3v-1.6h3v1.6zm-6.1 0h-3v-1.6h3v1.6zm9.2-1.7h1.6V33H240v-1.6zm-111.3 78.9h1.6v1.6h-1.6v-1.6zm-3.1 1.6h-3v-1.6h3v1.6zm-6 0h-3v-1.6h3v1.6zm-6.1 0h-3v-1.6h3v1.6zm-6 0h-3v-1.6h3v1.6zm-6.1 0h-3v-1.6h3v1.6zm-6 0h-3v-1.6h3v1.6zm-6.9.8h-1.6v-2.4h2.4v1.6h-.8zm-1.6 2h1.6v2h-1.6v-2zm1.6 6.4h-2.4v-1.6h.8v-.8h1.6zm-5.7 0h-3.3v-1.6h3.3v1.6zm-6.5 0H73v-1.6h3.3v1.6zm-6.5 0h-3.3v-1.6h3.3v1.6zm-6.5 0H60v-1.6h3.3v1.6zm-8.2-1.6h1.6v1.6h-1.6v-1.6zm142.8-9.2h1.6v1.6h-1.6v-1.6zm37.9 1.6h-3v-1.6h3v1.6zm-6 0h-3v-1.6h3v1.6zm-6.1 0h-3v-1.6h3v1.6zm-6.1 0h-3v-1.6h3v1.6zm-6 0h-3v-1.6h3v1.6zm-6.1 0h-3v-1.6h3v1.6zm35.8.8h-1.7v-.8h-.8v-1.6h2.5zm-1.7 2h1.6v2h-1.6v-2zm2.5 6.4h-2.5v-2.4h1.7v.8h.8zm26 0h-3.3v-1.6h3.3v1.6zm-6.5 0h-3.3v-1.6h3.3v1.6zm-6.5 0h-3.3v-1.6h3.3v1.6zm-6.5 0h-3.3v-1.6h3.3v1.6zm22.8-1.6h1.6v1.6h-1.6v-1.6zM70.1 197.7h1.6v1.6h-1.6v-1.6zm24.6 1.6h-2.9v-1.6h2.9v1.6zm-5.7 0h-2.9v-1.6H89v1.6zm-5.8 0h-2.9v-1.6h2.9v1.6zm-5.7 0h-2.9v-1.6h2.9v1.6zm22.5 0h-2.4v-1.6h.8v-.8h1.6zm0-5.5h-1.6v-3h1.6v3zm0-6.1h-1.6v-3h1.6v3zm0-6.1h-1.6v-3h1.6v3zm0-6.1h-1.6v-3h1.6v3zm0-6.1h-1.6V167h2.4v1.6h-.8zm29.1-.8h-3.5V167h3.5v1.6zm-7.1 0h-3.5V167h3.5v1.6zm-7.1 0h-3.5V167h3.5v1.6zm-7 0h-3.5V167h3.5v1.6zm27.2 0h-2.5V167h.8v-.8h1.7zm0-5.3h-1.6v-2.9h1.6v2.9zm0-5.9h-1.6v-2.9h1.6v2.9zm0-5.9h-1.6v-2.9h1.6v2.9zm0-5.9h-1.6v-2.9h1.6v2.9zm-1.7-7.5h1.6v1.6h-1.6v-1.6zm130.2 59.6h1.6v1.6h-1.6v-1.6zm-2.9 1.6h-2.9v-1.6h2.9v1.6zm-5.7 0h-2.9v-1.6h2.9v1.6zm-5.8 0h-2.9v-1.6h2.9v1.6zm-5.7 0h-2.9v-1.6h2.9v1.6zm-5.7 0h-2.5v-2.4h1.7v.8h.8zm-.8-5.5h-1.6v-3h1.6v3zm0-6.1h-1.6v-3h1.6v3zm0-6.1h-1.6v-3h1.6v3zm0-6.1h-1.6v-3h1.6v3zm0-6.1h-1.7v-.8h-.8V167h2.5zm-6-.8h-3.5V167h3.5v1.6zm-7.1 0h-3.5V167h3.5v1.6zm-7 0h-3.5V167h3.5v1.6zm-7.1 0h-3.5V167h3.5v1.6zm-7.1 0h-2.4v-2.4h1.6v.8h.8zm-.8-5.3h-1.6v-2.9h1.6v2.9zm0-5.9h-1.6v-2.9h1.6v2.9zm0-5.9h-1.6v-2.9h1.6v2.9zm0-5.9h-1.6v-2.9h1.6v2.9zm-1.6-7.5h1.6v1.6h-1.6v-1.6zm-33.1 15.4h1.6v1.6h-1.6v-1.6zm1.6 42.5h-1.6v-3.4h1.6v3.4zm0-6.8h-1.6v-3.4h1.6v3.4zm0-6.8h-1.6V179h1.6v3.4zm0-6.8h-1.6v-3.4h1.6v3.4zm0-6.9h-1.6v-3.4h1.6v3.4zm0-6.8h-1.6v-3.4h1.6v3.4zm-1.6 37.5h1.6v1.6h-1.6v-1.6z" class="st1" fill="#fff"/><path class="st6" d="M114.9 145.9V84c0-1.3 1.1-2.4 2.4-2.4h101.4c1.3 0 2.4 1.1 2.4 2.4v61.9H114.9z" fill-rule="evenodd" clip-rule="evenodd" fill="#1b1d3b"/><path class="st7" d="M218.7 155.5H117.3c-1.3 0-2.4-1.1-2.4-2.4v-7.2H221v7.2c.1 1.3-1 2.4-2.3 2.4z" fill-rule="evenodd" clip-rule="evenodd" fill="#fff"/><path class="st7" d="M151.1 168v-1.3l4.2-.5 2.9-11h21.4l2.9 11 4.2.5v1.3h-35.6z" fill-rule="evenodd" clip-rule="evenodd" fill="#fff"/><path class="st8" d="M216.9 86.3v54.9h-97.8V86.3h97.8z" fill-rule="evenodd" clip-rule="evenodd" fill="#ea5563"/><path d="M238.2 19.4h68.5V69h-68.5V19.4z" class="st1" fill="#fff"/><path d="M247.3 62.7l.3-.4c.1-.1.2-.2.2-.3.1-.1.1-.1.1-.2s.1-.1.1-.1v-.1c0-.1 0-.1-.1-.2 0 0-.1-.1-.2-.1h-.4l-.1-.3c.1 0 .1 0 .2-.1h.6c.1 0 .1 0 .2.1.1 0 .1.1.1.2v.4c0 .1 0 .1-.1.2 0 .1-.1.1-.1.2-.1.1-.1.2-.2.2l-.1.1h.6v.3l-1.1.1zm1.8 0c-.1 0-.2-.1-.2-.2-.1-.1-.1-.2-.1-.3v-.8c0-.1.1-.2.1-.3l.2-.2c.1 0 .2-.1.3-.1.1 0 .2 0 .3.1.1 0 .2.1.2.2.1.1.1.2.1.3v.8c0 .1-.1.2-.1.3l-.2.2c-.1 0-.2.1-.3.1-.1 0-.2 0-.3-.1zm.4-.2l.1-.1s0-.1.1-.2v-.4c0-.1 0-.1-.1-.2 0-.1-.1-.1-.1-.1h-.2l-.1.1s0 .1-.1.2v.4c0 .1 0 .1.1.2l.1.1h.2zm1-1.1h-.3v-.3h.6v1.7h-.3v-1.4zm1.1 1.3c-.1 0-.2-.1-.2-.2-.1-.1-.1-.2-.1-.3v-.8c0-.1.1-.2.1-.3l.2-.2c.1 0 .2-.1.3-.1.1 0 .2 0 .3.1.1 0 .2.1.2.2.1.1.1.2.1.3v.8c0 .1-.1.2-.1.3l-.2.2c-.1 0-.2.1-.3.1-.1 0-.2 0-.3-.1zm.4-.2l.1-.1s.1-.1.1-.2v-.4c0-.1 0-.1-.1-.2 0-.1-.1-.1-.1-.1h-.2l-.1.1s0 .1-.1.2v.4c0 .1 0 .1.1.2l.1.1h.2zm3.2.2l.3-.4c.1-.1.2-.2.2-.3.1-.1.1-.1.1-.2s.1-.1.1-.1v-.1c0-.1 0-.1-.1-.2 0 0-.1-.1-.2-.1h-.4l-.1-.3c.1 0 .1 0 .2-.1h.6c.1 0 .1 0 .2.1.1 0 .1.1.1.2v.4c0 .1 0 .1-.1.2 0 .1-.1.1-.1.2-.1.1-.1.2-.2.2l-.1.1h.6v.3l-1.1.1zm1.7 0c-.1 0-.2-.1-.2-.2-.1-.1-.1-.2-.1-.3v-.8c0-.1.1-.2.1-.3l.2-.2c.1 0 .2-.1.3-.1.1 0 .2 0 .3.1.1 0 .2.1.2.2.1.1.1.2.1.3 0 .1.1.2.1.4 0 .1 0 .2-.1.4 0 .1-.1.2-.1.3l-.2.2c-.1 0-.2.1-.3.1-.1 0-.2 0-.3-.1zm.4-.2l.1-.1s.1-.1.1-.2v-.4c0-.1 0-.1-.1-.2 0-.1-.1-.1-.1-.1h-.2l-.1.1s-.1.1-.1.2v.4c0 .1 0 .1.1.2l.1.1h.2zm1-1.1h-.3v-.3h.6v1.7h-.3v-1.4zm1 0h-.3v-.3h.6v1.7h-.3v-1.4zm3.2 1.3l.3-.4c.1-.1.2-.2.2-.3.1-.1.1-.1.1-.2s.1-.1.1-.1v-.1c0-.1 0-.1-.1-.2 0 0-.1-.1-.2-.1h-.4l-.1-.3c.1 0 .1 0 .2-.1h.6c.1 0 .1 0 .2.1.1 0 .1.1.1.2v.4c0 .1 0 .1-.1.2 0 .1-.1.1-.1.2-.1.1-.1.2-.2.2l-.1.1h.6v.3l-1.1.1zm1.8 0c-.1 0-.2-.1-.2-.2-.1-.1-.1-.2-.1-.3v-.8c0-.1.1-.2.1-.3l.2-.2c.1 0 .2-.1.3-.1.1 0 .2 0 .3.1.1 0 .2.1.2.2.1.1.1.2.1.3 0 .1.1.2.1.4 0 .1 0 .2-.1.4 0 .1-.1.2-.1.3l-.2.2c-.1 0-.2.1-.3.1-.2 0-.3 0-.3-.1zm.4-.2l.1-.1s.1-.1.1-.2v-.4c0-.1 0-.1-.1-.2 0-.1-.1-.1-.1-.1h-.2l-.1.1s-.1.1-.1.2v.4c0 .1 0 .1.1.2l.1.1h.2zm1-1.1h-.3v-.3h.6v1.7h-.3v-1.4zm.6 1.3l.3-.4c.1-.1.2-.2.2-.3.1-.1.1-.1.1-.2s.1-.1.1-.1v-.1c0-.1 0-.1-.1-.2 0 0-.1-.1-.2-.1h-.4l-.1-.3c.1 0 .1 0 .2-.1h.6c.1 0 .1 0 .2.1.1 0 .1.1.1.2v.4c0 .1 0 .1-.1.2 0 .1-.1.1-.1.2-.1.1-.1.2-.2.2l-.1.1h.6v.3l-1.1.1zm3.7 0l.3-.4c.1-.1.2-.2.2-.3.1-.1.1-.1.1-.2s.1-.1.1-.1v-.1c0-.1 0-.1-.1-.2 0 0-.1-.1-.2-.1h-.4l-.1-.3c.1 0 .1 0 .2-.1h.6c.1 0 .1 0 .2.1.1 0 .1.1.1.2v.4c0 .1 0 .1-.1.2 0 .1-.1.1-.1.2-.1.1-.1.2-.2.2l-.1.1h.6v.3l-1.1.1zm1.8 0c-.1 0-.2-.1-.2-.2-.1-.1-.1-.2-.1-.3v-.8c0-.1.1-.2.1-.3l.2-.2c.1 0 .2-.1.3-.1.1 0 .2 0 .3.1.1 0 .2.1.2.2.1.1.1.2.1.3v.8c0 .1-.1.2-.1.3l-.2.2c-.1 0-.2.1-.3.1-.2 0-.3 0-.3-.1zm.4-.2l.1-.1s0-.1.1-.2v-.4c0-.1 0-.1-.1-.2 0-.1-.1-.1-.1-.1h-.2l-.1.1s-.1.1-.1.2v.4c0 .1 0 .1.1.2l.1.1h.2zm1-1.1h-.3v-.3h.6v1.7h-.3v-1.4zm.6 1.1h.4c.1 0 .2 0 .2-.1.1 0 .1-.1.1-.1v-.2l-.1-.1s-.1 0-.2-.1h-.2v-.1l.3-.4h-.6v-.3h1.1v.1l-.4.5h.1c.1 0 .1 0 .1.1l.1.1c0 .1.1.1.1.2s0 .2-.1.3l-.2.2c-.1 0-.2.1-.4.1h-.5l.2-.2zm3.6.2l.3-.4c.1-.1.2-.2.2-.3.1-.1.1-.1.1-.2s.1-.1.1-.1v-.1c0-.1 0-.1-.1-.2 0 0-.1-.1-.2-.1h-.4l-.1-.3c.1 0 .1 0 .2-.1h.6c.1 0 .1 0 .2.1.1 0 .1.1.1.2v.4c0 .1 0 .1-.1.2 0 .1-.1.1-.1.2-.1.1-.1.2-.2.2l-.1.1h.6v.3l-1.1.1zm1.7 0c-.1 0-.2-.1-.2-.2-.1-.1-.1-.2-.1-.3v-.8c0-.1.1-.2.1-.3l.2-.2c.1 0 .2-.1.3-.1.1 0 .2 0 .3.1.1 0 .2.1.2.2.1.1.1.2.1.3 0 .1.1.2.1.4 0 .1 0 .2-.1.4 0 .1-.1.2-.1.3l-.2.2c-.1 0-.2.1-.3.1-.1 0-.2 0-.3-.1zm.4-.2l.1-.1s.1-.1.1-.2v-.4c0-.1 0-.1-.1-.2 0-.1-.1-.1-.1-.1h-.2l-.1.1s0 .1-.1.2v.4c0 .1 0 .1.1.2l.1.1h.2zm1-1.1h-.3v-.3h.6v1.7h-.3v-1.4zm2.1.8v.3h-.3v.3h-.3v-.3h-.8v-.2l.9-1.2h.2v1.1h.3zm-.6-.6l-.4.5h.4v-.5zm3 1.1l.3-.4c.1-.1.2-.2.2-.3.1-.1.1-.1.1-.2s.1-.1.1-.1v-.1c0-.1 0-.1-.1-.2 0 0-.1-.1-.2-.1h-.4l-.1-.3c.1 0 .1 0 .2-.1h.6c.1 0 .1 0 .2.1.1 0 .1.1.1.2v.4c0 .1 0 .1-.1.2 0 .1-.1.1-.1.2-.1.1-.1.2-.2.2l-.1.1h.6v.3l-1.1.1zm1.7 0c-.1 0-.2-.1-.2-.2-.1-.1-.1-.2-.1-.3v-.8c0-.1.1-.2.1-.3l.2-.2c.1 0 .2-.1.3-.1.1 0 .2 0 .3.1.1 0 .2.1.2.2.1.1.1.2.1.3v.8c0 .1-.1.2-.1.3l-.2.2c-.1 0-.2.1-.3.1-.1 0-.2 0-.3-.1zm.5-.2l.1-.1s.1-.1.1-.2v-.4c0-.1 0-.1-.1-.2 0-.1-.1-.1-.1-.1h-.2l-.1.1s-.1.1-.1.2v.4c0 .1 0 .1.1.2l.1.1h.2zm.9-1.1h-.3v-.3h.6v1.7h-.3v-1.4zm.7 1.1h.4c.1 0 .2 0 .2-.1.1 0 .1-.1.1-.1v-.2l-.1-.1c-.1 0-.1 0-.2-.1h-.4v-.8h1v.3h-.7v.2h.3c.1 0 .2.1.3.1.1 0 .1.1.2.2 0 .1.1.2.1.3 0 .1 0 .2-.1.3l-.2.2c-.1 0-.2.1-.4.1h-.5v-.3zm3.6.2l.3-.4c.1-.1.2-.2.2-.3.1-.1.1-.1.1-.2s.1-.1.1-.1v-.1c0-.1 0-.1-.1-.2 0 0-.1-.1-.2-.1h-.4l-.1-.3c.1 0 .1 0 .2-.1h.6c.1 0 .1 0 .2.1.1 0 .1.1.1.2v.4c0 .1 0 .1-.1.2 0 .1-.1.1-.1.2-.1.1-.1.2-.2.2l-.1.1h.6v.3l-1.1.1zm1.8 0c-.1 0-.2-.1-.2-.2-.1-.1-.1-.2-.1-.3v-.8c0-.1.1-.2.1-.3l.2-.2c.1 0 .2-.1.3-.1.1 0 .2 0 .3.1.1 0 .2.1.2.2.1.1.1.2.1.3 0 .1.1.2.1.4 0 .1 0 .2-.1.4 0 .1-.1.2-.1.3l-.2.2c-.1 0-.2.1-.3.1-.1 0-.2 0-.3-.1zm.4-.2l.1-.1s.1-.1.1-.2v-.4c0-.1 0-.1-.1-.2 0-.1-.1-.1-.1-.1h-.2l-.1.1s0 .1-.1.2v.4c0 .1 0 .1.1.2l.1.1h.2zm1-1.1h-.3v-.3h.6v1.7h-.3v-1.4zm1.2.3h.4c.1 0 .1 0 .2.1.1 0 .1.1.1.2s.1.2.1.3c0 .1 0 .2-.1.2 0 .1-.1.1-.1.2-.1 0-.1.1-.2.1h-.5c-.1 0-.2-.1-.2-.1-.1-.1-.1-.1-.1-.2s-.1-.2-.1-.3v-.3c0-.1.1-.2.1-.3 0-.1.1-.2.2-.3.1-.1.1-.2.2-.2l.3.2-.2.2c-.1.1-.1.2-.2.2h.1zm-.2.4c0 .2 0 .3.1.3.1.1.1.1.3.1.1 0 .2 0 .2-.1.1 0 .1-.1.1-.2s0-.2-.1-.2-.1-.1-.2-.1h-.2c-.1.1-.2.1-.2.2z"/><path d="M247.3 25.6h4.9v30.8h-4.9V25.6zm7.6 0h4.9v30.8h-4.9V25.6zm7.5 0h4.9v30.8h-4.9V25.6zm7.5 0h4.9v30.8h-4.9V25.6zm7.5 0h4.9v30.8h-4.9V25.6zm7.6 0h4.9v30.8H285V25.6zm7.5 0h4.9v30.8h-4.9V25.6z" class="st9" fill="#bcb39c"/><path class="st5" d="M289.9 56.5V35.3H285v21.2h4.9z" fill="#5d554b"/><path class="st4" d="M297.4 56.5v-27h-4.9v27h4.9zm-15.1 0V40.4h-4.9v16.1h4.9z" fill="#1b1d3b"/><path class="st5" d="M274.8 56.5V44.7h-4.9v11.7h4.9z" fill="#5d554b"/><path class="st4" d="M267.3 56.5V46.4h-4.9v10.1h4.9z" fill="#1b1d3b"/><path d="M254.9 49.3h4.9v7.1h-4.9v-7.1z" class="st5" fill="#5d554b"/><path class="st4" d="M252.3 56.5v-4.8h-4.9v4.9h4.9z" fill="#1b1d3b"/><path d="M247.3 57.5h5v1.7h-5v-1.7zm7.5 0h5v1.7h-5v-1.7zm7.6 0h5v1.7h-5v-1.7zm7.5 0h5v1.7h-5v-1.7zm7.5 0h5v1.7h-5v-1.7zm7.5 0h5v1.7h-5v-1.7zm7.6 0h5v1.7h-5v-1.7z" class="st9" fill="#bcb39c"/><path class="st6" d="M299.6 156.4c0 2.8-2.3 5-5 5h-19.4c-2.8 0-5-2.3-5-5V108c0-2.8 2.3-5 5-5h19.4c2.8 0 5 2.3 5 5v48.4z" fill-rule="evenodd" clip-rule="evenodd" fill="#1b1d3b"/><path class="st10" d="M281.1 106.8c.3 0 .5.2.5.5s-.2.5-.5.5-.5-.2-.5-.5.2-.5.5-.5zm2.2 0h5.3c.3 0 .5.2.5.5s-.2.5-.5.5h-5.3c-.3 0-.5-.2-.5-.5s.2-.5.5-.5zm1.5 48.1c1.2 0 2.2 1 2.2 2.2 0 1.2-1 2.2-2.2 2.2-1.2 0-2.2-1-2.2-2.2 0-1.2 1-2.2 2.2-2.2z" fill-rule="evenodd" clip-rule="evenodd" fill="#e9e3d6"/><path class="st8" d="M271.8 152.8v-41.7h25.9v41.7h-25.9z" fill-rule="evenodd" clip-rule="evenodd" fill="#ea5563"/><g class="st11" opacity=".15"><path class="st1" d="M294.6 102.9h-19.4c-2.8 0-5 2.3-5 5v48.3c0 1.1.4 2.1 1 2.9l27.8-54c-1-1.2-2.6-2.2-4.4-2.2z" fill="#fff"/></g><path class="st4" d="M185.8 216c.2-.1.3-.2.4-.3l11.6-8.6v-11.2l-11.6-8.6c-.1-.1-.3-.2-.4-.3-.3-.2-.6-.2-.9-.2h-38.2c-1.1 0-2 1-2 2.2v25.1c0 1.2.9 2.2 2 2.2h38.2l.9-.3z" fill="#1b1d3b"/><g class="st12" opacity=".4"><path class="st13" d="M185 214.5c.1-.1.3-.2.4-.3l10.8-7.6.1-4.9.1-4.9-10.6-7.4c-.1-.1-.2-.2-.4-.3-.3-.1-.5-.2-.8-.2l-35.2.3c-1 0-1.9.9-1.9 1.9l-.2 21.9c0 1.1.8 1.9 1.9 1.9l35.2-.3c0 .1.3 0 .6-.1z" fill="#231f20"/></g><path class="st1" d="M184.5 213.9c.1-.1.3-.2.4-.3l10.8-7.6.1-4.9.1-4.9-10.6-7.4c-.1-.1-.2-.2-.4-.3-.3-.1-.5-.2-.8-.2l-35.2.3c-1 0-1.9.9-1.9 1.9l-.2 21.9c0 1.1.8 1.9 1.9 1.9l35.2-.3c0 .1.3 0 .6-.1z" fill="#fff"/><path d="M194.6 201.6a2.5 2.5 0 0 1-2.5 2.5 2.5 2.5 0 0 1-2.5-2.5 2.5 2.5 0 0 1 2.5-2.5 2.5 2.5 0 0 1 2.5 2.5z" class="st13" fill="#231f20"/><path d="M193.7 201.6a1.6 1.6 0 0 1-1.6 1.6 1.6 1.6 0 0 1-1.6-1.6 1.6 1.6 0 0 1 1.6-1.6 1.6 1.6 0 0 1 1.6 1.6z" class="st14" fill="#86c7e2"/><path d="M33.4 151.8h47.4v56.1H33.4v-56.1z" class="st1" fill="#fff"/><path d="M33.4 151.8h47.4v3.5H33.4v-3.5z" class="st15" fill="#161616"/><path d="M37.8 153.5a.8.8 0 0 1-.8.8.8.8 0 0 1-.8-.8.8.8 0 0 1 .8-.8.8.8 0 0 1 .8.8zm2.6 0a.8.8 0 0 1-.8.8.8.8 0 0 1-.8-.8.8.8 0 0 1 .8-.8.8.8 0 0 1 .8.8zm2.7 0a.8.8 0 0 1-.8.8.8.8 0 0 1-.8-.8.8.8 0 0 1 .8-.8.8.8 0 0 1 .8.8z" class="st16" fill="#e7e5e6"/><path d="M36.9 158.2h36.3v2.5H36.9v-2.5zm0 4.8H77v2.5H36.9V163zm0 4.8h32.6v2.5H36.9v-2.5zm0 4.8H77v2.5H36.9v-2.5zm0 4.9h36.3v2.5H36.9v-2.5zm.2 5.3h34.5v2.5H37.1v-2.5zm0 4.8h38v2.5h-38v-2.5zm0 4.8H68v2.5H37.1v-2.5zm0 4.8h38v2.5h-38v-2.5zm0 4.9h34.5v2.5H37.1v-2.5z" class="st15" fill="#161616"/><path d="M57.3 47.1h-1.9v-.8h3v.2l-1.6 4.2h-.9l1.4-3.6zm1.4 2.8h1c.3 0 .5-.1.6-.1.2-.1.3-.1.3-.2.1-.1.1-.2.1-.4 0-.1 0-.3-.1-.4-.1-.1-.2-.2-.3-.2-.2-.1-.4-.1-.6-.1-.3 0-.6 0-.9-.1l.1-2h2.6v.8h-1.8v.5c.3 0 .6.1.8.1.3.1.5.1.7.3.2.1.3.3.4.4.1.2.2.4.2.7 0 .3-.1.6-.2.8-.1.2-.3.4-.6.5l-.9.3c-.4 0-.8.1-1.2.1l-.2-1zm4.1-.9c-.1-.1-.3-.2-.4-.3-.1-.1-.2-.3-.2-.5-.1-.2-.1-.4-.1-.6 0-.2 0-.4.1-.6.1-.2.1-.3.2-.5.1-.1.2-.2.4-.3.1-.1.3-.1.5-.1s.3 0 .5.1c.1.1.3.2.4.3.1.1.2.3.2.5.1.2.1.4.1.6 0 .2 0 .4-.1.6-.1.2-.1.3-.2.5-.1.1-.2.2-.4.3-.1.1-.3.1-.5.1s-.3 0-.5-.1zm.7-.6c.1 0 .1-.1.1-.2s.1-.1.1-.2v-.6c0-.1 0-.2-.1-.2 0-.1-.1-.1-.1-.2-.1 0-.1-.1-.2-.1s-.3.1-.3.2c-.1.1-.1.3-.1.5s0 .4.1.5c.1.1.2.2.3.2.1.1.1.1.2.1zm2.3-2.1h.7l-2.2 4.4h-.7l2.2-4.4zm.5 4.3c-.1-.1-.3-.2-.4-.3-.1-.1-.2-.3-.2-.5-.1-.2-.1-.4-.1-.6 0-.2 0-.4.1-.6.1-.2.1-.3.2-.5.1-.1.2-.2.4-.3.1-.1.3-.1.5-.1s.3 0 .5.1c.1.1.3.2.4.3.1.1.2.3.2.5.1.2.1.4.1.6 0 .2 0 .4-.1.6-.1.2-.1.3-.2.5-.1.1-.2.2-.4.3-.1.1-.3.1-.5.1s-.4-.1-.5-.1zm.8-.8c.1-.1.1-.3.1-.5V49c0-.1 0-.2-.1-.2 0-.1-.1-.1-.1-.2-.1 0-.1-.1-.2-.1s-.1 0-.2.1c0 0-.1.1-.1.2s-.1.1-.1.2v.3c0 .2 0 .4.1.5.1.1.2.2.3.2.1 0 .2-.1.3-.2zm12.6.1h1c.3 0 .5-.1.6-.1.2-.1.3-.1.3-.2.1-.1.1-.2.1-.4 0-.1 0-.3-.1-.4-.1-.1-.2-.2-.3-.2-.2-.1-.4-.1-.6-.1-.3 0-.6 0-.9-.1l.1-2h2.5v.8h-1.8v.5c.3 0 .6.1.8.1.3.1.5.1.7.3.2.1.3.3.4.4.1.2.2.4.2.7 0 .3-.1.6-.2.8-.1.2-.3.4-.6.5l-.9.3c-.4 0-.8.1-1.2.1l-.1-1zm4.5.6c-.2-.1-.4-.3-.6-.5-.2-.2-.3-.4-.4-.7-.1-.3-.1-.6-.1-.9 0-.3 0-.6.1-.9.1-.3.2-.5.4-.7.2-.2.3-.3.6-.5.2-.1.5-.2.7-.2.3 0 .5.1.7.2.2.1.4.3.6.5.2.2.3.4.4.7.1.3.1.6.1.9 0 .3 0 .6-.1.9-.1.3-.2.5-.4.7-.2.2-.3.3-.6.5-.2.1-.5.2-.7.2-.3 0-.5-.1-.7-.2zm1.1-.7l.3-.3c.1-.1.1-.3.2-.4 0-.2.1-.4.1-.6 0-.2 0-.4-.1-.6 0-.2-.1-.3-.2-.5l-.3-.3c-.1-.1-.2-.1-.4-.1-.1 0-.3 0-.4.1l-.3.3c-.1.1-.1.3-.2.5 0 .2-.1.4-.1.6 0 .2 0 .4.1.6 0 .2.1.3.2.4l.3.3c.1.1.2.1.4.1.1 0 .3 0 .4-.1zm2.6-.8c-.1-.1-.3-.2-.4-.3-.1-.1-.2-.3-.2-.5-.1-.2-.1-.4-.1-.6 0-.2 0-.4.1-.6.1-.2.1-.3.2-.5.1-.1.2-.2.4-.3.1-.1.3-.1.5-.1s.3 0 .5.1c.1.1.3.2.4.3.1.1.2.3.2.5.1.2.1.4.1.6 0 .2 0 .4-.1.6-.1.2-.1.3-.2.5-.1.1-.2.2-.4.3-.1.1-.3.1-.5.1s-.4 0-.5-.1zm.6-.6c.1 0 .1-.1.1-.2s.1-.1.1-.2v-.6c0-.1 0-.2-.1-.2 0-.1-.1-.1-.1-.2-.1 0-.1-.1-.2-.1s-.3.1-.3.2c-.1.1-.1.3-.1.5s0 .4.1.5c.1.1.2.2.3.2.1.1.2.1.2.1zm2.3-2.1h.7l-2.2 4.4h-.7l2.2-4.4zm.5 4.3c-.1-.1-.3-.2-.4-.3-.1-.1-.2-.3-.2-.5-.1-.2-.1-.4-.1-.6 0-.2 0-.4.1-.6.1-.2.1-.3.2-.5.1-.1.2-.2.4-.3.1-.1.3-.1.5-.1s.3 0 .5.1c.1.1.3.2.4.3.1.1.2.3.2.5.1.2.1.4.1.6 0 .2 0 .4-.1.6-.1.2-.1.3-.2.5-.1.1-.2.2-.4.3-.1.1-.3.1-.5.1s-.3-.1-.5-.1zm.8-.8c.1-.1.1-.3.1-.5V49c0-.1 0-.2-.1-.2 0-.1-.1-.1-.1-.2-.1 0-.1-.1-.2-.1s-.1 0-.2.1c-.1 0-.1.1-.1.2s-.1.1-.1.2v.3c0 .2 0 .4.1.5.1.1.2.2.3.2.2 0 .3-.1.3-.2zm-37 33.1l.9-1.1c.2-.3.4-.5.5-.7.1-.2.3-.3.3-.5.1-.1.1-.3.2-.4v-.3c0-.2-.1-.3-.2-.4-.1-.1-.3-.1-.6-.1h-.5c-.1 0-.2 0-.2.1-.1 0-.1 0-.2.1l-.2-.8c.1-.1.3-.1.5-.1s.4-.1.7-.1c.2 0 .5 0 .7.1.2 0 .4.1.5.2.1.1.3.2.3.4.2.3.2.5.2.7 0 .2 0 .3-.1.5 0 .2-.1.3-.2.5s-.2.3-.3.5c-.1.2-.3.4-.5.6l-.2.2h1.6v.8h-3.1v-.2zm3.5-.6h1c.3 0 .5-.1.6-.1.2-.1.3-.1.3-.2.1-.1.1-.2.1-.4 0-.1 0-.3-.1-.4-.1-.1-.2-.2-.3-.2-.2-.1-.4-.1-.6-.1-.3 0-.6 0-.9-.1l.1-2h2.6v.8h-1.8v.5c.3 0 .6.1.8.1.3.1.5.1.7.3.2.1.3.3.4.4.1.2.2.4.2.7 0 .3-.1.6-.2.8-.1.2-.3.4-.6.5-.3.1-.6.2-.9.2-.4 0-.8.1-1.2.1l-.2-.9zm4.1-.8c-.1-.1-.3-.2-.4-.3-.1-.1-.2-.3-.2-.5-.1-.2-.1-.4-.1-.6 0-.2 0-.4.1-.6.1-.2.1-.3.2-.5.1-.1.2-.2.4-.3.1-.1.3-.1.5-.1s.3 0 .5.1c.1.1.3.2.4.3.1.1.2.3.2.5.1.2.1.4.1.6 0 .2 0 .4-.1.6-.1.2-.1.3-.2.5-.1.1-.2.2-.4.3-.1.1-.3.1-.5.1s-.4-.1-.5-.1zm.7-.7c.1 0 .1-.1.1-.2s.1-.1.1-.2v-.6c0-.1 0-.2-.1-.2 0-.1-.1-.1-.1-.2-.1 0-.1-.1-.2-.1s-.3.1-.3.2c-.1.1-.1.3-.1.5s0 .4.1.5c.1.1.2.2.3.2 0 .2.1.2.2.1zm2.3-2.1h.7l-2.2 4.4h-.7l2.2-4.4zm.5 4.3c-.1-.1-.3-.2-.4-.3-.1-.1-.2-.3-.2-.5-.1-.2-.1-.4-.1-.6 0-.2 0-.4.1-.6.1-.2.1-.3.2-.5.1-.1.2-.2.4-.3.1-.1.3-.1.5-.1s.3 0 .5.1c.1.1.3.2.4.3.1.1.2.3.2.5.1.2.1.4.1.6 0 .2 0 .4-.1.6-.1.2-.1.3-.2.5-.1.1-.2.2-.4.3-.1.1-.3.1-.5.1s-.4 0-.5-.1zm.8-.8c.1-.1.1-.3.1-.5v-.3c0-.1 0-.2-.1-.2 0-.1-.1-.1-.1-.2-.1 0-.1-.1-.2-.1s-.1 0-.2.1c0 0-.1.1-.1.2s-.1.1-.1.2v.3c0 .2 0 .4.1.5.1.1.2.2.3.2.1 0 .2 0 .3-.2z"/><path class="st5" d="M61.6 74.5c-5.6 0-10.1-4.5-10.1-10.1S56 54.3 61.6 54.3s10.1 4.5 10.1 10.1-4.5 10.1-10.1 10.1zm0-19.1c-4.9 0-9 4-9 9 0 4.9 4 9 9 9s9-4 9-9c-.1-5-4.1-9-9-9z" fill="#5d554b"/><path class="st1" d="M86.3 23.8V40c4.4 0 8-3.7 8-8.1 0-4.4-3.5-8-8-8.1z" fill="#fff"/><path class="st5" d="M69.6 64.1c-.1-4.4-3.6-7.9-8-7.9v7.9h8z" fill="#5d554b"/><path class="st1" d="M86.1 42.1C80.5 42.1 76 37.6 76 32s4.5-10.1 10.1-10.1S96.2 26.4 96.2 32c0 5.5-4.6 10.1-10.1 10.1zm0-19.1c-4.9 0-9 4-9 9 0 4.9 4 9 9 9 4.9 0 9-4 9-9-.1-5-4.1-9-9-9z" fill="#fff"/><path class="st2" d="M62 42.1c-5.6 0-10.1-4.5-10.1-10.1S56.4 21.9 62 21.9 72.1 26.4 72.1 32c0 5.5-4.6 10.1-10.1 10.1zM62 23c-4.9 0-9 4-9 9 0 4.9 4 9 9 9 4.9 0 9-4 9-9-.1-5-4.1-9-9-9z" fill="#ea5563"/><path class="st2" d="M62.1 32h-8.2c0 4.4 3.6 8 8.1 8s8.1-3.6 8.1-8.1c0-4.4-3.5-8-7.9-8.1V32z" fill="#ea5563"/><path d="M81.4 79.5h-1.9v-.8h3v.2l-1.6 4.2H80l1.4-3.6zm1.4 2.8h1c.3 0 .5-.1.6-.1.2-.1.3-.1.4-.2.1-.1.1-.2.1-.4 0-.1 0-.3-.1-.4-.1-.1-.2-.2-.3-.2-.2-.1-.4-.1-.6-.1-.3 0-.6 0-.9-.1l.1-2h2.6v.8h-1.8v.5c.3 0 .6.1.8.1.3.1.5.1.7.3.2.1.3.3.4.4.1.2.2.4.2.7 0 .3-.1.6-.2.8-.1.2-.3.4-.6.5-.3.1-.6.2-.9.2-.4 0-.8.1-1.2.1l-.3-.9zm4.1-.8c-.1-.1-.3-.2-.4-.3-.1-.1-.2-.3-.2-.5-.1-.2-.1-.4-.1-.6 0-.2 0-.4.1-.6.1-.2.1-.3.2-.5.1-.1.2-.2.4-.3.1-.1.3-.1.5-.1s.3 0 .5.1c.1.1.3.2.4.3.1.1.2.3.2.5.1.2.1.4.1.6 0 .2 0 .4-.1.6-.1.2-.1.3-.2.5-.1.1-.2.2-.4.3-.1.1-.3.1-.5.1s-.3-.1-.5-.1zm.7-.7c.1 0 .1-.1.1-.2s.1-.1.1-.2v-.6c0-.1 0-.2-.1-.2 0-.1-.1-.1-.1-.2-.1 0-.1-.1-.2-.1s-.3.1-.3.2c-.1.3-.1.4-.1.6 0 .2 0 .4.1.5.1.1.2.2.3.2.1.1.1.1.2 0zm2.3-2.1h.7l-2.2 4.4h-.7l2.2-4.4zm.5 4.3c-.1-.1-.3-.2-.4-.3-.1-.1-.2-.3-.2-.5-.1-.2-.1-.4-.1-.6 0-.2 0-.4.1-.6.1-.2.1-.3.2-.5.1-.1.2-.2.4-.3.1-.1.3-.1.5-.1s.3 0 .5.1c.1.1.3.2.4.3.1.1.2.3.2.5.1.2.1.4.1.6 0 .2 0 .4-.1.6-.1.2-.1.3-.2.5-.1.1-.2.2-.4.3-.1.1-.3.1-.5.1s-.4 0-.5-.1zm.8-.8c.1-.1.1-.3.1-.5v-.3c0-.1 0-.2-.1-.2 0-.1-.1-.1-.1-.2-.1 0-.1-.1-.2-.1s-.1 0-.2.1c-.1 0-.1.1-.1.2s-.1.1-.1.2v.3c0 .2 0 .4.1.5.1.1.2.2.3.2.1 0 .2 0 .3-.2z"/><path class="st4" d="M86.1 74.5C80.5 74.5 76 70 76 64.4s4.5-10.1 10.1-10.1 10.1 4.5 10.1 10.1-4.6 10.1-10.1 10.1zm0-19.1c-4.9 0-9 4-9 9 0 4.9 4 9 9 9 4.9 0 9-4 9-9-.1-5-4.1-9-9-9z" fill="#1b1d3b"/><path class="st4" d="M85.9 64.3h8.2c0-4.4-3.6-8-8.1-8s-8.1 3.6-8.1 8.1c0 4.4 3.5 8 7.9 8.1v-8.2z" fill="#1b1d3b"/><path class="st1" d="M136.3 122.9l.7-14.1-2.5 14.1h-2.1l3.2-17.9h3.3l-.9 14.5 4.2-14.5h3.4l-3.2 17.9h-2.1l2.5-14.1-4.3 14.1h-2.2zm14.7 0h-2.4l.4-4.6h-2.1l-1.3 4.6h-2.3l5.3-17.9h3.3l-.9 17.9zm-1.1-15.7l-2.5 9h1.7l.8-9zm5.3-2.3h5.2l1.2 1.4-1.3 7.5-1.5 1.3v7.8h-2.2v-7.7h-1l-1.3 7.7H152l3.2-18zm3 8l1-5.6-.4-.5h-1.7l-1.2 6.6h1.7l.6-.5zm5.1 5.7l-.8 4.3h-2.3l3.2-17.9h2.3l-1.7 9.6 4.4-9.6h2.3l-3.8 8 .8 10h-2.4l-.4-7.3-1.6 2.9zm8.5-13.7h5.6l-.3 1.9h-3.3l-1.1 6h2.9l-.3 1.9h-2.9l-1.1 6.2h3.4l-.3 1.9h-5.6l3-17.9zm10.4 1.9l-2.8 16.1h-2.3l2.8-16.1h-2.1l.3-1.9h6.6l-.3 1.9h-2.2zm3.4-1.9h2.3l-3.2 17.9h-2.3l3.2-17.9zm3.9 0h2.5l.4 12.4 2.2-12.4h2.1l-3.2 17.9H191l-.4-12.3-2.2 12.3h-2.1l3.2-17.9zm8.3 1.4l1.7-1.4h3.7l1.2 1.4-.7 3.8h-2.3l.5-2.8-.4-.5h-1.1l-.6.5-2.3 13.1.4.5h1.1l.6-.5.9-4.9h-1.1l.4-2h3.4l-1.4 7.9-1.7 1.4h-3.7l-1.2-1.4 2.6-15.1zm-54.1-78.9h44.8v33.2h-44.8V27.4z" fill="#fff"/><path d="M147.6 30.1h34.6v1.6h-34.6v-1.6zm0 2.9h35.7v1.6h-35.7V33zm14.2 2.8h22.6v1.6h-22.6v-1.6zm0 2.8h19.8v1.6h-19.8v-1.6zm0 2.9h21.5v1.6h-21.5v-1.6zm0 2.8h19.8v1.6h-19.8v-1.6zm0 2.8h20.9v1.6h-20.9v-1.6zm-8.2 147.5h28.3v1.6h-28.3v-1.6zm0 2.8h24.8v1.6h-24.8v-1.6zm0 2.9h27v1.6h-27v-1.6zm0 2.8h24.8v1.6h-24.8v-1.6zm0 2.8h26.2v1.6h-26.2v-1.6zM161.8 50h20.3v1.6h-20.3V50zm-14.2 2.8h36.8v1.6h-36.8v-1.6zm0 2.8h34v1.6h-34v-1.6z" class="st17" fill="#d0d1d2"/><path class="st18" d="M159.6 46.3c0 1.7-1.4 3-3 3h-5.4c-1.7 0-3-1.4-3-3v-5.8c0-1.7 1.4-3 3-3h5.4c1.7 0 3 1.4 3 3v5.8z" fill="#eb5f5a"/><path class="st19" d="M150.9 46.2c0 .6.4.8.9.5l4.6-2.8c.5-.3.5-.8 0-1.1l-4.6-2.8c-.5-.3-.9-.1-.9.5v5.7z" fill="#383a47"/></svg>