<svg xmlns="http://www.w3.org/2000/svg" viewBox="0 0 1096 780" width="1096" height="780"><path class="st0" d="M910.8 100.8h5.7c2.8 0 5-2.2 5-5v-1.4H1096v-30H921.5v-1.6c0-2.8-2.2-5-5-5h-5.7c-2.8 0-5 2.2-5 5v1.6h-27.7c-8.3 0-15 6.7-15 15v21.4h-2.5c-2.8 0-5 2.2-5 5v5.7c0 2.8 2.2 5 5 5h2.5v73.1h-32.6v-1.2c0-2.8-2.2-5-5-5h-5.7c-2.8 0-5 2.2-5 5v1.2h-10.2v-6.2h.5c2.8 0 5-2.2 5-5v-5.7c0-2.8-2.2-5-5-5h-.5v-19.3c0-8.3-6.7-15-15-15H761v-.8c0-2.8-2.2-5-5-5h-5.7c-2.8 0-5 2.2-5 5v.8h-92v-9.3h.6c2.8 0 5-2.2 5-5v-5.7c0-2.8-2.2-5-5-5h-.6v-29c0-8.3-6.7-15-15-15h-26.6v-2.1c0-2.8-2.2-5-5-5H601c-2.8 0-5 2.2-5 5v2.1h-66.7v-7.8h6.7c2.6 0 4.7-2.1 4.7-4.7s-2.1-4.7-4.7-4.7h-21.7c-2.6 0-4.7 2.1-4.7 4.7s2.1 4.7 4.7 4.7h6.7v7.8h-62.6v-2.1c0-2.8-2.2-5-5-5h-5.7c-2.8 0-5 2.2-5 5v2.1h-28.1c-8.3 0-15 6.7-15 15v29h-1.4c-2.8 0-5 2.2-5 5v5.7c0 2.8 2.2 5 5 5h1.4v9.3h-53.9v-.8c0-2.8-2.2-5-5-5H335c-2.8 0-5 2.2-5 5v.8h-8.9v-14.6h.2c2.8 0 5-2.2 5-5v-5.7c0-2.8-2.2-5-5-5h-.2V79.4c0-8.3-6.7-15-15-15h-20.5v-2.3c0-2.8-2.2-5-5-5H275c-2.8 0-5 2.2-5 5v2.3h-28.8v-7.8h6.7c2.6 0 4.7-2.1 4.7-4.7s-2.1-4.7-4.7-4.7h-21.7c-2.6 0-4.7 2.1-4.7 4.7s2.1 4.7 4.7 4.7h6.7v7.8h-44.7v-2.3c0-2.8-2.2-5-5-5h-5.7c-2.8 0-5 2.2-5 5v2.3h-24.8c-8.3 0-15 6.7-15 15v23.7h-1.3c-2.8 0-5 2.2-5 5v5.7c0 2.8 2.3 5 5 5h1.3v10.3h-1.3c-2.8 0-5 2.2-5 5v5.7c0 2.8 2.3 5 5 5h1.3v11.1h-9v-1.8c0-2.8-2.2-5-5-5H113c-2.8 0-5 2.2-5 5v1.8H0v30h107.9v1.2c0 2.8 2.2 5 5 5h5.7c2.8 0 5-2.2 5-5v-1.2h24c8.3 0 15-6.7 15-15v-26.1h1.7c2.8 0 5-2.2 5-5v-5.7c0-2.8-2.2-5-5-5h-1.7v-10.3h1.7c2.8 0 5-2.2 5-5v-5.7c0-2.8-2.2-5-5-5h-1.7v-8.7h9.8v.7c0 2.8 2.2 5 5 5h5.7c2.8 0 5-2.2 5-5v-.7H270v.7c0 2.8 2.2 5 5 5h5.7c2.8 0 5-2.2 5-5v-.7h5.5v8.7h-2.8c-2.8 0-5 2.2-5 5v5.7c0 2.8 2.2 5 5 5h2.8v29.6c0 8.3 6.7 15 15 15H330v2.2c0 2.8 2.2 5 5 5h5.7c2.8 0 5-2.2 5-5v-2.2h53.9V253h-1.4c-2.8 0-5 2.2-5 5v5.7c0 2.8 2.2 5 5 5h1.4v10.2h-11.2v-2.6c0-2.8-2.2-5-5-5h-5.7c-2.8 0-5 2.2-5 5v2.6h-63.1v-5.1h1.7c2.8 0 5-2.2 5-5v-5.7c0-2.8-2.2-5-5-5h-1.7v-23.4c0-8.3-6.7-15-15-15H270v-1.5c0-2.8-2.2-5-5-5h-5.7c-2.8 0-5 2.2-5 5v1.5h-115v-1.5c0-2.8-2.2-5-5-5h-5.7c-2.8 0-5 2.2-5 5v1.5h-24c-8.3 0-15 6.7-15 15v23.4h-2.3c-2.8 0-5 2.2-5 5v5.7c0 2.8 2.2 5 5 5h2.3v5.1H0v30h84.6v66H0v30h84.6v35.2h-2.3c-2.8 0-5 2.2-5 5v5.7c0 2.8 2.2 5 5 5h2.3v10.6H76v-1c0-2.8-2.2-5-5-5h-5.7c-2.8 0-5 2.2-5 5v1H0v30h60.3v2c0 2.8 2.2 5 5 5H71c2.8 0 5-2.2 5-5v-2h23.6c8.3 0 15-6.7 15-15v-25.6h.7c2.8 0 5-2.2 5-5v-5.7c0-2.8-2.2-5-5-5h-.7v-35.2h165v55.5h-50.2v-2.8c0-2.8-2.2-5-5-5h-5.7c-2.8 0-5 2.2-5 5v2.8h-24.1c-8.3 0-15 6.7-15 15v28H173c-2.8 0-5 2.2-5 5v5.7c0 2.8 2.2 5 5 5h1.7v31.3H173c-2.8 0-5 2.2-5 5v5.7c0 2.8 2.2 5 5 5h1.7v12.8h-9.9v-2.1c0-2.8-2.2-5-5-5H154c-2.8 0-5 2.2-5 5v2.1H0v30h149v.9c0 2.8 2.2 5 5 5h5.7c2.8 0 5-2.2 5-5v-.9h24.9c8.3 0 15-6.7 15-15v-27.8h1.3c2.8 0 5-2.2 5-5v-5.7c0-2.8-2.2-5-5-5h-1.3v-31.3h1.3c2.8 0 5-2.2 5-5v-5.7c0-2.8-2.2-5-5-5h-1.3v-13h9.1v.2c0 2.8 2.2 5 5 5h5.7c2.8 0 5-2.2 5-5v-.2h50.2v5.2h-1.3c-2.8 0-5 2.2-5 5v5.7c0 2.8 2.2 5 5 5h1.3v24.1c0 8.3 6.7 15 15 15h23.9c.5 2.2 2.5 3.9 4.9 3.9h5.7c2.4 0 4.4-1.7 4.9-3.9h133.7v55.5h-97.5c-.2-2.6-2.3-4.6-5-4.6h-5.7c-2.6 0-4.8 2-5 4.6H326c-8.3 0-15 6.7-15 15v20h-1.3c-2.8 0-5 2.2-5 5v5.7c0 2.8 2.2 5 5 5h1.3v13h-1.3c-2.8 0-5 2.2-5 5v5.7c0 2.8 2.2 5 5 5h1.3v7.6h-16.2v-2.6c0-2.8-2.2-5-5-5h-5.7c-2.8 0-5 2.2-5 5v2.6H0v30h279.1v.4c0 2.8 2.2 5 5 5h5.7c2.8 0 5-2.2 5-5v-.4H326c8.3 0 15-6.7 15-15v-22.6h1.7c2.8 0 5-2.2 5-5v-5.7c0-2.8-2.2-5-5-5H341v-13h1.7c2.8 0 5-2.2 5-5v-5.7c0-2.8-2.2-5-5-5H341v-5h13.4v3.4c0 2.8 2.2 5 5 5h5.7c2.8 0 5-2.2 5-5v-3.4h97.4v41.5H466c-2.8 0-5 2.2-5 5v5.7c0 2.8 2.2 5 5 5h1.5v23.8c0 8.3 6.7 15 15 15h23.1v2c0 2.8 2.2 5 5 5h5.7c2.8 0 5-2.2 5-5v-2H1096v-30H714.1v-6.5h6.7c2.6 0 4.7-2.1 4.7-4.7s-2.1-4.7-4.7-4.7h-21.7c-2.6 0-4.7 2.1-4.7 4.7s2.1 4.7 4.7 4.7h6.7v6.5H521.3v-1c0-2.8-2.2-5-5-5h-5.7c-2.8 0-5 2.2-5 5v1h-8.1v-8.8h1.5c2.8 0 5-2.2 5-5v-5.7c0-2.8-2.2-5-5-5h-1.5v-41.5H1096v-30H567.7v-7.5h6.7c2.6 0 4.7-2.1 4.7-4.7s-2.1-4.7-4.7-4.7h-21.7c-2.6 0-4.7 2.1-4.7 4.7s2.1 4.7 4.7 4.7h6.7v7.5h-61.8v-55.5h404.9c.5 2.2 2.5 3.9 4.9 3.9h5.7c2.4 0 4.4-1.7 4.9-3.9h27.7c8.3 0 15-6.7 15-15v-27.3c2.6-.1 4.7-2.3 4.7-5v-5.7c0-2.7-2.1-4.8-4.7-5V434c2.6-.1 4.7-2.3 4.7-5v-5.7c0-2.7-2.1-4.8-4.7-5v-13.6h8.8v1.7c0 2.8 2.2 5 5 5h5.7c2.8 0 5-2.2 5-5v-1.7h111v-30H985v-1.3c0-2.8-2.2-5-5-5h-5.7c-2.8 0-5 2.2-5 5v1.3h-23.8c-8.3 0-15 6.7-15 15v28.5h-3.3c-2.8 0-5 2.2-5 5v5.7c0 2.8 2.2 5 5 5h3.3v58.3h-3.3c-2.8 0-5 2.2-5 5v5.7c0 2.8 2.2 5 5 5h3.3v12.3H918v-4.1c0-2.8-2.2-5-5-5h-5.7c-2.8 0-5 2.3-5 5v4.1H725.4V512h6.7c2.6 0 4.7-2.1 4.7-4.7s-2.1-4.7-4.7-4.7h-21.7c-2.6 0-4.7 2.1-4.7 4.7s2.1 4.7 4.7 4.7h6.7v8.4H497.6v-1.3h1.5c2.8 0 5-2.2 5-5v-5.7c0-2.8-2.2-5-5-5h-1.5v-28c0-8.3-6.7-15-15-15h-22.8v-2.8c0-2.8-2.2-5-5-5h-5.7c-2.8 0-5 2.2-5 5v2.8H309.6v-55.5H479v2.3c0 2.8 2.2 5 5 5h5.7c2.8 0 5-2.2 5-5v-2.3H518c8.3 0 15-6.7 15-15v-24.1h2.6c2.8 0 5-2.2 5-5v-5.7c0-2.8-2.2-5-5-5H533v-57.3h2.6c2.8 0 5-2.2 5-5v-5.7c0-2.8-2.2-5-5-5H533v-11.7h7.6v1.4c0 2.8 2.2 5 5 5h5.7c2.8 0 5-2.2 5-5v-1.4h66.9V397h-2.4c-2.8 0-5 2.2-5 5v5.7c0 2.8 2.2 5 5 5h2.4v29.6c0 8.3 6.7 15 15 15h23.6v2c0 2.8 2.2 5 5 5h5.7c2.8 0 5-2.2 5-5v-2h70.6v2c0 2.8 2.2 5 5 5h5.7c2.8 0 5-2.2 5-5v-2H788c8.3 0 15-6.7 15-15v-29.6h.5c2.8 0 5-2.2 5-5V402c0-2.8-2.2-5-5-5h-.5v-8.7h35.8c.2 2.6 2.3 4.7 5 4.7h5.7c2.6 0 4.8-2.1 5-4.7h23.6c8.3 0 15-6.7 15-15v-26.9h.5c2.8 0 5-2.2 5-5v-5.7c0-2.8-2.2-5-5-5h-.5v-29.4H1096v-30H893.1v-51.8H1096v-30H893.1v-73.1h.5c2.8 0 5-2.2 5-5v-5.7c0-2.8-2.2-5-5-5h-.5v-6.4h12.7v1.4c0 2.8 2.3 5.1 5 5.1zM444.1 490.4v.2c0 2.8 2.2 5 5 5h5.7c2.8 0 5-2.2 5-5v-.2h7.8v13h-1.5c-2.8 0-5 2.2-5 5v5.7c0 2.8 2.2 5 5 5h1.5v1.3H334v-4.1c0-2.8-2.2-5-5-5h-5.7c-2.8 0-5 2.3-5 5v4.1h-8.7v-9.1h1.7c2.8 0 5-2.2 5-5v-5.7c0-2.8-2.2-5-5-5h-1.7v-5.2h134.5zm-14.5-366.3h1.6c2.8 0 5-2.2 5-5v-5.7c0-2.8-2.2-5-5-5h-1.6v-14h13.1v.9c0 2.8 2.2 5 5 5h5.7c2.8 0 5-2.2 5-5v-.9H596v.9c0 2.8 2.2 5 5 5h5.7c2.8 0 5-2.2 5-5v-.9h11.6v14h-2.4c-2.8 0-5 2.2-5 5v5.7c0 2.8 2.2 5 5 5h2.4v9.3H429.6v-9.3zm-315 149.7h.7c2.8 0 5-2.2 5-5v-5.7c0-2.8-2.2-5-5-5h-.7v-8.4h9v1.5c0 2.8 2.2 5 5 5h5.7c2.8 0 5-2.2 5-5v-1.5h115v1.5c0 2.8 2.3 5 5 5h5.7c2.8 0 5-2.2 5-5v-1.5h9.6v8.4h-1.3c-2.8 0-5 2.2-5 5v5.7c0 2.8 2.2 5 5 5h1.3v5.1h-165v-5.1zm0 101.1v-66h165v66h-165zm441.8-139.5v-1.6c0-2.8-2.2-5-5-5h-5.7c-2.8 0-5 2.2-5 5v1.6H518c-8.3 0-15 6.7-15 15v26.7h-.4c-2.8 0-5 2.2-5 5v5.7c0 2.8 2.2 5 5 5h.4v57.3h-.4c-2.8 0-5 2.2-5 5v5.7c0 2.8 2.2 5 5 5h.4v9.1h-8.4v-.7c0-2.8-2.2-5-5-5H484c-2.8 0-5 2.2-5 5v.7h-70.9v-6.2h6.7c2.6 0 4.7-2.1 4.7-4.7s-2.1-4.7-4.7-4.7h-21.7c-2.6 0-4.7 2.1-4.7 4.7s2.1 4.7 4.7 4.7h6.7v6.2h-90.1v-66h63.1v.4c0 2.8 2.2 5 5 5h5.7c2.8 0 5-2.2 5-5v-.4h26.2c8.3 0 15-6.7 15-15v-25.2h1.6c2.8 0 5-2.2 5-5V258c0-2.8-2.2-5-5-5h-1.6v-89.6h193.7v72h-67zm216.7 161.7h-2.5c-2.7 0-5 2.2-5 5v5.7c0 2.8 2.2 5 5 5h2.5v14.6h-9.2v-1c0-2.8-2.2-5-5-5h-5.7c-2.8 0-5 2.2-5 5v1h-70.6v-1c0-2.8-2.2-5-5-5h-5.7c-2.8 0-5 2.2-5 5v1h-8.6v-14.6h.6c2.8 0 5-2.2 5-5v-5.7c0-2.8-2.2-5-5-5h-.6V265.4h19.4v1.4c0 2.8 2.2 5 5 5h5.7c2.8 0 5-2.2 5-5v-1.4h5.2v11.7h-.2c-2.8 0-5 2.2-5 5v5.7c0 2.8 2.2 5 5 5h.2v80.6c0 8.3 6.7 15 15 15h25.3c.2 2.6 2.3 4.7 5 4.7h5.7c2.6 0 4.8-2.1 5-4.7h23.6v8.7zm90-66.3h-2.5c-2.8 0-5 2.2-5 5v5.7c0 2.8 2.2 5 5 5h2.5v11.9h-8.5v-3.3c0-2.8-2.2-5-5-5h-5.7c-2.8 0-5 2.2-5 5v3.3h-35.8v-30.2h.5c2.8 0 5-2.2 5-5v-5.7c0-2.8-2.2-5-5-5h-.5v-11.1h9.1v2.5c0 2.8 2.2 5 5 5h5.7c2.8 0 5-2.2 5-5v-2.5h35.2v29.4zm0-59.4h-35.2v-.5c0-2.8-2.2-5-5-5h-5.7c-2.8 0-5 2.2-5 5v.5h-24.1c-8.3 0-15 6.7-15 15v26.1h-2.5c-2.7 0-5 2.2-5 5v5.7c0 2.8 2.2 5 5 5h2.5v30.2h-23.5v-3.3c0-2.8-2.2-5-5-5h-5.7c-2.8 0-5 2.2-5 5v3.3h-10.3v-65.6h2.8c2.8 0 5-2.2 5-5v-5.7c0-2.8-2.2-5-5-5h-2.8v-26.7c0-8.3-6.7-15-15-15h-20.2v-1.6c0-2.8-2.2-5-5-5h-5.7c-2.8 0-5 2.2-5 5v1.6h-19.4v-72h92v2.2c0 2.8 2.2 5 5 5h5.7c2.8 0 5-2.2 5-5v-2.2h13.6v4.3h-2.5c-2.8 0-5 2.2-5 5v5.7c0 2.8 2.2 5 5 5h2.5v21.2c0 8.3 6.7 15 15 15h25.2v1.8c0 2.8 2.2 5 5 5h5.7c2.8 0 5-2.2 5-5v-1.8h32.6v51.8z" fill="#e6e7e8"/><path class="st1" d="M321.1 126.9v-14.6h-30v29.6c0 8.3 6.7 15 15 15H330v-30h-8.9zm483.5 56.2v-6.2h-30v21.2c0 8.3 6.7 15 15 15h25.2v-30h-10.2zm0-41.2c0-8.3-6.7-15-15-15H761v30h13.6v4.3h30v-19.3zm-672-29.6h30v10.3h-30v-10.3zm697.9 70.8H1096v30H830.5v-30zm-484.8-56.2h399.6v30H345.7v-30zm-104.5-69v-7.8h-8.4v7.8h-44.7v30H270v-30zm79.9 15c0-8.3-6.7-15-15-15h-20.5v30h5.5v8.7h30V72.9zM0 149.4h107.9v30H0v-30zm147.6-91.5c-8.3 0-15 6.7-15 15v23.7h30v-8.7h9.8v-30h-24.8zm-15 91.5h-9v30h24c8.3 0 15-6.7 15-15v-26.1h-30v11.1z" fill="#bbcc32"/><path class="st2" d="M123.6 147.6c0-2.8-2.2-5-5-5h-5.7c-2.8 0-5 2.2-5 5v33c0 2.8 2.2 5 5 5h5.7c2.8 0 5-2.2 5-5v-33zm64.5-92c0-2.8-2.2-5-5-5h-5.7c-2.8 0-5 2.2-5 5v33c0 2.8 2.2 5 5 5h5.7c2.8 0 5-2.2 5-5v-33zm97.6 0c0-2.8-2.2-5-5-5H275c-2.8 0-5 2.2-5 5v33c0 2.8 2.2 5 5 5h5.7c2.8 0 5-2.2 5-5v-33zm60 70.5c0-2.8-2.2-5-5-5H335c-2.8 0-5 2.2-5 5v33c0 2.8 2.2 5 5 5h5.7c2.8 0 5-2.2 5-5v-33zm415.3 0c0-2.8-2.2-5-5-5h-5.7c-2.8 0-5 2.2-5 5v33c0 2.8 2.2 5 5 5h5.7c2.8 0 5-2.2 5-5v-33zm69.5 55.8c0-2.8-2.2-5-5-5h-5.7c-2.8 0-5 2.2-5 5v33c0 2.8 2.2 5 5 5h5.7c2.8 0 5-2.2 5-5v-33zm-699.2-59.3c-2.8 0-5 2.2-5 5v5.7c0 2.8 2.3 5 5 5h33c2.8 0 5-2.2 5-5v-5.7c0-2.8-2.2-5-5-5h-33zm0-26c-2.8 0-5 2.2-5 5v5.7c0 2.8 2.3 5 5 5h33c2.8 0 5-2.2 5-5v-5.7c0-2.8-2.2-5-5-5h-33zm190 15.7c2.8 0 5-2.2 5-5v-5.7c0-2.8-2.2-5-5-5h-33c-2.8 0-5 2.2-5 5v5.7c0 2.8 2.2 5 5 5h33zm483.8 64.6c2.8 0 5-2.2 5-5v-5.7c0-2.8-2.2-5-5-5h-33c-2.8 0-5 2.2-5 5v5.7c0 2.8 2.2 5 5 5h33zM247.8 50.1c2.6 0 4.7-2.1 4.7-4.7s-2.1-4.7-4.7-4.7h-21.7c-2.6 0-4.7 2.1-4.7 4.7s2.1 4.7 4.7 4.7h21.7z" fill="#6b8b28"/><path d="M399.6 117.6h30v129h-30v-129zm223.7 0h30v273h-30v-273zm-93.9-59.7v-7.8H521v7.8h-62.6v30H596v-30zm-114.8 0c-8.3 0-15 6.7-15 15v29h30v-14h13.1v-30h-28.1zm413.3 207H1096v30H827.9v-30zm-54.8 156H653.3v-14.6h-30v29.6c0 8.3 6.7 15 15 15h149.8c8.3 0 15-6.7 15-15v-29.6h-30v14.6zm15-156c-8.3 0-15 6.7-15 15V306h30v-11.1h9.1v-30h-24.1zm-15 56.8h30v68.8h-30v-68.8zM0 272.4h372.7v30H0v-30zM653.3 72.9c0-8.3-6.7-15-15-15h-26.6v30h11.6v14h30v-29zM399.6 272.4h-11.2v30h26.2c8.3 0 15-6.7 15-15v-25.2h-30v10.2z" class="st3" fill="#ec2f89"/><path class="st4" d="M388.4 269.8c0-2.8-2.2-5-5-5h-5.7c-2.8 0-5 2.2-5 5v33c0 2.8 2.2 5 5 5h5.7c2.8 0 5-2.2 5-5v-33zm70-214c0-2.8-2.2-5-5-5h-5.7c-2.8 0-5 2.2-5 5v33c0 2.8 2.2 5 5 5h5.7c2.8 0 5-2.2 5-5v-33zm153.3 0c0-2.8-2.2-5-5-5H601c-2.8 0-5 2.2-5 5v33c0 2.8 2.2 5 5 5h5.7c2.8 0 5-2.2 5-5v-33zm216.2 208.6c0-2.8-2.2-5-5-5h-5.7c-2.8 0-5 2.2-5 5v33c0 2.8 2.2 5 5 5h5.7c2.8 0 5-2.2 5-5v-33zm-429.7-17.9c-2.8 0-5 2.2-5 5v5.7c0 2.8 2.2 5 5 5h33c2.8 0 5-2.2 5-5v-5.7c0-2.8-2.2-5-5-5h-33zm0-144.6c-2.8 0-5 2.2-5 5v5.7c0 2.8 2.2 5 5 5h33c2.8 0 5-2.2 5-5v-5.7c0-2.8-2.2-5-5-5h-33zm255.7 15.7c2.8 0 5-2.2 5-5v-5.7c0-2.8-2.2-5-5-5h-33c-2.8 0-5 2.2-5 5v5.7c0 2.8 2.2 5 5 5h33zm0 288.6c2.8 0 5-2.2 5-5v-5.7c0-2.8-2.2-5-5-5h-33c-2.8 0-5 2.2-5 5v5.7c0 2.8 2.2 5 5 5h33zm116.7-15.7c-2.7 0-5 2.2-5 5v5.7c0 2.8 2.2 5 5 5h33c2.8 0 5-2.2 5-5v-5.7c0-2.8-2.2-5-5-5h-33zm0-84.5c-2.7 0-5 2.2-5 5v5.7c0 2.8 2.2 5 5 5h33c2.8 0 5-2.2 5-5V311c0-2.8-2.2-5-5-5h-33zM536 50.1c2.6 0 4.7-2.1 4.7-4.7s-2.1-4.7-4.7-4.7h-21.7c-2.6 0-4.7 2.1-4.7 4.7s2.1 4.7 4.7 4.7H536z" fill="#c02170"/><path d="M503 286.3h30v57.3h-30v-57.3zm53.4-57.4h116.3v30H556.4v-30zm306.7 123h-8.5v30h23.6c8.3 0 15-6.7 15-15V340h-30v11.9zm0-242h30v214.3h-30V109.9zM518 228.9c-8.3 0-15 6.7-15 15v26.7h30v-11.7h7.6v-30H518zm205.6 15c0-8.3-6.7-15-15-15h-20.2v30h5.2v11.7h30v-26.7zm115.2 108h-89.3v30h89.4v-30zm-105 0h-10.3v-65.6h-30v80.6c0 8.3 6.7 15 15 15h25.3v-30zm144.3-294c-8.3 0-15 6.7-15 15v21.4h30v-6.4h12.7v-30h-27.7zm-470 310.5v-6.3h-8.4v6.3H0v30h479v-30zM921.5 57.9H1096v30H921.5v-30zM503 368.4h-8.4v30H518c8.3 0 15-6.7 15-15v-24.1h-30v9.1z" class="st5" fill="#fcc80d"/><path class="st6" d="M494.7 367.6c0-2.8-2.2-5-5-5H484c-2.8 0-5 2.2-5 5v33c0 2.8 2.2 5 5 5h5.7c2.8 0 5-2.2 5-5v-33zm61.7-140.3c0-2.8-2.2-5-5-5h-5.7c-2.8 0-5 2.2-5 5v33c0 2.8 2.2 5 5 5h5.7c2.8 0 5-2.2 5-5v-33zm132 0c0-2.8-2.2-5-5-5h-5.7c-2.8 0-5 2.2-5 5v33c0 2.8 2.2 5 5 5h5.7c2.8 0 5-2.2 5-5v-33zm61.1 124.6v-3.3c0-2.8-2.2-5-5-5h-5.7c-2.8 0-5 2.2-5 5v33.3c.2 2.6 2.3 4.7 5 4.7h5.7c2.6 0 4.8-2.1 5-4.7v-30zm105 0v-3.3c0-2.8-2.2-5-5-5h-5.7c-2.8 0-5 2.2-5 5v33.3c.2 2.6 2.3 4.7 5 4.7h5.7c2.6 0 4.8-2.1 5-4.7v-30zm67-295.7c0-2.8-2.2-5-5-5h-5.7c-2.8 0-5 2.2-5 5v33c0 2.8 2.2 5 5 5h5.7c2.8 0 5-2.2 5-5v-33zM502.7 343.6c-2.8 0-5 2.2-5 5v5.7c0 2.8 2.2 5 5 5h33c2.8 0 5-2.2 5-5v-5.7c0-2.8-2.2-5-5-5h-33zm0-73c-2.8 0-5 2.2-5 5v5.7c0 2.8 2.2 5 5 5h33c2.8 0 5-2.2 5-5v-5.7c0-2.8-2.2-5-5-5h-33zm223.7 15.7c2.8 0 5-2.2 5-5v-5.7c0-2.8-2.2-5-5-5h-33c-2.8 0-5 2.2-5 5v5.7c0 2.8 2.2 5 5 5h33zm134.1 37.9c-2.8 0-5 2.2-5 5v5.7c0 2.8 2.2 5 5 5h33c2.8 0 5-2.2 5-5v-5.7c0-2.8-2.2-5-5-5h-33zm0-230c-2.8 0-5 2.2-5 5v5.7c0 2.8 2.2 5 5 5h33c2.8 0 5-2.2 5-5v-5.7c0-2.8-2.2-5-5-5h-33zM414.7 362.1c2.6 0 4.7-2.1 4.7-4.7s-2.1-4.7-4.7-4.7H393c-2.6 0-4.7 2.1-4.7 4.7s2.1 4.7 4.7 4.7h21.7z" fill="#f28521"/><path class="st7" d="M318.3 513.9h-8.7v-9.1h-30v24.1c0 8.3 6.7 15 15 15h23.9c-.1-.4-.1-.7-.1-1.1v-28.9zM0 459.9h60.3v30H0v-30zm279.6-192.6h30v221.8h-30V267.3zm-140.3-54.2h115v30h-115v-30zm170.3 15c0-8.3-6.7-15-15-15H270v30h9.6v8.4h30v-23.4zm621 273.5v12.3H918v28.9c0 .4-.1.8-.1 1.1h27.7c8.3 0 15-6.7 15-15v-27.3h-30zM985 368.4h111v30H985v-30zm-39.4 0c-8.3 0-15 6.7-15 15v28.5h30v-13.6h8.8v-30h-23.8zm-846-155.3c-8.3 0-15 6.7-15 15v23.4h30v-8.4h9v-30h-24zm831 214.5v58.3h30v-58.4h-30zm-28.3 86.3H725.4v-8.4h-8.3v8.4H334v28.9c0 .4-.1.8-.1 1.1h568.6c-.1-.4-.1-.7-.1-1.1v-28.9zM84.6 267.3h30v166.3h-30V267.3zm0 192.6H76v30h23.6c8.3 0 15-6.7 15-15v-25.6h-30v10.6z" fill="#8ad0f0"/><path class="st8" d="M76 458.9c0-2.8-2.2-5-5-5h-5.7c-2.8 0-5 2.2-5 5v33c0 2.8 2.2 5 5 5H71c2.8 0 5-2.2 5-5v-33zm63.3-247.3c0-2.8-2.2-5-5-5h-5.7c-2.8 0-5 2.2-5 5v33c0 2.8 2.2 5 5 5h5.7c2.8 0 5-2.2 5-5v-33zm130.7 0c0-2.8-2.2-5-5-5h-5.7c-2.8 0-5 2.2-5 5v33c0 2.8 2.3 5 5 5h5.7c2.8 0 5-2.2 5-5v-33zm64 302.3v-4.1c0-2.8-2.2-5-5-5h-5.7c-2.8 0-5 2.2-5 5v33c0 .4.1.8.1 1.1.5 2.2 2.5 3.9 4.9 3.9h5.7c2.4 0 4.4-1.7 4.9-3.9.1-.4.1-.7.1-1.1v-28.9zm584 0v-4.1c0-2.8-2.2-5-5-5h-5.7c-2.8 0-5 2.2-5 5v33c0 .4.1.8.1 1.1.5 2.2 2.5 3.9 4.9 3.9h5.7c2.4 0 4.4-1.7 4.9-3.9.1-.4.1-.7.1-1.1v-28.9zm67-146.8c0-2.8-2.2-5-5-5h-5.7c-2.8 0-5 2.2-5 5v33c0 2.8 2.2 5 5 5h5.7c2.8 0 5-2.2 5-5v-33zM82.3 433.6c-2.8 0-5 2.2-5 5v5.7c0 2.8 2.2 5 5 5h33c2.8 0 5-2.2 5-5v-5.7c0-2.8-2.2-5-5-5h-33zm0-182c-2.8 0-5 2.2-5 5v5.7c0 2.8 2.2 5 5 5h33c2.8 0 5-2.2 5-5v-5.7c0-2.8-2.2-5-5-5h-33zm229 15.7c2.8 0 5-2.2 5-5v-5.7c0-2.8-2.2-5-5-5h-33c-2.8 0-5 2.2-5 5v5.7c0 2.8 2.2 5 5 5h33zm0 237.5c2.8 0 5-2.2 5-5v-5.7c0-2.8-2.2-5-5-5h-33c-2.8 0-5 2.2-5 5v5.7c0 2.8 2.2 5 5 5h33zm619.3-92.9h-3.3c-2.8 0-5 2.2-5 5v5.7c0 2.8 2.2 5 5 5h33.3c2.6-.1 4.7-2.3 4.7-5v-5.7c0-2.7-2.1-4.8-4.7-5h-30zm0 74h-3.3c-2.8 0-5 2.2-5 5v5.7c0 2.8 2.2 5 5 5h33.3c2.6-.1 4.7-2.3 4.7-5v-5.7c0-2.7-2.1-4.8-4.7-5h-30zm-198.5 19.6c2.6 0 4.7-2.1 4.7-4.7s-2.1-4.7-4.7-4.7h-21.7c-2.6 0-4.7 2.1-4.7 4.7s2.1 4.7 4.7 4.7h21.7z" fill="#1793b7"/><path class="st9" d="M497.6 468.9c0-8.3-6.7-15-15-15h-22.8v30h7.8v13h30v-28zm-268.2-15h214.7v30H229.4v-30zm-54.8 118.5h-9.9v30h24.9c8.3 0 15-6.7 15-15v-27.8h-30v12.8zm293-59.8h30v158.3h-30V512.6zm30 182.8v-8.8h-30v23.8c0 8.3 6.7 15 15 15h23.1v-30h-8.1zm598.4 0H714.1v-6.5h-8.4v6.5H521.3v30H1096zM189.6 453.9c-8.3 0-15 6.7-15 15v28h30v-13h9.1v-30h-24.1zm-15 58.7h30v31.3h-30v-31.3zM0 572.4h149v30H0v-30z" fill="#00a79d"/><path class="st10" d="M164.7 570.2c0-2.8-2.2-5-5-5H154c-2.8 0-5 2.2-5 5v33c0 2.8 2.2 5 5 5h5.7c2.8 0 5-2.2 5-5v-33zm64.7-119.1c0-2.8-2.2-5-5-5h-5.7c-2.8 0-5 2.2-5 5v33c0 2.8 2.2 5 5 5h5.7c2.8 0 5-2.2 5-5v-33zm230.4 0c0-2.8-2.2-5-5-5h-5.7c-2.8 0-5 2.2-5 5v33c0 2.8 2.2 5 5 5h5.7c2.8 0 5-2.2 5-5v-33zm61.5 243.3c0-2.8-2.2-5-5-5h-5.7c-2.8 0-5 2.2-5 5v33c0 2.8 2.2 5 5 5h5.7c2.8 0 5-2.2 5-5v-33z" fill="#007e70"/><path class="st4" d="M666.9 457.9h5.7c2.8 0 5-2.2 5-5v-33c0-2.8-2.2-5-5-5h-5.7c-2.8 0-5 2.2-5 5v33c0 2.8 2.2 5 5 5zm86.3 0h5.7c2.8 0 5-2.2 5-5v-33c0-2.8-2.2-5-5-5h-5.7c-2.8 0-5 2.2-5 5v33c0 2.8 2.2 5 5 5z" fill="#c02170"/><path class="st10" d="M173 543.9c-2.8 0-5 2.2-5 5v5.7c0 2.8 2.2 5 5 5h33c2.8 0 5-2.2 5-5v-5.7c0-2.8-2.2-5-5-5h-33zm0-47c-2.8 0-5 2.2-5 5v5.7c0 2.8 2.2 5 5 5h33c2.8 0 5-2.2 5-5v-5.7c0-2.8-2.2-5-5-5h-33zm326.1 15.7c2.8 0 5-2.2 5-5v-5.7c0-2.8-2.2-5-5-5h-33c-2.8 0-5 2.2-5 5v5.7c0 2.8 2.2 5 5 5h33zm0 174c2.8 0 5-2.2 5-5v-5.7c0-2.8-2.2-5-5-5h-33c-2.8 0-5 2.2-5 5v5.7c0 2.8 2.2 5 5 5h33zm221.6 2.3c2.6 0 4.7-2.1 4.7-4.7s-2.1-4.7-4.7-4.7H699c-2.6 0-4.7 2.1-4.7 4.7s2.1 4.7 4.7 4.7h21.7z" fill="#007e70"/><path class="st11" d="M311 686.4h-16.2v30H326c8.3 0 15-6.7 15-15v-22.6h-30v7.6zm785-87H567.7v-7.5h-8.3v7.5H370.1v30H1096v-30zm-741.5 0H326c-8.3 0-15 6.7-15 15v20h30v-5h13.4v-29.6c0-.2.1-.3.1-.4zM311 650.1h30v13h-30v-13zM0 686.4h279.1v30H0v-30z" fill="#f16264"/><path class="st12" d="M294.8 683.8c0-2.8-2.2-5-5-5h-5.7c-2.8 0-5 2.2-5 5v33c0 2.8 2.2 5 5 5h5.7c2.8 0 5-2.2 5-5v-33zm75.3-84.4c-.2-2.6-2.3-4.6-5-4.6h-5.7c-2.6 0-4.8 2-5 4.6v33.4c0 2.8 2.2 5 5 5h5.7c2.8 0 5-2.2 5-5v-33.4zm-60.4 63.7c-2.8 0-5 2.2-5 5v5.7c0 2.8 2.2 5 5 5h33c2.8 0 5-2.2 5-5v-5.7c0-2.8-2.2-5-5-5h-33zm0-28.7c-2.8 0-5 2.2-5 5v5.7c0 2.8 2.2 5 5 5h33c2.8 0 5-2.2 5-5v-5.7c0-2.8-2.2-5-5-5h-33zm264.6-42.5c2.6 0 4.7-2.1 4.7-4.7s-2.1-4.7-4.7-4.7h-21.7c-2.6 0-4.7 2.1-4.7 4.7s2.1 4.7 4.7 4.7h21.7z" fill="#d1373e"/><g class="st13" opacity=".26"><path class="st14" d="M570.5 748.7c.5 0 1 .5 1 .5l-8.9 19c-1 0-3.3.1-3.9.1-.5 0-1-.5-1-.5l-3-19c1.8 0 4.2-.1 4.8-.1.5 0 1 .5 1 .5l.9 9.3c.1.8.1 1.9.1 3.1.3-1.3.6-2.5 1-3.3l3.7-9.4c1.7-.1 3.7-.2 4.3-.2zm9.2 9.4c0 2.1-1.2 3.4-4 4l-3 .6c.2 1.3 1.1 1.9 2.4 1.9 1.7 0 2.8-1.3 2.8-1.3s.8.5.8 1.4c0 1.7-2.6 3.6-5.7 3.6s-5.2-2-5.2-5.3c0-3.8 2.7-9.1 7.6-9.1 2.7.2 4.3 1.8 4.3 4.2zm-5.1 2c.6-.2.8-.7.8-1.3 0-.6-.2-1.4-.9-1.4-1.2 0-1.7 1.9-1.9 3.4l2-.7zm13.3-6c2.4 0 4.3 1.3 4.3 3 0 2.1-2.6 2.9-2.6 2.9s-.7-2.3-2.5-2.3c-1.2 0-1.8 1.2-1.8 3.7 0 2.3.6 3.3 2.1 3.3s2.5-1 2.5-1 .9.5.9 1.4c0 1.7-2.5 3.4-5.5 3.4-3.2 0-5.1-2-5.1-5.3-.1-3.9 2.7-9.1 7.7-9.1zm11.7-3.1c.6 0 1 .5 1 .5l-.5 2.9h3.1l-.7 2.2c-.2.7-.6 1.1-1.3 1.1h-1.6l-.9 5.7c-.1.9.1 1.3.7 1.3s1.1-.3 1.1-.3.9.5.9 1.4c0 1.4-2 2.8-4.5 2.8-2.6 0-3.7-1.6-3.3-4.5l1-6.3H593l.7-2.3c.2-.6.7-1 1.3-1h.8l1-2.7c1.2-.4 2.3-.8 2.8-.8zm14.9 7.1c0 2.1-1.2 3.4-4 4l-3 .6c.2 1.3 1.1 1.9 2.4 1.9 1.7 0 2.8-1.3 2.8-1.3s.9.5.9 1.4c0 1.7-2.6 3.6-5.7 3.6s-5.2-2-5.2-5.3c0-3.8 2.7-9.1 7.6-9.1 2.6.2 4.2 1.8 4.2 4.2zm-5.1 2c.6-.2.8-.7.8-1.3 0-.6-.2-1.4-.9-1.4-1.2 0-1.7 1.9-1.9 3.4l2-.7zm17.5-2c0 2.1-1.2 3.4-4 4l-3 .6c.2 1.3 1.1 1.9 2.4 1.9 1.7 0 2.8-1.3 2.8-1.3s.9.5.9 1.4c0 1.7-2.6 3.6-5.7 3.6s-5.2-2-5.2-5.3c0-3.8 2.7-9.1 7.6-9.1 2.5.2 4.2 1.8 4.2 4.2zm-5.1 2c.6-.2.8-.7.8-1.3 0-.6-.2-1.4-.9-1.4-1.2 0-1.7 1.9-1.9 3.4l2-.7zm15.2 3.1s1 1 1 2.5c0 2.1-1.8 2.7-3.3 2.7-2 0-3.4-.9-4.9-1.4-.4.5-.8 1-1.2 1.4 0 0-2.2-.1-2.2-1.6 0-1.8 3.1-5 6.4-8.5-.4-.1-.7-.1-1.1-.1-1.9 0-2.6.9-2.6.9s-1-1.1-.9-2.5c.1-2 2-2.5 3.5-2.5 1.6 0 2.7.6 3.9 1.1l.9-1.1s2.2.1 2.2 1.6c0 1.8-3 4.9-6.2 8.3.7.2 1.3.3 1.9.3 1.8 0 2.6-1.1 2.6-1.1zm14.3 4c-.8 4.8-4.1 7.3-8.3 7.3-2.7 0-4.7-1.4-4.7-3 0-1.1.9-1.6.9-1.6s.9.8 2.7.8c1.7 0 4-.7 4.4-3.3l.3-2c-1.1 1.6-2.6 3-4.5 3-2.1 0-3.1-1.7-2.5-5.3l.6-3.8c.4-2.3.5-4.3.5-4.3 1.5-.3 3.5-1 4.2-1 .5 0 1 .5 1 .5l-.8 4.8-.7 4.4c-.1.4 0 .6.4.6 1.8 0 2.8-5.1 2.8-5.1.4-2.3.5-4.3.5-4.3 1.5-.3 3.5-1 4.2-1 .5 0 1 .5 1 .5l-.8 4.8-1.2 8zm-204.7-12.3h4.8c1.1 0 1.9.1 2.5.2.8.2 1.4.6 1.9 1.2s.9 1.3 1.2 2.1c.3.8.4 1.8.4 3 0 1.1-.1 2-.4 2.7-.3.9-.8 1.7-1.4 2.3-.5.4-1.1.8-1.8 1-.6.2-1.3.3-2.3.3h-4.9v-12.8zm2.6 2.1v8.5h1.9c.7 0 1.3 0 1.6-.1.4-.1.8-.3 1.1-.5.3-.3.5-.7.7-1.2.2-.6.3-1.4.3-2.4s-.1-1.8-.3-2.3c-.2-.5-.4-.9-.7-1.2-.3-.3-.7-.5-1.2-.6-.4-.1-1.1-.1-2.1-.1h-1.3zm15.4 7.8l2.5.4c-.3.9-.8 1.6-1.5 2.1s-1.5.7-2.6.7c-1.6 0-2.8-.5-3.6-1.6-.6-.8-.9-1.9-.9-3.2 0-1.5.4-2.8 1.2-3.6.8-.9 1.8-1.3 3.1-1.3 1.4 0 2.5.5 3.3 1.4.8.9 1.2 2.3 1.2 4.2H461c0 .7.2 1.3.6 1.7.4.4.9.6 1.4.6.4 0 .7-.1 1-.3.3-.3.5-.7.6-1.1zm.1-2.5c0-.7-.2-1.3-.6-1.6-.4-.4-.8-.6-1.3-.6s-1 .2-1.3.6c-.4.4-.5.9-.5 1.6h3.7zm3.3 2.8l2.5-.4c.1.5.3.8.6 1.1.3.2.8.4 1.4.4.6 0 1.1-.1 1.4-.4.2-.2.3-.4.3-.7 0-.2-.1-.3-.2-.5-.1-.1-.4-.2-.8-.3-2-.4-3.3-.8-3.8-1.2-.7-.5-1.1-1.2-1.1-2.1 0-.8.3-1.5 1-2 .6-.6 1.6-.8 3-.8 1.3 0 2.2.2 2.8.6.6.4 1 1 1.3 1.8l-2.3.4c-.1-.4-.3-.6-.6-.8-.3-.2-.7-.3-1.2-.3-.7 0-1.1.1-1.4.3-.2.1-.3.3-.3.5s.1.3.2.4c.2.2 1 .4 2.3.7 1.3.3 2.2.7 2.8 1.1.5.4.8 1.1.8 1.8 0 .9-.4 1.6-1.1 2.2-.7.6-1.8.9-3.2.9-1.3 0-2.3-.3-3-.8-.7-.3-1.2-1-1.4-1.9zm10.5-8v-2.3h2.5v2.3h-2.5zm0 10.6v-9.3h2.5v9.3h-2.5zm4.4.7l2.8.3c0 .3.2.6.3.7.2.2.6.3 1.1.3.6 0 1.1-.1 1.5-.3.2-.1.4-.3.5-.6.1-.2.1-.6.1-1.1v-1.4c-.7 1-1.7 1.5-2.8 1.5-1.3 0-2.2-.5-3-1.6-.6-.8-.9-1.9-.9-3.1 0-1.6.4-2.8 1.1-3.6.8-.8 1.7-1.2 2.8-1.2 1.2 0 2.1.5 2.9 1.5v-1.3h2.3v8.4c0 1.1-.1 1.9-.3 2.5-.2.5-.4 1-.8 1.3-.3.3-.8.6-1.3.7-.5.2-1.2.3-2.1.3-1.6 0-2.7-.3-3.4-.8s-1-1.2-1-2.1c.2-.2.2-.3.2-.4zm2.2-5.5c0 1 .2 1.7.6 2.2.4.5.9.7 1.4.7.6 0 1.1-.2 1.5-.7.4-.5.6-1.2.6-2.1 0-1-.2-1.7-.6-2.2-.4-.5-.9-.7-1.5-.7s-1.1.2-1.5.7c-.3.4-.5 1.1-.5 2.1zm17.1 4.8h-2.5V763c0-1-.1-1.7-.2-2-.1-.3-.3-.5-.5-.7-.2-.2-.5-.2-.9-.2s-.8.1-1.2.4c-.3.2-.6.5-.7.9-.1.4-.2 1.1-.2 2.1v4.2h-2.5v-9.3h2.3v1.4c.8-1.1 1.8-1.6 3.1-1.6.5 0 1 .1 1.5.3.5.2.8.4 1 .8.2.3.4.7.5 1 .1.4.1.9.1 1.7v5.7zm7.6-2.9l2.5.4c-.3.9-.8 1.6-1.5 2.1s-1.5.7-2.6.7c-1.6 0-2.8-.5-3.6-1.6-.6-.8-.9-1.9-.9-3.2 0-1.5.4-2.8 1.2-3.6.8-.9 1.8-1.3 3.1-1.3 1.4 0 2.5.5 3.3 1.4.8.9 1.2 2.3 1.2 4.2h-6.2c0 .7.2 1.3.6 1.7.4.4.9.6 1.4.6.4 0 .7-.1 1-.3.2-.3.4-.7.5-1.1zm.1-2.5c0-.7-.2-1.3-.6-1.6-.4-.4-.8-.6-1.3-.6s-1 .2-1.3.6c-.4.4-.5.9-.5 1.6h3.7zm12.7 5.4h-2.3v-1.4c-.4.5-.8.9-1.3 1.2-.5.3-1 .4-1.6.4-1.1 0-2-.4-2.8-1.3-.8-.9-1.1-2.1-1.1-3.6 0-1.6.4-2.8 1.1-3.6.7-.8 1.7-1.2 2.8-1.2 1 0 1.9.4 2.7 1.3v-4.6h2.5v12.8zm-6.6-4.8c0 1 .1 1.7.4 2.2.4.6 1 1 1.7 1 .6 0 1.1-.2 1.5-.7.4-.5.6-1.2.6-2.2 0-1.1-.2-1.8-.6-2.3-.4-.5-.9-.7-1.5-.7s-1.1.2-1.5.7c-.4.3-.6 1-.6 2zm13.2 4.8v-12.9h2.5v4.6c.8-.9 1.7-1.3 2.7-1.3 1.1 0 2.1.4 2.8 1.2.7.8 1.1 2 1.1 3.5 0 1.6-.4 2.8-1.1 3.7-.8.9-1.7 1.3-2.8 1.3-.5 0-1.1-.1-1.6-.4-.5-.3-1-.7-1.3-1.2v1.4h-2.3zm2.5-4.8c0 1 .2 1.7.5 2.1.4.7 1 1 1.7 1 .5 0 1-.2 1.4-.7.4-.5.6-1.2.6-2.2 0-1.1-.2-1.8-.6-2.3-.4-.5-.9-.7-1.5-.7s-1.1.2-1.5.7c-.4.4-.6 1.1-.6 2.1zm7.1-4.5h2.6l2.2 6.6 2.2-6.6h2.6l-3.3 9-.6 1.6c-.2.5-.4 1-.6 1.2-.2.3-.4.5-.7.7-.3.2-.6.3-.9.4-.4.1-.8.1-1.3.1s-.9 0-1.4-.1l-.2-1.9c.4.1.7.1 1 .1.6 0 1-.2 1.3-.5.3-.3.5-.8.6-1.3l-3.5-9.3z" fill="#3c2415"/></g></svg>