<svg xmlns="http://www.w3.org/2000/svg" viewBox="0 0 1400 980" width="1400" height="980"><path d="M0 0h1400v980H0V0z" class="st0" fill="#fbd260"/><path d="M936.8 804.3V513.8H463.2v290.5z" class="st1" fill="#00559d"/><path class="st2" d="M978.6 792.1H744.8c-.3 2.3-3.6 4.1-7.5 4.1h-76.4c-3.9 0-7.2-1.8-7.5-4.1h-232v17.1h557.2v-17.1z" fill="#fff"/><path class="st3" d="M921.5 772.8V536.7c0-2-1.7-3.7-3.7-3.7H480.6c-2 0-3.7 1.7-3.7 3.7v236.2h444.6z" fill="#27daed"/><path d="M490.2 717.5h79.2v3.8h-79.2v-3.8zm0 17.8h64.5v3.8h-64.5v-3.8zm0 17.4h79.2v3.8h-79.2v-3.8zm102.4-35.2h79.2v3.8h-79.2v-3.8zm-23.2 17.8h87.7v3.8h-87.7v-3.8zm23.2 17.4h79.2v3.8h-79.2v-3.8zm216.5-37H869v4h-59.9v-4zm11.2 18.9h48.8v4h-48.8v-4zm-11.2 18.5H869v4h-59.9v-4zm73.7-37.4h25.3v4h-25.3v-4zm4.7 18.9h20.6v4h-20.6v-4zm-4.7 18.5h25.3v4h-25.3v-4zm-151.2-37.4h59.9v4h-59.9v-4zm11.2 18.9h66.4v4h-66.4v-4zm-11.2 18.5h59.9v4h-59.9v-4z" class="st2" fill="#fff"/><path d="M490.1 564.8h72.5v51.9h-72.5v-51.9z" class="st1" fill="#00559d"/><path d="M664.9 646.5h70v51.9h-70v-51.9z" class="st4" fill="#c53b37"/><path d="M490.1 646.5h158v51.9h-158v-51.9z" class="st5" fill="#2c9d33"/><path d="M751.9 646.5h158v51.9h-158v-51.9z" class="st1" fill="#00559d"/><path d="M837.4 564.8h72.5v51.9h-72.5v-51.9z" class="st5" fill="#2c9d33"/><path d="M581 564.8h238.1v51.9H581v-51.9z" class="st4" fill="#c53b37"/><g class="st6" opacity=".2"><path d="M463.2 513.8v265.4L823 513.8z" class="st2" fill="#fff"/></g><path class="st7" d="M659.5 358.1h-4.6c-4.4 0-7.9-3.6-7.9-8l.1-10c0-2.9-2.3-5.3-5.3-5.4l-58.3-.5c-2.9 0-5.3 2.3-5.4 5.3l-.1 10c0 4.4-3.6 7.9-8 7.9l-43.5-.4c-3.5 0-6.4 2.8-6.5 6.3l-.7 73.8c0 3.5 2.8 6.4 6.3 6.5l132.9 1.2c3.5 0 6.4-2.8 6.5-6.3l.7-73.8c.2-3.7-2.7-6.6-6.2-6.6z" fill="#193668"/><path class="st8" d="M637.5 340.6l-49.6-.4c-2.2 0-4 1.8-4.1 4l-.1 9c0 2.2 1.8 4 4 4.1l49.6.4c2.2 0 4-1.8 4.1-4l.1-9c0-2.2-1.8-4-4-4.1z" fill="#010f34"/><path class="st2" d="M635.2 343.6l-45.2-.4c-1.2 0-2.3 1-2.3 2.2v5c0 1.2 1 2.3 2.2 2.3l45.2.4c1.2 0 2.3-1 2.3-2.2v-5c.1-1.3-.9-2.3-2.2-2.3z" fill="#fff"/><path class="st9" d="M523.9 443.4l28.6.3c2.5 0 4.5-2 4.6-4.5l.7-79.9c0-2.5-2-4.5-4.5-4.6l-28.6-.3c-2.5 0-4.5 2-4.6 4.5l-.7 79.9c0 2.6 2 4.6 4.5 4.6z" fill="#0b2550"/><path class="st8" d="M553.3 354.7h-4.7l-.8 89h4.7c2.5 0 4.6-2 4.6-4.4l.7-80.1c.1-2.5-2-4.5-4.5-4.5zm93.8 46.6a35 35 0 0 1-35 35 35 35 0 0 1-35-35 35 35 0 0 1 35-35 35 35 0 0 1 35 35z" fill="#010f34"/><path class="st7" d="M579.5 401c-.2 17.8 14 32.4 31.8 32.8l.6-65.1c-17.8.2-32.2 14.5-32.4 32.3z" fill="#193668"/><path class="st10" d="M612.4 368.8h-.5l-.6 65.1h.5c18 .2 32.7-14.3 32.8-32.3.2-18-14.2-32.7-32.2-32.8z" fill="#162c59"/><path class="st9" d="M583.7 401.1c-.1 15.5 12.2 28.2 27.7 28.6l.5-56.8c-15.5.2-28.1 12.7-28.2 28.2z" fill="#0b2550"/><path class="st8" d="M612.3 372.9h-.5l-.5 56.8h.5c15.7.1 28.5-12.5 28.7-28.1.1-15.7-12.5-28.5-28.2-28.7z" fill="#010f34"/><path d="M633.4 401.3a21.3 21.3 0 0 1-21.3 21.3 21.3 21.3 0 0 1-21.3-21.3 21.3 21.3 0 0 1 21.3-21.3 21.3 21.3 0 0 1 21.3 21.3z" class="st8" fill="#010f34"/><path class="st2" d="M618.1 389.8c-.4.2-.9.2-1.3 0-4-2.2-8.9-2-12.7.5-.7.4-1.6.2-2-.4-.4-.7-.2-1.6.4-2 4.7-3.1 10.7-3.3 15.7-.6.7.4 1 1.3.6 2-.1.2-.4.4-.7.5zM601 411.1c-.6.3-1.3.1-1.7-.4-4.1-4.8-4.9-11.8-1.8-17.3.2-.3.3-.6.5-.8.4-.7 1.3-.9 2-.5s.9 1.3.5 2c-.1.2-.3.4-.4.7-2.5 4.5-1.9 10.2 1.5 14.1.5.6.5 1.5-.2 2-.2 0-.3.1-.4.2zm3.9 3.1c-.4.2-.9.2-1.3 0s-.5-.3-.5-.3c-.7-.5-.8-1.4-.4-2 .5-.7 1.3-.8 2-.4 0 0 .1.1.3.2.7.4 1 1.3.6 2-.2.2-.4.4-.7.5z" fill="#fff"/><path class="st11" d="M545.6 348.3l-13.1-.1c-.9 0-1.7.7-1.7 1.6v4.7l16.4.1v-4.7c.1-.8-.7-1.6-1.6-1.6z" fill="#292d38"/><path class="st2" d="M547.3 350c0-.9-.7-1.7-1.6-1.7l-13.1-.1c-.9 0-1.7.7-1.7 1.6v4.7l16.4.1V350zm28.5 23.5l-7.9-.1c-2.2 0-4-1.8-3.9-4v-2.5c0-2.2 1.8-4 4-3.9l7.9.1c2.2 0 4 1.8 3.9 4v2.5c0 2.1-1.8 3.9-4 3.9z" fill="#fff"/><path class="st4" d="M379.8 328h-19.3c-7.2 0-13-5.8-13-13h45.3c0 7.2-5.8 13-13 13zm-21.6 31.3h24c8.9 0 16.2 7.2 16.2 16.2H342c0-8.9 7.3-16.2 16.2-16.2z" fill="#c53b37"/><path d="M385.2 360.9h-30.9l4-35.2h23.3z" class="st4" fill="#c53b37"/><path d="M369.1 422.6h2.2l2.1-47.1H367z" class="st2" fill="#fff"/><path class="st12" d="M302.1 604.8H180.4c-2.6 0-4.7-2.1-4.7-4.7V457.9H302v146.9z" fill="#147232"/><path d="M179.4 453.6h119.3v147H179.4v-147z" class="st2" fill="#fff"/><path class="st5" d="M302.1 594.3H175.8V451.5c0-2.3 1.9-4.1 4.1-4.1h122.2v146.9z" fill="#2c9d33"/><path d="M201 490h79v17.5h-79V490zm0 28.4h79v2.4h-79v-2.4zm0 6.3h79v2.4h-79v-2.4zm0 6.3h40.5v2.4H201V531z" class="st12" fill="#147232"/><path d="M201 618.7l-6.5-3.8-6.4 3.8v-22.6H201z" class="st4" fill="#c53b37"/><path d="M1042.5 353.8h128.7v143.7h-128.7V353.8z" class="st2" fill="#fff"/><path d="M1100.3 382.2h36.5v2.2h-36.5v-2.2zm6.8 10.5h29.7v2.2h-29.7v-2.2zm-6.8 10.2h36.5v2.2h-36.5v-2.2zm44.9-20.7h15.4v2.2h-15.4v-2.2zm2.9 10.5h12.5v2.2h-12.5v-2.2zm-2.9 10.2h15.4v2.2h-15.4v-2.2zm-92.1-20.7h36.5v2.2h-36.5v-2.2zm6.8 10.5h40.4v2.2h-40.4v-2.2zm-6.8 10.2h36.5v2.2h-36.5v-2.2zm23.8 15.4h36.5v2.2h-36.5v-2.2zm0 10.4h29.7v2.2h-29.7v-2.2zm0 10.2h36.5v2.2h-36.5v-2.2zm-23.8-20.6h15.4v2.2h-15.4v-2.2zm0 10.4h12.5v2.2h-12.5v-2.2zm0 10.2h15.4v2.2h-15.4v-2.2zm71-20.6h36.5v2.2h-36.5v-2.2zm-10.7 10.4h40.4v2.2h-40.4v-2.2zm10.7 10.2h36.5v2.2h-36.5v-2.2z" class="st5" fill="#2c9d33"/><path d="M1181.2 512.8h-142.7V346.6h32.6l110.1 133.6z" class="st4" fill="#c53b37"/><path d="M1065.2 472.2h89.2V492h-89.2v-19.8z" class="st13" fill="#781d17"/><path d="M739.2 268.9h114.1v128.6H739.2V268.9z" class="st2" fill="#fff"/><path d="M796.2 311.1h11.7v8.6h-11.7v-8.6zm16.6 0h11.7v8.6h-11.7v-8.6zm16.7 0h11.7v8.6h-11.7v-8.6zM796.2 323h11.7v8.6h-11.7V323zm16.6 0h11.7v8.6h-11.7V323zm16.7 0h11.7v8.6h-11.7V323zm-33.3 11.9h11.7v8.6h-11.7v-8.6zm16.6 0h11.7v8.6h-11.7v-8.6zm16.7 0h11.7v8.6h-11.7v-8.6zm-33.3 11.8h11.7v8.6h-11.7v-8.6zm16.6 0h11.7v8.6h-11.7v-8.6zm16.7 0h11.7v8.6h-11.7v-8.6zm-24 26h-6.9c-1.3 0-2.4-1.1-2.4-2.4 0-1.3 1.1-2.4 2.4-2.4h6.9c1.3 0 2.4 1.1 2.4 2.4 0 1.3-1.1 2.4-2.4 2.4zm16.6 0h-6.9c-1.3 0-2.4-1.1-2.4-2.4 0-1.3 1.1-2.4 2.4-2.4h6.9c1.3 0 2.4 1.1 2.4 2.4 0 1.3-1 2.4-2.4 2.4zm16.7 0h-6.9c-1.3 0-2.4-1.1-2.4-2.4 0-1.3 1.1-2.4 2.4-2.4h6.9c1.3 0 2.4 1.1 2.4 2.4 0 1.3-1.1 2.4-2.4 2.4zm-42.6-88.3h45v13h-45v-13zm-47.6 8h38.9v82.8h-38.9v-82.8zm-2.2 82.8h43.2v36.5h-43.2v-36.5z" class="st1" fill="#00559d"/><path d="M746.4 256.6h43.2v35.8h-43.2v-35.8z" class="st1" fill="#00559d"/><path d="M222.4 724.2l-2.4-8.3-6.5-.1v8.4z" class="st4" fill="#c53b37"/><path d="M183.2 736.2v-16.3l-90-.2-.1 18.9z" class="st14" fill="#9b2d27"/><path d="M183.3 703.7L93.2 702v17.7l90 .2z" class="st4" fill="#c53b37"/><path d="M213.5 715.2l-10.4-.1-13.5-11.3-6.3-.1-.1 16.2 30.3.1z" class="st14" fill="#9b2d27"/><path d="M189.5 736.2l13.5-11.3h10.5V720l-30.3-.1v16.3z" class="st15" fill="#791f18"/><path d="M282.992 720.266l-.03 16.1-45.7-.087.03-16.1 45.7.087z" class="st4" fill="#c53b37"/><path d="M237.316 703.558l45.7.087-.031 16.6-45.7-.087.031-16.6z" class="st14" fill="#9b2d27"/><path class="st16" d="M1197.4 781.8l-18.9-8.1c2.1-5.9 3.3-12.2 3.3-18.8 0-30.7-24.9-55.5-55.5-55.5-30.7 0-55.5 24.9-55.5 55.5 0 30.7 24.9 55.5 55.5 55.5 20.1 0 37.8-10.7 47.5-26.8l19.3 8.2c2.8 1.2 6-.1 7.2-2.9 1.2-2.6-.1-5.9-2.9-7.1z" fill="#dedfe0"/><path d="M1200.7 751.7a76.8 76.8 0 0 1-76.8 76.8 76.8 76.8 0 0 1-76.8-76.8 76.8 76.8 0 0 1 76.8-76.8 76.8 76.8 0 0 1 76.8 76.8z" class="st16" fill="#dedfe0"/><path d="M1196 744.9a76.8 76.8 0 0 1-76.8 76.8 76.8 76.8 0 0 1-76.8-76.8 76.8 76.8 0 0 1 76.8-76.8 76.8 76.8 0 0 1 76.8 76.8z" class="st17" fill="#0084c0"/><path d="M1197.2 747a76.8 76.8 0 0 1-76.8 76.8 76.8 76.8 0 0 1-76.8-76.8 76.8 76.8 0 0 1 76.8-76.8 76.8 76.8 0 0 1 76.8 76.8z" class="st1" fill="#00559d"/><path d="M1174.7 744.9a55.5 55.5 0 0 1-55.5 55.5 55.5 55.5 0 0 1-55.5-55.5 55.5 55.5 0 0 1 55.5-55.5 55.5 55.5 0 0 1 55.5 55.5z" class="st3" fill="#27daed"/><path class="st18" d="M1148.9 697.9c13.7 10.1 22.6 26.4 22.6 44.7 0 30.7-24.9 55.5-55.5 55.5-10.9 0-21.1-3.2-29.6-8.6 9.2 6.8 20.6 10.8 32.9 10.8 30.7 0 55.5-24.9 55.5-55.5 0-19.7-10.4-37.1-25.9-46.9z" fill="#419cad"/><path d="M1165.3 744.9a46.1 46.1 0 0 1-46.1 46.1 46.1 46.1 0 0 1-46.1-46.1 46.1 46.1 0 0 1 46.1-46.1 46.1 46.1 0 0 1 46.1 46.1z" class="st19" fill="#643e2d"/><path class="st20" d="M1083.5 755.2c0-25.5 20.7-46.1 46.1-46.1 10.1 0 19.4 3.2 27 8.8-8.4-11.6-22-19.1-37.4-19.1-25.5 0-46.1 20.7-46.1 46.1 0 15.4 7.5 29 19.1 37.4-5.5-7.7-8.7-17-8.7-27.1z" fill="#b8babc"/><path class="st18" d="M1193.3 779c-1.2 2.8-4.5 4.1-7.2 2.9l-19.3-8.3c-2.8-1.2-4.1-4.5-2.9-7.2 1.2-2.8 4.5-4.1 7.2-2.9l19.3 8.3c2.8 1.2 4.1 4.4 2.9 7.2z" fill="#419cad"/><path class="st2" d="M733.8 848.1h1.8v12.3h5.9v1.5h-7.6v-13.8zm18.2 8.8c0 3.7-2.5 5.2-4.9 5.2-2.7 0-4.7-2-4.7-5.1 0-3.3 2.2-5.2 4.9-5.2s4.7 2 4.7 5.1zm-7.9.1c0 2.2 1.2 3.8 3 3.8 1.7 0 3-1.6 3-3.8 0-1.7-.8-3.8-3-3.8-2-.1-3 1.9-3 3.8zm10.1-1.9c0-1.2 0-2.2-.1-3.1h1.6l.1 1.9h.1c.4-1.3 1.5-2.2 2.7-2.2.2 0 .3 0 .5.1v1.7c-.2 0-.4-.1-.6-.1-1.3 0-2.2 1-2.4 2.3 0 .2-.1.5-.1.8v5.3h-1.8v-6.7zm7.5 2.2c0 2.4 1.6 3.4 3.4 3.4 1.3 0 2.1-.2 2.7-.5l.3 1.3c-.6.3-1.7.6-3.3.6-3 0-4.9-2-4.9-5s1.8-5.3 4.6-5.3c3.2 0 4.1 2.8 4.1 4.6 0 .4 0 .7-.1.8h-6.8zm5.3-1.3c0-1.1-.5-2.9-2.5-2.9-1.8 0-2.6 1.7-2.8 2.9h5.3zm3.9-1.3c0-1 0-1.9-.1-2.7h1.6l.1 1.6h.1c.6-.9 1.5-1.8 3.1-1.8 1.3 0 2.4.8 2.8 2 .3-.5.7-1 1.1-1.3.6-.4 1.2-.7 2.2-.7 1.3 0 3.2.9 3.2 4.3v5.8h-1.8v-5.6c0-1.9-.7-3-2.1-3-1 0-1.8.8-2.1 1.6-.1.2-.1.6-.1.9v6.1h-1.8V856c0-1.6-.7-2.7-2.1-2.7-1.1 0-1.9.9-2.2 1.8-.1.3-.1.6-.1.9v6h-1.8v-7.3zm23.3-5.5c0 .6-.4 1.1-1.1 1.1-.6 0-1.1-.5-1.1-1.1 0-.6.5-1.1 1.1-1.1.7 0 1.1.5 1.1 1.1zm-2 12.7V852h1.8v9.9h-1.8zm4.8-6.7c0-1.3 0-2.3-.1-3.2h1.6l.1 1.7c.7-1.2 1.9-1.9 3.5-1.9 2.4 0 4.2 2 4.2 5 0 3.5-2.2 5.3-4.5 5.3-1.3 0-2.4-.6-3-1.5v5.4H797v-10.8zm1.8 2.7c0 .3 0 .5.1.7.3 1.2 1.4 2.1 2.7 2.1 1.9 0 3-1.5 3-3.8 0-2-1-3.7-2.9-3.7-1.2 0-2.4.9-2.7 2.2-.1.2-.1.5-.1.7v1.8zm9.6 2.1c.5.3 1.5.7 2.4.7 1.3 0 1.9-.7 1.9-1.5 0-.9-.5-1.3-1.8-1.8-1.8-.6-2.6-1.6-2.6-2.8 0-1.6 1.3-2.9 3.4-2.9 1 0 1.9.3 2.4.6l-.4 1.3c-.4-.2-1.1-.6-2-.6-1.1 0-1.7.6-1.7 1.3 0 .8.6 1.2 1.9 1.7 1.7.7 2.6 1.5 2.6 3 0 1.7-1.3 3-3.7 3-1.1 0-2.1-.3-2.8-.7l.4-1.3zm16.6-.8c0 1 0 1.9.1 2.7h-1.6l-.1-1.6c-.5.8-1.5 1.8-3.3 1.8-1.5 0-3.4-.9-3.4-4.3V852h1.8v5.5c0 1.9.6 3.1 2.2 3.1 1.2 0 2-.8 2.4-1.6.1-.3.2-.6.2-.9V852h1.8v7.2zm2.9-4.5c0-1 0-1.9-.1-2.7h1.6l.1 1.6h.1c.5-.9 1.5-1.8 3.1-1.8 1.3 0 2.4.8 2.8 2 .3-.5.7-1 1.1-1.3.6-.4 1.2-.7 2.2-.7 1.3 0 3.2.9 3.2 4.3v5.8h-1.8v-5.6c0-1.9-.7-3-2.1-3-1 0-1.8.8-2.1 1.6-.1.2-.1.6-.1.9v6.1h-1.8V856c0-1.6-.7-2.7-2.1-2.7-1.1 0-1.9.9-2.2 1.8-.1.3-.1.6-.1.9v6h-1.8v-7.3zm29.9-7.3v11.9c0 .9 0 1.9.1 2.5h-1.6l-.1-1.7c-.6 1.1-1.8 1.9-3.4 1.9-2.4 0-4.2-2-4.2-5 0-3.3 2-5.3 4.4-5.3 1.5 0 2.5.7 3 1.5v-5.9h1.8zM856 856c0-.2 0-.5-.1-.8-.3-1.1-1.2-2.1-2.6-2.1-1.9 0-3 1.6-3 3.8 0 2 1 3.7 2.9 3.7 1.2 0 2.3-.8 2.6-2.1.1-.2.1-.5.1-.8V856zm13.7.9c0 3.7-2.5 5.2-4.9 5.2-2.7 0-4.7-2-4.7-5.1 0-3.3 2.2-5.2 4.9-5.2 2.8 0 4.7 2 4.7 5.1zm-7.8.1c0 2.2 1.2 3.8 3 3.8 1.7 0 3-1.6 3-3.8 0-1.7-.8-3.8-3-3.8-2.1-.1-3 1.9-3 3.8zm10.1-9.6h1.8v14.5H872v-14.5zm13.7 9.5c0 3.7-2.5 5.2-4.9 5.2-2.7 0-4.7-2-4.7-5.1 0-3.3 2.2-5.2 4.9-5.2 2.8 0 4.7 2 4.7 5.1zm-7.8.1c0 2.2 1.2 3.8 3 3.8 1.7 0 3-1.6 3-3.8 0-1.7-.8-3.8-3-3.8-2.1-.1-3 1.9-3 3.8zm10.1-1.9c0-1.2 0-2.2-.1-3.1h1.6l.1 1.9h.1c.4-1.3 1.5-2.2 2.7-2.2.2 0 .3 0 .5.1v1.7c-.2 0-.4-.1-.6-.1-1.3 0-2.2 1-2.4 2.3 0 .2-.1.5-.1.8v5.3H888v-6.7zm10.7 4.9c.5.3 1.5.7 2.4.7 1.3 0 1.9-.7 1.9-1.5 0-.9-.5-1.3-1.8-1.8-1.8-.6-2.6-1.6-2.6-2.8 0-1.6 1.3-2.9 3.4-2.9 1 0 1.9.3 2.4.6l-.4 1.3c-.4-.2-1.1-.6-2-.6-1.1 0-1.7.6-1.7 1.3 0 .8.6 1.2 1.9 1.7 1.7.7 2.6 1.5 2.6 3 0 1.7-1.3 3-3.7 3-1.1 0-2.1-.3-2.8-.7l.4-1.3zm10.4-10.8c0 .6-.4 1.1-1.1 1.1-.6 0-1.1-.5-1.1-1.1 0-.6.5-1.1 1.1-1.1.6 0 1.1.5 1.1 1.1zm-2 12.7V852h1.8v9.9h-1.8zm6.9-12.7v2.8h2.6v1.4H914v5.3c0 1.2.3 1.9 1.3 1.9.5 0 .8-.1 1-.1l.1 1.3c-.3.1-.9.2-1.6.2-.8 0-1.5-.3-1.9-.8-.5-.5-.7-1.4-.7-2.6v-5.4h-1.5V852h1.5v-2.4l1.8-.4zm14.4 12.7l-.1-1.2h-.1c-.6.8-1.6 1.5-3 1.5-2 0-3-1.4-3-2.8 0-2.4 2.1-3.7 5.9-3.7v-.2c0-.8-.2-2.3-2.2-2.3-.9 0-1.9.3-2.6.7l-.4-1.2c.8-.5 2-.9 3.2-.9 3 0 3.8 2.1 3.8 4v3.7c0 .9 0 1.7.2 2.4h-1.7zm-.3-5.1c-2 0-4.2.3-4.2 2.2 0 1.2.8 1.7 1.7 1.7 1.3 0 2.1-.8 2.4-1.7.1-.2.1-.4.1-.6v-1.6zm4.6-2.1c0-1 0-1.9-.1-2.7h1.6l.1 1.6h.1c.6-.9 1.5-1.8 3.1-1.8 1.3 0 2.4.8 2.8 2 .3-.5.7-1 1.1-1.3.6-.4 1.2-.7 2.2-.7 1.3 0 3.2.9 3.2 4.3v5.8H945v-5.6c0-1.9-.7-3-2.1-3-1 0-1.8.8-2.1 1.6-.1.2-.1.6-.1.9v6.1h-1.8V856c0-1.6-.7-2.7-2.1-2.7-1.1 0-1.9.9-2.2 1.8-.1.3-.1.6-.1.9v6h-1.8v-7.3zm18 2.6c0 2.4 1.6 3.4 3.4 3.4 1.3 0 2.1-.2 2.7-.5l.3 1.3c-.6.3-1.7.6-3.3.6-3 0-4.9-2-4.9-5s1.8-5.3 4.6-5.3c3.2 0 4.1 2.8 4.1 4.6 0 .4 0 .7-.1.8h-6.8zm5.3-1.3c0-1.1-.5-2.9-2.5-2.9-1.8 0-2.6 1.7-2.8 2.9h5.3zm6.1-6.8v2.8h2.6v1.4h-2.6v5.3c0 1.2.3 1.9 1.3 1.9.5 0 .8-.1 1-.1l.1 1.3c-.3.1-.9.2-1.6.2-.8 0-1.5-.3-1.9-.8-.5-.5-.7-1.4-.7-2.6v-5.4h-1.5V852h1.5v-2.4l1.8-.4zm-227.4 32.5c0 2.4 1.6 3.4 3.4 3.4 1.3 0 2.1-.2 2.7-.5l.3 1.3c-.6.3-1.7.6-3.3.6-3 0-4.9-2-4.9-5s1.8-5.3 4.6-5.3c3.2 0 4.1 2.8 4.1 4.6 0 .4 0 .7-.1.8h-6.8zm5.3-1.2c0-1.1-.5-2.9-2.5-2.9-1.8 0-2.6 1.7-2.8 2.9h5.3zm12.2 3.2c0 1 0 1.9.1 2.7h-1.6l-.1-1.6c-.5.8-1.5 1.8-3.3 1.8-1.5 0-3.4-.9-3.4-4.3v-5.8h1.8v5.5c0 1.9.6 3.1 2.2 3.1 1.2 0 2-.8 2.4-1.6.1-.3.2-.6.2-.9v-6.1h1.8v7.2zm16.2-2.4c0 3.7-2.5 5.2-4.9 5.2-2.7 0-4.7-2-4.7-5.1 0-3.3 2.2-5.2 4.9-5.2 2.8.1 4.7 2.1 4.7 5.1zm-7.8.1c0 2.2 1.2 3.8 3 3.8 1.7 0 3-1.6 3-3.8 0-1.7-.8-3.8-3-3.8-2.1 0-3 2-3 3.8zm10.1-1.7c0-1.3 0-2.3-.1-3.2h1.6l.1 1.7c.7-1.2 1.9-1.9 3.5-1.9 2.4 0 4.2 2 4.2 5 0 3.5-2.2 5.3-4.5 5.3-1.3 0-2.4-.6-3-1.6v5.4h-1.8v-10.7zm1.7 2.6c0 .3 0 .5.1.7.3 1.2 1.4 2.1 2.7 2.1 1.9 0 3-1.5 3-3.8 0-2-1-3.7-2.9-3.7-1.2 0-2.4.9-2.7 2.2-.1.2-.1.5-.1.7v1.8zm12-8.7v2.8h2.6v1.4h-2.6v5.3c0 1.2.3 1.9 1.3 1.9.5 0 .8-.1 1-.1l.1 1.3c-.3.1-.9.2-1.6.2-.8 0-1.5-.3-1.9-.8-.5-.5-.7-1.4-.7-2.6v-5.4h-1.5v-1.4h1.5v-2.4l1.8-.2zm6.6.1c0 .6-.4 1.1-1.1 1.1-.6 0-1.1-.5-1.1-1.1 0-.6.5-1.1 1.1-1.1.7 0 1.1.5 1.1 1.1zm-2 12.6v-9.9h1.8v9.9H789zm13.7-5c0 3.7-2.5 5.2-4.9 5.2-2.7 0-4.7-2-4.7-5.1 0-3.3 2.2-5.2 4.9-5.2 2.8.1 4.7 2.1 4.7 5.1zm-7.8.1c0 2.2 1.2 3.8 3 3.8 1.7 0 3-1.6 3-3.8 0-1.7-.8-3.8-3-3.8-2.1 0-3 2-3 3.8zm10.1-2.3c0-1 0-1.9-.1-2.7h1.6l.1 1.6c.5-.9 1.6-1.9 3.3-1.9 1.4 0 3.5.8 3.5 4.2v5.9h-1.8v-5.7c0-1.6-.6-2.9-2.3-2.9-1.2 0-2.1.8-2.4 1.8-.1.2-.1.5-.1.8v5.9H805v-7zm15.4 5.4c.5.3 1.5.7 2.4.7 1.3 0 1.9-.7 1.9-1.5 0-.9-.5-1.3-1.8-1.8-1.8-.6-2.6-1.6-2.6-2.8 0-1.6 1.3-2.9 3.4-2.9 1 0 1.9.3 2.4.6l-.4 1.3c-.4-.2-1.1-.6-2-.6-1.1 0-1.7.6-1.7 1.3 0 .8.6 1.2 1.9 1.7 1.7.7 2.6 1.5 2.6 3 0 1.7-1.3 3-3.7 3-1.1 0-2.1-.3-2.8-.7l.4-1.3zm9.3-2.8c0 2.4 1.6 3.4 3.4 3.4 1.3 0 2.1-.2 2.7-.5l.3 1.3c-.6.3-1.7.6-3.3.6-3 0-4.9-2-4.9-5s1.8-5.3 4.6-5.3c3.2 0 4.1 2.8 4.1 4.6 0 .4 0 .7-.1.8h-6.8zm5.3-1.2c0-1.1-.5-2.9-2.5-2.9-1.8 0-2.6 1.7-2.8 2.9h5.3zm3.9-1.4c0-1 0-1.9-.1-2.7h1.6l.1 1.6c.5-.9 1.6-1.9 3.3-1.9 1.4 0 3.5.8 3.5 4.2v5.9h-1.8v-5.7c0-1.6-.6-2.9-2.3-2.9-1.2 0-2.1.8-2.4 1.8-.1.2-.1.5-.1.8v5.9h-1.8v-7zm11.1 5.4c.5.3 1.5.7 2.4.7 1.3 0 1.9-.7 1.9-1.5 0-.9-.5-1.3-1.8-1.8-1.8-.6-2.6-1.6-2.6-2.8 0-1.6 1.3-2.9 3.4-2.9 1 0 1.9.3 2.4.6l-.4 1.3c-.4-.2-1.1-.6-2-.6-1.1 0-1.7.6-1.7 1.3 0 .8.6 1.2 1.9 1.7 1.7.7 2.6 1.5 2.6 3 0 1.7-1.3 3-3.7 3-1.1 0-2.1-.3-2.8-.7l.4-1.3zm10.3-10.8c0 .6-.4 1.1-1.1 1.1-.6 0-1.1-.5-1.1-1.1 0-.6.5-1.1 1.1-1.1.7 0 1.1.5 1.1 1.1zm-2 12.6v-9.9h1.8v9.9h-1.8zm4.7 0c0-.7.1-1.7.1-2.5v-11.9h1.8v6.2c.6-1.1 1.8-1.8 3.4-1.8 2.4 0 4.2 2 4.2 5 0 3.5-2.2 5.3-4.4 5.3-1.4 0-2.6-.6-3.3-1.9h-.1l-.1 1.6H863zm1.9-3.9c0 .2 0 .4.1.7.3 1.2 1.4 2.1 2.7 2.1 1.9 0 3-1.5 3-3.8 0-2-1-3.7-2.9-3.7-1.2 0-2.4.8-2.7 2.2 0 .2-.1.4-.1.7v1.8zm18.1 1.3c0 1 0 1.9.1 2.7h-1.6l-.1-1.6c-.5.8-1.5 1.8-3.3 1.8-1.5 0-3.4-.9-3.4-4.3v-5.8h1.8v5.5c0 1.9.6 3.1 2.2 3.1 1.2 0 2-.8 2.4-1.6.1-.3.2-.6.2-.9v-6.1h1.8v7.2zm2.7.8c.5.3 1.5.7 2.4.7 1.3 0 1.9-.7 1.9-1.5 0-.9-.5-1.3-1.8-1.8-1.8-.6-2.6-1.6-2.6-2.8 0-1.6 1.3-2.9 3.4-2.9 1 0 1.9.3 2.4.6l-.4 1.3c-.4-.2-1.1-.6-2-.6-1.1 0-1.7.6-1.7 1.3 0 .8.6 1.2 1.9 1.7 1.7.7 2.6 1.5 2.6 3 0 1.7-1.3 3-3.7 3-1.1 0-2.1-.3-2.8-.7l.4-1.3zm12.6-5.4c0-1 0-1.9-.1-2.7h1.6l.1 1.6h.1c.6-.9 1.5-1.8 3.1-1.8 1.3 0 2.4.8 2.8 2 .3-.6.7-1 1.1-1.3.6-.4 1.2-.7 2.2-.7 1.3 0 3.2.9 3.2 4.3v5.8h-1.8v-5.6c0-1.9-.7-3-2.1-3-1 0-1.8.8-2.1 1.6-.1.2-.1.6-.1.9v6.1h-1.8v-5.9c0-1.6-.7-2.7-2.1-2.7-1.1 0-1.9.9-2.2 1.8-.1.3-.1.6-.1.9v6h-1.8v-7.3zm18.1 2.6c0 2.4 1.6 3.4 3.4 3.4 1.3 0 2.1-.2 2.7-.5l.3 1.3c-.6.3-1.7.6-3.3.6-3 0-4.9-2-4.9-5s1.8-5.3 4.6-5.3c3.2 0 4.1 2.8 4.1 4.6 0 .4 0 .7-.1.8h-6.8zm5.2-1.2c0-1.1-.5-2.9-2.5-2.9-1.8 0-2.6 1.7-2.8 2.9h5.3zm4-8.6h1.8v14.5h-1.8v-14.5zm10.3 14.4l-.1-1.2h-.1c-.5.8-1.6 1.5-3 1.5-2 0-3-1.4-3-2.8 0-2.4 2.1-3.7 5.9-3.7v-.2c0-.8-.2-2.3-2.2-2.3-.9 0-1.9.3-2.6.7l-.4-1.2c.8-.5 2-.9 3.2-.9 3 0 3.8 2.1 3.8 4v3.7c0 .9 0 1.7.2 2.4h-1.7zm-.3-5c-2 0-4.2.3-4.2 2.2 0 1.2.8 1.7 1.7 1.7 1.3 0 2.1-.8 2.4-1.7.1-.2.1-.4.1-.6v-1.6zm13.1-9.4v11.9c0 .9 0 1.9.1 2.5h-1.6l-.1-1.7c-.6 1.1-1.8 1.9-3.4 1.9-2.4 0-4.2-2-4.2-5 0-3.3 2-5.3 4.4-5.3 1.5 0 2.5.7 3 1.5v-5.9h1.8zm-1.8 8.6c0-.2 0-.5-.1-.8-.3-1.1-1.2-2.1-2.6-2.1-1.9 0-3 1.6-3 3.8 0 2 1 3.7 2.9 3.7 1.2 0 2.3-.8 2.6-2.1.1-.2.1-.5.1-.8v-1.7zm10.3 5.8l-.1-1.2h-.1c-.5.8-1.6 1.5-3 1.5-2 0-3-1.4-3-2.8 0-2.4 2.1-3.7 5.9-3.7v-.2c0-.8-.2-2.3-2.2-2.3-.9 0-1.9.3-2.6.7l-.4-1.2c.8-.5 2-.9 3.2-.9 3 0 3.8 2.1 3.8 4v3.7c0 .9 0 1.7.2 2.4h-1.7zm-.3-5c-2 0-4.2.3-4.2 2.2 0 1.2.8 1.7 1.7 1.7 1.3 0 2.1-.8 2.4-1.7.1-.2.1-.4.1-.6v-1.6zm5.7.4c0 2.4 1.6 3.4 3.4 3.4 1.3 0 2.1-.2 2.7-.5l.3 1.3c-.6.3-1.7.6-3.3.6-3 0-4.9-2-4.9-5s1.8-5.3 4.6-5.3c3.2 0 4.1 2.8 4.1 4.6 0 .4 0 .7-.1.8h-6.8zm5.2-1.2c0-1.1-.5-2.9-2.5-2.9-1.8 0-2.6 1.7-2.8 2.9h5.3zm-228.6 30.3l-.1-1.2h-.1c-.6.8-1.6 1.5-3 1.5-2 0-3-1.4-3-2.8 0-2.4 2.1-3.7 5.9-3.7v-.2c0-.8-.2-2.3-2.2-2.3-.9 0-1.9.3-2.6.7l-.4-1.2c.8-.5 2-.9 3.2-.9 3 0 3.8 2.1 3.8 4v3.7c0 .9 0 1.7.2 2.4h-1.7zm-.3-5c-2 0-4.2.3-4.2 2.2 0 1.2.8 1.7 1.7 1.7 1.3 0 2.1-.8 2.4-1.7.1-.2.1-.4.1-.6v-1.6zm4.6-1.6c0-1.3 0-2.3-.1-3.2h1.6l.1 1.7c.7-1.2 1.9-1.9 3.5-1.9 2.4 0 4.2 2 4.2 5 0 3.5-2.2 5.3-4.5 5.3-1.3 0-2.4-.6-3-1.5v5.4h-1.8v-10.8zm1.8 2.6c0 .3 0 .5.1.7.3 1.2 1.4 2.1 2.7 2.1 1.9 0 3-1.5 3-3.8 0-2-1-3.7-2.9-3.7-1.2 0-2.4.9-2.7 2.2-.1.2-.1.5-.1.7v1.8zm10.8-.6c0 2.4 1.6 3.4 3.4 3.4 1.3 0 2.1-.2 2.7-.5l.3 1.3c-.6.3-1.7.6-3.3.6-3 0-4.9-2-4.9-5s1.8-5.3 4.6-5.3c3.2 0 4.1 2.8 4.1 4.6 0 .4 0 .7-.1.8h-6.8zm5.3-1.3c0-1.1-.5-2.9-2.5-2.9-1.8 0-2.6 1.7-2.8 2.9h5.3zm3.9-.9c0-1.2 0-2.2-.1-3.1h1.6l.1 1.9h.1c.4-1.3 1.5-2.2 2.7-2.2.2 0 .3 0 .5.1v1.7c-.2 0-.4-.1-.6-.1-1.3 0-2.2 1-2.4 2.3 0 .2-.1.5-.1.8v5.3h-1.8V904zm8.8-5.8c0 .6-.4 1.1-1.1 1.1-.6 0-1.1-.5-1.1-1.1 0-.6.5-1.1 1.1-1.1.7 0 1.1.4 1.1 1.1zm-2 12.6V901h1.8v9.9h-1.8zm10.2 0l-.1-1.2h-.1c-.6.8-1.6 1.5-3 1.5-2 0-3-1.4-3-2.8 0-2.4 2.1-3.7 5.9-3.7v-.2c0-.8-.2-2.3-2.2-2.3-.9 0-1.9.3-2.6.7l-.4-1.2c.8-.5 2-.9 3.2-.9 3 0 3.8 2.1 3.8 4v3.7c0 .9 0 1.7.2 2.4h-1.7zm-.2-5c-2 0-4.2.3-4.2 2.2 0 1.2.8 1.7 1.7 1.7 1.3 0 2.1-.8 2.4-1.7.1-.2.1-.4.1-.6v-1.6zm4.6-2.2c0-1 0-1.9-.1-2.7h1.6l.1 1.6h.1c.5-.9 1.5-1.8 3.1-1.8 1.3 0 2.4.8 2.8 2 .3-.5.7-1 1.1-1.3.6-.4 1.2-.7 2.2-.7 1.3 0 3.2.9 3.2 4.3v5.8H799v-5.6c0-1.9-.7-3-2.1-3-1 0-1.8.8-2.1 1.6-.1.2-.1.6-.1.9v6.1h-1.8v-5.9c0-1.6-.7-2.7-2.1-2.7-1.1 0-1.9.9-2.2 1.8-.1.3-.1.6-.1.9v6h-1.8v-7.3zm29.9-7.3v11.9c0 .9 0 1.9.1 2.5H815l-.1-1.7c-.6 1.1-1.8 1.9-3.4 1.9-2.4 0-4.2-2-4.2-5 0-3.3 2-5.3 4.4-5.3 1.5 0 2.5.7 3 1.5v-5.9h1.9zm-1.8 8.7c0-.2 0-.5-.1-.8-.3-1.1-1.2-2.1-2.6-2.1-1.9 0-3 1.6-3 3.8 0 2 1 3.7 2.9 3.7 1.2 0 2.3-.8 2.6-2.1.1-.2.1-.5.1-.8V905zm5.7 1.2c0 2.4 1.6 3.4 3.4 3.4 1.3 0 2.1-.2 2.7-.5l.3 1.3c-.6.3-1.7.6-3.3.6-3 0-4.9-2-4.9-5s1.8-5.3 4.6-5.3c3.2 0 4.1 2.8 4.1 4.6 0 .4 0 .7-.1.8h-6.8zm5.3-1.3c0-1.1-.5-2.9-2.5-2.9-1.8 0-2.6 1.7-2.8 2.9h5.3zm6.1-6.8v2.8h2.6v1.4h-2.6v5.3c0 1.2.3 1.9 1.3 1.9.5 0 .8-.1 1-.1l.1 1.3c-.3.1-.9.2-1.6.2-.8 0-1.5-.3-1.9-.8-.5-.5-.7-1.4-.7-2.6v-5.4h-1.5V901h1.5v-2.4l1.8-.5zm5.5 8.1c0 2.4 1.6 3.4 3.4 3.4 1.3 0 2.1-.2 2.7-.5l.3 1.3c-.6.3-1.7.6-3.3.6-3 0-4.9-2-4.9-5s1.8-5.3 4.6-5.3c3.2 0 4.1 2.8 4.1 4.6 0 .4 0 .7-.1.8h-6.8zm5.2-1.3c0-1.1-.5-2.9-2.5-2.9-1.8 0-2.6 1.7-2.8 2.9h5.3zm4-.9c0-1.2 0-2.2-.1-3.1h1.6l.1 1.9h.1c.4-1.3 1.5-2.2 2.7-2.2.2 0 .3 0 .5.1v1.7c-.2 0-.4-.1-.6-.1-1.3 0-2.2 1-2.4 2.3 0 .2-.1.5-.1.8v5.3h-1.8V904zm6.8 0c0-1.2 0-2.2-.1-3.1h1.6l.1 1.9h.1c.4-1.3 1.5-2.2 2.7-2.2.2 0 .3 0 .5.1v1.7c-.2 0-.4-.1-.6-.1-1.3 0-2.2 1-2.4 2.3 0 .2-.1.5-.1.8v5.3h-1.8V904zm14.9 4.1c0 1 0 1.9.1 2.7h-1.6l-.1-1.6c-.5.8-1.5 1.8-3.3 1.8-1.5 0-3.4-.9-3.4-4.3V901h1.8v5.5c0 1.9.6 3.1 2.2 3.1 1.2 0 2-.8 2.4-1.6.1-.3.2-.6.2-.9V901h1.8v7.1zm5-9.9c0 .6-.4 1.1-1.1 1.1-.6 0-1.1-.5-1.1-1.1 0-.6.5-1.1 1.1-1.1.6 0 1.1.4 1.1 1.1zm-2 12.6V901h1.8v9.9h-1.8zm4.5-1.8c.5.3 1.5.7 2.4.7 1.3 0 1.9-.7 1.9-1.5 0-.9-.5-1.3-1.8-1.8-1.8-.6-2.6-1.6-2.6-2.8 0-1.6 1.3-2.9 3.4-2.9 1 0 1.9.3 2.4.6l-.4 1.3c-.4-.2-1.1-.6-2-.6-1.1 0-1.7.6-1.7 1.3 0 .8.6 1.2 1.9 1.7 1.7.7 2.6 1.5 2.6 3 0 1.7-1.3 3-3.7 3-1.1 0-2.1-.3-2.8-.7l.4-1.3zm8.1 0c.5.3 1.5.7 2.4.7 1.3 0 1.9-.7 1.9-1.5 0-.9-.5-1.3-1.8-1.8-1.8-.6-2.6-1.6-2.6-2.8 0-1.6 1.3-2.9 3.4-2.9 1 0 1.9.3 2.4.6l-.4 1.3c-.4-.2-1.1-.6-2-.6-1.1 0-1.7.6-1.7 1.3 0 .8.6 1.2 1.9 1.7 1.7.7 2.6 1.5 2.6 3 0 1.7-1.3 3-3.7 3-1.1 0-2.1-.3-2.8-.7l.4-1.3zm9.3-2.8c0 2.4 1.6 3.4 3.4 3.4 1.3 0 2.1-.2 2.7-.5l.3 1.3c-.6.3-1.7.6-3.3.6-3 0-4.9-2-4.9-5s1.8-5.3 4.6-5.3c3.2 0 4.1 2.8 4.1 4.6 0 .4 0 .7-.1.8h-6.8zm5.2-1.3c0-1.1-.5-2.9-2.5-2.9-1.8 0-2.6 1.7-2.8 2.9h5.3zm6.2-6.8v2.8h2.6v1.4h-2.6v5.3c0 1.2.3 1.9 1.3 1.9.5 0 .8-.1 1-.1l.1 1.3c-.3.1-.9.2-1.6.2-.8 0-1.5-.3-1.9-.8-.5-.5-.7-1.4-.7-2.6v-5.4h-1.5V901h1.5v-2.4l1.8-.5zm8.9-1.8h1.8v6.2c.3-.5.7-1 1.3-1.3.5-.3 1.2-.5 1.8-.5 1.3 0 3.4.8 3.4 4.2v5.9H920v-5.7c0-1.6-.6-2.9-2.3-2.9-1.2 0-2.1.8-2.4 1.8-.1.2-.1.5-.1.9v6h-1.8v-14.6zm16.8 14.5l-.1-1.2h-.1c-.5.8-1.6 1.5-3 1.5-2 0-3-1.4-3-2.8 0-2.4 2.1-3.7 5.9-3.7v-.2c0-.8-.2-2.3-2.2-2.3-.9 0-1.9.3-2.6.7l-.4-1.2c.8-.5 2-.9 3.2-.9 3 0 3.8 2.1 3.8 4v3.7c0 .9 0 1.7.2 2.4h-1.7zm-.3-5c-2 0-4.2.3-4.2 2.2 0 1.2.8 1.7 1.7 1.7 1.3 0 2.1-.8 2.4-1.7.1-.2.1-.4.1-.6v-1.6zm4.4 3.2c.5.3 1.5.7 2.4.7 1.3 0 1.9-.7 1.9-1.5 0-.9-.5-1.3-1.8-1.8-1.8-.6-2.6-1.6-2.6-2.8 0-1.6 1.3-2.9 3.4-2.9 1 0 1.9.3 2.4.6l-.4 1.3c-.4-.2-1.1-.6-2-.6-1.1 0-1.7.6-1.7 1.3 0 .8.6 1.2 1.9 1.7 1.7.7 2.6 1.5 2.6 3 0 1.7-1.3 3-3.7 3-1.1 0-2.1-.3-2.8-.7l.4-1.3zm18.1 1.8l-.1-1.2h-.1c-.5.8-1.6 1.5-3 1.5-2 0-3-1.4-3-2.8 0-2.4 2.1-3.7 5.9-3.7v-.2c0-.8-.2-2.3-2.2-2.3-.9 0-1.9.3-2.6.7l-.4-1.2c.8-.5 2-.9 3.2-.9 3 0 3.8 2.1 3.8 4v3.7c0 .9 0 1.7.2 2.4h-1.7zm-.3-5c-2 0-4.2.3-4.2 2.2 0 1.2.8 1.7 1.7 1.7 1.3 0 2.1-.8 2.4-1.7.1-.2.1-.4.1-.6v-1.6zm13.2-9.5v11.9c0 .9 0 1.9.1 2.5h-1.6l-.1-1.7c-.6 1.1-1.8 1.9-3.4 1.9-2.4 0-4.2-2-4.2-5 0-3.3 2-5.3 4.4-5.3 1.5 0 2.5.7 3 1.5v-5.9h1.8zm-1.8 8.7c0-.2 0-.5-.1-.8-.3-1.1-1.2-2.1-2.6-2.1-1.9 0-3 1.6-3 3.8 0 2 1 3.7 2.9 3.7 1.2 0 2.3-.8 2.6-2.1.1-.2.1-.5.1-.8V905zM429.1 848.1h1.8v12.3h5.9v1.5h-7.6v-13.8zm18.2 8.8c0 3.7-2.5 5.2-4.9 5.2-2.7 0-4.7-2-4.7-5.1 0-3.3 2.2-5.2 4.9-5.2 2.8 0 4.7 2 4.7 5.1zm-7.8.1c0 2.2 1.2 3.8 3 3.8 1.7 0 3-1.6 3-3.8 0-1.7-.8-3.8-3-3.8-2.1-.1-3 1.9-3 3.8zm10.1-1.9c0-1.2 0-2.2-.1-3.1h1.6l.1 1.9h.1c.4-1.3 1.5-2.2 2.7-2.2.2 0 .3 0 .5.1v1.7c-.2 0-.4-.1-.6-.1-1.3 0-2.2 1-2.4 2.3 0 .2-.1.5-.1.8v5.3h-1.8v-6.7zm7.4 2.2c0 2.4 1.6 3.4 3.4 3.4 1.3 0 2.1-.2 2.7-.5l.3 1.3c-.6.3-1.7.6-3.3.6-3 0-4.9-2-4.9-5s1.8-5.3 4.6-5.3c3.2 0 4.1 2.8 4.1 4.6 0 .4 0 .7-.1.8H457zm5.3-1.3c0-1.1-.5-2.9-2.5-2.9-1.8 0-2.6 1.7-2.8 2.9h5.3zm3.9-1.3c0-1 0-1.9-.1-2.7h1.6l.1 1.6h.1c.6-.9 1.5-1.8 3.1-1.8 1.3 0 2.4.8 2.8 2 .3-.5.7-1 1.1-1.3.6-.4 1.2-.7 2.2-.7 1.3 0 3.2.9 3.2 4.3v5.8h-1.8v-5.6c0-1.9-.7-3-2.1-3-1 0-1.8.8-2.1 1.6-.1.2-.1.6-.1.9v6.1h-1.8V856c0-1.6-.7-2.7-2.1-2.7-1.1 0-1.9.9-2.2 1.8-.1.3-.1.6-.1.9v6h-1.8v-7.3zm23.4-5.5c0 .6-.4 1.1-1.1 1.1-.6 0-1.1-.5-1.1-1.1 0-.6.5-1.1 1.1-1.1.7 0 1.1.5 1.1 1.1zm-2 12.7V852h1.8v9.9h-1.8zm4.8-6.7c0-1.3 0-2.3-.1-3.2h1.6l.1 1.7c.7-1.2 1.9-1.9 3.5-1.9 2.4 0 4.2 2 4.2 5 0 3.5-2.2 5.3-4.5 5.3-1.3 0-2.4-.6-3-1.5v5.4h-1.8v-10.8zm1.7 2.7c0 .3 0 .5.1.7.3 1.2 1.4 2.1 2.7 2.1 1.9 0 3-1.5 3-3.8 0-2-1-3.7-2.9-3.7-1.2 0-2.4.9-2.7 2.2-.1.2-.1.5-.1.7v1.8zm9.6 2.1c.5.3 1.5.7 2.4.7 1.3 0 1.9-.7 1.9-1.5 0-.9-.5-1.3-1.8-1.8-1.8-.6-2.6-1.6-2.6-2.8 0-1.6 1.3-2.9 3.4-2.9 1 0 1.9.3 2.4.6l-.4 1.3c-.4-.2-1.1-.6-2-.6-1.1 0-1.7.6-1.7 1.3 0 .8.6 1.2 1.9 1.7 1.7.7 2.6 1.5 2.6 3 0 1.7-1.3 3-3.7 3-1.1 0-2.1-.3-2.8-.7l.4-1.3zm16.6-.8c0 1 0 1.9.1 2.7h-1.6l-.1-1.6c-.5.8-1.5 1.8-3.3 1.8-1.5 0-3.4-.9-3.4-4.3V852h1.8v5.5c0 1.9.6 3.1 2.2 3.1 1.2 0 2-.8 2.4-1.6.1-.3.2-.6.2-.9V852h1.8v7.2zm3-4.5c0-1 0-1.9-.1-2.7h1.6l.1 1.6h.1c.5-.9 1.5-1.8 3.1-1.8 1.3 0 2.4.8 2.8 2 .3-.5.7-1 1.1-1.3.6-.4 1.2-.7 2.2-.7 1.3 0 3.2.9 3.2 4.3v5.8h-1.8v-5.6c0-1.9-.7-3-2.1-3-1 0-1.8.8-2.1 1.6-.1.2-.1.6-.1.9v6.1h-1.8V856c0-1.6-.7-2.7-2.1-2.7-1.1 0-1.9.9-2.2 1.8-.1.3-.1.6-.1.9v6h-1.8v-7.3zm29.8-7.3v11.9c0 .9 0 1.9.1 2.5h-1.6l-.1-1.7c-.6 1.1-1.8 1.9-3.4 1.9-2.4 0-4.2-2-4.2-5 0-3.3 2-5.3 4.4-5.3 1.5 0 2.5.7 3 1.5v-5.9h1.8zm-1.8 8.6c0-.2 0-.5-.1-.8-.3-1.1-1.2-2.1-2.6-2.1-1.9 0-3 1.6-3 3.8 0 2 1 3.7 2.9 3.7 1.2 0 2.3-.8 2.6-2.1.1-.2.1-.5.1-.8V856zm13.7.9c0 3.7-2.5 5.2-4.9 5.2-2.7 0-4.7-2-4.7-5.1 0-3.3 2.2-5.2 4.9-5.2 2.8 0 4.7 2 4.7 5.1zm-7.8.1c0 2.2 1.2 3.8 3 3.8 1.7 0 3-1.6 3-3.8 0-1.7-.8-3.8-3-3.8-2.1-.1-3 1.9-3 3.8zm10.1-9.6h1.8v14.5h-1.8v-14.5zm13.8 9.5c0 3.7-2.5 5.2-4.9 5.2-2.7 0-4.7-2-4.7-5.1 0-3.3 2.2-5.2 4.9-5.2s4.7 2 4.7 5.1zm-7.9.1c0 2.2 1.2 3.8 3 3.8 1.7 0 3-1.6 3-3.8 0-1.7-.8-3.8-3-3.8-2.1-.1-3 1.9-3 3.8zm10.1-1.9c0-1.2 0-2.2-.1-3.1h1.6l.1 1.9h.1c.4-1.3 1.5-2.2 2.7-2.2.2 0 .3 0 .5.1v1.7c-.2 0-.4-.1-.6-.1-1.3 0-2.2 1-2.4 2.3 0 .2-.1.5-.1.8v5.3h-1.8v-6.7zm10.8 4.9c.5.3 1.5.7 2.4.7 1.3 0 1.9-.7 1.9-1.5 0-.9-.5-1.3-1.8-1.8-1.8-.6-2.6-1.6-2.6-2.8 0-1.6 1.3-2.9 3.4-2.9 1 0 1.9.3 2.4.6l-.4 1.3c-.4-.2-1.1-.6-2-.6-1.1 0-1.7.6-1.7 1.3 0 .8.6 1.2 1.9 1.7 1.7.7 2.6 1.5 2.6 3 0 1.7-1.3 3-3.7 3-1.1 0-2.1-.3-2.8-.7l.4-1.3zm10.3-10.8c0 .6-.4 1.1-1.1 1.1-.6 0-1.1-.5-1.1-1.1 0-.6.5-1.1 1.1-1.1.7 0 1.1.5 1.1 1.1zm-2 12.7V852h1.8v9.9h-1.8zm6.9-12.7v2.8h2.6v1.4h-2.6v5.3c0 1.2.3 1.9 1.3 1.9.5 0 .8-.1 1-.1l.1 1.3c-.3.1-.9.2-1.6.2-.8 0-1.5-.3-1.9-.8-.5-.5-.7-1.4-.7-2.6v-5.4H606V852h1.5v-2.4l1.8-.4zm14.4 12.7l-.1-1.2h-.1c-.6.8-1.6 1.5-3 1.5-2 0-3-1.4-3-2.8 0-2.4 2.1-3.7 5.9-3.7v-.2c0-.8-.2-2.3-2.2-2.3-.9 0-1.9.3-2.6.7l-.4-1.2c.8-.5 2-.9 3.2-.9 3 0 3.8 2.1 3.8 4v3.7c0 .9 0 1.7.2 2.4h-1.7zm-.3-5.1c-2 0-4.2.3-4.2 2.2 0 1.2.8 1.7 1.7 1.7 1.3 0 2.1-.8 2.4-1.7.1-.2.1-.4.1-.6v-1.6zm4.7-2.1c0-1 0-1.9-.1-2.7h1.6l.1 1.6h.1c.6-.9 1.5-1.8 3.1-1.8 1.3 0 2.4.8 2.8 2 .3-.5.7-1 1.1-1.3.6-.4 1.2-.7 2.2-.7 1.3 0 3.2.9 3.2 4.3v5.8h-1.8v-5.6c0-1.9-.7-3-2.1-3-1 0-1.8.8-2.1 1.6-.1.2-.1.6-.1.9v6.1h-1.8V856c0-1.6-.7-2.7-2.1-2.7-1.1 0-1.9.9-2.2 1.8-.1.3-.1.6-.1.9v6h-1.8v-7.3zm18 2.6c0 2.4 1.6 3.4 3.4 3.4 1.3 0 2.1-.2 2.7-.5l.3 1.3c-.6.3-1.7.6-3.3.6-3 0-4.9-2-4.9-5s1.8-5.3 4.6-5.3c3.2 0 4.1 2.8 4.1 4.6 0 .4 0 .7-.1.8h-6.8zm5.2-1.3c0-1.1-.5-2.9-2.5-2.9-1.8 0-2.6 1.7-2.8 2.9h5.3zm6.2-6.8v2.8h2.6v1.4h-2.6v5.3c0 1.2.3 1.9 1.3 1.9.5 0 .8-.1 1-.1l.1 1.3c-.3.1-.9.2-1.6.2-.8 0-1.5-.3-1.9-.8-.5-.5-.7-1.4-.7-2.6v-5.4h-1.5V852h1.5v-2.4l1.8-.4zM430 881.7c0 2.4 1.6 3.4 3.4 3.4 1.3 0 2.1-.2 2.7-.5l.3 1.3c-.6.3-1.7.6-3.3.6-3 0-4.9-2-4.9-5s1.8-5.3 4.6-5.3c3.2 0 4.1 2.8 4.1 4.6 0 .4 0 .7-.1.8H430zm5.3-1.2c0-1.1-.5-2.9-2.5-2.9-1.8 0-2.6 1.7-2.8 2.9h5.3zm12.2 3.2c0 1 0 1.9.1 2.7H446l-.1-1.6c-.5.8-1.5 1.8-3.3 1.8-1.5 0-3.4-.9-3.4-4.3v-5.8h1.8v5.5c0 1.9.6 3.1 2.2 3.1 1.2 0 2-.8 2.4-1.6.1-.3.2-.6.2-.9v-6.1h1.8v7.2zm16.2-2.4c0 3.7-2.5 5.2-4.9 5.2-2.7 0-4.7-2-4.7-5.1 0-3.3 2.2-5.2 4.9-5.2 2.8.1 4.7 2.1 4.7 5.1zm-7.8.1c0 2.2 1.2 3.8 3 3.8 1.7 0 3-1.6 3-3.8 0-1.7-.8-3.8-3-3.8s-3 2-3 3.8zm10.1-1.7c0-1.3 0-2.3-.1-3.2h1.6l.1 1.7c.7-1.2 1.9-1.9 3.5-1.9 2.4 0 4.2 2 4.2 5 0 3.5-2.2 5.3-4.5 5.3-1.3 0-2.4-.6-3-1.6v5.4H466v-10.7zm1.8 2.6c0 .3 0 .5.1.7.3 1.2 1.4 2.1 2.7 2.1 1.9 0 3-1.5 3-3.8 0-2-1-3.7-2.9-3.7-1.2 0-2.4.9-2.7 2.2-.1.2-.1.5-.1.7v1.8zm12-8.7v2.8h2.6v1.4h-2.6v5.3c0 1.2.3 1.9 1.3 1.9.5 0 .8-.1 1-.1l.1 1.3c-.3.1-.9.2-1.6.2-.8 0-1.5-.3-1.9-.8-.5-.5-.7-1.4-.7-2.6v-5.4h-1.5v-1.4h1.5v-2.4l1.8-.2zm6.6.1c0 .6-.4 1.1-1.1 1.1-.6 0-1.1-.5-1.1-1.1 0-.6.5-1.1 1.1-1.1.6 0 1.1.5 1.1 1.1zm-2 12.6v-9.9h1.8v9.9h-1.8zm13.7-5c0 3.7-2.5 5.2-4.9 5.2-2.7 0-4.7-2-4.7-5.1 0-3.3 2.2-5.2 4.9-5.2 2.7.1 4.7 2.1 4.7 5.1zm-7.9.1c0 2.2 1.2 3.8 3 3.8 1.7 0 3-1.6 3-3.8 0-1.7-.8-3.8-3-3.8s-3 2-3 3.8zm10.1-2.3c0-1 0-1.9-.1-2.7h1.6l.1 1.6c.5-.9 1.6-1.9 3.3-1.9 1.4 0 3.5.8 3.5 4.2v5.9h-1.8v-5.7c0-1.6-.6-2.9-2.3-2.9-1.2 0-2.1.8-2.4 1.8-.1.2-.1.5-.1.8v5.9h-1.8v-7zm15.4 5.4c.5.3 1.5.7 2.4.7 1.3 0 1.9-.7 1.9-1.5 0-.9-.5-1.3-1.8-1.8-1.8-.6-2.6-1.6-2.6-2.8 0-1.6 1.3-2.9 3.4-2.9 1 0 1.9.3 2.4.6l-.4 1.3c-.4-.2-1.1-.6-2-.6-1.1 0-1.7.6-1.7 1.3 0 .8.6 1.2 1.9 1.7 1.7.7 2.6 1.5 2.6 3 0 1.7-1.3 3-3.7 3-1.1 0-2.1-.3-2.8-.7l.4-1.3zm9.3-2.8c0 2.4 1.6 3.4 3.4 3.4 1.3 0 2.1-.2 2.7-.5l.3 1.3c-.6.3-1.7.6-3.3.6-3 0-4.9-2-4.9-5s1.8-5.3 4.6-5.3c3.2 0 4.1 2.8 4.1 4.6 0 .4 0 .7-.1.8H525zm5.3-1.2c0-1.1-.5-2.9-2.5-2.9-1.8 0-2.6 1.7-2.8 2.9h5.3zm4-1.4c0-1 0-1.9-.1-2.7h1.6l.1 1.6c.5-.9 1.6-1.9 3.3-1.9 1.4 0 3.5.8 3.5 4.2v5.9h-1.8v-5.7c0-1.6-.6-2.9-2.3-2.9-1.2 0-2.1.8-2.4 1.8-.1.2-.1.5-.1.8v5.9h-1.8v-7zm11 5.4c.5.3 1.5.7 2.4.7 1.3 0 1.9-.7 1.9-1.5 0-.9-.5-1.3-1.8-1.8-1.8-.6-2.6-1.6-2.6-2.8 0-1.6 1.3-2.9 3.4-2.9 1 0 1.9.3 2.4.6l-.4 1.3c-.4-.2-1.1-.6-2-.6-1.1 0-1.7.6-1.7 1.3 0 .8.6 1.2 1.9 1.7 1.7.7 2.6 1.5 2.6 3 0 1.7-1.3 3-3.7 3-1.1 0-2.1-.3-2.8-.7l.4-1.3zm10.4-10.8c0 .6-.4 1.1-1.1 1.1-.6 0-1.1-.5-1.1-1.1 0-.6.5-1.1 1.1-1.1.6 0 1.1.5 1.1 1.1zm-2 12.6v-9.9h1.8v9.9h-1.8zm4.7 0c0-.7.1-1.7.1-2.5v-11.9h1.8v6.2c.6-1.1 1.8-1.8 3.4-1.8 2.4 0 4.2 2 4.2 5 0 3.5-2.2 5.3-4.4 5.3-1.4 0-2.6-.6-3.3-1.9h-.2l-.1 1.6h-1.5zm1.8-3.9c0 .2 0 .4.1.7.3 1.2 1.4 2.1 2.7 2.1 1.9 0 3-1.5 3-3.8 0-2-1-3.7-2.9-3.7-1.2 0-2.4.8-2.7 2.2 0 .2-.1.4-.1.7v1.8zm18.1 1.3c0 1 0 1.9.1 2.7h-1.6l-.1-1.6c-.5.8-1.5 1.8-3.3 1.8-1.5 0-3.4-.9-3.4-4.3v-5.8h1.8v5.5c0 1.9.6 3.1 2.2 3.1 1.2 0 2-.8 2.4-1.6.1-.3.2-.6.2-.9v-6.1h1.8v7.2zm2.7.8c.5.3 1.5.7 2.4.7 1.3 0 1.9-.7 1.9-1.5 0-.9-.5-1.3-1.8-1.8-1.8-.6-2.6-1.6-2.6-2.8 0-1.6 1.3-2.9 3.4-2.9 1 0 1.9.3 2.4.6l-.4 1.3c-.4-.2-1.1-.6-2-.6-1.1 0-1.7.6-1.7 1.3 0 .8.6 1.2 1.9 1.7 1.7.7 2.6 1.5 2.6 3 0 1.7-1.3 3-3.7 3-1.1 0-2.1-.3-2.8-.7l.4-1.3zm12.7-5.4c0-1 0-1.9-.1-2.7h1.6l.1 1.6h.1c.6-.9 1.5-1.8 3.1-1.8 1.3 0 2.4.8 2.8 2 .3-.6.7-1 1.1-1.3.6-.4 1.2-.7 2.2-.7 1.3 0 3.2.9 3.2 4.3v5.8H606v-5.6c0-1.9-.7-3-2.1-3-1 0-1.8.8-2.1 1.6-.1.2-.1.6-.1.9v6.1h-1.8v-5.9c0-1.6-.7-2.7-2.1-2.7-1.1 0-1.9.9-2.2 1.8-.1.3-.1.6-.1.9v6h-1.8v-7.3zm18 2.6c0 2.4 1.6 3.4 3.4 3.4 1.3 0 2.1-.2 2.7-.5l.3 1.3c-.6.3-1.7.6-3.3.6-3 0-4.9-2-4.9-5s1.8-5.3 4.6-5.3c3.2 0 4.1 2.8 4.1 4.6 0 .4 0 .7-.1.8h-6.8zm5.3-1.2c0-1.1-.5-2.9-2.5-2.9-1.8 0-2.6 1.7-2.8 2.9h5.3zm3.9-8.6h1.8v14.5h-1.8v-14.5zm10.3 14.4l-.1-1.2h-.1c-.5.8-1.6 1.5-3 1.5-2 0-3-1.4-3-2.8 0-2.4 2.1-3.7 5.9-3.7v-.2c0-.8-.2-2.3-2.2-2.3-.9 0-1.9.3-2.6.7l-.4-1.2c.8-.5 2-.9 3.2-.9 3 0 3.8 2.1 3.8 4v3.7c0 .9 0 1.7.2 2.4h-1.7zm-.3-5c-2 0-4.2.3-4.2 2.2 0 1.2.8 1.7 1.7 1.7 1.3 0 2.1-.8 2.4-1.7.1-.2.1-.4.1-.6v-1.6zm13.2-9.4v11.9c0 .9 0 1.9.1 2.5h-1.6l-.1-1.7c-.6 1.1-1.8 1.9-3.4 1.9-2.4 0-4.2-2-4.2-5 0-3.3 2-5.3 4.4-5.3 1.5 0 2.5.7 3 1.5v-5.9h1.8zm-1.8 8.6c0-.2 0-.5-.1-.8-.3-1.1-1.2-2.1-2.6-2.1-1.9 0-3 1.6-3 3.8 0 2 1 3.7 2.9 3.7 1.2 0 2.3-.8 2.6-2.1.1-.2.1-.5.1-.8v-1.7zm10.2 5.8l-.1-1.2h-.1c-.5.8-1.6 1.5-3 1.5-2 0-3-1.4-3-2.8 0-2.4 2.1-3.7 5.9-3.7v-.2c0-.8-.2-2.3-2.2-2.3-.9 0-1.9.3-2.6.7l-.4-1.2c.8-.5 2-.9 3.2-.9 3 0 3.8 2.1 3.8 4v3.7c0 .9 0 1.7.2 2.4h-1.7zm-.2-5c-2 0-4.2.3-4.2 2.2 0 1.2.8 1.7 1.7 1.7 1.3 0 2.1-.8 2.4-1.7.1-.2.1-.4.1-.6v-1.6zm5.6.4c0 2.4 1.6 3.4 3.4 3.4 1.3 0 2.1-.2 2.7-.5l.3 1.3c-.6.3-1.7.6-3.3.6-3 0-4.9-2-4.9-5s1.8-5.3 4.6-5.3c3.2 0 4.1 2.8 4.1 4.6 0 .4 0 .7-.1.8h-6.8zm5.2-1.2c0-1.1-.5-2.9-2.5-2.9-1.8 0-2.6 1.7-2.8 2.9h5.3zm-228.6 30.3l-.1-1.2h-.1c-.5.8-1.6 1.5-3 1.5-2 0-3-1.4-3-2.8 0-2.4 2.1-3.7 5.9-3.7v-.2c0-.8-.2-2.3-2.2-2.3-.9 0-1.9.3-2.6.7l-.4-1.2c.8-.5 2-.9 3.2-.9 3 0 3.8 2.1 3.8 4v3.7c0 .9 0 1.7.2 2.4h-1.7zm-.3-5c-2 0-4.2.3-4.2 2.2 0 1.2.8 1.7 1.7 1.7 1.3 0 2.1-.8 2.4-1.7.1-.2.1-.4.1-.6v-1.6zm4.7-1.6c0-1.3 0-2.3-.1-3.2h1.6l.1 1.7c.7-1.2 1.9-1.9 3.5-1.9 2.4 0 4.2 2 4.2 5 0 3.5-2.2 5.3-4.5 5.3-1.3 0-2.4-.6-3-1.5v5.4h-1.8v-10.8zm1.7 2.6c0 .3 0 .5.1.7.3 1.2 1.4 2.1 2.7 2.1 1.9 0 3-1.5 3-3.8 0-2-1-3.7-2.9-3.7-1.2 0-2.4.9-2.7 2.2-.1.2-.1.5-.1.7v1.8zm10.9-.6c0 2.4 1.6 3.4 3.4 3.4 1.3 0 2.1-.2 2.7-.5l.3 1.3c-.6.3-1.7.6-3.3.6-3 0-4.9-2-4.9-5s1.8-5.3 4.6-5.3c3.2 0 4.1 2.8 4.1 4.6 0 .4 0 .7-.1.8h-6.8zm5.2-1.3c0-1.1-.5-2.9-2.5-2.9-1.8 0-2.6 1.7-2.8 2.9h5.3zm4-.9c0-1.2 0-2.2-.1-3.1h1.6l.1 1.9h.1c.4-1.3 1.5-2.2 2.7-2.2.2 0 .3 0 .5.1v1.7c-.2 0-.4-.1-.6-.1-1.3 0-2.2 1-2.4 2.3 0 .2-.1.5-.1.8v5.3h-1.8V904zm8.7-5.8c0 .6-.4 1.1-1.1 1.1-.6 0-1.1-.5-1.1-1.1 0-.6.5-1.1 1.1-1.1.7 0 1.1.4 1.1 1.1zm-2 12.6V901h1.8v9.9h-1.8zm10.3 0l-.1-1.2h-.1c-.6.8-1.6 1.5-3 1.5-2 0-3-1.4-3-2.8 0-2.4 2.1-3.7 5.9-3.7v-.2c0-.8-.2-2.3-2.2-2.3-.9 0-1.9.3-2.6.7l-.4-1.2c.8-.5 2-.9 3.2-.9 3 0 3.8 2.1 3.8 4v3.7c0 .9 0 1.7.2 2.4h-1.7zm-.3-5c-2 0-4.2.3-4.2 2.2 0 1.2.8 1.7 1.7 1.7 1.3 0 2.1-.8 2.4-1.7.1-.2.1-.4.1-.6v-1.6zm4.6-2.2c0-1 0-1.9-.1-2.7h1.6l.1 1.6h.1c.5-.9 1.5-1.8 3.1-1.8 1.3 0 2.4.8 2.8 2 .3-.5.7-1 1.1-1.3.6-.4 1.2-.7 2.2-.7 1.3 0 3.2.9 3.2 4.3v5.8h-1.8v-5.6c0-1.9-.7-3-2.1-3-1 0-1.8.8-2.1 1.6-.1.2-.1.6-.1.9v6.1h-1.8v-5.9c0-1.6-.7-2.7-2.1-2.7-1.1 0-1.9.9-2.2 1.8-.1.3-.1.6-.1.9v6H482v-7.3zm29.9-7.3v11.9c0 .9 0 1.9.1 2.5h-1.6l-.1-1.7c-.6 1.1-1.8 1.9-3.4 1.9-2.4 0-4.2-2-4.2-5 0-3.3 2-5.3 4.4-5.3 1.5 0 2.5.7 3 1.5v-5.9h1.8zm-1.8 8.7c0-.2 0-.5-.1-.8-.3-1.1-1.2-2.1-2.6-2.1-1.9 0-3 1.6-3 3.8 0 2 1 3.7 2.9 3.7 1.2 0 2.3-.8 2.6-2.1.1-.2.1-.5.1-.8V905zm5.8 1.2c0 2.4 1.6 3.4 3.4 3.4 1.3 0 2.1-.2 2.7-.5l.3 1.3c-.6.3-1.7.6-3.3.6-3 0-4.9-2-4.9-5s1.8-5.3 4.6-5.3c3.2 0 4.1 2.8 4.1 4.6 0 .4 0 .7-.1.8h-6.8zm5.2-1.3c0-1.1-.5-2.9-2.5-2.9-1.8 0-2.6 1.7-2.8 2.9h5.3zm6.2-6.8v2.8h2.6v1.4h-2.6v5.3c0 1.2.3 1.9 1.3 1.9.5 0 .8-.1 1-.1l.1 1.3c-.3.1-.9.2-1.6.2-.8 0-1.5-.3-1.9-.8-.5-.5-.7-1.4-.7-2.6v-5.4H524V901h1.5v-2.4l1.8-.5zm5.4 8.1c0 2.4 1.6 3.4 3.4 3.4 1.3 0 2.1-.2 2.7-.5l.3 1.3c-.6.3-1.7.6-3.3.6-3 0-4.9-2-4.9-5s1.8-5.3 4.6-5.3c3.2 0 4.1 2.8 4.1 4.6 0 .4 0 .7-.1.8h-6.8zm5.3-1.3c0-1.1-.5-2.9-2.5-2.9-1.8 0-2.6 1.7-2.8 2.9h5.3zm3.9-.9c0-1.2 0-2.2-.1-3.1h1.6l.1 1.9h.1c.4-1.3 1.5-2.2 2.7-2.2.2 0 .3 0 .5.1v1.7c-.2 0-.4-.1-.6-.1-1.3 0-2.2 1-2.4 2.3 0 .2-.1.5-.1.8v5.3h-1.8V904zm6.8 0c0-1.2 0-2.2-.1-3.1h1.6l.1 1.9h.1c.4-1.3 1.5-2.2 2.7-2.2.2 0 .3 0 .5.1v1.7c-.2 0-.4-.1-.6-.1-1.3 0-2.2 1-2.4 2.3 0 .2-.1.5-.1.8v5.3h-1.8V904zm14.9 4.1c0 1 0 1.9.1 2.7h-1.6l-.1-1.6c-.5.8-1.5 1.8-3.3 1.8-1.5 0-3.4-.9-3.4-4.3V901h1.8v5.5c0 1.9.6 3.1 2.2 3.1 1.2 0 2-.8 2.4-1.6.1-.3.2-.6.2-.9V901h1.8v7.1zm5-9.9c0 .6-.4 1.1-1.1 1.1-.6 0-1.1-.5-1.1-1.1 0-.6.5-1.1 1.1-1.1.7 0 1.1.4 1.1 1.1zm-2 12.6V901h1.8v9.9h-1.8zm4.5-1.8c.5.3 1.5.7 2.4.7 1.3 0 1.9-.7 1.9-1.5 0-.9-.5-1.3-1.8-1.8-1.8-.6-2.6-1.6-2.6-2.8 0-1.6 1.3-2.9 3.4-2.9 1 0 1.9.3 2.4.6l-.4 1.3c-.4-.2-1.1-.6-2-.6-1.1 0-1.7.6-1.7 1.3 0 .8.6 1.2 1.9 1.7 1.7.7 2.6 1.5 2.6 3 0 1.7-1.3 3-3.7 3-1.1 0-2.1-.3-2.8-.7l.4-1.3zm8.1 0c.5.3 1.5.7 2.4.7 1.3 0 1.9-.7 1.9-1.5 0-.9-.5-1.3-1.8-1.8-1.8-.6-2.6-1.6-2.6-2.8 0-1.6 1.3-2.9 3.4-2.9 1 0 1.9.3 2.4.6l-.4 1.3c-.4-.2-1.1-.6-2-.6-1.1 0-1.7.6-1.7 1.3 0 .8.6 1.2 1.9 1.7 1.7.7 2.6 1.5 2.6 3 0 1.7-1.3 3-3.7 3-1.1 0-2.1-.3-2.8-.7l.4-1.3zm9.3-2.8c0 2.4 1.6 3.4 3.4 3.4 1.3 0 2.1-.2 2.7-.5l.3 1.3c-.6.3-1.7.6-3.3.6-3 0-4.9-2-4.9-5s1.8-5.3 4.6-5.3c3.2 0 4.1 2.8 4.1 4.6 0 .4 0 .7-.1.8h-6.8zm5.3-1.3c0-1.1-.5-2.9-2.5-2.9-1.8 0-2.6 1.7-2.8 2.9h5.3zm6.1-6.8v2.8h2.6v1.4h-2.6v5.3c0 1.2.3 1.9 1.3 1.9.5 0 .8-.1 1-.1l.1 1.3c-.3.1-.9.2-1.6.2-.8 0-1.5-.3-1.9-.8-.5-.5-.7-1.4-.7-2.6v-5.4h-1.5V901h1.5v-2.4l1.8-.5zm8.9-1.8h1.8v6.2c.3-.5.7-1 1.3-1.3.5-.3 1.2-.5 1.8-.5 1.3 0 3.4.8 3.4 4.2v5.9h-1.8v-5.7c0-1.6-.6-2.9-2.3-2.9-1.2 0-2.1.8-2.4 1.8-.1.2-.1.5-.1.9v6h-1.8v-14.6zm16.8 14.5l-.1-1.2h-.1c-.5.8-1.6 1.5-3 1.5-2 0-3-1.4-3-2.8 0-2.4 2.1-3.7 5.9-3.7v-.2c0-.8-.2-2.3-2.2-2.3-.9 0-1.9.3-2.6.7l-.4-1.2c.8-.5 2-.9 3.2-.9 3 0 3.8 2.1 3.8 4v3.7c0 .9 0 1.7.2 2.4h-1.7zm-.3-5c-2 0-4.2.3-4.2 2.2 0 1.2.8 1.7 1.7 1.7 1.3 0 2.1-.8 2.4-1.7.1-.2.1-.4.1-.6v-1.6zm4.4 3.2c.5.3 1.5.7 2.4.7 1.3 0 1.9-.7 1.9-1.5 0-.9-.5-1.3-1.8-1.8-1.8-.6-2.6-1.6-2.6-2.8 0-1.6 1.3-2.9 3.4-2.9 1 0 1.9.3 2.4.6l-.4 1.3c-.4-.2-1.1-.6-2-.6-1.1 0-1.7.6-1.7 1.3 0 .8.6 1.2 1.9 1.7 1.7.7 2.6 1.5 2.6 3 0 1.7-1.3 3-3.7 3-1.1 0-2.1-.3-2.8-.7l.4-1.3zm18.1 1.8l-.1-1.2h-.1c-.6.8-1.6 1.5-3 1.5-2 0-3-1.4-3-2.8 0-2.4 2.1-3.7 5.9-3.7v-.2c0-.8-.2-2.3-2.2-2.3-.9 0-1.9.3-2.6.7l-.4-1.2c.8-.5 2-.9 3.2-.9 3 0 3.8 2.1 3.8 4v3.7c0 .9 0 1.7.2 2.4h-1.7zm-.2-5c-2 0-4.2.3-4.2 2.2 0 1.2.8 1.7 1.7 1.7 1.3 0 2.1-.8 2.4-1.7.1-.2.1-.4.1-.6v-1.6zm13.1-9.5v11.9c0 .9 0 1.9.1 2.5h-1.6l-.1-1.7c-.6 1.1-1.8 1.9-3.4 1.9-2.4 0-4.2-2-4.2-5 0-3.3 2-5.3 4.4-5.3 1.5 0 2.5.7 3 1.5v-5.9h1.8zm-1.8 8.7c0-.2 0-.5-.1-.8-.3-1.1-1.2-2.1-2.6-2.1-1.9 0-3 1.6-3 3.8 0 2 1 3.7 2.9 3.7 1.2 0 2.3-.8 2.6-2.1.1-.2.1-.5.1-.8V905z" fill="#fff"/><path d="M958.9 295.3h134.8v4.8H958.9v-4.8zm173.1 0h28.7v4.8H1132v-4.8zm-173.1 19.4h81.7v4.8h-81.7v-4.8zm-820.8 39.8h84.7v4.8h-84.7v-4.8zM119.2 374h31.6v4.8h-31.6V374zm1067.1-42.5h28.7v4.8h-28.7v-4.8zm14.3 20.1h14.3v4.8h-14.3v-4.8zM119.2 167.9H254v4.8H119.2v-4.8zm401.2 99.2h28.7v4.8h-28.7v-4.8zm-401.2-79.8h81.7v4.8h-81.7v-4.8zm455.5 116h28.7v4.8h-28.7v-4.8zm14.3 20.1h14.3v4.8H589v-4.8zM135 801.3h106v4.8H135v-4.8zm81.8 36.2h69.3v4.8h-69.3v-4.8zm55 20.1h14.3v4.8h-14.3v-4.8zm794.3 34.4h107.3v4.8h-107.3V892zm137.7 0h22.8v4.8h-22.8V892z" class="st21" fill="#f7b248"/><path class="st22" d="M1101.3 576.6H950.1c-.6 0-1-.4-1-1s.4-1 1-1h149.2v-36.1c0-.6.4-1 1-1s1 .4 1 1v38.1zm-76.5 169.3h-72.6c-.6 0-1-.4-1-1s.4-1 1-1h72.6c.6 0 1 .4 1 1 0 .5-.4 1-1 1zM795.1 499.7c-.6 0-1-.4-1-1v-76.1c0-.6.4-1 1-1s1 .4 1 1v76.1c0 .6-.4 1-1 1zm-204.3 0c-.6 0-1-.4-1-1v-45.1c0-.6.4-1 1-1s1 .4 1 1v45.1c0 .6-.5 1-1 1zM467.5 493c-.6 0-1-.4-1-1V360.3h-51.3c-.6 0-1-.4-1-1s.4-1 1-1h53.3V492c0 .5-.5 1-1 1zm-42.7 59.6H315.6c-.6 0-1-.4-1-1s.4-1 1-1h109.2c.6 0 1 .4 1 1s-.5 1-1 1zm0 167.8h-134c-.6 0-1-.4-1-1s.4-1 1-1h134c.6 0 1 .4 1 1s-.5 1-1 1z" fill="#c53c36"/><path d="M960.6 407.3l-70.5.2.1 52.1 70.5-.2z" class="st3" fill="#27daed"/><path d="M890.194 452.396l70.5-.189.019 7.2-70.5.189-.02-7.2zM930.5 431.4l-11.8 6.5c-.5.3-1.2-.1-1.2-.7v-13c0-.6.6-1 1.2-.7l11.9 6.5c.5.3.5 1.1-.1 1.4z" class="st23" fill="#3b5b99"/><path class="st23" d="M924 417.5c-7.1-.4-13.1 5.1-13.5 12.2s5.1 13.1 12.2 13.5c7.1.4 13.1-5.1 13.5-12.2.4-7.1-5.1-13.1-12.2-13.5zm-1.2 24.1c-6.2-.3-11-5.6-10.7-11.8.3-6.2 5.6-11 11.8-10.7 6.2.3 11 5.6 10.7 11.8-.3 6.2-5.6 11-11.8 10.7z" fill="#3b5b99"/><path d="M1303 572.1l.2 76.3-82.8.1-.2-108.3 48.4-.1" class="st2" fill="#fff"/><path d="M1268.6 540.1l.1 32.1 34.3-.1" class="st24" fill="#d7dbde"/><path d="M1226.498 591.322l19.4-.041.01 4.2-19.4.04-.01-4.2zm0 9.418l37-.078.01 4.2-37 .078-.01-4.2zm0 9.13l64.2-.136.01 4.2-64.2.135-.01-4.2zm45.9-9.25l18.4-.038.01 4.2-18.4.039-.01-4.2zm-19-9.385l32.4-.068.01 4.2-32.4.068-.01-4.2z" class="st25" fill="#0085c9"/><g><path d="M134.442 247.609l119.288-1.236.909 87.691L135.35 335.3l-.909-87.691z" class="st2" fill="#fff"/><path d="M138.557 252.566l111.09-1.151.677 65.393-111.09 1.151-.677-65.393z" class="st3" fill="#27daed"/><path d="M142.4 318l30.7-33 21.4 32.4z" class="st26" fill="#39abc7"/><path d="M168.8 317.7l48.1-51.6 33.5 50.8zm-5.3-48.7a7 7 0 0 1-7 7 7 7 0 0 1-7-7 7 7 0 0 1 7-7 7 7 0 0 1 7 7z" class="st26" fill="#39abc7"/></g><g><path d="M343.1 229.6h152.6v-73.3H343.1l25.7 36.7zm681.7 0H872.2v-73.3h152.6L999.1 193z" class="st4" fill="#c53b37"/><path d="M872.2 229.6l70.9-29.4h-70.9z" class="st13" fill="#781d17"/><path d="M424.8 91.5h518.9v108.7H424.8V91.5z" class="st4" fill="#c53b37"/><path d="M495.7 229.6l-70.9-29.4h70.9z" class="st13" fill="#781d17"/><path class="st2" d="M518.6 144.6h-.2l-4.4 41.9h-17l-8.8-78.7h12l6.5 62.1h.2l5.8-62.1h11.9l6.1 62.5h.2l6.3-62.5H548l-8.8 78.7H523l-4.4-41.9zm34.7-17.9c0-12.6 6.6-19.8 18.8-19.8s18.8 7.2 18.8 19.8v40.9c0 12.6-6.6 19.8-18.8 19.8s-18.8-7.2-18.8-19.8v-40.9zm12.4 41.7c0 5.6 2.5 7.8 6.4 7.8 3.9 0 6.4-2.1 6.4-7.8v-42.5c0-5.6-2.5-7.8-6.4-7.8-3.9 0-6.4 2.1-6.4 7.8v42.5zm59 18.1c-.7-2-1.1-3.3-1.1-9.7v-12.4c0-7.3-2.5-10-8.1-10h-4.3v32.1h-12.4v-78.7h18.7c12.8 0 18.3 6 18.3 18.1v6.2c0 8.1-2.6 13.3-8.1 15.9v.2c6.2 2.6 8.2 8.4 8.2 16.6V177c0 3.8.1 6.6 1.3 9.6h-12.5zm-13.5-67.4v24.2h4.8c4.6 0 7.4-2 7.4-8.3v-7.8c0-5.6-1.9-8.1-6.3-8.1h-5.9zm49.1 36.1l-3.8 7.2v24.2h-12.4v-78.7h12.4V142h.2l16-34.1H685L667.8 143l17.2 43.6h-12.7l-12-31.4zm67-27.9v10.2c0 12.6-6.1 19.5-18.4 19.5H703v29.6h-12.4v-78.7h18.2c12.4-.1 18.5 6.8 18.5 19.4zm-24.3-8.2v26.7h5.8c3.9 0 6.1-1.8 6.1-7.4v-11.8c0-5.6-2.1-7.4-6.1-7.4H703zm30-11.3h12.4v67.5h20.4v11.2H733v-78.7zm78.2 78.7h-12.5l-2.1-14.3h-15.2l-2.1 14.3h-11.4l12.6-78.7h18.1l12.6 78.7zm-28.3-24.9h11.9l-5.8-39.8h-.2l-5.9 39.8zm69.8-4.4v10.5c0 12.6-6.3 19.8-18.4 19.8-12.1 0-18.4-7.2-18.4-19.8v-40.9c0-12.6 6.3-19.8 18.4-19.8 12.1 0 18.4 7.2 18.4 19.8v7.6H841V126c0-5.6-2.5-7.8-6.4-7.8-3.9 0-6.4 2.1-6.4 7.8v42.5c0 5.6 2.5 7.6 6.4 7.6 3.9 0 6.4-2 6.4-7.6v-11.2h11.7zm19.9-16.2h17v11.2h-17v23.1H894v11.2h-33.7v-78.7H894V119h-21.4v22z" fill="#fff"/></g></svg>